<svg xmlns="http://www.w3.org/2000/svg" version="1.1" xmlns:xlink="http://www.w3.org/1999/xlink" xmlns:svgjs="http://svgjs.dev/svgjs" generator="Plateit 3.0.0" viewBox="0 0 520 111" preserveAspectRatio="xMidYMid meet"><rect width="520" height="111" rx="3" ry="3" fill="url(#SvgjsLinearGradient1000)" class="do-not-print" id="Background"></rect><defs><linearGradient x1="0" y1="0" x2="0" y2="1" id="SvgjsLinearGradient1000"><stop stop-opacity="1" stop-color="lightgray" offset="0"></stop><stop stop-opacity="1" stop-color="gray" offset="1"></stop></linearGradient><mask id="RegistrationRegCutMask"><rect width="520" height="111" fill="white" x="0" y="0" id="RegistrationWhiteRectangle"></rect><path d="M77 16L77 16L91 16L91 92.2L91 95L77 95L76.80000000000001 95L55 48.8L55 95L41 95L41 16L55 16L77 62.6L77 16ZM152 55.8L152 77.3L151.9 77.3L152 77.3Q151.9 81 150.45 84.2Q149 87.4 146.6 89.8Q144.2 92.2 140.95 93.6Q137.7 95 134 95L134 95L120 95Q116.30000000000001 95 113 93.6Q109.69999999999999 92.2 107.25 89.75Q104.80000000000001 87.3 103.4 84Q102 80.7 102 77L102 77L102 34Q102 30.299999999999997 103.4 27Q104.80000000000001 23.700000000000003 107.25 21.25Q109.69999999999999 18.799999999999997 113 17.400000000000006Q116.30000000000001 16 120 16L120 16L134 16Q137.7 16 140.95 17.400000000000006Q144.2 18.799999999999997 146.65 21.25Q149.1 23.700000000000003 150.55 26.950000000000003Q152 30.200000000000003 152 33.9L152 33.9L138 39L138 34Q138 32.3 136.8 31.15Q135.6 30 134 30L134 30L120 30Q118.30000000000001 30 117.15 31.15Q116 32.3 116 34L116 34L116 77Q116 78.7 117.15 79.85000000000001Q118.30000000000001 81 120 81L120 81L134 81Q135.6 81 136.8 79.85000000000001Q138 78.7 138 77L138 77L138 72.2L138 69.5L127 69.5L127 55.5L152 55.5L152 55.8ZM193.6 66.4L193.6 66.4Q187.9 70.2 184 73.5Q180.1 76.8 178.3 81L178.3 81L213 81L213 95L163 95L163 88Q163 84.2 163.7 81L163.7 81Q164.3 78.3 165.2 76L165.2 76Q167.3 70.89999999999999 171 66.7L171 66.7Q174.3 62.9 178.2 60.05Q182.1 57.2 185.8 54.7L185.8 54.7Q188.7 52.7 191.35 50.85Q194 49 195.9 47L195.9 47Q197.6 45.3 198.3 43.65Q199 42 199 40L199 40L199 34Q199 32.3 197.85 31.15Q196.7 30 195 30L195 30L181 30Q179.3 30 178.15 31.15Q177 32.3 177 34L177 34L177 39L163 33.9Q163 30.200000000000003 164.45 26.950000000000003Q165.9 23.700000000000003 168.35 21.25Q170.8 18.799999999999997 174.05 17.400000000000006Q177.3 16 181 16L181 16L195 16Q198.7 16 202 17.400000000000006Q205.3 18.799999999999997 207.75 21.25Q210.2 23.700000000000003 211.6 27Q213 30.299999999999997 213 34L213 34L213 40Q213 44.8 211 49.4L211 49.4Q209.3 53.2 206.1 56.6L206.1 56.6Q203.5 59.5 200.2 61.8Q196.9 64.1 193.6 66.4ZM274 30L246.3 30L242.1 48.5L256 48.5Q259.7 48.5 263 49.9Q266.3 51.3 268.75 53.75Q271.2 56.2 272.6 59.5Q274 62.8 274 66.5L274 66.5L274 77Q274 80.7 272.6 84Q271.2 87.3 268.75 89.75Q266.3 92.2 263 93.6Q259.7 95 256 95L256 95L242 95Q238.3 95 235.05 93.6Q231.8 92.2 229.4 89.8Q227 87.4 225.55 84.2Q224.1 81 224 77.3L224 77.3L238 72.2L238 77Q238 78.7 239.15 79.85000000000001Q240.3 81 242 81L242 81L256 81Q257.7 81 258.85 79.85000000000001Q260 78.7 260 77L260 77L260 66.5Q260 64.8 258.85 63.65Q257.7 62.5 256 62.5L256 62.5L242 62.5Q240.8 62.5 239.8 63.15Q238.8 63.8 238.3 64.9L238.3 64.9L238 66.4L224.7 61.6Q224.8 61.4 224.8 61.25Q224.8 61.1 224.9 60.9L224.9 60.9L231.9 30L235.1 16L241.7 16L274 16L274 30ZM357 16L357 16L357 22.700000000000003L339.9 55.5L357 88.3L357 95L343 95L343 91.7L332 70.60000000000001L321 91.7L321 95L307 95L307 88.3L324.1 55.5L307 22.700000000000003L307 16L321 16L321 19.299999999999997L332 40.4L343 19.299999999999997L343 16L357 16ZM418 16L418 16L418 22.700000000000003L400 57.2L400 95L386 95L386 57.2L368 22.700000000000003L368 16L382 16L382 19.299999999999997L393 40.4L404 19.299999999999997L404 16L418 16ZM479 29.599999999999994L479 29.599999999999994L445.7 81L479 81L479 95L429 95L429 81L462.1 30L429 30L429 16L471.1 16L474 16L479 16L479 19.299999999999997L479 29.599999999999994Z " id="RegistrationText" fill="black"></path></mask></defs><path d="M8 5H512A3 3 0 0 1 515 8V103A3 3 0 0 1 512 106H8A3 3 0 0 1 5 103V8A3 3 0 0 1 8 5 " stroke-width="0" stroke="black" fill="black" id="Border" mask="url(#RegistrationRegCutMask)"></path></svg>