<svg xmlns="http://www.w3.org/2000/svg" viewBox="0 0 639 179">
  <path id="plate" fill="#ff0" d="M620.837 0 C628.142 0,634.775 3.773,637.704 10.58 C639.291 14.294,639.541 18.444,638.41 22.322 C637.387 25.779,636.469 29.305,635.516 32.796 C634.07 38.121,632.623 43.446,631.106 48.77 C627.259 62.417,623.096 75.993,618.297 89.324 C615.051 98.387,611.487 107.379,607.393 116.089 C602.03 127.479,595.502 138.376,586.716 147.509 C570.167 164.647,548.96 171.806,525.707 174.38 C519.991 175.015,514.204 175.368,508.488 175.721 C500.725 176.178,492.962 176.496,485.164 176.742 C466.215 177.412,447.267 177.801,428.319 178.118 C403.794 178.506,379.272 178.753,354.747 178.894 C343.597 178.964,332.448 179,321.297 179 C320.698 179,320.099 179,319.5 179 C318.901 179,318.302 179,317.703 179 C306.552 179,295.403 178.964,284.253 178.894 C259.728 178.753,235.206 178.506,210.681 178.118 C191.733 177.801,172.785 177.412,153.836 176.742 C146.038 176.496,138.275 176.178,130.512 175.721 C124.796 175.368,119.009 175.015,113.293 174.38 C90.04 171.806,68.833 164.647,52.284 147.509 C43.498 138.376,36.97 127.479,31.607 116.089 C27.513 107.379,23.949 98.387,20.703 89.324 C15.904 75.993,11.741 62.417,7.894 48.77 C6.377 43.446,4.93 38.121,3.484 32.796 C2.531 29.305,1.613 25.779,0.59 22.322 C-0.541 18.444,-0.291 14.294,1.296 10.58 C4.225 3.773,10.858 0,18.163 0 L620.837 0 Z"/>
  <path id="border" fill="none" stroke="black" stroke-width="2" stroke-linejoin="round" stroke-linecap="round" d="M 515.754 170.241 L 513.311 170.408 L 513.311 170.407 L 510.816 170.567 L 510.816 170.568 L 508.355 170.721 L 508.355 170.72 L 505.859 170.863 L 503.397 170.994 L 500.92 171.119 L 498.423 171.235 L 498.423 171.236 L 495.953 171.344 L 493.455 171.446 L 493.455 171.447 L 490.983 171.541 L 490.983 171.54 L 488.485 171.629 L 485.996 171.713 L 483.498 171.797 L 483.496 171.797 L 480.997 171.882 L 478.51 171.964 L 478.51 171.963 L 476.012 172.042 L 473.519 172.118 L 471.026 172.191 L 468.533 172.261 L 466.038 172.329 L 463.543 172.395 L 461.053 172.458 L 461.053 172.457 L 458.554 172.518 L 456.061 172.576 L 453.563 172.633 L 451.068 172.688 L 448.573 172.741 L 446.077 172.792 L 443.58 172.842 L 441.084 172.89 L 438.587 172.937 L 436.089 172.983 L 433.593 173.027 L 431.094 173.071 L 428.598 173.113 L 426.104 173.152 L 423.605 173.191 L 421.109 173.228 L 416.115 173.3 L 416.115 173.299 L 413.616 173.333 L 411.116 173.367 L 406.12 173.431 L 403.623 173.462 L 401.125 173.492 L 398.627 173.521 L 396.129 173.549 L 393.631 173.576 L 388.633 173.628 L 386.138 173.652 L 383.638 173.676 L 381.14 173.699 L 376.142 173.743 L 371.146 173.783 L 368.648 173.802 L 363.65 173.838 L 361.152 173.855 L 358.656 173.87 L 358.654 173.87 L 356.155 173.886 L 353.657 173.901 L 348.659 173.929 L 346.163 173.941 L 343.665 173.952 L 341.167 173.962 L 338.669 173.971 L 336.171 173.979 L 331.175 173.991 L 328.679 173.995 L 326.181 173.998 L 321.185 174 L 316.191 174 L 311.195 173.996 L 308.697 173.992 L 306.199 173.987 L 303.701 173.981 L 301.205 173.974 L 296.209 173.956 L 293.711 173.945 L 291.213 173.933 L 288.715 173.92 L 286.217 173.906 L 281.219 173.876 L 276.221 173.844 L 273.723 173.827 L 271.225 173.809 L 268.727 173.79 L 266.227 173.77 L 263.73 173.75 L 261.232 173.729 L 258.734 173.707 L 253.738 173.661 L 248.74 173.611 L 246.242 173.585 L 243.744 173.558 L 241.245 173.53 L 238.749 173.502 L 233.753 173.442 L 231.253 173.41 L 228.756 173.378 L 226.258 173.345 L 223.76 173.311 L 221.26 173.276 L 221.26 173.277 L 218.764 173.241 L 216.267 173.204 L 213.769 173.166 L 211.275 173.127 L 208.778 173.085 L 206.28 173.042 L 203.782 172.998 L 201.285 172.953 L 198.789 172.907 L 196.292 172.859 L 193.796 172.81 L 191.299 172.759 L 188.803 172.707 L 186.308 172.653 L 183.814 172.597 L 181.317 172.538 L 178.818 172.478 L 178.818 172.479 L 176.329 172.417 L 173.834 172.352 L 171.338 172.285 L 168.845 172.216 L 166.352 172.144 L 163.86 172.069 L 161.361 171.991 L 161.361 171.992 L 158.874 171.911 L 156.379 171.827 L 153.881 171.741 L 153.873 171.741 L 151.384 171.659 L 148.898 171.572 L 146.4 171.479 L 143.916 171.38 L 141.446 171.275 L 141.446 171.274 L 138.948 171.16 L 136.467 171.039 L 133.989 170.909 L 131.535 170.772 L 129.039 170.62 L 126.572 170.465 L 124.078 170.299 L 121.612 170.121 L 119.189 169.927 L 116.774 169.711 L 114.287 169.459 L 111.933 169.188 L 109.518 168.872 L 107.125 168.52 L 104.734 168.126 L 102.373 167.695 L 99.983 167.212 L 97.675 166.697 L 95.359 166.131 L 93.032 165.508 L 90.721 164.833 L 88.465 164.116 L 86.257 163.356 L 84.009 162.516 L 81.811 161.629 L 79.65 160.687 L 77.524 159.69 L 75.401 158.619 L 73.361 157.513 L 71.307 156.319 L 69.318 155.081 L 67.369 153.783 L 65.482 152.439 L 63.581 150.994 L 61.764 149.52 L 59.992 147.988 L 58.275 146.409 L 56.614 144.783 L 54.966 143.068 L 53.404 141.34 L 51.858 139.531 L 50.368 137.687 L 48.922 135.8 L 47.529 133.884 L 46.186 131.942 L 44.858 129.925 L 43.593 127.911 L 42.347 125.833 L 41.171 123.783 L 39.974 121.606 L 38.847 119.47 L 37.773 117.352 L 36.711 115.179 L 35.653 112.935 L 34.635 110.712 L 33.638 108.475 L 32.663 106.227 L 31.707 103.967 L 30.77 101.696 L 29.85 99.415 L 28.949 97.127 L 28.065 94.83 L 27.206 92.553 L 27.207 92.553 L 26.34 90.208 L 26.339 90.208 L 25.507 87.909 L 25.508 87.909 L 24.667 85.555 L 23.846 83.221 L 23.047 80.908 L 23.048 80.908 L 22.244 78.54 L 22.243 78.54 L 21.466 76.215 L 21.467 76.215 L 20.686 73.84 L 19.923 71.484 L 19.169 69.122 L 18.433 66.779 L 18.434 66.779 L 17.695 64.391 L 16.976 62.036 L 16.255 59.642 L 16.254 59.642 L 15.551 57.279 L 15.552 57.279 L 14.848 54.881 L 14.155 52.494 L 14.154 52.494 L 13.473 50.119 L 13.474 50.119 L 12.791 47.714 L 12.111 45.312 L 11.441 42.919 L 10.779 40.534 L 10.78 40.534 L 10.118 38.123 L 10.117 38.123 L 9.46 35.718 L 8.804 33.309 L 8.151 30.905 L 8.152 30.905 L 7.499 28.491 L 6.846 26.078 L 6.838 26.052 L 6.172 23.642 L 6.159 23.595 L 5.507 21.321 L 5.055 19.365 L 4.906 17.584 L 5.011 15.815 L 5.371 14.065 L 5.972 12.4 L 6.809 10.836 L 7.852 9.428 L 9.1 8.181 L 10.525 7.126 L 12.103 6.274 L 13.815 5.633 L 15.625 5.215 L 17.564 5.016 L 19.825 5 L 620.69 5 L 622.722 5.122 L 624.567 5.462 L 626.311 6.024 L 627.941 6.805 L 629.425 7.791 L 630.732 8.968 L 631.847 10.322 L 632.763 11.844 L 633.446 13.473 L 633.891 15.196 L 634.086 16.966 L 634.026 18.741 L 633.694 20.597 L 633.076 22.76 L 633.068 22.79 L 632.396 25.198 L 632.388 25.228 L 631.731 27.64 L 631.727 27.652 L 631.076 30.066 L 631.077 30.066 L 630.425 32.468 L 630.424 32.468 L 629.769 34.877 L 629.113 37.283 L 628.455 39.684 L 627.792 42.081 L 627.124 44.475 L 626.447 46.875 L 625.768 49.272 L 625.767 49.272 L 625.086 51.658 L 624.391 54.06 L 623.699 56.43 L 622.994 58.811 L 622.281 61.187 L 621.559 63.561 L 620.823 65.951 L 620.824 65.951 L 620.09 68.299 L 619.342 70.66 L 619.341 70.66 L 618.575 73.04 L 618.576 73.04 L 617.814 75.37 L 617.032 77.722 L 617.031 77.722 L 616.241 80.065 L 615.438 82.404 L 614.622 84.74 L 613.792 87.075 L 612.955 89.399 L 612.094 91.746 L 611.241 94.026 L 611.24 94.026 L 610.362 96.325 L 609.466 98.617 L 608.538 100.939 L 607.623 103.174 L 606.674 105.438 L 605.705 107.69 L 604.695 109.977 L 603.706 112.16 L 602.677 114.366 L 601.591 116.615 L 600.539 118.718 L 599.399 120.909 L 598.258 123.014 L 597.077 125.103 L 595.838 127.202 L 594.589 129.224 L 593.289 131.233 L 591.952 133.2 L 590.57 135.134 L 589.118 137.064 L 587.677 138.881 L 586.141 140.714 L 584.593 142.46 L 582.983 144.175 L 581.315 145.842 L 579.611 147.443 L 577.84 149.008 L 576.059 150.485 L 574.184 151.944 L 572.298 153.318 L 570.368 154.634 L 568.389 155.896 L 566.372 157.098 L 564.305 158.246 L 562.225 159.322 L 560.087 160.351 L 557.954 161.305 L 555.759 162.215 L 553.562 163.057 L 551.294 163.861 L 549.06 164.592 L 546.792 165.274 L 544.454 165.92 L 542.164 166.498 L 539.804 167.041 L 537.45 167.534 L 535.101 167.979 L 532.718 168.386 L 530.291 168.757 L 527.927 169.08 L 525.526 169.369 L 523.074 169.63 L 520.696 169.851 L 518.205 170.058 Z"/>
  <rect id="boundary" stroke="black" fill="none" stroke-width="1" stroke-dasharray="3,5" x="44" y="42" width="552" height="95"/>
</svg>