<svg xmlns="http://www.w3.org/2000/svg" viewBox="0 0 639 179">
    <path id="plate" fill="#ff0" d="M620.837 0 C628.142 0,634.775 3.773,637.704 10.58 C639.291 14.294,639.541 18.444,638.41 22.322 C637.387 25.779,636.469 29.305,635.516 32.796 C634.07 38.121,632.623 43.446,631.106 48.77 C627.259 62.417,623.096 75.993,618.297 89.324 C615.051 98.387,611.487 107.379,607.393 116.089 C602.03 127.479,595.502 138.376,586.716 147.509 C570.167 164.647,548.96 171.806,525.707 174.38 C519.991 175.015,514.204 175.368,508.488 175.721 C500.725 176.178,492.962 176.496,485.164 176.742 C466.215 177.412,447.267 177.801,428.319 178.118 C403.794 178.506,379.272 178.753,354.747 178.894 C343.597 178.964,332.448 179,321.297 179 C320.698 179,320.099 179,319.5 179 C318.901 179,318.302 179,317.703 179 C306.552 179,295.403 178.964,284.253 178.894 C259.728 178.753,235.206 178.506,210.681 178.118 C191.733 177.801,172.785 177.412,153.836 176.742 C146.038 176.496,138.275 176.178,130.512 175.721 C124.796 175.368,119.009 175.015,113.293 174.38 C90.04 171.806,68.833 164.647,52.284 147.509 C43.498 138.376,36.97 127.479,31.607 116.089 C27.513 107.379,23.949 98.387,20.703 89.324 C15.904 75.993,11.741 62.417,7.894 48.77 C6.377 43.446,4.93 38.121,3.484 32.796 C2.531 29.305,1.613 25.779,0.59 22.322 C-0.541 18.444,-0.291 14.294,1.296 10.58 C4.225 3.773,10.858 0,18.163 0 L620.837 0 Z"/>
    <rect id="boundary" stroke="black" fill="none" stroke-width="1" stroke-dasharray="3,5" x="54.5" y="29.5" width="530" height="120"/>
</svg>