<svg xmlns="http://www.w3.org/2000/svg" version="1.1" xmlns:xlink="http://www.w3.org/1999/xlink" xmlns:svgjs="http://svgjs.dev/svgjs" generator="Plateit 2.1.0" viewBox="0 0 639 179" preserveAspectRatio="xMidYMid meet"><path d="M321.3001956381292 0.030000000169473615H620.7643417969662C628.0670281648439 0.030000000169473615 634.6986514605707 3.803264730179129 637.6269266845018 10.609546072434087A17.449640063918128 17.453850214530352 0 0 1 638.3329930465563 22.35248209194187C637.3098968873754 25.808640533665983 636.3928106919024 29.33482244598943 635.4397211125287 32.82599262301321C633.9935851925134 38.15077739444518 632.547449272498 43.47556216587716 631.0303066786786 48.80034693730913C627.1849452592743 62.44692102182444 623.0225540427438 76.02347163574039 618.225103137963 89.35393976726445C614.9797981169053 98.41697753340642 611.4164632047239 107.40899149365477 607.3240785680003 116.11891090091726C601.9625746487737 127.50872856154555 595.4359612227576 138.40638125739 586.6521356449613 147.5394424941313C570.1075806485492 164.6771867556704 548.9055879069704 171.83558612151054 525.6584029410272 174.41044916897735C519.9438658407734 175.04466174554844 514.1583220667153 175.3977801044279 508.44378496646146 175.7508984633074C500.68305554784587 176.2080516927916 492.9223261292304 176.52615831637144 485.12559332671395 176.77224079876336C466.1818128309129 177.44246544592835 447.2380323351118 177.8305955401075 428.295251933308 178.14770182839308C403.77694749686736 178.5358319225722 379.2606432484211 178.7829147402584 354.7423388119805 178.92396201675135C343.5952911186958 178.99398548735067 332.4482434254111 179.02999755794465 321.30019563812914 179.02999755794465C308.00094566277477 179.02999755794465 294.7016956874204 178.958973752051 281.40244571206597 178.88895028145168C252.1576970446489 178.67687919906516 222.8779450873282 178.25373736958636 193.63419651390834 177.513489251822C178.64078730722218 177.12535915764283 163.61337490462967 176.66720559286438 148.61996569794348 175.99698094569933C135.35671910648992 175.4327918397276 122.09247242103908 174.72655512196863 108.86422911948902 173.74022452181234C89.74343198617572 172.29373968628903 72.28179079429066 165.55848214992767 57.53640489892106 153.25135702444814C45.47127091616611 143.2019886581499 35.982379070312426 130.0835916090124 29.561775608004172 115.76579254203777C26.845520311488716 109.6657479175418 24.48129810200325 103.24759666946599 22.295092624027262 96.9704926978831C19.47282736380392 88.96580967308532 16.826578647095563 80.85509110709425 14.286339894095102 72.74437254110319C11.076038162940975 62.44692102182445 8.007749779395539 52.11545810254032 5.150481229268642 41.71197104206831A462.3764580279378 462.48801760857754 0 0 1 2.010186077921616 29.68794080486893C1.3751263896715713 27.112077422107816 0.740066701421456 24.432179168741996 0.35203023049067694 21.787292650675845C-0.6350625447894234 15.229094461401372 0.4940435780993641 7.82261194258072 5.926554171130271 3.3801229007003166C8.748819431353617 1.0183312709143149 12.205144285829837 0.030000000169473615 15.803482487914739 0.030000000169473615Z " fill="yellow" class="do-not-print"></path><path d="M136.5 50L136.5 50L150.5 50L150.5 126.2L150.5 129L136.5 129L136.3 129L114.5 82.8L114.5 129L100.5 129L100.5 50L114.5 50L136.5 96.6L136.5 50ZM211.5 89.8L211.5 111.3L211.4 111.3L211.5 111.3Q211.4 115 209.95 118.2Q208.5 121.4 206.1 123.8Q203.7 126.2 200.45 127.6Q197.2 129 193.5 129L193.5 129L179.5 129Q175.8 129 172.5 127.6Q169.2 126.2 166.75 123.75Q164.3 121.3 162.9 118Q161.5 114.7 161.5 111L161.5 111L161.5 68Q161.5 64.3 162.9 61Q164.3 57.7 166.75 55.25Q169.2 52.8 172.5 51.400000000000006Q175.8 50 179.5 50L179.5 50L193.5 50Q197.2 50 200.45 51.400000000000006Q203.7 52.8 206.15 55.25Q208.6 57.7 210.05 60.95Q211.5 64.2 211.5 67.9L211.5 67.9L197.5 73L197.5 68Q197.5 66.3 196.3 65.15Q195.1 64 193.5 64L193.5 64L179.5 64Q177.8 64 176.65 65.15Q175.5 66.3 175.5 68L175.5 68L175.5 111Q175.5 112.7 176.65 113.85000000000001Q177.8 115 179.5 115L179.5 115L193.5 115Q195.1 115 196.3 113.85000000000001Q197.5 112.7 197.5 111L197.5 111L197.5 106.2L197.5 103.5L186.5 103.5L186.5 89.5L211.5 89.5L211.5 89.8ZM253.1 100.4L253.1 100.4Q247.4 104.2 243.5 107.5Q239.6 110.8 237.8 115L237.8 115L272.5 115L272.5 129L222.5 129L222.5 122Q222.5 118.2 223.2 115L223.2 115Q223.8 112.3 224.7 110L224.7 110Q226.8 104.89999999999999 230.5 100.7L230.5 100.7Q233.8 96.9 237.7 94.05Q241.6 91.2 245.3 88.7L245.3 88.7Q248.2 86.7 250.85 84.85Q253.5 83 255.4 81L255.4 81Q257.1 79.3 257.8 77.65Q258.5 76 258.5 74L258.5 74L258.5 68Q258.5 66.3 257.35 65.15Q256.2 64 254.5 64L254.5 64L240.5 64Q238.8 64 237.65 65.15Q236.5 66.3 236.5 68L236.5 68L236.5 73L222.5 67.9Q222.5 64.2 223.95 60.95Q225.4 57.7 227.85 55.25Q230.3 52.8 233.55 51.400000000000006Q236.8 50 240.5 50L240.5 50L254.5 50Q258.2 50 261.5 51.400000000000006Q264.8 52.8 267.25 55.25Q269.7 57.7 271.1 61Q272.5 64.3 272.5 68L272.5 68L272.5 74Q272.5 78.8 270.5 83.4L270.5 83.4Q268.8 87.2 265.6 90.6L265.6 90.6Q263 93.5 259.7 95.8Q256.4 98.1 253.1 100.4ZM333.5 64L305.8 64L301.6 82.5L315.5 82.5Q319.2 82.5 322.5 83.9Q325.8 85.3 328.25 87.75Q330.7 90.2 332.1 93.5Q333.5 96.8 333.5 100.5L333.5 100.5L333.5 111Q333.5 114.7 332.1 118Q330.7 121.3 328.25 123.75Q325.8 126.2 322.5 127.6Q319.2 129 315.5 129L315.5 129L301.5 129Q297.8 129 294.55 127.6Q291.3 126.2 288.9 123.8Q286.5 121.4 285.05 118.2Q283.6 115 283.5 111.3L283.5 111.3L297.5 106.2L297.5 111Q297.5 112.7 298.65 113.85000000000001Q299.8 115 301.5 115L301.5 115L315.5 115Q317.2 115 318.35 113.85000000000001Q319.5 112.7 319.5 111L319.5 111L319.5 100.5Q319.5 98.8 318.35 97.65Q317.2 96.5 315.5 96.5L315.5 96.5L301.5 96.5Q300.3 96.5 299.3 97.15Q298.3 97.8 297.8 98.9L297.8 98.9L297.5 100.4L284.2 95.6Q284.3 95.4 284.3 95.25Q284.3 95.1 284.4 94.9L284.4 94.9L291.4 64L294.6 50L301.2 50L333.5 50L333.5 64ZM416.5 50L416.5 50L416.5 56.7L399.4 89.5L416.5 122.3L416.5 129L402.5 129L402.5 125.7L391.5 104.60000000000001L380.5 125.7L380.5 129L366.5 129L366.5 122.3L383.6 89.5L366.5 56.7L366.5 50L380.5 50L380.5 53.3L391.5 74.4L402.5 53.3L402.5 50L416.5 50ZM477.5 50L477.5 50L477.5 56.7L459.5 91.2L459.5 129L445.5 129L445.5 91.2L427.5 56.7L427.5 50L441.5 50L441.5 53.3L452.5 74.4L463.5 53.3L463.5 50L477.5 50ZM538.5 63.599999999999994L538.5 63.599999999999994L505.2 115L538.5 115L538.5 129L488.5 129L488.5 115L521.6 64L488.5 64L488.5 50L530.6 50L533.5 50L538.5 50L538.5 53.3L538.5 63.599999999999994Z " fill="black"></path><path d="M288.12383287150817 170.41982663936955L287.7372007241234 170.41982663936955L287.34156666411036 169.39990993858507L286.0538430626345 169.39990993858507L285.6604594807785 170.41982663936955L285.2823791503906 170.41982663936955L286.53949624893033 167.1935411533929L286.8757176855967 167.1935411533929L288.12383287150817 170.41982663936955ZM286.1789696481676 169.06818945823284L287.2294928518882 169.06818945823284L286.85366299965744 168.05502419191959Q286.8406102263464 168.01541577635516 286.8109039146731 167.92539665007232Q286.7811976029997 167.83537752378948 286.75059110006356 167.73860696303544Q286.719534501496 167.6418364022814 286.6997302937138 167.58242377893475L286.6997302937138 167.58242377893475Q286.6781257034059 167.67244290521757 286.6524702524153 167.76156184023756Q286.6272648970561 167.85068077525756 286.60340982859117 167.92629684133516Q286.57910466449476 168.00236300304414 286.5615509348696 168.05502419191959L286.5615509348696 168.05502419191959L286.1789696481676 169.06818945823284ZM289.9417691267899 167.49015417449482L289.9417691267899 167.49015417449482Q289.67576260862415 167.49015417449482 289.46376756622806 167.5815235876719Q289.2513224282006 167.67244290521757 289.1032409654653 167.8452796276806Q288.9547094070987 168.01766625451222 288.87549257596976 168.26161808673868Q288.7967258404723 168.50556991896514 288.7967258404723 168.81118485269536L288.7967258404723 168.81118485269536Q288.7967258404723 169.21537072970528 288.92275261726826 169.51333403770144Q289.0492294896956 169.8108472500662 289.30083294765615 169.97378186863813Q289.5524364056167 170.1362663915786 289.93051673600456 170.1362663915786L289.93051673600456 170.1362663915786Q290.1461125434519 170.1362663915786 290.3360528999087 170.1002587410655Q290.52599325636544 170.06380099492094 290.70648160456255 170.00888932788843L290.70648160456255 170.00888932788843L290.70648160456255 170.33430846940084Q290.5304942126796 170.4000224315873 290.3369530911715 170.4319792214177Q290.14386206529485 170.4639360112481 289.8778555471291 170.4639360112481L289.8778555471291 170.4639360112481Q289.3877014045191 170.4639360112481 289.05913159358676 170.26049278584892Q288.73056178265443 170.05704956044974 288.56672697281965 169.68572066453305Q288.40334225861636 169.31439176861636 288.40334225861636 168.8089343745383L288.40334225861636 168.8089343745383Q288.40334225861636 168.44390681746142 288.5055139669473 168.14189264878252Q288.60768567527833 167.8398784801036 288.80437746620635 167.61978171634212Q289.0010692571343 167.400135048212 289.28778017434513 167.28040961025584Q289.57449109155596 167.16068417229968 289.94581998747265 167.16068417229968L289.94581998747265 167.16068417229968Q290.1897718196991 167.16068417229968 290.4161699223004 167.208844404861Q290.6425680249017 167.25745473305372 290.82485675562447 167.34747385933656L290.82485675562447 167.34747385933656L290.67542500599495 167.66389108822068Q290.52194239568274 167.59367616972008 290.33830337806575 167.54191517210745Q290.1546643604488 167.49015417449482 289.9417691267899 167.49015417449482ZM293.12169476273084 170.41982663936955L292.81607982900067 170.41982663936955L291.73720060050096 167.57612244009493L291.7196468708758 167.57612244009493Q291.72819868787263 167.66614156637775 291.7349501223439 167.79576910822504Q291.7417015568151 167.92539665007232 291.7457524174978 168.0779790691217Q291.750253373812 168.2310115838025 291.750253373812 168.38899515042888L291.750253373812 168.38899515042888L291.750253373812 170.41982663936955L291.40322964199163 170.41982663936955L291.40322964199163 167.20659392670393L291.95684726863107 167.20659392670393L292.97451349125845 169.87926178604113L292.98981674272653 169.87926178604113L294.022786216822 167.20659392670393L294.5723529827787 167.20659392670393L294.5723529827787 170.41982663936955L294.2028244693876 170.41982663936955L294.2028244693876 168.36288960380688Q294.2028244693876 168.21975919301718 294.2073254257018 168.07572859096464Q294.21182638201594 167.93214808454354 294.21857781648714 167.8034207339591Q294.22487915532696 167.67469338337463 294.23163058979816 167.58017330077766L294.23163058979816 167.58017330077766L294.214076860173 167.58017330077766L293.12169476273084 170.41982663936955ZM297.2400697901703 170.09035663717435L297.2400697901703 170.41982663936955L295.4513897509305 170.41982663936955L295.4513897509305 167.20659392670393L297.2400697901703 167.20659392670393L297.2400697901703 167.5365140245305L295.82496912500426 167.5365140245305L295.82496912500426 168.57578483746576L297.15905257651576 168.57578483746576L297.15905257651576 168.90120397897817L295.82496912500426 168.90120397897817L295.82496912500426 170.09035663717435L297.2400697901703 170.09035663717435ZM301.63345324840384 167.20659392670393L301.63345324840384 170.41982663936955L301.2027117291405 170.41982663936955L299.4509395316766 167.7210532334103L299.4333858020515 167.7210532334103Q299.4401372365227 167.82862608931828 299.44913914915094 167.9659052568996Q299.4576909661478 168.10363452011234 299.4630921137248 168.2584674173188Q299.4689433569332 168.41330031452526 299.4689433569332 168.5735343593087L299.4689433569332 168.5735343593087L299.4689433569332 170.41982663936955L299.1214695294815 170.41982663936955L299.1214695294815 167.20659392670393L299.54996057058776 167.20659392670393L301.2949813335804 169.89681551566628L301.31028458504846 169.89681551566628Q301.30623372436577 169.81984916269448 301.2994822898945 169.678069038799Q301.2927308554233 169.53628891490354 301.28732970784637 169.3724541050688Q301.28192856026936 169.20906939086547 301.28192856026936 169.06818945823284L301.28192856026936 169.06818945823284L301.28192856026936 167.20659392670393L301.63345324840384 167.20659392670393ZM304.07747252698266 168.01091482004102L304.4443004665852 168.01091482004102L304.4443004665852 170.41982663936955L304.1454369673262 170.41982663936955L304.09277577845074 170.0813547245461L304.0729715706685 170.0813547245461Q303.9982556958538 170.20648131007923 303.87943044916045 170.2924495756793Q303.76105529809854 170.377967745648 303.61252373973184 170.42072683063236Q303.4644422769966 170.4639360112481 303.29700670211054 170.4639360112481L303.29700670211054 170.4639360112481Q303.01164607179396 170.4639360112481 302.8181049502859 170.37166640680823Q302.6245638287778 170.27894670673692 302.5268930767609 170.08585568086022Q302.42922232474405 169.89231455935214 302.42922232474405 169.588950103779L302.42922232474405 169.588950103779L302.42922232474405 168.01091482004102L302.79830074250367 168.01091482004102L302.79830074250367 169.562844557157Q302.79830074250367 169.86395853457304 302.93467971882217 170.0120399973083Q303.0706085995092 170.16057155567498 303.3501179866174 170.16057155567498L303.3501179866174 170.16057155567498Q303.61792488730885 170.16057155567498 303.77725874082944 170.0593000386068Q303.93659259435003 169.95847861717004 304.00725760848206 169.76178682624203Q304.07747252698266 169.56509503531407 304.07747252698266 169.27928430936606L304.07747252698266 169.27928430936606L304.07747252698266 168.01091482004102ZM307.8312700929767 167.96725554379384L307.8312700929767 167.96725554379384Q308.22870453551536 167.96725554379384 308.4312475696517 168.17474962987575Q308.63334050815666 168.3826938115891 308.63334050815666 168.84179135563153L308.63334050815666 168.84179135563153L308.63334050815666 170.41982663936955L308.2728139073939 170.41982663936955L308.2728139073939 168.85934508525668Q308.2728139073939 168.5672330204689 308.14633703496656 168.4209519402593Q308.0203102581706 168.2746708600497 307.77185746963 168.2746708600497L307.77185746963 168.2746708600497Q307.4221331640212 168.2746708600497 307.26414959739486 168.47721389418606Q307.105715935137 168.679306832691 307.105715935137 169.07269041454697L307.105715935137 169.07269041454697L307.105715935137 170.41982663936955L306.74338895184866 170.41982663936955L306.74338895184866 168.85934508525668Q306.74338895184866 168.66400358122291 306.6871269979219 168.53437603937567Q306.63131513962657 168.40429840189697 306.52014151866723 168.33948463097335Q306.40896789770795 168.2746708600497 306.24018203592766 168.2746708600497L306.24018203592766 168.2746708600497Q306.0002810643839 168.2746708600497 305.8553502710686 168.37369189896083Q305.7104194777532 168.4727129378719 305.64560570682954 168.66715425064285Q305.58079193590595 168.86159556341374 305.58079193590595 169.14515581120466L305.58079193590595 169.14515581120466L305.58079193590595 170.41982663936955L305.215764378829 170.41982663936955L305.215764378829 168.01091482004102L305.5101269217739 168.01091482004102L305.56503858880643 168.35163721302152L305.58484279658865 168.35163721302152Q305.65775828887774 168.22651062748838 305.76758162294277 168.1409924575197Q305.87740495700785 168.05502419191959 306.01378393332635 168.01091482004102Q306.1497128140134 167.96725554379384 306.30364551995706 167.96725554379384L306.30364551995706 167.96725554379384Q306.5782038551197 167.96725554379384 306.76409335089375 168.06942725212485Q306.94998284666775 168.17159896045587 307.03325053847936 168.38044333343203L307.03325053847936 168.38044333343203L307.0530547462616 168.38044333343203Q307.1718799929549 168.17159896045587 307.378473887774 168.06942725212485Q307.5850677825931 167.96725554379384 307.8312700929767 167.96725554379384ZM309.38274973446124 167.00000003188484L309.7473271959067 167.00000003188484L309.7473271959067 167.8551817315717Q309.7473271959067 168.00236300304414 309.73967557017266 168.1409924575197Q309.7320239444386 168.27917181636383 309.7279730837559 168.35613816933565L309.7279730837559 168.35613816933565L309.7473271959067 168.35613816933565Q309.8463482348178 168.19365364639515 310.0331379218547 168.08157983417303Q310.21992760889157 167.9695060219509 310.51023929115365 167.9695060219509L310.51023929115365 167.9695060219509Q310.9630354963563 167.9695060219509 311.232192683942 168.28232248578374Q311.5013498715276 168.59558904524798 311.5013498715276 169.2131202515482L311.5013498715276 169.2131202515482Q311.5013498715276 169.6200067023466 311.3784737641516 169.89906599382334Q311.2551475611441 170.17812528530013 311.03099993669986 170.3208056004584Q310.8068523122556 170.4639360112481 310.5012373785254 170.4639360112481L310.5012373785254 170.4639360112481Q310.2158767482088 170.4639360112481 310.0322377305919 170.35726334660296Q309.8485987129749 170.25059068195782 309.74957767406374 170.09665797601417L309.74957767406374 170.09665797601417L309.7212216492847 170.09665797601417L309.6465057744699 170.41982663936955L309.38274973446124 170.41982663936955L309.38274973446124 167.00000003188484ZM310.450826667807 168.2746708600497L310.450826667807 168.2746708600497Q310.1893211059554 168.2746708600497 310.03538840001175 168.3768425683807Q309.8814556940681 168.47901427671172 309.8143914449874 168.684707980268Q309.7473271959067 168.89040168382425 309.7473271959067 169.20456843455133L309.7473271959067 169.20456843455133L309.7473271959067 169.22437264233355Q309.7473271959067 169.67896923006185 309.89900942369326 169.91977039286843Q310.05069165147984 170.16057155567498 310.450826667807 170.16057155567498L310.450826667807 170.16057155567498Q310.7870481044734 170.16057155567498 310.95538387062226 169.91436924529143Q311.12326954113973 169.6681669349079 311.12326954113973 169.21086977339112L311.12326954113973 169.21086977339112Q311.12326954113973 168.74502079487746 310.95718425314794 168.5100708752793Q310.79154906078753 168.2746708600497 310.450826667807 168.2746708600497ZM313.06408190379756 167.96725554379384L313.06408190379756 167.96725554379384Q313.3714972200534 167.96725554379384 313.59159398381496 168.10363452011234Q313.81124065194507 168.2395634007994 313.9278154204813 168.4848655199201Q314.04394009338614 168.72971754340938 314.04394009338614 169.0573871630789L314.04394009338614 169.0573871630789L314.04394009338614 169.28378526568022L312.38038663967944 169.28378526568022Q312.3871380741507 169.70777535047233 312.5914814908127 169.9296724967595Q312.79582490747475 170.15156964304668 313.1671538033914 170.15156964304668L313.1671538033914 170.15156964304668Q313.3958023841498 170.15156964304668 313.57178977603274 170.1101608449566Q313.74732707228424 170.06830195123507 313.9363672374782 169.98683464194912L313.9363672374782 169.98683464194912L313.9363672374782 170.3077528271474Q313.75407850675543 170.38922013643338 313.5749404454526 170.42657807384074Q313.3958023841498 170.4639360112481 313.1518505519233 170.4639360112481L313.1518505519233 170.4639360112481Q312.8043767244716 170.4639360112481 312.5464719276713 170.32215588735266Q312.28811703523957 170.18037576345722 312.1454367200813 169.90536733266316Q312.0023063092916 169.63080899750054 312.0023063092916 169.23292445933043L312.0023063092916 169.23292445933043Q312.0023063092916 168.8440418337886 312.1332841380331 168.55958139473483Q312.2638118711432 168.2746708600497 312.50236255579273 168.1211882497375Q312.7409132404422 167.96725554379384 313.06408190379756 167.96725554379384ZM313.0595809474834 168.2661190430528L313.0595809474834 168.2661190430528Q312.7670187870642 168.2661190430528 312.5937319689698 168.45740968640382Q312.41999505524393 168.64825023412345 312.3871380741507 168.991223105261L312.3871380741507 168.991223105261L313.66180890231556 168.991223105261Q313.6595584241585 168.77607739344506 313.59474465323484 168.6122425836103Q313.5299308823112 168.44840777377556 313.3980528623069 168.3570383605985Q313.2661748423025 168.2661190430528 313.0595809474834 168.2661190430528ZM315.75835435344266 167.96725554379384L315.75835435344266 167.96725554379384Q315.8308197501003 167.96725554379384 315.91003658122924 167.97490716952785Q315.9892534123581 167.98255879526192 316.0504664182304 167.99561156857294L316.0504664182304 167.99561156857294L316.0045566638262 168.33408348339637Q315.94514404047953 168.3187802319283 315.87267864382187 168.3097783193Q315.80021324716415 168.3012265023031 315.7362996675034 168.3012265023031L315.7362996675034 168.3012265023031Q315.591368874188 168.3012265023031 315.46264152360357 168.35928883875556Q315.3343642686505 168.4178012708394 315.2375937078965 168.52627431801022Q315.14082314714244 168.63519746081244 315.0859114801099 168.78822997549324Q315.0309998130774 168.94081239454263 315.0309998130774 169.1276020815795L315.0309998130774 169.1276020815795L315.0309998130774 170.41982663936955L314.6637217778434 170.41982663936955L314.6637217778434 168.01091482004102L314.9670862334166 168.01091482004102L315.006694648981 168.45515920824676L315.0219979004491 168.45515920824676Q315.0967137752639 168.32103071008535 315.2024862486462 168.20985708912605Q315.3078086263971 168.09913356379818 315.4473382721355 168.0329695059803Q315.58686791787386 167.96725554379384 315.75835435344266 167.96725554379384ZM317.7275227408796 167.20659392670393L318.56695109346697 167.20659392670393Q319.1889832560813 167.20659392670393 319.47569417329214 167.44964556766757Q319.7624050905029 167.69224711299978 319.7624050905029 168.14504331820243L319.7624050905029 168.14504331820243Q319.7624050905029 168.34938673486442 319.69579093705363 168.53302575248142Q319.6287266879729 168.7166647700984 319.4792949383434 168.8561944158368Q319.32986318871394 168.99572406157517 319.0868115477503 169.07584108396688Q318.84375990678666 169.15595810635858 318.4922352186522 169.15595810635858L318.4922352186522 169.15595810635858L318.1011021149533 169.15595810635858L318.1011021149533 170.41982663936955L317.7275227408796 170.41982663936955L317.7275227408796 167.20659392670393ZM318.53184363421667 167.52526163374512L318.53184363421667 167.52526163374512L318.1011021149533 167.52526163374512L318.1011021149533 168.83503992116033L318.4503763249307 168.83503992116033Q318.758241736818 168.83503992116033 318.96393544037426 168.76932595897387Q319.1691790482991 168.70361199678737 319.2727010435243 168.5550804384207Q319.3757729431182 168.40654888005406 319.3757729431182 168.16034656967048L319.3757729431182 168.16034656967048Q319.3757729431182 167.8398784801036 319.17142952645617 167.68234500910867Q318.96708610979414 167.52526163374512 318.53184363421667 167.52526163374512ZM320.74721433203706 167.00000003188484L320.74721433203706 170.41982663936955L320.38038639243456 170.41982663936955L320.38038639243456 167.00000003188484L320.74721433203706 167.00000003188484ZM322.417519220215 167.97175650010797L322.417519220215 167.97175650010797Q322.84826073947835 167.97175650010797 323.0571051124545 168.16484752598464Q323.26594948543067 168.35838864749275 323.26594948543067 168.78237873228485L323.26594948543067 168.78237873228485L323.26594948543067 170.41982663936955L322.99994296726493 170.41982663936955L322.9297280487643 170.06380099492094L322.9121743191391 170.06380099492094Q322.810902802071 170.1956790149253 322.7010794680059 170.2847979499453Q322.5912561339409 170.37346678933386 322.4472255318883 170.4189264481067Q322.3031949298358 170.4639360112481 322.09435055685964 170.4639360112481L322.09435055685964 170.4639360112481Q321.8747038887295 170.4639360112481 321.70411764442355 170.3869696582763Q321.533981495749 170.31000330530446 321.4363107437322 170.15382012120375Q321.33818989608386 169.99763693710304 321.33818989608386 169.7581860611907L321.33818989608386 169.7581860611907Q321.33818989608386 169.397659460428 321.6240006220319 169.20456843455133Q321.9098113479798 169.01102731304326 322.4944855731868 168.9934735834181L322.4944855731868 168.9934735834181L322.90992384098206 168.97591985379296L322.90992384098206 168.8287385823205Q322.90992384098206 168.5163722141191 322.77579534282063 168.39124562858598Q322.64166684465926 168.2661190430528 322.3977150124328 168.2661190430528L322.3977150124328 168.2661190430528Q322.20867484723885 168.2661190430528 322.03718841167006 168.32103071008535Q321.86570197610126 168.3759423771179 321.712219365789 168.45065825193262L321.712219365789 168.45065825193262L321.59969545793547 168.17384943861293Q321.76263007650743 168.09013165116988 321.97372492764066 168.03071902782324Q322.18436968314245 167.97175650010797 322.417519220215 167.97175650010797ZM322.9054228846679 169.4548216056176L322.9054228846679 169.23292445933043L322.538144849434 169.24822771079852Q322.08759912238844 169.26623153605505 321.9030599135086 169.39585907790234Q321.7185207046288 169.5254866197496 321.7185207046288 169.76268701750487L321.7185207046288 169.76268701750487Q321.7185207046288 169.96928091232397 321.8436472901619 170.06830195123507Q321.9692239713265 170.16687289451477 322.1758178661456 170.16687289451477L322.1758178661456 170.16687289451477Q322.4967360513439 170.16687289451477 322.7010794680059 169.98908512010618Q322.9054228846679 169.8108472500662 322.9054228846679 169.4548216056176L322.9054228846679 169.4548216056176ZM324.79537444097593 170.16507251198914L324.79537444097593 170.16507251198914Q324.8853935672588 170.16507251198914 324.97991364985575 170.14931916488962Q325.0744337324527 170.13401591342154 325.1338463557994 170.11196122748225L325.1338463557994 170.11196122748225L325.1338463557994 170.39552147527317Q325.06993277613856 170.42432759568368 324.9569587726536 170.4441318034659Q324.8439847691687 170.4639360112481 324.7359618176293 170.4639360112481L324.7359618176293 170.4639360112481Q324.5446711742783 170.4639360112481 324.38893808580895 170.3968717621674Q324.2327549017083 170.3298075130867 324.13958510600554 170.16912337267183Q324.04596521467136 170.00888932788843 324.04596521467136 169.72532908009748L324.04596521467136 169.72532908009748L324.04596521467136 168.29672554598898L323.7029923435338 168.29672554598898L323.7029923435338 168.11893777158042L324.0482156928285 167.9758073607907L324.1931464861438 167.45279623708745L324.4127931542739 167.45279623708745L324.4127931542739 168.01091482004102L325.1185431043313 168.01091482004102L325.1185431043313 168.29672554598898L324.4127931542739 168.29672554598898L324.4127931542739 169.71452678494356Q324.4127931542739 169.9409248875449 324.517215340762 170.052998699767Q324.6216375272501 170.16507251198914 324.79537444097593 170.16507251198914ZM326.5493971165969 167.96725554379384L326.5493971165969 167.96725554379384Q326.85681243285273 167.96725554379384 327.07645910098285 168.10363452011234Q327.2965558647444 168.2395634007994 327.4131306332806 168.4848655199201Q327.52925530618546 168.72971754340938 327.52925530618546 169.0573871630789L327.52925530618546 169.0573871630789L327.52925530618546 169.28378526568022L325.86570185247876 169.28378526568022Q325.87245328695 169.70777535047233 326.07679670361205 169.9296724967595Q326.2811401202741 170.15156964304668 326.6524690161907 170.15156964304668L326.6524690161907 170.15156964304668Q326.88111759694914 170.15156964304668 327.05710498883207 170.1101608449566Q327.23264228508356 170.06830195123507 327.4216824502775 169.98683464194912L327.4216824502775 169.98683464194912L327.4216824502775 170.3077528271474Q327.23939371955476 170.38922013643338 327.06025565825195 170.42657807384074Q326.88111759694914 170.4639360112481 326.6371657647226 170.4639360112481L326.6371657647226 170.4639360112481Q326.2896919372709 170.4639360112481 326.0317871404706 170.32215588735266Q325.7734322480389 170.18037576345722 325.6307519328806 169.90536733266316Q325.4876215220909 169.63080899750054 325.4876215220909 169.23292445933043L325.4876215220909 169.23292445933043Q325.4876215220909 168.8440418337886 325.6185993508324 168.55958139473483Q325.74912708394254 168.2746708600497 325.98767776859205 168.1211882497375Q326.2262284532415 167.96725554379384 326.5493971165969 167.96725554379384ZM326.54489616028275 168.2661190430528L326.54489616028275 168.2661190430528Q326.25233399986354 168.2661190430528 326.0790471817691 168.45740968640382Q325.90531026804325 168.64825023412345 325.87245328695 168.991223105261L325.87245328695 168.991223105261L327.1471241151149 168.991223105261Q327.1448736369578 168.77607739344506 327.08005986603416 168.6122425836103Q327.0152460951105 168.44840777377556 326.8833680751062 168.3570383605985Q326.75149005510184 168.2661190430528 326.54489616028275 168.2661190430528ZM329.70726806659854 169.7604365393478L329.70726806659854 169.7604365393478Q329.70726806659854 169.99133559826328 329.5920435849565 170.1484189736268Q329.4763690076831 170.30550234899033 329.26212348712994 170.38471918011922Q329.04787796657683 170.4639360112481 328.7512649454749 170.4639360112481L328.7512649454749 170.4639360112481Q328.4987612962516 170.4639360112481 328.31377199174034 170.42432759568368Q328.1292327828605 170.38471918011922 327.9910534240164 170.31225378346153L327.9910534240164 170.31225378346153L327.9910534240164 169.9760323467952Q328.13823469548885 170.04849774345286 328.3425781121509 170.10791036679953Q328.54692152881285 170.16687289451477 328.7602668581032 170.16687289451477L328.7602668581032 170.16687289451477Q329.0721831306732 170.16687289451477 329.2130630633058 170.066051473078Q329.35349290030706 169.9647799560098 329.35349290030706 169.79149313791538L329.35349290030706 169.79149313791538Q329.35349290030706 169.69247209900425 329.2976810420117 169.61640593729527Q329.2414190880849 169.5407898712177 329.10954106808055 169.46922466582285Q328.97766304807624 169.397659460428 328.7449636066351 169.3121412904593L328.7449636066351 169.3121412904593Q328.5140645477196 169.22437264233355 328.34572878157076 169.13750418547062Q328.1778431110533 169.0506357286077 328.0864736978762 168.92550914307455Q327.99510428469915 168.79993246191 327.99510428469915 168.60009000156214L327.99510428469915 168.60009000156214Q327.99510428469915 168.2944750678319 328.2426568819769 168.13109035362857Q328.48975938362327 167.96725554379384 328.8921448781075 167.96725554379384L328.8921448781075 167.96725554379384Q329.10954106808055 167.96725554379384 329.29948142453736 168.01001462877818Q329.4898718766255 168.05277371376252 329.6546068777231 168.12523911042018L329.6546068777231 168.12523911042018L329.53173077034705 168.4178012708394Q329.38229902071754 168.35388769117858 329.2130630633058 168.3097783193Q329.0438271058941 168.2661190430528 328.86783971401115 168.2661190430528L328.86783971401115 168.2661190430528Q328.61488596915643 168.2661190430528 328.4798572797322 168.34938673486442Q328.34482859030794 168.43310452230747 328.34482859030794 168.57803531562283L328.34482859030794 168.57803531562283Q328.34482859030794 168.69010912784495 328.4073918830745 168.76257452450264Q328.46995517584105 168.83503992116033 328.6085846303166 168.8989535008211Q328.74676398916074 168.96286708048194 328.9731620917621 169.04838525045062L328.9731620917621 169.04838525045062Q329.1995601943634 169.13210303789364 329.36429519546095 169.22077187728223Q329.52948029219 169.30989081230223 329.61814913157855 169.43636768472962Q329.70726806659854 169.562844557157 329.70726806659854 169.7604365393478ZM330.3202983165846 169.89681551566628L330.7118815159149 169.89681551566628L330.740237540694 169.94722622638466Q330.7006291251296 170.10791036679953 330.64031631052006 170.29019909752225Q330.5800034959106 170.472487828245 330.50843829051576 170.65612684586196Q330.4368730851209 170.83976586347893 330.3644076884632 170.99999990826237L330.3644076884632 170.99999990826237L330.09209983145763 170.99999990826237Q330.1380095858619 170.82401251637944 330.1821189577405 170.62957120360852Q330.22622832961906 170.43512989083763 330.2622359801322 170.24518953438084Q330.2986937262767 170.05479908229267 330.3202983165846 169.89681551566628L330.3202983165846 169.89681551566628ZM334.4962855848451 169.56509503531407L334.4962855848451 169.56509503531407Q334.4962855848451 169.85045566563065 334.35450546094967 170.05164841287274Q334.21272533705417 170.25284116011488 333.95797120967376 170.35816353786578Q333.70276698666197 170.4639360112481 333.3579937329987 170.4639360112481L333.3579937329987 170.4639360112481Q333.17525490664457 170.4639360112481 333.0127703837041 170.44638228162296Q332.85028586076356 170.4288285519978 332.71390688444507 170.39552147527317Q332.57752790812657 170.36266449417994 332.47445600853274 170.31450426161862L332.47445600853274 170.31450426161862L332.47445600853274 169.95622813901295Q332.63919100963034 170.0241925793565 332.8763914073856 170.0822549158089Q333.11404190077224 170.14076734789276 333.3732969844668 170.14076734789276L333.3732969844668 170.14076734789276Q333.6149983385362 170.14076734789276 333.78198381779083 170.0759535769691Q333.9489692970455 170.0111398060455 334.0358377539084 169.88916388993226Q334.12270621077136 169.76718797381903 334.12270621077136 169.59570153825024L334.12270621077136 169.59570153825024Q334.12270621077136 169.43096653715264 334.0502408141137 169.31979291619336Q333.9773253218246 169.20906939086547 333.8094396513071 169.1176999776884Q333.6411038851582 169.02633056451134 333.3512422985275 168.92325866491748L333.3512422985275 168.92325866491748Q333.14689888186547 168.8507932682598 332.99071569776476 168.76392481139686Q332.83453251366404 168.67705635453393 332.72921013591315 168.5672330204689Q332.62388775816225 168.45740968640382 332.56987628239256 168.31202879745706Q332.51586480662286 168.1670980041417 332.51586480662286 167.98030831710486L332.51586480662286 167.98030831710486Q332.51586480662286 167.72330371156738 332.64684263536435 167.53966469395039Q332.77737036847446 167.35602567633342 333.00961971428416 167.25835492431656Q333.24141896446247 167.16068417229968 333.5425329418785 167.16068417229968L333.5425329418785 167.16068417229968Q333.799537547416 167.16068417229968 334.0182840242833 167.208844404861Q334.23703050115057 167.25745473305372 334.41931923187326 167.33847194670827L334.41931923187326 167.33847194670827L334.30274446333704 167.65939013190655Q334.1290075496112 167.58692473524889 333.9345662368402 167.53876450268757Q333.74012492406933 167.49015417449482 333.53353102925024 167.49015417449482L333.53353102925024 167.49015417449482Q333.32693713443115 167.49015417449482 333.1851570105357 167.55046698910434Q333.04337688664026 167.61122989934523 332.9686610118255 167.7210532334103Q332.89394513701075 167.83087656747534 332.89394513701075 167.98255879526192L332.89394513701075 167.98255879526192Q332.89394513701075 168.15179475267365 332.9655103424056 168.26386856489574Q333.03707554780044 168.3759423771179 333.19415892316397 168.46281083398083Q333.3512422985275 168.54967929084376 333.61049738222204 168.6441993734407L333.61049738222204 168.6441993734407Q333.894057630013 168.74727127303456 334.0916496122038 168.862945850308Q334.289691690026 168.97817033195003 334.39276358961985 169.14425561994182Q334.4962855848451 169.30989081230223 334.4962855848451 169.56509503531407ZM338.41031719562255 167.20659392670393L338.80145029932146 167.20659392670393L337.94221773895185 170.41982663936955L337.56638788672103 170.41982663936955L336.9290524726386 168.25711713042455Q336.9006964478595 168.16484752598464 336.8750409968689 168.07167773028192Q336.8498356415097 167.9780578389478 336.8277809555704 167.89343986024193Q336.8061763652625 167.80882188153606 336.7917733050573 167.7440081106124Q336.777370244852 167.67919433968876 336.7710689060122 167.64633735859553L336.7710689060122 167.64633735859553Q336.76656794969807 167.67919433968876 336.75441536764987 167.7431079193496Q336.7422627856017 167.806571403379 336.7238088647137 167.89028919082202Q336.70490484819436 167.97355688263363 336.67969949283514 168.0680769652306Q336.6544941374759 168.16259704782757 336.62568801706544 168.2593676085816L336.62568801706544 168.2593676085816L336.00590633260816 170.41982663936955L335.63007648037734 170.41982663936955L334.77759535447893 167.20659392670393L335.1664779800208 167.20659392670393L335.6831877648842 169.22212216417648Q335.70929331150626 169.32294358561325 335.73224818870835 169.42106443326153Q335.7556531615419 169.5187351852784 335.77410708242985 169.61100478971832Q335.79301109894925 169.7032743941582 335.80831435041733 169.79149313791538Q335.8236176018854 169.87926178604113 335.83667037519643 169.96252947785274L335.83667037519643 169.96252947785274Q335.8479227659818 169.87701130788406 335.8654764956069 169.78339141654993Q335.8830302252321 169.69022162084718 335.90373462427715 169.59345106009314Q335.9248891189536 169.4966804993391 335.9500944743128 169.397659460428Q335.975299829672 169.2990885171483 336.0036558544511 169.2000674782372L336.0036558544511 169.2000674782372L336.58202874081826 167.20659392670393L336.96641041004597 167.20659392670393L337.5686383648781 169.21537072970528Q337.59924486781426 169.31889272493052 337.6258005100677 169.41971414636728Q337.6523561523211 169.52098566343545 337.6730605513662 169.61640593729527Q337.6937649504112 169.7122763067865 337.71041848877354 169.79914476364942Q337.7270720271359 169.88556312488095 337.7401248004469 169.96252947785274L337.7401248004469 169.96252947785274Q337.7554280519149 169.85495662194478 337.77748273785426 169.73613137525143Q337.79953742379354 169.61775622418952 337.8292437354669 169.48812868234222Q337.8589500471402 169.35850114049498 337.89405750639054 169.21987168601942L337.89405750639054 169.21987168601942L338.41031719562255 167.20659392670393ZM340.447450023403 167.20659392670393L340.447450023403 170.41982663936955L340.0914243789544 170.41982663936955L340.0914243789544 168.14279284004533Q340.0914243789544 168.0131652981981 340.09277466584865 167.91999550249534Q340.09367485711147 167.8263756111612 340.0972756221628 167.74850906692654Q340.10042629158266 167.6706425226919 340.10717772605386 167.58917521340595L340.10717772605386 167.58917521340595Q340.03876319007895 167.65939013190655 339.97935056673225 167.70890065136211Q339.920388039017 167.75841117081768 339.83216929525986 167.83087656747534L339.83216929525986 167.83087656747534L339.4653413556573 168.12523911042018L339.2740507123063 167.877236417511L340.1445356634613 167.20659392670393L340.447450023403 167.20659392670393ZM344.2827148986829 170.41982663936955L343.8960827512982 170.41982663936955L343.50044869128516 169.39990993858507L342.21227499417785 169.39990993858507L341.8188914123219 170.41982663936955L341.4412611775654 170.41982663936955L342.69792818047375 167.1935411533929L343.0345997127715 167.1935411533929L344.2827148986829 170.41982663936955ZM342.3378516753424 169.06818945823284L343.388374879063 169.06818945823284L343.0125450268322 168.05502419191959Q342.9990421578898 168.01541577635516 342.9697859418479 167.92539665007232Q342.9400796301745 167.83537752378948 342.909023031607 167.73860696303544Q342.8784165286708 167.6418364022814 342.8586123208886 167.58242377893475L342.8586123208886 167.58242377893475Q342.83655763494926 167.67244290521757 342.8113522795901 167.76156184023756Q342.7861469242309 167.85068077525756 342.76184176013453 167.92629684133516Q342.7375365960382 168.00236300304414 342.71998286641303 168.05502419191959L342.71998286641303 168.05502419191959L342.3378516753424 169.06818945823284ZM347.78355871982217 170.08585568086022L347.78355871982217 170.41982663936955L345.67846145169824 170.41982663936955L345.67846145169824 170.11421170563932L346.53769401206785 169.2419263719587Q346.77714488798017 169.0002250178893 346.9409796978149 168.81118485269536Q347.1048145076497 168.62214468750142 347.19033267761836 168.43850566988445Q347.27585084758704 168.25486665226748 347.27585084758704 168.03521998413737L347.27585084758704 168.03521998413737Q347.27585084758704 167.7629121271318 347.1142665159094 167.61888152507927Q346.9531322798631 167.47485092302674 346.68937623985437 167.47485092302674L346.68937623985437 167.47485092302674Q346.4584771809389 167.47485092302674 346.28023931089893 167.55406775415565Q346.1024515364903 167.6332845852845 345.9156618494535 167.7782153785999L345.9156618494535 167.7782153785999L345.7198702497883 167.53201306821634Q345.8476974091099 167.42444021230835 345.9980293500023 167.34072242486533Q346.14836129089457 167.25745473305372 346.3211980133576 167.208844404861Q346.4935846401892 167.16068417229968 346.68937623985437 167.16068417229968L346.68937623985437 167.16068417229968Q346.98598926095633 167.16068417229968 347.2011349727723 167.2637560718935Q347.41673078021967 167.36727806711878 347.53420574001876 167.55856871046979Q347.65168069981786 167.7494092581894 347.65168069981786 168.0131652981981L347.65168069981786 168.0131652981981Q347.65168069981786 168.26836952120988 347.5508592783811 168.48711599807717Q347.4495877613129 168.70541237931303 347.26729903059015 168.91965789986617Q347.08501029986746 169.13435351605074 346.84105846764095 169.37380439196306L346.84105846764095 169.37380439196306L346.1420599520548 170.07055242939214L346.1420599520548 170.08585568086022L347.78355871982217 170.08585568086022ZM350.8716648469547 170.41982663936955L350.4845826039385 170.41982663936955L350.0889485439254 169.39990993858507L348.8012249424496 169.39990993858507L348.40784136059364 170.41982663936955L348.02976103020575 170.41982663936955L349.28687812874546 167.1935411533929L349.62309956541185 167.1935411533929L350.8716648469547 170.41982663936955ZM348.9263515279827 169.06818945823284L349.97687473170333 169.06818945823284L349.6010448794725 168.05502419191959Q349.58799210616155 168.01541577635516 349.5582857944882 167.92539665007232Q349.52857948281485 167.83537752378948 349.4979729798787 167.73860696303544Q349.4673664769425 167.6418364022814 349.4475622691603 167.58242377893475L349.4475622691603 167.58242377893475Q349.425507583221 167.67244290521757 349.4003022278618 167.76156184023756Q349.3746467768712 167.85068077525756 349.3507917084063 167.92629684133516Q349.3264865443099 168.00236300304414 349.30893281468474 168.05502419191959L349.30893281468474 168.05502419191959L348.9263515279827 169.06818945823284ZM353.71761952438635 170.41982663936955L353.3309873770016 170.41982663936955L352.93535331698854 169.39990993858507L351.6471796198813 169.39990993858507L351.25379603802526 170.41982663936955L350.87571570763737 170.41982663936955L352.13283280617713 167.1935411533929L352.46905424284347 167.1935411533929L353.71761952438635 170.41982663936955ZM351.7727563010458 169.06818945823284L352.82327950476645 169.06818945823284L352.4474496525356 168.05502419191959Q352.43394678359317 168.01541577635516 352.4042404719198 167.92539665007232Q352.37498425587796 167.83537752378948 352.34392765731036 167.73860696303544Q352.3133211543742 167.6418364022814 352.293516946592 167.58242377893475L352.293516946592 167.58242377893475Q352.2714622606527 167.67244290521757 352.2462569052935 167.76156184023756Q352.22105154993426 167.85068077525756 352.1967463858379 167.92629684133516Q352.17244122174156 168.00236300304414 352.1548874921164 168.05502419191959L352.1548874921164 168.05502419191959L351.7727563010458 169.06818945823284Z " fill="black"></path><path d="M312.76570414249346 173.97329315608147L312.76570414249346 172.02779668047884L313.31646032363824 172.02779668047884Q313.68108762218935 172.02779668047884 313.86476385479284 172.13707586337793Q314.04844008739633 172.24608252961144 314.04844008739633 172.50824356190304L314.04844008739633 172.50824356190304Q314.04844008739633 172.62133797812032 314.0051099375685 172.71126847776299Q313.9617797877407 172.80092646074002 313.8792072380688 172.85951754384052Q313.7969072050625 172.91810862694106 313.6756372888777 172.9407275101845L313.6756372888777 172.9407275101845L313.6756372888777 172.95408082679813Q313.80344760503647 172.97397454338574 313.90182612131224 173.02711529317457Q314.00047715425353 173.080528559629 314.05634307069823 173.1761819092489Q314.11220898714294 173.27210777553438 314.11220898714294 173.4198118082808L314.11220898714294 173.4198118082808Q314.11220898714294 173.59940029090052 314.0290914041399 173.72312285707557Q313.9459738211368 173.84684542325058 313.79418203840663 173.910069289666Q313.64239025567645 173.97329315608147 313.4350050731672 173.97329315608147L313.4350050731672 173.97329315608147L312.76570414249346 173.97329315608147ZM312.99189297492796 172.22073847971217L312.99189297492796 172.8622427104964L313.36442325678104 172.8622427104964Q313.6184087891051 172.8622427104964 313.71624227204967 172.77830757749658Q313.81407575499424 172.69464496116234 313.81407575499424 172.53358761180235L313.81407575499424 172.53358761180235Q313.81407575499424 172.36707992913065 313.69771113879 172.29404546275418Q313.5813465225857 172.22073847971217 313.327088473596 172.22073847971217L313.327088473596 172.22073847971217L312.99189297492796 172.22073847971217ZM313.3764139900667 173.05245934307385L312.99189297492796 173.05245934307385L312.99189297492796 173.78035135684814L313.3963077066543 173.78035135684814Q313.6557435722901 173.78035135684814 313.76366017186126 173.6784301239198Q313.87130425476687 173.57678140765705 313.87130425476687 173.40373332501136L313.87130425476687 173.40373332501136Q313.87130425476687 173.29336407544992 313.8227962882929 173.2148792757618Q313.77428832181903 173.13639447607366 313.6658266889167 173.09442690957377Q313.5573650560143 173.05245934307385 313.3764139900667 173.05245934307385L313.3764139900667 173.05245934307385ZM315.62385893113617 173.45578400813787L315.62385893113617 173.45578400813787Q315.62385893113617 173.628559574118 315.53801618147725 173.75037452363392Q315.4521734318184 173.8721894731499 315.29792899909796 173.9359583728965Q315.14341204971197 173.99999978930867 314.9346642838748 173.99999978930867L314.9346642838748 173.99999978930867Q314.82402251764773 173.99999978930867 314.725644001372 173.9893716393509Q314.62726548509625 173.97874348939314 314.5446929354244 173.95857725613996Q314.4621203857525 173.93868353955233 314.3997140693338 173.90952425633486L314.3997140693338 173.90952425633486L314.3997140693338 173.69260099053017Q314.49945516893746 173.73375100703333 314.6430714517001 173.76890565689362Q314.78696025112833 173.80433282341951 314.9439298505046 173.80433282341951L314.9439298505046 173.80433282341951Q315.09027129992313 173.80433282341951 315.1913749828547 173.76509042357546Q315.2924786657863 173.72584802373137 315.3450743822439 173.65199600735818Q315.3976700987016 173.57814399098498 315.3976700987016 173.47431514139754L315.3976700987016 173.47431514139754Q315.3976700987016 173.3745740417939 315.3537949155426 173.3072624253947Q315.3099197323836 173.24022332566108 315.2079984994553 173.18490244254758Q315.10607726652694 173.1295815594341 314.930576533891 173.06717524301538L314.930576533891 173.06717524301538Q314.806853967716 173.0233000598564 314.7122906847584 172.97070434339872Q314.61772740180083 172.91810862694106 314.55395850205423 172.85161456053862Q314.4901896023076 172.78512049413615 314.45748760243754 172.69709761115263Q314.4247856025675 172.60934724483462 314.4247856025675 172.49625282861734L314.4247856025675 172.49625282861734Q314.4247856025675 172.34064581256902 314.5040879522524 172.22945901301085Q314.58311778527167 172.11827221345266 314.72373638471294 172.059136097021Q314.8640824674886 171.99999998058928 315.04639611676413 171.99999998058928L315.04639611676413 171.99999998058928Q315.2020031328125 171.99999998058928 315.33444623228615 172.02915926380678Q315.4668893317599 172.0585910636898 315.5772585813213 172.1076440634949L315.5772585813213 172.1076440634949L315.50667676493515 172.30194844605614Q315.4014853320198 172.25807326289714 315.2837581324876 172.22891397967967Q315.1660309329554 172.19948217979663 315.04094578345246 172.19948217979663L315.04094578345246 172.19948217979663Q314.9158606339495 172.19948217979663 314.8300178842906 172.23599941298485Q314.7441751346317 172.27278916283865 314.6989373681448 172.33928322924112Q314.6536996016579 172.40577729564353 314.6536996016579 172.49761541194528L314.6536996016579 172.49761541194528Q314.6536996016579 172.6000816782048 314.69702975148573 172.66793832793513Q314.7403599013135 172.7357949776655 314.8354682176023 172.78839069412317Q314.930576533891 172.84098641058085 315.08754613326727 172.89821491035343L315.08754613326727 172.89821491035343Q315.25923163258506 172.96062122677213 315.3788664487763 173.03065800982716Q315.4987737816332 173.1004222762166 315.56118009805186 173.20098092581702Q315.62385893113617 173.30126705875188 315.62385893113617 173.45578400813787ZM317.4747921237812 173.97329315608147L317.24042779137915 173.97329315608147L317.0011581589966 173.35577039186862L316.2212154620958 173.35577039186862L315.98303589637555 173.97329315608147L315.7541218972852 173.97329315608147L316.5152609442607 172.0198936971769L316.7188308934518 172.0198936971769L317.4747921237812 173.97329315608147ZM316.2972476117937 173.15492560933336L316.93330150926624 173.15492560933336L316.70575009350375 172.54149059510428Q316.6975745935363 172.51750912853288 316.67958849360775 172.46300579541614Q316.6616023936792 172.4085024622994 316.6430712604195 172.3499113791989Q316.6245401271598 172.29132029609838 316.61254939387413 172.25534809624128L316.61254939387413 172.25534809624128Q316.5991960772605 172.30985142935805 316.58393514398784 172.36380972914364Q316.56867421071513 172.41776802892923 316.5539583107736 172.46355082874732Q316.53924241083206 172.50960614523098 316.5286142608743 172.54149059510428L316.5286142608743 172.54149059510428L316.2972476117937 173.15492560933336ZM318.99025730109264 172.02779668047884L319.21535606686484 172.02779668047884L319.21535606686484 173.2865511588103Q319.21535606686484 173.49284627465727 319.1319659671962 173.6539036240173Q319.04884838419315 173.81496097337728 318.8812506348591 173.9073441230102Q318.7136528855251 173.99999978930867 318.46075741986334 173.99999978930867L318.46075741986334 173.99999978930867Q318.10021787129597 173.99999978930867 317.9119088553776 173.80433282341951Q317.7235998394592 173.60866585753035 317.7235998394592 173.28137334216424L317.7235998394592 173.28137334216424L317.7235998394592 172.02779668047884L317.95115125522165 172.02779668047884L317.95115125522165 173.28791374213824Q317.95115125522165 173.5356313911539 318.08223177136745 173.66998210728673Q318.21331228751325 173.80433282341951 318.4741107364769 173.80433282341951L318.4741107364769 173.80433282341951Q318.65233663576873 173.80433282341951 318.76624860198274 173.73974637367616Q318.87988805153117 173.67515992393282 318.9352089346447 173.55879530772853Q318.99025730109264 173.44243069152424 318.99025730109264 173.28927632546618L318.99025730109264 173.28927632546618L318.99025730109264 172.02779668047884ZM321.12869557592853 172.02779668047884L321.12869557592853 173.97329315608147L320.9131348934518 173.97329315608147L320.9131348934518 172.59463134489312Q320.9131348934518 172.51614654520498 320.91367992678295 172.45973559542915Q320.91449747677973 172.40305212898772 320.9164050934388 172.3559067458417Q320.91858522676347 172.30876136269572 320.92240046008163 172.25943584622507L320.92240046008163 172.25943584622507Q320.8812504435785 172.30194844605614 320.84527824372145 172.33192527927034Q320.80930604386435 172.36190211248456 320.7561652940755 172.40577729564353L320.7561652940755 172.40577729564353L320.5337916949592 172.58400319493535L320.41824462875167 172.43384651219867L320.9450193433251 172.02779668047884L321.12869557592853 172.02779668047884ZM323.23633946755353 173.3225233586674L323.23633946755353 173.5222780745403L322.9450191520445 173.5222780745403L322.9450191520445 173.97329315608147L322.7294584695677 173.97329315608147L322.7294584695677 173.5222780745403L321.7887309399725 173.5222780745403L321.7887309399725 173.33587667528099L322.7147425696262 172.01716853052108L322.9450191520445 172.01716853052108L322.9450191520445 173.3225233586674L323.23633946755353 173.3225233586674ZM322.008379372433 173.3225233586674L322.7294584695677 173.3225233586674L322.7294584695677 172.68646946119486Q322.7294584695677 172.6134349948184 322.73082105289564 172.55402636172113Q322.73218363622357 172.49489024528944 322.7349088028794 172.4436571121597Q322.7373614528696 172.39242397902996 322.7395415861943 172.34582362921512Q322.7414492028534 172.29922327940028 322.7428117861813 172.25398551291337L322.7428117861813 172.25398551291337L322.73218363622357 172.25398551291337Q322.70683958632424 172.30739877936782 322.6741375864542 172.36653489579948Q322.6417081032497 172.42567101223116 322.6084610700485 172.472271362046L322.6084610700485 172.472271362046L322.008379372433 173.3225233586674ZM324.03753846436985 172.78375791080825L324.03753846436985 172.78375791080825Q324.23565808024927 172.78375791080825 324.38227204633336 172.85079701054187Q324.5286134957518 172.91810862694106 324.60900591209906 173.04591894309985Q324.68939832844626 173.17345674259306 324.68939832844626 173.35577039186862L324.68939832844626 173.35577039186862Q324.68939832844626 173.55552510774152 324.6030105454562 173.69995894050095Q324.51662276246617 173.84412025659475 324.3542028297782 173.9220600229517Q324.19178289709026 173.99999978930867 323.96559406465576 173.99999978930867L323.96559406465576 173.99999978930867Q323.81407479859115 173.99999978930867 323.6835393157765 173.97329315608147Q323.5532763496275 173.94658652285426 323.463890883316 173.89344577306542L323.463890883316 173.89344577306542L323.463890883316 173.6833354239003Q323.5611793329294 173.74165399033524 323.699617799046 173.7762636068644Q323.8377837484969 173.81087322339351 323.96831923131157 173.81087322339351L323.96831923131157 173.81087322339351Q324.11602326405796 173.81087322339351 324.22721006361616 173.76372784024755Q324.3381243465088 173.71658245710154 324.3999856295963 173.62011155748488Q324.4618469126838 173.5236406578682 324.4618469126838 173.37702669178415L324.4618469126838 173.37702669178415Q324.4618469126838 173.1829948258885 324.34275712982367 173.0769858429764Q324.22366734696357 172.9712493767299 323.96695664798364 172.9712493767299L323.96695664798364 172.9712493767299Q323.8843840983118 172.9712493767299 323.786005582036 172.9846026933435Q323.6876270657603 172.9979560099571 323.6235856493481 173.01376197656097L323.6235856493481 173.01376197656097L323.51185381645877 172.9407275101845L323.5865233828287 172.02779668047884L324.55368502898557 172.02779668047884L324.55368502898557 172.23027656300758L323.77537743207824 172.23027656300758L323.72605191560757 172.81700494400945Q323.7767400154062 172.8063767940517 323.8565873984222 172.7949310940972Q323.93643478143827 172.78375791080825 324.03753846436985 172.78375791080825ZM325.6410265246648 172.48834984531544L325.6410265246648 172.48834984531544Q325.82715540725854 172.48834984531544 325.96041605672906 172.57092239498732Q326.0934041895339 172.65322242799363 326.1639860059201 172.8017440107368Q326.2342953056407 172.94999307681437 326.2342953056407 173.14838520935936L326.2342953056407 173.14838520935936L326.2342953056407 173.285461092148L325.2270737096431 173.285461092148Q325.23116145962683 173.54217179112794 325.3548840258019 173.67652250726073Q325.4786065919769 173.81087322339351 325.7034328410835 173.81087322339351L325.7034328410835 173.81087322339351Q325.8418713072001 173.81087322339351 325.94842532344336 173.78580169015981Q326.05470682302104 173.76045764026054 326.1691638225662 173.71113212378987L326.1691638225662 173.71113212378987L326.1691638225662 173.90543650635112Q326.0587945730048 173.95476202282177 325.95033294010244 173.9773809060652Q325.8418713072001 173.99999978930867 325.69416727445366 173.99999978930867L325.69416727445366 173.99999978930867Q325.483784408623 173.99999978930867 325.32763235924347 173.91415703964978Q325.1712077931984 173.82831428999089 325.0848200102083 173.6618066073192Q324.99815971055267 173.49557144131307 324.99815971055267 173.254666708937L324.99815971055267 173.254666708937Q324.99815971055267 173.01921230987264 325.07746206023756 172.84698177722368Q325.1564918932569 172.67447872790916 325.30092572601626 172.5815505449451Q325.4453595587757 172.48834984531544 325.6410265246648 172.48834984531544ZM325.638301358009 172.66930091126306L325.638301358009 172.66930091126306Q325.46116552537956 172.66930091126306 325.3562466091298 172.78512049413615Q325.25105517621444 172.9006675603437 325.23116145962683 173.10832525951855L325.23116145962683 173.10832525951855L326.00292865656013 173.10832525951855Q326.0015660732322 172.97806229336948 325.96232367338814 172.87886622709698Q325.923081273544 172.77967016082448 325.843233890528 172.72434927771099Q325.76338650751194 172.66930091126306 325.638301358009 172.66930091126306Z " fill="black"></path></svg>
