<svg xmlns="http://www.w3.org/2000/svg" version="1.1" xmlns:xlink="http://www.w3.org/1999/xlink" xmlns:svgjs="http://svgjs.dev/svgjs" generator="Plateit 1.0.0" viewBox="0 0 229 178" preserveAspectRatio="xMidYMid meet"><rect width="229" height="178" rx="3" ry="3" fill="yellow"></rect><path d="M55.786407766990294 15.856797009706497L55.786407766990294 79.546117398056L45.83495145631068 79.546117398056L21.951456310679617 36.45631157281329L21.951456310679617 79.546117398056L12 79.546117398056L12 15.856797009706497L21.951456310679617 15.856797009706497L45.83495145631068 59.046117398056005L45.83495145631068 15.856797009706497L55.786407766990294 15.856797009706497ZM92.70631067961165 62.62864166990067L92.70631067961165 52.677185359221056L109.52427184466019 52.677185359221056L109.52427184466019 65.61407856310456Q109.52427184466019 68.50000089320164 108.42961165048544 71.03762225242494Q107.33495145631068 73.57524361164823 105.44417475728156 75.46602031067737Q103.55339805825243 77.3567970097065 101.01577669902913 78.45145720388125Q98.47815533980582 79.546117398056 95.59223300970874 79.546117398056L95.59223300970874 79.546117398056L79.66990291262135 79.546117398056Q76.78398058252426 79.546117398056 74.24635922330097 78.45145720388125Q71.70873786407768 77.3567970097065 69.81796116504854 75.46602031067737Q67.92718446601941 73.57524361164823 66.83252427184466 71.03762225242494Q65.73786407766991 68.50000089320164 65.73786407766991 65.61407856310456L65.73786407766991 65.61407856310456L65.73786407766991 29.788835844657953Q65.73786407766991 26.902913514560865 66.83252427184466 24.365292155337563Q67.92718446601941 21.827670796114262 69.81796116504854 19.936894097085137Q71.70873786407768 18.046117398056015 74.24635922330097 16.951457203881255Q76.78398058252426 15.856797009706497 79.66990291262135 15.856797009706497L79.66990291262135 15.856797009706497L95.59223300970874 15.856797009706497Q98.47815533980582 15.856797009706497 101.01577669902913 16.951457203881255Q103.55339805825243 18.046117398056015 105.44417475728156 19.936894097085137Q107.33495145631068 21.827670796114262 108.42961165048544 24.365292155337563Q109.52427184466019 26.902913514560865 109.52427184466019 29.788835844657953L109.52427184466019 29.788835844657953L99.57281553398059 32.47572904854145L99.57281553398059 29.788835844657953Q99.57281553398059 28.694175650483196 99.1747572815534 27.997573708735626Q98.77669902912622 27.30097176698805 98.37864077669903 27.002428077667666L98.37864077669903 27.002428077667666Q98.08009708737865 26.604369825240475 97.38349514563107 26.20631157281329Q96.6868932038835 25.808253320386108 95.59223300970874 25.808253320386108L95.59223300970874 25.808253320386108L79.66990291262135 25.808253320386108Q78.57524271844662 25.808253320386108 77.87864077669903 26.20631157281329Q77.18203883495146 26.604369825240475 76.88349514563107 27.002428077667666L76.88349514563107 27.002428077667666Q76.48543689320388 27.30097176698805 76.0873786407767 27.997573708735626Q75.68932038834951 28.694175650483196 75.68932038834951 29.788835844657953L75.68932038834951 29.788835844657953L75.68932038834951 65.61407856310456Q75.68932038834951 66.7087387572793 76.0873786407767 67.40534069902688Q76.48543689320388 68.10194264077445 76.88349514563107 68.40048633009484L76.88349514563107 68.40048633009484Q77.18203883495146 68.79854458252203 77.87864077669903 69.1966028349492Q78.57524271844662 69.5946610873764 79.66990291262135 69.5946610873764L79.66990291262135 69.5946610873764L95.59223300970874 69.5946610873764Q96.6868932038835 69.5946610873764 97.38349514563107 69.1966028349492Q98.08009708737865 68.79854458252203 98.37864077669903 68.40048633009484L98.37864077669903 68.40048633009484Q98.77669902912622 68.10194264077445 99.1747572815534 67.40534069902688Q99.57281553398059 66.7087387572793 99.57281553398059 65.61407856310456L99.57281553398059 65.61407856310456L99.57281553398059 62.62864166990067L92.70631067961165 62.62864166990067ZM148.33495145631068 51.28398147572591L148.33495145631068 51.28398147572591Q145.3495145631068 52.97572904854144 142.3640776699029 54.667476621356975Q139.37864077669903 56.35922419417251 136.89077669902912 58.49878730096863Q134.40291262135923 60.63835040776475 132.5618932038835 63.32524361164824Q130.72087378640776 66.01213681553173 129.9247572815534 69.5946610873764L129.9247572815534 69.5946610873764L163.2621359223301 69.5946610873764L163.2621359223301 79.546117398056L119.47572815533981 79.546117398056L119.47572815533981 74.5703892427162Q119.47572815533981 73.27669992232785 119.5752427184466 72.03276788349291Q119.6747572815534 70.78883584465795 119.87378640776699 69.5946610873764L119.87378640776699 69.5946610873764Q120.27184466019418 65.91262225242494 121.86407766990291 62.330097980580284L121.86407766990291 62.330097980580284Q122.95873786407768 59.84223390291038 124.45145631067962 57.60315623300747Q125.94417475728156 55.364078563104556 127.93446601941747 53.274272737861835L127.93446601941747 53.274272737861835Q131.41747572815535 49.691748466017174 135.54733009708738 47.15412710679388Q139.67718446601944 44.61650574757057 143.45873786407768 42.52669992232785L143.45873786407768 42.52669992232785L144.05582524271844 42.12864166990067Q146.24514563106797 40.934466912619115 148.13592233009712 39.839806718444365Q150.0266990291262 38.7451465242696 151.41990291262135 37.65048633009484L151.41990291262135 37.65048633009484Q152.8131067961165 36.45631157281329 153.0618932038835 35.75970963106572Q153.3106796116505 35.063107689318144 153.3106796116505 34.76456399999776L153.3106796116505 34.76456399999776L153.3106796116505 29.788835844657953Q153.3106796116505 28.694175650483196 152.9126213592233 27.997573708735626Q152.5145631067961 27.30097176698805 152.11650485436894 27.002428077667666L152.11650485436894 27.002428077667666Q151.81796116504853 26.604369825240475 151.121359223301 26.20631157281329Q150.4247572815534 25.808253320386108 149.33009708737865 25.808253320386108L149.33009708737865 25.808253320386108L133.40776699029126 25.808253320386108Q132.3131067961165 25.808253320386108 131.61650485436894 26.20631157281329Q130.91990291262135 26.604369825240475 130.62135922330097 27.002428077667666L130.62135922330097 27.002428077667666Q130.22330097087377 27.30097176698805 129.8252427184466 27.997573708735626Q129.4271844660194 28.694175650483196 129.4271844660194 29.788835844657953L129.4271844660194 29.788835844657953L129.4271844660194 32.47572904854145L119.47572815533981 29.788835844657953Q119.47572815533981 26.902913514560865 120.57038834951456 24.365292155337563Q121.66504854368932 21.827670796114262 123.55582524271844 19.936894097085137Q125.44660194174757 18.046117398056015 127.98422330097087 16.951457203881255Q130.52184466019418 15.856797009706497 133.40776699029126 15.856797009706497L133.40776699029126 15.856797009706497L149.33009708737865 15.856797009706497Q152.21601941747574 15.856797009706497 154.753640776699 16.951457203881255Q157.29126213592232 18.046117398056015 159.18203883495147 19.936894097085137Q161.0728155339806 21.827670796114262 162.16747572815535 24.365292155337563Q163.2621359223301 26.902913514560865 163.2621359223301 29.788835844657953L163.2621359223301 29.788835844657953L163.2621359223301 34.76456399999776Q163.2621359223301 40.73543778640553 157.88834951456312 45.313107689318144L157.88834951456312 45.313107689318144Q155.89805825242718 47.004855262133674 153.4101941747573 48.39805914562883Q150.92233009708738 49.79126302912397 148.33495145631068 51.28398147572591ZM217 25.808253320386108L191.2257281553398 25.808253320386108L186.74757281553397 42.725729048541446L203.06796116504853 42.725729048541446Q205.95388349514562 42.725729048541446 208.49150485436894 43.8203892427162Q211.02912621359224 44.91504943689097 212.91990291262135 46.805826135920086Q214.8106796116505 48.69660283494921 215.90533980582524 51.23422419417251Q217 53.77184555339581 217 56.6577678834929L217 56.6577678834929L217 65.61407856310456Q217 68.50000089320164 215.90533980582524 71.03762225242494Q214.8106796116505 73.57524361164823 212.91990291262135 75.46602031067737Q211.02912621359224 77.3567970097065 208.49150485436894 78.45145720388125Q205.95388349514562 79.546117398056 203.06796116504853 79.546117398056L203.06796116504853 79.546117398056L187.14563106796118 79.546117398056Q184.2597087378641 79.546117398056 181.72208737864077 78.45145720388125Q179.18446601941747 77.3567970097065 177.29368932038835 75.46602031067737Q175.40291262135923 73.57524361164823 174.30825242718447 71.03762225242494Q173.2135922330097 68.50000089320164 173.2135922330097 65.61407856310456L173.2135922330097 65.61407856310456L183.16504854368932 62.92718535922105L183.16504854368932 65.61407856310456Q183.16504854368932 66.7087387572793 183.5631067961165 67.40534069902688Q183.96116504854368 68.10194264077445 184.35922330097088 68.40048633009484L184.35922330097088 68.40048633009484Q184.65776699029126 68.79854458252203 185.35436893203882 69.1966028349492Q186.0509708737864 69.5946610873764 187.14563106796118 69.5946610873764L187.14563106796118 69.5946610873764L203.06796116504853 69.5946610873764Q204.1626213592233 69.5946610873764 204.85922330097088 69.1966028349492Q205.55582524271844 68.79854458252203 205.85436893203882 68.40048633009484L205.85436893203882 68.40048633009484Q206.25242718446603 68.10194264077445 206.6504854368932 67.40534069902688Q207.04854368932038 66.7087387572793 207.04854368932038 65.61407856310456L207.04854368932038 65.61407856310456L207.04854368932038 56.6577678834929Q207.04854368932038 55.563107689318144 206.6504854368932 54.86650574757057Q206.25242718446603 54.169903805823 205.85436893203882 53.871360116502615L205.85436893203882 53.871360116502615Q205.55582524271844 53.473301864075424 204.85922330097088 53.07524361164824Q204.1626213592233 52.677185359221056 203.06796116504853 52.677185359221056L203.06796116504853 52.677185359221056L187.14563106796118 52.677185359221056Q186.0509708737864 52.677185359221056 185.35436893203882 53.07524361164824Q184.65776699029126 53.473301864075424 184.35922330097088 53.871360116502615L184.35922330097088 53.871360116502615Q183.96116504854368 54.169903805823 183.4635922330097 55.16504943689096L183.4635922330097 55.16504943689096L183.16504854368932 56.25970963106572Q183.16504854368932 56.5582533203861 183.06553398058253 56.757282446599696L183.06553398058253 56.757282446599696L173.4126213592233 54.169903805823Q173.61165048543688 53.67233099028902 173.71116504854368 53.125000893201644Q173.8106796116505 52.57767079611426 174.0097087378641 52.08009798058028L174.0097087378641 52.08009798058028L183.5631067961165 15.856797009706497L217 15.856797009706497L217 25.808253320386108Z M73.40048203656406 98.4538833869313L82.65533684411108 98.4538833869313L82.65533684411108 102.43446609985475L66.5339768567711 130.2985450903189L82.65533684411108 158.16262408078305L82.65533684411108 162.1432067937065L72.70388006180245 162.1432067937065L72.70388006180245 160.84951741200638L60.7621319230321 140.25000187262754L48.82038378426175 160.84951741200638L48.82038378426175 162.1432067937065L38.868927001953125 162.1432067937065L38.868927001953125 158.16262408078305L54.9902869892931 130.2985450903189L38.868927001953125 102.43446609985475L38.868927001953125 98.4538833869313L48.82038378426175 98.4538833869313L48.82038378426175 99.74757276863141L60.7621319230321 120.34708830801029L72.70388006180245 99.74757276863141L72.70388006180245 98.4538833869313L73.40048203656406 98.4538833869313ZM126.44174668626903 98.4538833869313L136.39320346857767 98.4538833869313L136.39320346857767 102.43446609985475L119.47572693865298 131.6917490398421L119.47572693865298 162.1432067937065L109.52427015634436 162.1432067937065L109.52427015634436 131.6917490398421L92.6067936264197 102.43446609985475L92.6067936264197 98.4538833869313L102.55825040872833 98.4538833869313L102.55825040872833 99.74757276863141L114.49999854749868 120.34708830801029L126.44174668626903 99.74757276863141L126.44174668626903 98.4538833869313ZM190.13107009304423 98.4538833869313L190.13107009304423 108.40534016923993L158.58495209312588 152.1917500113979L190.13107009304423 152.1917500113979L190.13107009304423 162.1432067937065L146.34466025088628 162.1432067937065L146.34466025088628 152.1917500113979L177.8907782508046 108.40534016923993L146.34466025088628 108.40534016923993L146.34466025088628 98.4538833869313L190.13107009304423 98.4538833869313Z " fill="black"></path><path d="M83.12383287150814 172.41982663936955L82.7372007241234 172.41982663936955L82.34156666411036 171.39990993858507L81.05384306263448 171.39990993858507L80.66045948077851 172.41982663936955L80.28237915039062 172.41982663936955L81.53949624893033 169.1935411533929L81.87571768559671 169.1935411533929L83.12383287150814 172.41982663936955ZM81.17896964816761 171.06818945823284L82.22949285188824 171.06818945823284L81.85366299965742 170.05502419191959Q81.8406102263464 170.01541577635516 81.81090391467308 169.92539665007232Q81.78119760299974 169.83537752378948 81.75059110006359 169.73860696303544Q81.719534501496 169.6418364022814 81.69973029371377 169.58242377893475L81.69973029371377 169.58242377893475Q81.6781257034059 169.67244290521757 81.6524702524153 169.76156184023756Q81.62726489705611 169.85068077525756 81.60340982859115 169.92629684133516Q81.57910466449479 170.00236300304414 81.56155093486964 170.05502419191959L81.56155093486964 170.05502419191959L81.17896964816761 171.06818945823284ZM84.9417691267899 169.49015417449482L84.9417691267899 169.49015417449482Q84.67576260862413 169.49015417449482 84.46376756622807 169.5815235876719Q84.2513224282006 169.67244290521757 84.10324096546533 169.8452796276806Q83.95470940709868 170.01766625451222 83.87549257596977 170.26161808673868Q83.7967258404723 170.50556991896514 83.7967258404723 170.81118485269536L83.7967258404723 170.81118485269536Q83.7967258404723 171.21537072970528 83.92275261726826 171.51333403770144Q84.04922948969563 171.8108472500662 84.30083294765615 171.97378186863813Q84.55243640561666 172.1362663915786 84.93051673600453 172.1362663915786L84.93051673600453 172.1362663915786Q85.14611254345192 172.1362663915786 85.3360528999087 172.1002587410655Q85.52599325636547 172.06380099492094 85.70648160456253 172.00888932788843L85.70648160456253 172.00888932788843L85.70648160456253 172.33430846940084Q85.5304942126796 172.4000224315873 85.33695309117152 172.4319792214177Q85.14386206529485 172.4639360112481 84.87785554712909 172.4639360112481L84.87785554712909 172.4639360112481Q84.38770140451908 172.4639360112481 84.05913159358676 172.26049278584892Q83.73056178265442 172.05704956044974 83.56672697281967 171.68572066453305Q83.40334225861633 171.31439176861636 83.40334225861633 170.8089343745383L83.40334225861633 170.8089343745383Q83.40334225861633 170.44390681746142 83.50551396694735 170.14189264878252Q83.60768567527836 169.8398784801036 83.80437746620635 169.61978171634212Q84.00106925713433 169.400135048212 84.28778017434513 169.28040961025584Q84.57449109155596 169.16068417229968 84.94581998747262 169.16068417229968L84.94581998747262 169.16068417229968Q85.18977181969909 169.16068417229968 85.41616992230041 169.208844404861Q85.64256802490172 169.25745473305372 85.82485675562445 169.34747385933656L85.82485675562445 169.34747385933656L85.67542500599495 169.66389108822068Q85.52194239568274 169.59367616972008 85.33830337806576 169.54191517210745Q85.15466436044879 169.49015417449482 84.9417691267899 169.49015417449482ZM88.12169476273085 172.41982663936955L87.81607982900066 172.41982663936955L86.73720060050094 169.57612244009493L86.71964687087578 169.57612244009493Q86.72819868787266 169.66614156637775 86.73495012234386 169.79576910822504Q86.74170155681509 169.92539665007232 86.74575241749781 170.0779790691217Q86.75025337381194 170.2310115838025 86.75025337381194 170.38899515042888L86.75025337381194 170.38899515042888L86.75025337381194 172.41982663936955L86.40322964199164 172.41982663936955L86.40322964199164 169.20659392670393L86.95684726863104 169.20659392670393L87.97451349125843 171.87926178604113L87.98981674272652 171.87926178604113L89.02278621682198 169.20659392670393L89.57235298277865 169.20659392670393L89.57235298277865 172.41982663936955L89.20282446938765 172.41982663936955L89.20282446938765 170.36288960380688Q89.20282446938765 170.21975919301718 89.20732542570178 170.07572859096464Q89.21182638201593 169.93214808454354 89.21857781648714 169.8034207339591Q89.22487915532693 169.67469338337463 89.23163058979816 169.58017330077766L89.23163058979816 169.58017330077766L89.21407686017301 169.58017330077766L88.12169476273085 172.41982663936955ZM92.24006979017032 172.09035663717435L92.24006979017032 172.41982663936955L90.4513897509305 172.41982663936955L90.4513897509305 169.20659392670393L92.24006979017032 169.20659392670393L92.24006979017032 169.5365140245305L90.82496912500423 169.5365140245305L90.82496912500423 170.57578483746576L92.15905257651578 170.57578483746576L92.15905257651578 170.90120397897817L90.82496912500423 170.90120397897817L90.82496912500423 172.09035663717435L92.24006979017032 172.09035663717435ZM96.63345324840384 169.20659392670393L96.63345324840384 172.41982663936955L96.20271172914049 172.41982663936955L94.45093953167662 169.7210532334103L94.43338580205148 169.7210532334103Q94.44013723652269 169.82862608931828 94.44913914915097 169.9659052568996Q94.45769096614784 170.10363452011234 94.4630921137248 170.2584674173188Q94.46894335693318 170.41330031452526 94.46894335693318 170.5735343593087L94.46894335693318 170.5735343593087L94.46894335693318 172.41982663936955L94.12146952948146 172.41982663936955L94.12146952948146 169.20659392670393L94.54996057058774 169.20659392670393L96.2949813335804 171.89681551566628L96.31028458504848 171.89681551566628Q96.30623372436574 171.81984916269448 96.29948228989454 171.678069038799Q96.29273085542332 171.53628891490354 96.28732970784635 171.3724541050688Q96.28192856026939 171.20906939086547 96.28192856026939 171.06818945823284L96.28192856026939 171.06818945823284L96.28192856026939 169.20659392670393L96.63345324840384 169.20659392670393ZM99.07747252698266 170.01091482004102L99.44430046658519 170.01091482004102L99.44430046658519 172.41982663936955L99.14543696732619 172.41982663936955L99.09277577845074 172.0813547245461L99.07297157066853 172.0813547245461Q98.99825569585377 172.20648131007923 98.87943044916044 172.2924495756793Q98.76105529809851 172.377967745648 98.61252373973184 172.42072683063236Q98.46444227699659 172.4639360112481 98.29700670211054 172.4639360112481L98.29700670211054 172.4639360112481Q98.01164607179396 172.4639360112481 97.81810495028587 172.37166640680823Q97.62456382877778 172.27894670673692 97.52689307676091 172.08585568086022Q97.42922232474405 171.89231455935214 97.42922232474405 171.588950103779L97.42922232474405 171.588950103779L97.42922232474405 170.01091482004102L97.79830074250366 170.01091482004102L97.79830074250366 171.562844557157Q97.79830074250366 171.86395853457304 97.93467971882214 172.0120399973083Q98.07060859950921 172.16057155567498 98.35011798661739 172.16057155567498L98.35011798661739 172.16057155567498Q98.61792488730882 172.16057155567498 98.77725874082942 172.0593000386068Q98.93659259435003 171.95847861717004 99.00725760848205 171.76178682624203Q99.07747252698266 171.56509503531407 99.07747252698266 171.27928430936606L99.07747252698266 171.27928430936606L99.07747252698266 170.01091482004102ZM102.83127009297667 169.96725554379384L102.83127009297667 169.96725554379384Q103.22870453551536 169.96725554379384 103.43124756965173 170.17474962987575Q103.63334050815668 170.3826938115891 103.63334050815668 170.84179135563153L103.63334050815668 170.84179135563153L103.63334050815668 172.41982663936955L103.27281390739395 172.41982663936955L103.27281390739395 170.85934508525668Q103.27281390739395 170.5672330204689 103.14633703496656 170.4209519402593Q103.02031025817061 170.2746708600497 102.77185746962999 170.2746708600497L102.77185746962999 170.2746708600497Q102.4221331640212 170.2746708600497 102.26414959739483 170.47721389418606Q102.10571593513706 170.679306832691 102.10571593513706 171.07269041454697L102.10571593513706 171.07269041454697L102.10571593513706 172.41982663936955L101.74338895184867 172.41982663936955L101.74338895184867 170.85934508525668Q101.74338895184867 170.66400358122291 101.6871269979219 170.53437603937567Q101.63131513962654 170.40429840189697 101.52014151866726 170.33948463097335Q101.40896789770795 170.2746708600497 101.24018203592765 170.2746708600497L101.24018203592765 170.2746708600497Q101.0002810643839 170.2746708600497 100.85535027106854 170.37369189896083Q100.71041947775319 170.4727129378719 100.64560570682956 170.66715425064285Q100.58079193590592 170.86159556341374 100.58079193590592 171.14515581120466L100.58079193590592 171.14515581120466L100.58079193590592 172.41982663936955L100.21576437882905 172.41982663936955L100.21576437882905 170.01091482004102L100.5101269217739 170.01091482004102L100.56503858880643 170.35163721302152L100.58484279658865 170.35163721302152Q100.65775828887774 170.22651062748838 100.7675816229428 170.1409924575197Q100.87740495700784 170.05502419191959 101.01378393332634 170.01091482004102Q101.14971281401341 169.96725554379384 101.30364551995704 169.96725554379384L101.30364551995704 169.96725554379384Q101.57820385511968 169.96725554379384 101.76409335089372 170.06942725212485Q101.94998284666775 170.17159896045587 102.03325053847938 170.38044333343203L102.03325053847938 170.38044333343203L102.05305474626161 170.38044333343203Q102.17187999295493 170.17159896045587 102.37847388777404 170.06942725212485Q102.58506778259313 169.96725554379384 102.83127009297667 169.96725554379384ZM104.38274973446124 169.00000003188484L104.74732719590669 169.00000003188484L104.74732719590669 169.8551817315717Q104.74732719590669 170.00236300304414 104.73967557017266 170.1409924575197Q104.73202394443862 170.27917181636383 104.7279730837559 170.35613816933565L104.7279730837559 170.35613816933565L104.74732719590669 170.35613816933565Q104.84634823481781 170.19365364639515 105.03313792185469 170.08157983417303Q105.21992760889155 169.9695060219509 105.51023929115368 169.9695060219509L105.51023929115368 169.9695060219509Q105.96303549635631 169.9695060219509 106.23219268394197 170.28232248578374Q106.50134987152764 170.59558904524798 106.50134987152764 171.2131202515482L106.50134987152764 171.2131202515482Q106.50134987152764 171.6200067023466 106.37847376415158 171.89906599382334Q106.2551475611441 172.17812528530013 106.03099993669986 172.3208056004584Q105.8068523122556 172.4639360112481 105.5012373785254 172.4639360112481L105.5012373785254 172.4639360112481Q105.21587674820883 172.4639360112481 105.03223773059186 172.35726334660296Q104.84859871297488 172.25059068195782 104.74957767406377 172.09665797601417L104.74957767406377 172.09665797601417L104.72122164928467 172.09665797601417L104.64650577446993 172.41982663936955L104.38274973446124 172.41982663936955L104.38274973446124 169.00000003188484ZM105.45082666780701 170.2746708600497L105.45082666780701 170.2746708600497Q105.1893211059554 170.2746708600497 105.03538840001175 170.3768425683807Q104.88145569406811 170.47901427671172 104.81439144498741 170.684707980268Q104.74732719590669 170.89040168382425 104.74732719590669 171.20456843455133L104.74732719590669 171.20456843455133L104.74732719590669 171.22437264233355Q104.74732719590669 171.67896923006185 104.89900942369326 171.91977039286843Q105.05069165147984 172.16057155567498 105.45082666780701 172.16057155567498L105.45082666780701 172.16057155567498Q105.78704810447339 172.16057155567498 105.95538387062227 171.91436924529143Q106.12326954113975 171.6681669349079 106.12326954113975 171.21086977339112L106.12326954113975 171.21086977339112Q106.12326954113975 170.74502079487746 105.95718425314793 170.5100708752793Q105.79154906078753 170.2746708600497 105.45082666780701 170.2746708600497ZM108.06408190379756 169.96725554379384L108.06408190379756 169.96725554379384Q108.37149722005343 169.96725554379384 108.59159398381495 170.10363452011234Q108.81124065194506 170.2395634007994 108.92781542048131 170.4848655199201Q109.04394009338617 170.72971754340938 109.04394009338617 171.0573871630789L109.04394009338617 171.0573871630789L109.04394009338617 171.28378526568022L107.38038663967947 171.28378526568022Q107.38713807415068 171.70777535047233 107.59148149081271 171.9296724967595Q107.79582490747472 172.15156964304668 108.1671538033914 172.15156964304668L108.1671538033914 172.15156964304668Q108.39580238414979 172.15156964304668 108.57178977603272 172.1101608449566Q108.74732707228424 172.06830195123507 108.93636723747818 171.98683464194912L108.93636723747818 171.98683464194912L108.93636723747818 172.3077528271474Q108.75407850675546 172.38922013643338 108.57494044545263 172.42657807384074Q108.39580238414979 172.4639360112481 108.15185055192333 172.4639360112481L108.15185055192333 172.4639360112481Q107.80437672447161 172.4639360112481 107.54647192767129 172.32215588735266Q107.28811703523957 172.18037576345722 107.14543672008128 171.90536733266316Q107.00230630929158 171.63080899750054 107.00230630929158 171.23292445933043L107.00230630929158 171.23292445933043Q107.00230630929158 170.8440418337886 107.1332841380331 170.55958139473483Q107.2638118711432 170.2746708600497 107.5023625557927 170.1211882497375Q107.7409132404422 169.96725554379384 108.06408190379756 169.96725554379384ZM108.05958094748343 170.2661190430528L108.05958094748343 170.2661190430528Q107.76701878706423 170.2661190430528 107.59373196896978 170.45740968640382Q107.41999505524392 170.64825023412345 107.38713807415068 170.991223105261L107.38713807415068 170.991223105261L108.66180890231556 170.991223105261Q108.65955842415849 170.77607739344506 108.59474465323484 170.6122425836103Q108.5299308823112 170.44840777377556 108.39805286230686 170.3570383605985Q108.26617484230252 170.2661190430528 108.05958094748343 170.2661190430528ZM110.75835435344266 169.96725554379384L110.75835435344266 169.96725554379384Q110.83081975010035 169.96725554379384 110.91003658122924 169.97490716952785Q110.98925341235812 169.98255879526192 111.05046641823044 169.99561156857294L111.05046641823044 169.99561156857294L111.00455666382621 170.33408348339637Q110.94514404047953 170.3187802319283 110.87267864382186 170.3097783193Q110.80021324716418 170.3012265023031 110.73629966750337 170.3012265023031L110.73629966750337 170.3012265023031Q110.591368874188 170.3012265023031 110.46264152360357 170.35928883875556Q110.33436426865053 170.4178012708394 110.2375937078965 170.52627431801022Q110.14082314714244 170.63519746081244 110.08591148010993 170.78822997549324Q110.0309998130774 170.94081239454263 110.0309998130774 171.1276020815795L110.0309998130774 171.1276020815795L110.0309998130774 172.41982663936955L109.66372177784345 172.41982663936955L109.66372177784345 170.01091482004102L109.96708623341658 170.01091482004102L110.00669464898102 170.45515920824676L110.02199790044911 170.45515920824676Q110.09671377526385 170.32103071008535 110.20248624864618 170.20985708912605Q110.3078086263971 170.09913356379818 110.44733827213548 170.0329695059803Q110.58686791787386 169.96725554379384 110.75835435344266 169.96725554379384ZM112.72752274087956 169.20659392670393L113.56695109346695 169.20659392670393Q114.18898325608131 169.20659392670393 114.47569417329211 169.44964556766757Q114.76240509050292 169.69224711299978 114.76240509050292 170.14504331820243L114.76240509050292 170.14504331820243Q114.76240509050292 170.34938673486442 114.69579093705363 170.53302575248142Q114.62872668797293 170.7166647700984 114.47929493834343 170.8561944158368Q114.32986318871394 170.99572406157517 114.0868115477503 171.07584108396688Q113.84375990678666 171.15595810635858 113.49223521865221 171.15595810635858L113.49223521865221 171.15595810635858L113.1011021149533 171.15595810635858L113.1011021149533 172.41982663936955L112.72752274087956 172.41982663936955L112.72752274087956 169.20659392670393ZM113.53184363421664 169.52526163374512L113.53184363421664 169.52526163374512L113.1011021149533 169.52526163374512L113.1011021149533 170.83503992116033L113.45037632493069 170.83503992116033Q113.75824173681796 170.83503992116033 113.96393544037423 170.76932595897387Q114.16917904829907 170.70361199678737 114.27270104352434 170.5550804384207Q114.37577294311818 170.40654888005406 114.37577294311818 170.16034656967048L114.37577294311818 170.16034656967048Q114.37577294311818 169.8398784801036 114.17142952645615 169.68234500910867Q113.96708610979414 169.52526163374512 113.53184363421664 169.52526163374512ZM115.74721433203709 169.00000003188484L115.74721433203709 172.41982663936955L115.38038639243456 172.41982663936955L115.38038639243456 169.00000003188484L115.74721433203709 169.00000003188484ZM117.41751922021498 169.97175650010797L117.41751922021498 169.97175650010797Q117.84826073947833 169.97175650010797 118.05710511245451 170.16484752598464Q118.26594948543067 170.35838864749275 118.26594948543067 170.78237873228485L118.26594948543067 170.78237873228485L118.26594948543067 172.41982663936955L117.9999429672649 172.41982663936955L117.92972804876429 172.06380099492094L117.91217431913915 172.06380099492094Q117.81090280207096 172.1956790149253 117.70107946800591 172.2847979499453Q117.59125613394085 172.37346678933386 117.44722553188834 172.4189264481067Q117.3031949298358 172.4639360112481 117.09435055685964 172.4639360112481L117.09435055685964 172.4639360112481Q116.87470388872953 172.4639360112481 116.70411764442358 172.3869696582763Q116.53398149574902 172.31000330530446 116.43631074373215 172.15382012120375Q116.33818989608386 171.99763693710304 116.33818989608386 171.7581860611907L116.33818989608386 171.7581860611907Q116.33818989608386 171.397659460428 116.62400062203184 171.20456843455133Q116.90981134797983 171.01102731304326 117.49448557318681 170.9934735834181L117.49448557318681 170.9934735834181L117.90992384098207 170.97591985379296L117.90992384098207 170.8287385823205Q117.90992384098207 170.5163722141191 117.77579534282066 170.39124562858598Q117.64166684465924 170.2661190430528 117.39771501243277 170.2661190430528L117.39771501243277 170.2661190430528Q117.20867484723883 170.2661190430528 117.03718841167003 170.32103071008535Q116.86570197610125 170.3759423771179 116.71221936578903 170.45065825193262L116.71221936578903 170.45065825193262L116.5996954579355 170.17384943861293Q116.7626300765074 170.09013165116988 116.97372492764065 170.03071902782324Q117.18436968314248 169.97175650010797 117.41751922021498 169.97175650010797ZM117.90542288466793 171.4548216056176L117.90542288466793 171.23292445933043L117.53814484943399 171.24822771079852Q117.08759912238843 171.26623153605505 116.90305991350863 171.39585907790234Q116.71852070462882 171.5254866197496 116.71852070462882 171.76268701750487L116.71852070462882 171.76268701750487Q116.71852070462882 171.96928091232397 116.84364729016195 172.06830195123507Q116.9692239713265 172.16687289451477 117.1758178661456 172.16687289451477L117.1758178661456 172.16687289451477Q117.49673605134389 172.16687289451477 117.70107946800591 171.98908512010618Q117.90542288466793 171.8108472500662 117.90542288466793 171.4548216056176L117.90542288466793 171.4548216056176ZM119.79537444097593 172.16507251198914L119.79537444097593 172.16507251198914Q119.88539356725877 172.16507251198914 119.97991364985575 172.14931916488962Q120.07443373245272 172.13401591342154 120.13384635579939 172.11196122748225L120.13384635579939 172.11196122748225L120.13384635579939 172.39552147527317Q120.06993277613859 172.42432759568368 119.95695877265362 172.4441318034659Q119.84398476916867 172.4639360112481 119.73596181762927 172.4639360112481L119.73596181762927 172.4639360112481Q119.54467117427826 172.4639360112481 119.38893808580897 172.3968717621674Q119.23275490170826 172.3298075130867 119.13958510600553 172.16912337267183Q119.04596521467138 172.00888932788843 119.04596521467138 171.72532908009748L119.04596521467138 171.72532908009748L119.04596521467138 170.29672554598898L118.70299234353381 170.29672554598898L118.70299234353381 170.11893777158042L119.04821569282845 169.9758073607907L119.19314648614382 169.45279623708745L119.41279315427391 169.45279623708745L119.41279315427391 170.01091482004102L120.11854310433131 170.01091482004102L120.11854310433131 170.29672554598898L119.41279315427391 170.29672554598898L119.41279315427391 171.71452678494356Q119.41279315427391 171.9409248875449 119.517215340762 172.052998699767Q119.62163752725007 172.16507251198914 119.79537444097593 172.16507251198914ZM121.54939711659688 169.96725554379384L121.54939711659688 169.96725554379384Q121.85681243285273 169.96725554379384 122.07645910098285 170.10363452011234Q122.29655586474436 170.2395634007994 122.41313063328064 170.4848655199201Q122.52925530618549 170.72971754340938 122.52925530618549 171.0573871630789L122.52925530618549 171.0573871630789L122.52925530618549 171.28378526568022L120.8657018524788 171.28378526568022Q120.87245328695 171.70777535047233 121.07679670361203 171.9296724967595Q121.28114012027405 172.15156964304668 121.65246901619072 172.15156964304668L121.65246901619072 172.15156964304668Q121.88111759694911 172.15156964304668 122.05710498883204 172.1101608449566Q122.23264228508356 172.06830195123507 122.4216824502775 171.98683464194912L122.4216824502775 171.98683464194912L122.4216824502775 172.3077528271474Q122.23939371955478 172.38922013643338 122.06025565825195 172.42657807384074Q121.88111759694911 172.4639360112481 121.63716576472264 172.4639360112481L121.63716576472264 172.4639360112481Q121.28969193727093 172.4639360112481 121.03178714047061 172.32215588735266Q120.77343224803889 172.18037576345722 120.6307519328806 171.90536733266316Q120.4876215220909 171.63080899750054 120.4876215220909 171.23292445933043L120.4876215220909 171.23292445933043Q120.4876215220909 170.8440418337886 120.61859935083243 170.55958139473483Q120.74912708394254 170.2746708600497 120.98767776859202 170.1211882497375Q121.22622845324153 169.96725554379384 121.54939711659688 169.96725554379384ZM121.54489616028275 170.2661190430528L121.54489616028275 170.2661190430528Q121.25233399986354 170.2661190430528 121.0790471817691 170.45740968640382Q120.90531026804322 170.64825023412345 120.87245328695 170.991223105261L120.87245328695 170.991223105261L122.14712411511488 170.991223105261Q122.14487363695781 170.77607739344506 122.08005986603416 170.6122425836103Q122.01524609511054 170.44840777377556 121.88336807510618 170.3570383605985Q121.75149005510184 170.2661190430528 121.54489616028275 170.2661190430528ZM124.70726806659854 171.7604365393478L124.70726806659854 171.7604365393478Q124.70726806659854 171.99133559826328 124.59204358495653 172.1484189736268Q124.4763690076831 172.30550234899033 124.26212348712997 172.38471918011922Q124.04787796657683 172.4639360112481 123.7512649454749 172.4639360112481L123.7512649454749 172.4639360112481Q123.49876129625156 172.4639360112481 123.31377199174034 172.42432759568368Q123.12923278286056 172.38471918011922 122.9910534240164 172.31225378346153L122.9910534240164 172.31225378346153L122.9910534240164 171.9760323467952Q123.13823469548883 172.04849774345286 123.34257811215086 172.10791036679953Q123.54692152881287 172.16687289451477 123.7602668581032 172.16687289451477L123.7602668581032 172.16687289451477Q124.07218313067318 172.16687289451477 124.21306306330581 172.066051473078Q124.35349290030703 171.9647799560098 124.35349290030703 171.79149313791538L124.35349290030703 171.79149313791538Q124.35349290030703 171.69247209900425 124.29768104201167 171.61640593729527Q124.24141908808491 171.5407898712177 124.10954106808057 171.46922466582285Q123.97766304807621 171.397659460428 123.74496360663511 171.3121412904593L123.74496360663511 171.3121412904593Q123.51406454771964 171.22437264233355 123.34572878157076 171.13750418547062Q123.17784311105328 171.0506357286077 123.0864736978762 170.92550914307455Q122.99510428469912 170.79993246191 122.99510428469912 170.60009000156214L122.99510428469912 170.60009000156214Q122.99510428469912 170.2944750678319 123.24265688197691 170.13109035362857Q123.4897593836233 169.96725554379384 123.89214487810753 169.96725554379384L123.89214487810753 169.96725554379384Q124.10954106808057 169.96725554379384 124.29948142453733 170.01001462877818Q124.48987187662551 170.05277371376252 124.6546068777231 170.12523911042018L124.6546068777231 170.12523911042018L124.53173077034704 170.4178012708394Q124.38229902071754 170.35388769117858 124.21306306330581 170.3097783193Q124.0438271058941 170.2661190430528 123.86783971401117 170.2661190430528L123.86783971401117 170.2661190430528Q123.61488596915642 170.2661190430528 123.47985727973216 170.34938673486442Q123.34482859030793 170.43310452230747 123.34482859030793 170.57803531562283L123.34482859030793 170.57803531562283Q123.34482859030793 170.69010912784495 123.4073918830745 170.76257452450264Q123.46995517584105 170.83503992116033 123.60858463031661 170.8989535008211Q123.74676398916077 170.96286708048194 123.97316209176208 171.04838525045062L123.97316209176208 171.04838525045062Q124.19956019436339 171.13210303789364 124.36429519546098 171.22077187728223Q124.52948029218996 171.30989081230223 124.61814913157855 171.43636768472962Q124.70726806659854 171.562844557157 124.70726806659854 171.7604365393478ZM125.32029831658463 171.89681551566628L125.71188151591494 171.89681551566628L125.74023754069404 171.94722622638466Q125.70062912512958 172.10791036679953 125.64031631052009 172.29019909752225Q125.58000349591059 172.472487828245 125.50843829051573 172.65612684586196Q125.4368730851209 172.83976586347893 125.36440768846322 172.99999990826237L125.36440768846322 172.99999990826237L125.09209983145766 172.99999990826237Q125.13800958586191 172.82401251637944 125.18211895774049 172.62957120360852Q125.22622832961906 172.43512989083763 125.2622359801322 172.24518953438084Q125.29869372627674 172.05479908229267 125.32029831658463 171.89681551566628L125.32029831658463 171.89681551566628ZM129.4962855848451 171.56509503531407L129.4962855848451 171.56509503531407Q129.4962855848451 171.85045566563065 129.35450546094964 172.05164841287274Q129.21272533705417 172.25284116011488 128.9579712096738 172.35816353786578Q128.70276698666194 172.4639360112481 128.35799373299872 172.4639360112481L128.35799373299872 172.4639360112481Q128.17525490664457 172.4639360112481 128.01277038370407 172.44638228162296Q127.85028586076356 172.4288285519978 127.71390688444507 172.39552147527317Q127.57752790812658 172.36266449417994 127.47445600853274 172.31450426161862L127.47445600853274 172.31450426161862L127.47445600853274 171.95622813901295Q127.63919100963032 172.0241925793565 127.87639140738558 172.0822549158089Q128.11404190077226 172.14076734789276 128.3732969844668 172.14076734789276L128.3732969844668 172.14076734789276Q128.6149983385362 172.14076734789276 128.78198381779083 172.0759535769691Q128.9489692970455 172.0111398060455 129.03583775390842 171.88916388993226Q129.12270621077136 171.76718797381903 129.12270621077136 171.59570153825024L129.12270621077136 171.59570153825024Q129.12270621077136 171.43096653715264 129.0502408141137 171.31979291619336Q128.9773253218246 171.20906939086547 128.80943965130712 171.1176999776884Q128.64110388515823 171.02633056451134 128.3512422985275 170.92325866491748L128.3512422985275 170.92325866491748Q128.14689888186547 170.8507932682598 127.99071569776478 170.76392481139686Q127.83453251366407 170.67705635453393 127.72921013591315 170.5672330204689Q127.62388775816224 170.45740968640382 127.56987628239254 170.31202879745706Q127.51586480662284 170.1670980041417 127.51586480662284 169.98030831710486L127.51586480662284 169.98030831710486Q127.51586480662284 169.72330371156738 127.64684263536437 169.53966469395039Q127.77737036847446 169.35602567633342 128.00961971428416 169.25835492431656Q128.24141896446247 169.16068417229968 128.54253294187853 169.16068417229968L128.54253294187853 169.16068417229968Q128.799537547416 169.16068417229968 129.01828402428328 169.208844404861Q129.23703050115054 169.25745473305372 129.4193192318733 169.33847194670827L129.4193192318733 169.33847194670827L129.302744463337 169.65939013190655Q129.12900754961117 169.58692473524889 128.93456623684025 169.53876450268757Q128.74012492406933 169.49015417449482 128.53353102925024 169.49015417449482L128.53353102925024 169.49015417449482Q128.32693713443115 169.49015417449482 128.18515701053568 169.55046698910434Q128.04337688664023 169.61122989934523 127.96866101182547 169.7210532334103Q127.89394513701072 169.83087656747534 127.89394513701072 169.98255879526192L127.89394513701072 169.98255879526192Q127.89394513701072 170.15179475267365 127.9655103424056 170.26386856489574Q128.03707554780044 170.3759423771179 128.19415892316397 170.46281083398083Q128.3512422985275 170.54967929084376 128.61049738222206 170.6441993734407L128.61049738222206 170.6441993734407Q128.89405763001298 170.74727127303456 129.09164961220378 170.862945850308Q129.28969169002602 170.97817033195003 129.39276358961985 171.14425561994182Q129.4962855848451 171.30989081230223 129.4962855848451 171.56509503531407ZM133.41031719562253 169.20659392670393L133.80145029932143 169.20659392670393L132.94221773895183 172.41982663936955L132.566387886721 172.41982663936955L131.92905247263857 170.25711713042455Q131.90069644785947 170.16484752598464 131.87504099686888 170.07167773028192Q131.84983564150969 169.9780578389478 131.8277809555704 169.89343986024193Q131.8061763652625 169.80882188153606 131.79177330505726 169.7440081106124Q131.77737024485202 169.67919433968876 131.7710689060122 169.64633735859553L131.7710689060122 169.64633735859553Q131.76656794969807 169.67919433968876 131.75441536764987 169.7431079193496Q131.7422627856017 169.806571403379 131.72380886471373 169.89028919082202Q131.70490484819433 169.97355688263363 131.67969949283514 170.0680769652306Q131.65449413747595 170.16259704782757 131.62568801706544 170.2593676085816L131.62568801706544 170.2593676085816L131.00590633260816 172.41982663936955L130.63007648037734 172.41982663936955L129.77759535447893 169.20659392670393L130.16647798002077 169.20659392670393L130.68318776488422 171.22212216417648Q130.70929331150623 171.32294358561325 130.73224818870835 171.42106443326153Q130.7556531615419 171.5187351852784 130.77410708242985 171.61100478971832Q130.79301109894928 171.7032743941582 130.80831435041733 171.79149313791538Q130.82361760188545 171.87926178604113 130.83667037519643 171.96252947785274L130.83667037519643 171.96252947785274Q130.8479227659818 171.87701130788406 130.86547649560694 171.78339141654993Q130.8830302252321 171.69022162084718 130.90373462427715 171.59345106009314Q130.92488911895362 171.4966804993391 130.9500944743128 171.397659460428Q130.975299829672 171.2990885171483 131.0036558544511 171.2000674782372L131.0036558544511 171.2000674782372L131.58202874081826 169.20659392670393L131.96641041004594 169.20659392670393L132.5686383648781 171.21537072970528Q132.59924486781424 171.31889272493052 132.62580051006768 171.41971414636728Q132.65235615232112 171.52098566343545 132.67306055136618 171.61640593729527Q132.6937649504112 171.7122763067865 132.71041848877354 171.79914476364942Q132.72707202713588 171.88556312488095 132.7401248004469 171.96252947785274L132.7401248004469 171.96252947785274Q132.75542805191495 171.85495662194478 132.77748273785426 171.73613137525143Q132.79953742379354 171.61775622418952 132.8292437354669 171.48812868234222Q132.8589500471402 171.35850114049498 132.8940575063905 171.21987168601942L132.8940575063905 171.21987168601942L133.41031719562253 169.20659392670393ZM135.44745002340298 169.20659392670393L135.44745002340298 172.41982663936955L135.0914243789544 172.41982663936955L135.0914243789544 170.14279284004533Q135.0914243789544 170.0131652981981 135.09277466584862 169.91999550249534Q135.09367485711147 169.8263756111612 135.09727562216278 169.74850906692654Q135.10042629158266 169.6706425226919 135.10717772605386 169.58917521340595L135.10717772605386 169.58917521340595Q135.03876319007892 169.65939013190655 134.97935056673225 169.70890065136211Q134.920388039017 169.75841117081768 134.83216929525983 169.83087656747534L134.83216929525983 169.83087656747534L134.4653413556573 170.12523911042018L134.2740507123063 169.877236417511L135.14453566346126 169.20659392670393L135.44745002340298 169.20659392670393ZM139.28271489868294 172.41982663936955L138.8960827512982 172.41982663936955L138.50044869128516 171.39990993858507L137.21227499417785 171.39990993858507L136.81889141232188 172.41982663936955L136.44126117756542 172.41982663936955L137.69792818047372 169.1935411533929L138.0345997127715 169.1935411533929L139.28271489868294 172.41982663936955ZM137.33785167534242 171.06818945823284L138.38837487906304 171.06818945823284L138.0125450268322 170.05502419191959Q137.9990421578898 170.01541577635516 137.96978594184787 169.92539665007232Q137.94007963017452 169.83537752378948 137.90902303160695 169.73860696303544Q137.8784165286708 169.6418364022814 137.85861232088857 169.58242377893475L137.85861232088857 169.58242377893475Q137.8365576349493 169.67244290521757 137.8113522795901 169.76156184023756Q137.78614692423088 169.85068077525756 137.76184176013453 169.92629684133516Q137.73753659603818 170.00236300304414 137.719982866413 170.05502419191959L137.719982866413 170.05502419191959L137.33785167534242 171.06818945823284ZM142.7835587198222 172.08585568086022L142.7835587198222 172.41982663936955L140.6784614516982 172.41982663936955L140.6784614516982 172.11421170563932L141.53769401206785 171.2419263719587Q141.77714488798017 171.0002250178893 141.9409796978149 170.81118485269536Q142.10481450764965 170.62214468750142 142.19033267761836 170.43850566988445Q142.27585084758704 170.25486665226748 142.27585084758704 170.03521998413737L142.27585084758704 170.03521998413737Q142.27585084758704 169.7629121271318 142.11426651590935 169.61888152507927Q141.9531322798631 169.47485092302674 141.6893762398544 169.47485092302674L141.6893762398544 169.47485092302674Q141.45847718093893 169.47485092302674 141.28023931089893 169.55406775415565Q141.10245153649035 169.6332845852845 140.91566184945347 169.7782153785999L140.91566184945347 169.7782153785999L140.71987024978833 169.53201306821634Q140.84769740910994 169.42444021230835 140.99802935000227 169.34072242486533Q141.14836129089457 169.25745473305372 141.32119801335762 169.208844404861Q141.49358464018925 169.16068417229968 141.6893762398544 169.16068417229968L141.6893762398544 169.16068417229968Q141.98598926095633 169.16068417229968 142.2011349727723 169.2637560718935Q142.41673078021967 169.36727806711878 142.53420574001876 169.55856871046979Q142.65168069981786 169.7494092581894 142.65168069981786 170.0131652981981L142.65168069981786 170.0131652981981Q142.65168069981786 170.26836952120988 142.5508592783811 170.48711599807717Q142.4495877613129 170.70541237931303 142.26729903059018 170.91965789986617Q142.08501029986743 171.13435351605074 141.84105846764098 171.37380439196306L141.84105846764098 171.37380439196306L141.1420599520548 172.07055242939214L141.1420599520548 172.08585568086022L142.7835587198222 172.08585568086022ZM145.87166484695467 172.41982663936955L145.48458260393852 172.41982663936955L145.08894854392545 171.39990993858507L143.80122494244958 171.39990993858507L143.40784136059364 172.41982663936955L143.02976103020575 172.41982663936955L144.28687812874546 169.1935411533929L144.62309956541182 169.1935411533929L145.87166484695467 172.41982663936955ZM143.92635152798272 171.06818945823284L144.97687473170333 171.06818945823284L144.6010448794725 170.05502419191959Q144.58799210616152 170.01541577635516 144.5582857944882 169.92539665007232Q144.52857948281485 169.83537752378948 144.49797297987868 169.73860696303544Q144.46736647694252 169.6418364022814 144.4475622691603 169.58242377893475L144.4475622691603 169.58242377893475Q144.42550758322102 169.67244290521757 144.4003022278618 169.76156184023756Q144.3746467768712 169.85068077525756 144.35079170840626 169.92629684133516Q144.3264865443099 170.00236300304414 144.30893281468474 170.05502419191959L144.30893281468474 170.05502419191959L143.92635152798272 171.06818945823284ZM148.71761952438635 172.41982663936955L148.33098737700158 172.41982663936955L147.93535331698854 171.39990993858507L146.64717961988126 171.39990993858507L146.25379603802529 172.41982663936955L145.8757157076374 172.41982663936955L147.13283280617713 169.1935411533929L147.46905424284347 169.1935411533929L148.71761952438635 172.41982663936955ZM146.7727563010458 171.06818945823284L147.82327950476642 171.06818945823284L147.44744965253562 170.05502419191959Q147.43394678359317 170.01541577635516 147.40424047191985 169.92539665007232Q147.37498425587793 169.83537752378948 147.34392765731036 169.73860696303544Q147.3133211543742 169.6418364022814 147.29351694659198 169.58242377893475L147.29351694659198 169.58242377893475Q147.27146226065267 169.67244290521757 147.24625690529348 169.76156184023756Q147.2210515499343 169.85068077525756 147.1967463858379 169.92629684133516Q147.17244122174156 170.00236300304414 147.15488749211642 170.05502419191959L147.15488749211642 170.05502419191959L146.7727563010458 171.06818945823284Z " fill="black"></path><path d="M210.56983374301834 172.97329315608147L210.56983374301834 171.02779668047884L211.12058992416317 171.02779668047884Q211.48521722271425 171.02779668047884 211.66889345531774 171.13707586337793Q211.8525696879212 171.24608252961144 211.8525696879212 171.50824356190304L211.8525696879212 171.50824356190304Q211.8525696879212 171.62133797812032 211.80923953809338 171.71126847776299Q211.76590938826556 171.80092646074002 211.68333683859368 171.85951754384052Q211.60103680558737 171.91810862694106 211.47976688940258 171.9407275101845L211.47976688940258 171.9407275101845L211.47976688940258 171.95408082679813Q211.6075772055614 171.97397454338574 211.70595572183714 172.02711529317457Q211.80460675477846 172.080528559629 211.86047267122314 172.1761819092489Q211.9163385876678 172.27210777553438 211.9163385876678 172.4198118082808L211.9163385876678 172.4198118082808Q211.9163385876678 172.59940029090052 211.83322100466475 172.72312285707557Q211.7501034216617 172.84684542325058 211.59831163893153 172.910069289666Q211.44651985620138 172.97329315608147 211.23913467369212 172.97329315608147L211.23913467369212 172.97329315608147L210.56983374301834 172.97329315608147ZM210.79602257545287 171.22073847971217L210.79602257545287 171.8622427104964L211.1685528573059 171.8622427104964Q211.42253838963 171.8622427104964 211.52037187257457 171.77830757749658Q211.61820535551917 171.69464496116234 211.61820535551917 171.53358761180235L211.61820535551917 171.53358761180235Q211.61820535551917 171.36707992913065 211.50184073931487 171.29404546275418Q211.3854761231106 171.22073847971217 211.13121807412094 171.22073847971217L211.13121807412094 171.22073847971217L210.79602257545287 171.22073847971217ZM211.1805435905916 172.05245934307385L210.79602257545287 172.05245934307385L210.79602257545287 172.78035135684814L211.20043730717921 172.78035135684814Q211.45987317281498 172.78035135684814 211.56778977238616 172.6784301239198Q211.67543385529174 172.57678140765705 211.67543385529174 172.40373332501136L211.67543385529174 172.40373332501136Q211.67543385529174 172.29336407544992 211.62692588881782 172.2148792757618Q211.57841792234393 172.13639447607366 211.46995628944157 172.09442690957377Q211.36149465653924 172.05245934307385 211.1805435905916 172.05245934307385L211.1805435905916 172.05245934307385ZM213.42798853166104 172.45578400813787L213.42798853166104 172.45578400813787Q213.42798853166104 172.628559574118 213.34214578200215 172.75037452363392Q213.25630303234328 172.8721894731499 213.10205859962286 172.9359583728965Q212.94754165023684 172.99999978930867 212.73879388439966 172.99999978930867L212.73879388439966 172.99999978930867Q212.62815211817266 172.99999978930867 212.52977360189692 172.9893716393509Q212.43139508562115 172.97874348939314 212.34882253594927 172.95857725613996Q212.2662499862774 172.93868353955233 212.2038436698587 172.90952425633486L212.2038436698587 172.90952425633486L212.2038436698587 172.69260099053017Q212.30358476946236 172.73375100703333 212.447201052225 172.76890565689362Q212.59108985165327 172.80433282341951 212.74805945102952 172.80433282341951L212.74805945102952 172.80433282341951Q212.894400900448 172.80433282341951 212.99550458337959 172.76509042357546Q213.09660826631116 172.72584802373137 213.14920398276885 172.65199600735818Q213.2017996992265 172.57814399098498 213.2017996992265 172.47431514139754L213.2017996992265 172.47431514139754Q213.2017996992265 172.3745740417939 213.15792451606754 172.3072624253947Q213.11404933290854 172.24022332566108 213.0121280999802 172.18490244254758Q212.91020686705187 172.1295815594341 212.73470613441592 172.06717524301538L212.73470613441592 172.06717524301538Q212.61098356824087 172.0233000598564 212.5164202852833 171.97070434339872Q212.42185700232574 171.91810862694106 212.35808810257913 171.85161456053862Q212.29431920283253 171.78512049413615 212.26161720296247 171.69709761115263Q212.2289152030924 171.60934724483462 212.2289152030924 171.49625282861734L212.2289152030924 171.49625282861734Q212.2289152030924 171.34064581256902 212.30821755277728 171.22945901301085Q212.3872473857966 171.11827221345266 212.5278659852378 171.059136097021Q212.66821206801347 170.99999998058928 212.85052571728903 170.99999998058928L212.85052571728903 170.99999998058928Q213.00613273333735 170.99999998058928 213.13857583281109 171.02915926380678Q213.2710189322848 171.0585910636898 213.38138818184623 171.1076440634949L213.38138818184623 171.1076440634949L213.31080636546002 171.30194844605614Q213.20561493254468 171.25807326289714 213.0878877330125 171.22891397967967Q212.9701605334803 171.19948217979663 212.84507538397733 171.19948217979663L212.84507538397733 171.19948217979663Q212.71999023447438 171.19948217979663 212.6341474848155 171.23599941298485Q212.5483047351566 171.27278916283865 212.50306696866969 171.33928322924112Q212.45782920218278 171.40577729564353 212.45782920218278 171.49761541194528L212.45782920218278 171.49761541194528Q212.45782920218278 171.6000816782048 212.5011593520106 171.66793832793513Q212.54448950183843 171.7357949776655 212.63959781812719 171.78839069412317Q212.73470613441592 171.84098641058085 212.89167573379217 171.89821491035343L212.89167573379217 171.89821491035343Q213.06336123310996 171.96062122677213 213.18299604930124 172.03065800982716Q213.3029033821581 172.1004222762166 213.3653096985768 172.20098092581702Q213.42798853166104 172.30126705875188 213.42798853166104 172.45578400813787ZM215.27892172430612 172.97329315608147L215.04455739190405 172.97329315608147L214.8052877595215 172.35577039186862L214.02534506262072 172.35577039186862L213.78716549690049 172.97329315608147L213.5582514978101 172.97329315608147L214.31939054478562 171.0198936971769L214.52296049397668 171.0198936971769L215.27892172430612 172.97329315608147ZM214.1013772123186 172.15492560933336L214.73743110979112 172.15492560933336L214.50987969402868 171.54149059510428Q214.50170419406115 171.51750912853288 214.48371809413263 171.46300579541614Q214.4657319942041 171.4085024622994 214.4472008609444 171.3499113791989Q214.4286697276847 171.29132029609838 214.416678994399 171.25534809624128L214.416678994399 171.25534809624128Q214.4033256777854 171.30985142935805 214.38806474451272 171.36380972914364Q214.37280381124003 171.41776802892923 214.3580879112985 171.46355082874732Q214.343372011357 171.50960614523098 214.33274386139922 171.54149059510428L214.33274386139922 171.54149059510428L214.1013772123186 172.15492560933336ZM216.79438690161751 171.02779668047884L217.01948566738972 171.02779668047884L217.01948566738972 172.2865511588103Q217.01948566738972 172.49284627465727 216.93609556772108 172.6539036240173Q216.85297798471802 172.81496097337728 216.685380235384 172.9073441230102Q216.51778248604998 172.99999978930867 216.26488702038824 172.99999978930867L216.26488702038824 172.99999978930867Q215.9043474718209 172.99999978930867 215.7160384559025 172.80433282341951Q215.5277294399841 172.60866585753035 215.5277294399841 172.28137334216424L215.5277294399841 172.28137334216424L215.5277294399841 171.02779668047884L215.75528085574655 171.02779668047884L215.75528085574655 172.28791374213824Q215.75528085574655 172.5356313911539 215.88636137189235 172.66998210728673Q216.01744188803815 172.80433282341951 216.27824033700185 172.80433282341951L216.27824033700185 172.80433282341951Q216.45646623629364 172.80433282341951 216.57037820250764 172.73974637367616Q216.6840176520561 172.67515992393282 216.7393385351696 172.55879530772853Q216.79438690161751 172.44243069152424 216.79438690161751 172.28927632546618L216.79438690161751 172.28927632546618L216.79438690161751 171.02779668047884ZM218.93282517645346 171.02779668047884L218.93282517645346 172.97329315608147L218.7172644939767 172.97329315608147L218.7172644939767 171.59463134489312Q218.7172644939767 171.51614654520498 218.71780952730785 171.45973559542915Q218.7186270773046 171.40305212898772 218.7205346939637 171.3559067458417Q218.72271482728837 171.30876136269572 218.72653006060654 171.25943584622507L218.72653006060654 171.25943584622507Q218.6853800441034 171.30194844605614 218.64940784424633 171.33192527927034Q218.61343564438926 171.36190211248456 218.56029489460045 171.40577729564353L218.56029489460045 171.40577729564353L218.33792129548408 171.58400319493535L218.22237422927654 171.43384651219867L218.74914894385 171.02779668047884L218.93282517645346 171.02779668047884ZM221.04046906807844 172.3225233586674L221.04046906807844 172.5222780745403L220.74914875256937 172.5222780745403L220.74914875256937 172.97329315608147L220.5335880700926 172.97329315608147L220.5335880700926 172.5222780745403L219.59286054049738 172.5222780745403L219.59286054049738 172.33587667528099L220.51887217015107 171.01716853052108L220.74914875256937 171.01716853052108L220.74914875256937 172.3225233586674L221.04046906807844 172.3225233586674ZM219.81250897295791 172.3225233586674L220.5335880700926 172.3225233586674L220.5335880700926 171.68646946119486Q220.5335880700926 171.6134349948184 220.53495065342054 171.55402636172113Q220.53631323674844 171.49489024528944 220.53903840340428 171.4436571121597Q220.54149105339454 171.39242397902996 220.5436711867192 171.34582362921512Q220.5455788033783 171.29922327940028 220.5469413867062 171.25398551291337L220.5469413867062 171.25398551291337L220.53631323674844 171.25398551291337Q220.51096918684914 171.30739877936782 220.4782671869791 171.36653489579948Q220.44583770377463 171.42567101223116 220.4125906705734 171.472271362046L220.4125906705734 171.472271362046L219.81250897295791 172.3225233586674ZM221.84166806489475 171.78375791080825L221.84166806489475 171.78375791080825Q222.03978768077417 171.78375791080825 222.18640164685826 171.85079701054187Q222.33274309627674 171.91810862694106 222.41313551262397 172.04591894309985Q222.49352792897116 172.17345674259306 222.49352792897116 172.35577039186862L222.49352792897116 172.35577039186862Q222.49352792897116 172.55552510774152 222.40714014598112 172.69995894050095Q222.32075236299104 172.84412025659475 222.15833243030312 172.9220600229517Q221.9959124976152 172.99999978930867 221.76972366518063 172.99999978930867L221.76972366518063 172.99999978930867Q221.61820439911605 172.99999978930867 221.48766891630143 172.97329315608147Q221.35740595015238 172.94658652285426 221.2680204838409 172.89344577306542L221.2680204838409 172.89344577306542L221.2680204838409 172.6833354239003Q221.36530893345432 172.74165399033524 221.50374739957087 172.7762636068644Q221.64191334902185 172.81087322339351 221.77244883183647 172.81087322339351L221.77244883183647 172.81087322339351Q221.9201528645829 172.81087322339351 222.0313396641411 172.76372784024755Q222.14225394703368 172.71658245710154 222.2041152301212 172.62011155748488Q222.26597651320873 172.5236406578682 222.26597651320873 172.37702669178415L222.26597651320873 172.37702669178415Q222.26597651320873 172.1829948258885 222.1468867303486 172.0769858429764Q222.0277969474885 171.9712493767299 221.77108624850857 171.9712493767299L221.77108624850857 171.9712493767299Q221.6885136988367 171.9712493767299 221.59013518256094 171.9846026933435Q221.4917566662852 171.9979560099571 221.427715249873 172.01376197656097L221.427715249873 172.01376197656097L221.31598341698364 171.9407275101845L221.3906529833536 171.02779668047884L222.35781462951044 171.02779668047884L222.35781462951044 171.23027656300758L221.57950703260315 171.23027656300758L221.5301815161325 171.81700494400945Q221.58086961593108 171.8063767940517 221.66071699894712 171.7949310940972Q221.74056438196317 171.78375791080825 221.84166806489475 171.78375791080825ZM224.00000005631833 172.77381095687412L224.00000005631833 172.97329315608147L222.91674631062278 172.97329315608147L222.91674631062278 171.02779668047884L224.00000005631833 171.02779668047884L224.00000005631833 171.22755139635177L223.14293514305731 171.22755139635177L223.14293514305731 171.85679237718472L223.95067453984765 171.85679237718472L223.95067453984765 172.05382192640178L223.14293514305731 172.05382192640178L223.14293514305731 172.77381095687412L224.00000005631833 172.77381095687412Z " fill="black"></path></svg>