<svg xmlns="http://www.w3.org/2000/svg" version="1.1" xmlns:xlink="http://www.w3.org/1999/xlink" xmlns:svgjs="http://svgjs.dev/svgjs" generator="Plateit 2.2.0" viewBox="0 0 279 203" preserveAspectRatio="xMidYMid meet"><rect width="279" height="203" rx="3" ry="3" fill="yellow" class="do-not-print"></rect><rect width="218" height="191" rx="3" ry="3" x="55" y="6" stroke-width="2" stroke="url(#SvgjsLinearGradient1000)" fill="none" mask="url(#SvgjsMask1001)"></rect><defs><linearGradient id="SvgjsLinearGradient1000"><stop stop-opacity="1" stop-color="black" offset="0"></stop><stop stop-opacity="1" stop-color="red" offset="0.5"></stop><stop stop-opacity="1" stop-color="blue" offset="1"></stop></linearGradient><mask id="SvgjsMask1001"><rect width="279" height="203" fill="white" x="0" y="0"></rect><rect width="74.43524169921875" height="8" fill="black" x="126.78237915039062" y="193"></rect><rect width="19.430160522460938" height="8" fill="black" x="245.56983947753906" y="193"></rect></mask><radialGradient id="SvgjsRadialGradient1002"><stop stop-opacity="1" stop-color="red" offset="0"></stop><stop stop-opacity="1" stop-color="black" offset="1"></stop></radialGradient><linearGradient x1="0" y1="0" x2="0" y2="1" id="SvgjsLinearGradient1003"><stop stop-opacity="1" stop-color="blue" offset="0"></stop><stop stop-opacity="1" stop-color="green" offset="1"></stop></linearGradient><mask id="SvgjsMask1004"><rect width="44" height="193" fill="white" x="5" y="5"></rect><path d="M15.888751262115647 180.9049796582609L17.391544857008796 180.9049796582609L17.391544857008796 184.2525711964963Q17.391544857008796 184.95294001029046 17.125108667556503 185.4678941659278Q16.85867247810421 185.98362737475065 16.326579152385193 186.263307468357Q15.793706773480608 186.54298756196334 14.991281992381573 186.54298756196334L14.991281992381573 186.54298756196334Q13.842178543720365 186.54298756196334 13.237633271746745 185.95324430051485Q12.632308946587614 185.36350103906636 12.632308946587614 184.28684953665973L12.632308946587614 184.28684953665973L12.632308946587614 180.9049796582609L14.142893073336154 180.9049796582609L14.142893073336154 184.16921250564425Q14.142893073336154 184.75895576709274 14.363365124841948 185.0246129033595Q14.5838371763478 185.2910490928118 15.013874534762067 185.2910490928118L15.013874534762067 185.2910490928118Q15.322379596233077 185.2910490928118 15.516363839430824 185.17497016816736Q15.71034808262857 185.05889124352296 15.799160145779297 184.8080361177813Q15.888751262115647 184.5571809920397 15.888751262115647 184.16142197378892L15.888751262115647 184.16142197378892L15.888751262115647 180.9049796582609ZM23.854570084190698 180.9049796582609L23.854570084190698 186.4666403497811L21.883565524792175 186.4666403497811L19.852573870107562 182.54878187973557L19.818295529944123 182.54878187973557Q19.836992806396893 182.72718505922262 19.852573870107562 182.97804018496427Q19.868154933818232 183.22967436389143 19.879061678415724 183.48987812785947Q19.890747476198726 183.75086094501302 19.890747476198726 183.95964719873587L19.890747476198726 183.95964719873587L19.890747476198726 186.4666403497811L18.559345582122774 186.4666403497811L18.559345582122774 180.9049796582609L20.52178055648045 180.9049796582609L22.54576073249524 184.7698625116902L22.568353274875676 184.7698625116902Q22.557446530278185 184.5875640662755 22.54576073249524 184.34605757876025Q22.534074934712237 184.104551091245 22.524726296485824 183.85681217824552Q22.515377658259467 183.60985231843154 22.515377658259467 183.41976334116148L22.515377658259467 183.41976334116148L22.515377658259467 180.9049796582609L23.854570084190698 180.9049796582609ZM26.566454223031087 186.4666403497811L25.05664914946817 186.4666403497811L25.05664914946817 180.9049796582609L26.566454223031087 180.9049796582609L26.566454223031087 186.4666403497811ZM30.22255082273756 182.1335465318465L30.22255082273756 186.4666403497811L28.719757227844354 186.4666403497811L28.719757227844354 182.1335465318465L27.361867525460298 182.1335465318465L27.361867525460298 180.9049796582609L31.57654525919395 180.9049796582609L31.57654525919395 182.1335465318465L30.22255082273756 182.1335465318465ZM35.67358596191207 185.24196874212322L35.67358596191207 186.4666403497811L32.37117950843765 186.4666403497811L32.37117950843765 180.9049796582609L35.67358596191207 180.9049796582609L35.67358596191207 182.11095398946603L33.8739731033308 182.11095398946603L33.8739731033308 182.9858307168196L35.54036786718592 182.9858307168196L35.54036786718592 184.19180504802472L33.8739731033308 184.19180504802472L33.8739731033308 185.24196874212322L35.67358596191207 185.24196874212322ZM41.36768569497286 183.56778344641276L41.36768569497286 183.56778344641276Q41.36768569497286 184.53770466240138 41.00620501688559 185.18120259365162Q40.644724338798255 185.82392147171637 39.98876155657945 186.14489138415598Q39.33279877436064 186.4666403497811 38.44623624922406 186.4666403497811L38.44623624922406 186.4666403497811L36.647402443828355 186.4666403497811L36.647402443828355 180.9049796582609L38.571663812094926 180.9049796582609Q39.469912135014454 180.9049796582609 40.093154683440844 181.21348471973198Q40.7171762850528 181.52121072801754 41.042820516605616 182.1148492553937Q41.36768569497286 182.70848778276985 41.36768569497286 183.56778344641276ZM39.80802121753578 183.62153811621454L39.80802121753578 183.62153811621454Q39.80802121753578 183.11515354561809 39.673245016438614 182.78249783539547Q39.53846881534139 182.4498421251729 39.26813735996143 182.28390379665436Q38.99780590458147 182.11874452132136 38.58724487580554 182.11874452132136L38.58724487580554 182.11874452132136L38.14941698553599 182.11874452132136L38.14941698553599 185.23417821026788L38.48440985531522 185.23417821026788Q39.16919760539872 185.23417821026788 39.48860941146722 184.83686108564604Q39.80802121753578 184.43876490783867 39.80802121753578 183.62153811621454Z M10.982045112651065 191.9021258305796L12.679047953715212 194.9248162436866L11.00812924311947 194.9248162436866L9.925637828679385 192.83118118344066L9.48757787287127 193.0927896684329L9.48757787287127 194.9248162436866L8.000015255862479 194.9248162436866L8.000015255862479 189.44791602562293L9.48757787287127 189.44791602562293L9.48757787287127 191.82694216040588Q9.58117387043444 191.6474219683584 9.703155539389797 191.46713459600304Q9.824370028037208 191.28761440395556 9.940981434837283 191.12650653929757L9.940981434837283 191.12650653929757L11.09098471637219 189.44791602562293L12.70896798572312 189.44791602562293L10.982045112651065 191.9021258305796ZM14.758106588111104 194.9248162436866L13.27131115141026 194.9248162436866L13.27131115141026 189.44791602562293L14.758106588111104 189.44791602562293L14.758106588111104 194.9248162436866ZM21.156390355956944 189.44791602562293L21.156390355956944 194.9248162436866L19.216191357289972 194.9248162436866L17.21538511429935 191.06666647528175L17.181629180751997 191.06666647528175Q17.200808688449342 191.24235076578975 17.21538511429935 191.489382824932Q17.230728720457307 191.73718206438213 17.241469244767814 191.99342028721912Q17.252976949386266 192.250425690364 17.252976949386266 192.45603001287992L17.252976949386266 192.45603001287992L17.252976949386266 194.9248162436866L15.941865803193366 194.9248162436866L15.941865803193366 189.44791602562293L17.87516017908922 189.44791602562293L19.867527438693003 193.25389753309088L19.89054284792985 193.25389753309088Q19.879035143311455 193.07437734104343 19.867527438693003 192.83655144559592Q19.856786914382496 192.59872555014843 19.846813570379823 192.35476221223774Q19.837607406685095 192.11156605463498 19.837607406685095 191.92437405950855L19.837607406685095 191.92437405950855L19.837607406685095 189.44791602562293L21.156390355956944 189.44791602562293ZM24.538888333466787 192.86110121544857L24.538888333466787 191.71800255668475L26.902570862091807 191.71800255668475L26.902570862091807 194.6701123814654Q26.479087332133645 194.8158766399655 25.93285495291235 194.9079382769129Q25.385855393383054 194.99999991386034 24.785920392609 194.99999991386034L24.785920392609 194.99999991386034Q23.995724675476993 194.99999991386034 23.400392756550275 194.69236061039436Q22.804293657315725 194.38548848723627 22.471337403689233 193.75793499537804Q22.137613969754852 193.13038150351977 22.137613969754852 192.1714061186508L22.137613969754852 192.1714061186508Q22.137613969754852 191.30986263288452 22.467501502149787 190.68230914102625Q22.79738903454472 190.054755649168 23.439518952252968 189.71259323184677Q24.08164886996127 189.3696636342176 25.014540124361815 189.3696636342176L25.014540124361815 189.3696636342176Q25.527783750343644 189.3696636342176 25.988859115388664 189.4670955333203Q26.449167300125794 189.56452743242298 26.790562537139124 189.71412759246255L26.790562537139124 189.71412759246255L26.321815369015155 190.87563857861585Q26.02645095047552 190.72910713980787 25.70807112269904 190.65622501055782Q25.3896912949225 190.58334288130777 25.022211927440765 190.58334288130777L25.022211927440765 190.58334288130777Q24.531216530387837 190.58334288130777 24.23355057092448 190.80429080998158Q23.935884611461177 191.0252387386554 23.80086087727159 191.394252466753Q23.665837143082058 191.7632661948506 23.665837143082058 192.20899795373765L23.665837143082058 192.20899795373765Q23.665837143082058 192.71840567818006 23.810067040966373 193.06900707888815Q23.954296938850632 193.41884129928837 24.23355057092448 193.60066303225952Q24.512804202998325 193.78248476523066 24.910203602488025 193.78248476523066L24.910203602488025 193.78248476523066Q25.04062425483022 193.78248476523066 25.230117790880342 193.76330525753332Q25.419611326930408 193.7448929301438 25.517043226033138 193.71880879967537L25.517043226033138 193.71880879967537L25.517043226033138 192.86110121544857L24.538888333466787 192.86110121544857ZM32.66793087592407 192.07013831800865L32.66793087592407 192.07013831800865Q32.66793087592407 193.02527780133812 32.31195921306073 193.65896873565956Q31.955987550197392 194.29189248967307 31.310021730949643 194.6079707765259Q30.664055911701894 194.9248162436866 29.791004721317165 194.9248162436866L29.791004721317165 194.9248162436866L28.018818210079303 194.9248162436866L28.018818210079303 189.44791602562293L29.9145207508883 189.44791602562293Q30.798312465583535 189.44791602562293 31.41282389220754 189.7517194275494Q32.027335318831604 190.054755649168 32.34724950722392 190.63934704378414Q32.66793087592407 191.22393843840027 32.66793087592407 192.07013831800865ZM31.132035899517973 192.1230737592534L31.132035899517973 192.1230737592534Q31.132035899517973 191.62440655912155 30.99931370625211 191.2968205676503Q30.8658243326783 190.96923457617908 30.599612765838685 190.8058251705974Q30.33416837930696 190.6431829453236 29.92909717673831 190.6431829453236L29.92909717673831 190.6431829453236L29.498709024009088 190.6431829453236L29.498709024009088 193.71113699659642L29.828596556404023 193.71113699659642Q30.5029480470439 193.71113699659642 30.81749197328088 193.3198750395699Q31.132035899517973 192.92784590223545 31.132035899517973 192.1230737592534ZM38.77391894646178 192.17907792172977L38.77391894646178 192.17907792172977Q38.77391894646178 192.81200167574326 38.62201724549857 193.33061556388043Q38.47011554453536 193.84999663232546 38.147899815219375 194.22438062257828Q37.82568408590339 194.59876461283116 37.32011226300045 194.7989986731918Q36.81454044009752 194.99999991386034 36.11026891744973 194.99999991386034L36.11026891744973 194.99999991386034Q35.4213410009599 194.99999991386034 34.91730353867274 194.7989986731918Q34.41326607638564 194.59876461283116 34.08721444553015 194.2259149831941Q33.76192999498261 193.85383253386493 33.60465803186406 193.3329171048041Q33.44661888843768 192.81200167574326 33.44661888843768 192.1714061186508L33.44661888843768 192.1714061186508Q33.44661888843768 191.31753443596347 33.729708422050976 190.68614504256573Q34.012797955664325 190.054755649168 34.60429397305154 189.70875733030726Q35.19655717074659 189.36199183113865 36.117940720528736 189.36199183113865L36.117940720528736 189.36199183113865Q37.05466787646873 189.36199183113865 37.6407936317006 189.71029169092307Q38.22691938693259 190.0585915507075 38.50003557654321 190.691515304721Q38.77391894646178 191.32520623904242 38.77391894646178 192.17907792172977ZM35.005529274080686 192.17907792172977L35.005529274080686 192.17907792172977Q35.005529274080686 192.67314204001426 35.117537599033426 193.0291137028776Q35.230313104294 193.38508536574096 35.473509261896766 193.57611326240686Q35.71670541949953 193.76714115907276 36.11026891744973 193.76714115907276L36.11026891744973 193.76714115907276Q36.51840884124999 193.76714115907276 36.76007063823698 193.57611326240686Q37.00173243522397 193.38508536574096 37.10837049802137 193.0291137028776Q37.21577574112672 192.67314204001426 37.21577574112672 192.17907792172977L37.21577574112672 192.17907792172977Q37.21577574112672 191.4372145639951 36.96797650167656 191.00682641126593Q36.720944442534346 190.57567107822882 36.117940720528736 190.57567107822882L36.117940720528736 190.57567107822882Q35.71670541949953 190.57567107822882 35.47197490128099 190.7705348764342Q35.226477202754495 190.96539867463957 35.11600323841759 191.32520623904242Q35.005529274080686 191.68424662313737 35.005529274080686 192.17907792172977ZM43.55728816618824 194.9248162436866L42.14874512089273 194.9248162436866L41.02866187136573 190.97997510048958L40.99490593781837 190.97997510048958Q41.01024954397627 191.13417834237652 41.027127510750006 191.3957868273688Q41.044005477523626 191.65816249266894 41.05858190337369 191.9619658945954Q41.07392550953159 192.26500211621402 41.07392550953159 192.54579010890365L41.07392550953159 192.54579010890365L41.07392550953159 194.9248162436866L39.76281436333869 194.9248162436866L39.76281436333869 189.44791602562293L41.73293339401357 189.44791602562293L42.875264872469415 193.3367530063436L42.90595208478527 193.3367530063436L44.02526815400432 189.44791602562293L45.99999026652654 189.44791602562293L45.99999026652654 194.9248162436866L44.63977958062833 194.9248162436866L44.63977958062833 192.5235418799747Q44.63977958062833 192.26500211621402 44.64898574432311 191.96733615675066Q44.65895908832579 191.66967019728736 44.67200115355996 191.4057601713714Q44.68504321879419 191.14108296514758 44.69655092341259 190.98764690356853L44.69655092341259 190.98764690356853L44.662794989865176 190.98764690356853L43.55728816618824 194.9248162436866Z " fill="black"></path></mask><linearGradient x1="0" y1="0" x2="0" y2="1" id="SvgjsLinearGradient1005"><stop stop-opacity="1" stop-color="blue" offset="0"></stop><stop stop-opacity="1" stop-color="black" offset="1"></stop></linearGradient></defs><path d="M80.458006587535 86.59043782570934L65.55619809578248 90.06072199502158Q68.41407917639255 75.66924941052085 71.0678258941019 61.992247096172655L71.0678258941019 61.992247096172655Q72.0884977086055 56.276484934952514 73.26227029528464 49.99935327575539Q74.43604288196377 43.72222161655827 75.45671469646737 37.649224320261865Q76.47738651097096 31.576227023965473 77.34495755329903 25.9114984534705Q78.21252859562708 20.246769882975528 78.72286450287888 15.551679536258987L78.72286450287888 15.551679536258987Q81.88694712784003 15.34754517335827 84.84689538990045 15.143410810457553L84.84689538990045 15.143410810457553Q87.50064210760982 14.939276447556836 90.25645600676953 14.786175675381301Q93.01226990592924 14.633074903205753 95.1556807163868 14.428940540305035L95.1556807163868 14.428940540305035Q96.48255407524147 22.28811351198273 97.50322588974507 29.432816213507913L97.50322588974507 29.432816213507913Q98.01356179699687 32.49483165701871 98.57493129497385 35.812015054155395Q99.13630079295082 39.12919845129208 99.64663670020262 42.19121389480287Q100.15697260745442 45.253229338313666 100.6673085147062 48.06007682819856Q101.17764442195801 50.86692431808345 101.68798032920981 53.010335128541L101.68798032920981 53.010335128541Q102.09624905501124 50.86692431808345 102.60658496226304 48.06007682819856Q103.11692086951484 45.253229338313666 103.72932395821701 42.14018030407769Q104.34172704691917 39.027131269841725 105.0051637263465 35.76098146343021Q105.66860040577384 32.49483165701871 106.281003494476 29.432816213507913L106.281003494476 29.432816213507913Q107.8120112162314 22.28811351198273 109.44508611943715 14.531007721755401L109.44508611943715 14.531007721755401L121.89728225638103 13Q118.42699808706881 28.310077217553953 115.77325136935946 41.987079531902154L115.77325136935946 41.987079531902154Q114.54844519195512 47.90697605602302 113.374672605276 53.92893976159424Q112.20090001859687 59.95090346716546 111.18022820409327 65.56459844693524Q110.15955638958967 71.17829342670504 109.44508611943715 75.92441736414675Q108.73061584928463 80.67054130158849 108.32234712348318 83.93669110799999L108.32234712348318 83.93669110799999Q108.01614557913211 83.93669110799999 105.92376835939973 84.39599342452661Q103.83139113966737 84.85529574105324 101.12661083123284 85.46769882975539Q98.4218305227983 86.08010191845754 95.71705021436377 86.74353859788488Q93.01226990592924 87.40697527731223 91.68539654707456 87.81524400311366L91.68539654707456 87.81524400311366Q90.97092627692204 79.54780230563453 90.15438882531916 72.09689805975826L90.15438882531916 72.09689805975826Q89.84818728096809 68.9328154347971 89.43991855516666 65.56459844693524Q89.03164982936521 62.19638145907338 88.67441469428896 59.134366015562584Q88.31717955921269 56.072350572051796 87.95994442413644 53.36757026361726Q87.60270928906017 50.66278995518273 87.29650774470909 48.825580689076254L87.29650774470909 48.825580689076254Q86.99030620035802 50.66278995518273 86.47997029310622 53.316536672892084Q85.96963438585442 55.97028339060144 85.45929847860262 58.98126524338704Q84.94896257135082 61.992247096172655 84.43862666409902 65.20736331185898Q83.92829075684722 68.4224795275453 83.31588766814507 71.48449497105611L83.31588766814507 71.48449497105611Q81.98901430929038 78.73126485403165 80.458006587535 86.59043782570934L80.458006587535 86.59043782570934ZM166.70477491308895 50.66278995518273Q165.99030464293645 61.07364246311942 162.62208765507455 68.77971466262157Q159.2538706672127 76.48578686212375 154.507746729771 81.69121311609207Q149.76162279232923 86.89663937006043 144.30102858473498 89.44831890631941Q138.84043437714075 91.99999844257842 133.94120966752348 91.99999844257842L133.94120966752348 91.99999844257842Q130.16472395386018 91.99999844257842 126.74547337527312 90.36692353937265Q123.32622279668608 88.7338486361669 120.82557685115226 85.41666523903021Q118.32493090561844 82.09948184189352 116.89599036531342 77.09818995082588Q115.46704982500837 72.09689805975826 115.46704982500837 65.36046408403453L115.46704982500837 65.36046408403453Q115.46704982500837 52.193797676938125 119.24353553867168 42.39534825770359Q123.020021252335 32.596898838469066 128.7868170042803 26.06459922564604Q134.55361275622565 19.532299612823024 141.13694595977384 16.36821698786187Q147.72027916332206 13.204134362900717 153.4360413245422 13.204134362900717L153.4360413245422 13.204134362900717Q157.51872858255658 13.204134362900717 160.5297104353422 14.633074903205753Q163.5406922881278 16.062015443510788 165.47996873568462 18.46059420759424Q167.41924518324146 20.859172971677694 168.2868162255695 24.074289187364023Q169.1543872678976 27.28940540305036 169.1543872678976 30.861756753812948L169.1543872678976 30.861756753812948L155.1711834091983 33.5155034715223Q154.25257877614507 29.432816213507913 152.72157105438967 27.697674128851794Q151.19056333263427 25.962532044195683 149.25128688507743 25.962532044195683L149.25128688507743 25.962532044195683Q146.69960734881846 25.962532044195683 143.63759190530766 29.585916985683454Q140.57557646179686 33.20930192717122 137.92182974408752 38.925064088391366Q135.26808302637818 44.64082624961151 133.43087376027168 51.47932740678561Q131.5936644941652 58.31782856395971 131.38953013126448 64.95219535823308L131.38953013126448 64.95219535823308Q131.38953013126448 71.2803606081554 133.27777298809616 73.98514091658993Q135.1660158449278 76.68992122502445 138.12596410698825 76.68992122502445L138.12596410698825 76.68992122502445Q140.16730773599545 76.68992122502445 142.36175213717814 75.66924941052085Q144.5561965383609 74.64857759601725 146.291338623017 72.7603347391856Q148.02648070767313 70.87209188235394 149.20025329435225 68.37144593682014Q150.3740258810314 65.87079999128633 150.47609306248177 62.91085172922589L150.47609306248177 62.91085172922589L139.55490464729326 64.54392663243165L141.4941810948501 54.43927566884604Q146.291338623017 53.82687258014388 150.8843617882832 53.21446949144172L150.8843617882832 53.21446949144172Q154.76291468339687 52.704133584189925 159.10076989503716 51.98966331403741Q163.43862510667742 51.27519304388489 166.70477491308895 50.66278995518273L166.70477491308895 50.66278995518273ZM179.46317259438393 87.40697527731223Q171.19573089690476 88.01937836601438 162.21381892927312 88.63178145471653L162.21381892927312 88.63178145471653L163.94896101392925 75.77131659197121Q164.25516255828032 72.60723396701006 167.0620100481652 69.18798338842302Q169.8688575380501 65.76873280983597 173.74741043316374 62.247415049798555Q177.62596332827744 58.72609728976114 182.0658857213681 55.408913892624454Q186.50580811445872 52.09173049548776 190.28229382812202 49.02971505197697Q194.05877954178536 45.967699608466184 196.55942548731917 43.364986481482006Q199.060071432853 40.762273354497836 199.060071432853 38.822996906941L199.060071432853 38.822996906941Q199.060071432853 35.76098146343021 197.88629884617384 34.07687296949928Q196.7125262594947 32.39276447556834 194.9773841748386 32.39276447556834L194.9773841748386 32.39276447556834Q193.24224209018246 32.39276447556834 191.966402322053 33.15826833644604Q190.69056255392348 33.92377219732374 190.02712587449614 35.14857837472806Q189.36368919506882 36.37338455213237 189.05748765071772 37.8023250924374Q188.75128610636665 39.23126563274245 188.75128610636665 40.660206173047484L188.75128610636665 40.660206173047484L188.75128610636665 41.68087798755108Q188.75128610636665 41.987079531902154 188.85335328781701 42.08914671335252L188.85335328781701 42.08914671335252Q186.0975393886573 42.29328107625324 183.13759112659687 42.59948262060431L183.13759112659687 42.59948262060431Q180.58591159033784 42.80361698350504 177.47286255610192 43.16085211858129Q174.35981352186593 43.51808725365755 171.29779807835513 43.82428879800863L171.29779807835513 43.82428879800863Q171.19573089690476 43.007751346405755 171.14469730617958 42.14018030407769Q171.0936637154544 41.272609261749636 171.0936637154544 40.55813899159712L171.0936637154544 40.55813899159712Q171.0936637154544 34.536175286025895 173.4412088888127 29.79005134858417Q175.78875406217094 25.04392741114244 179.5142061851091 21.828811195456126Q183.23965830804724 18.61369497976979 187.98578224548893 16.87855289511367Q192.7319061829307 15.143410810457553 197.42699652964723 15.143410810457553L197.42699652964723 15.143410810457553Q201.3055494247609 15.143410810457553 204.82686718479832 16.36821698786187Q208.3481849448357 17.59302316526619 211.05296525327023 20.093669110800008Q213.75774556170478 22.594315056333812 215.39082046491055 26.4218343607223Q217.02389536811629 30.24935366511079 217.02389536811629 35.556847100529495L217.02389536811629 35.556847100529495Q217.02389536811629 40.660206173047484 214.37014865040695 45.508397291939566Q211.71640193269758 50.35658841083165 207.02131158598104 55.00064516682301Q202.3262212392645 59.644701922814384 195.89598880789183 64.03359072517985Q189.46575637651915 68.4224795275453 181.91278494919254 72.40309960410934L181.91278494919254 72.40309960410934Q184.66859884835225 72.40309960410934 189.00645405999256 72.19896524120863Q193.34430927163282 71.99483087830791 197.88629884617384 71.63759574323166Q202.42828842071484 71.2803606081554 207.73578185613357 70.87209188235394L207.73578185613357 70.87209188235394L206.1027069529278 85.67183319265611Q203.65309459811917 85.87596755555683 200.54004556388318 86.08010191845754Q197.42699652964723 86.28423628135826 193.9056787696098 86.48837064425898Q190.3843610095724 86.69250500715971 186.65890888663426 86.94767296078561Q182.93345676369614 87.20284091441151 179.46317259438393 87.40697527731223L179.46317259438393 87.40697527731223ZM259.790044395817 57.39922393090647Q259.790044395817 60.97157528166906 258.5652382184127 64.74806099533237Q257.3404320410084 68.52454670899567 255.24805482127599 72.14793165048346Q253.15567760154363 75.77131659197121 250.29779652093356 79.03746639838273Q247.4399154403235 82.30361620479424 244.22479922463717 84.75322855960286Q241.00968300895082 87.20284091441151 237.53939883963858 88.63178145471653Q234.06911467032634 90.06072199502158 230.80296486391484 90.06072199502158L230.80296486391484 90.06072199502158Q226.92441196880117 90.06072199502158 223.8113629345652 88.7338486361669Q220.69831390032923 87.40697527731223 218.60593668059687 85.00839651322876Q216.51355946086449 82.60981774914532 215.39082046491055 79.24160076128345Q214.26808146895658 75.87338377342158 214.26808146895658 71.89276369685754L214.26808146895658 71.89276369685754Q214.26808146895658 69.95348724930071 214.4211822411321 67.81007643884317Q214.57428301330765 65.6666656283856 214.77841737620838 63.31912045502733L214.77841737620838 63.31912045502733L230.49676331956377 64.54392663243165Q229.98642741231197 66.07493435418704 229.98642741231197 66.99353898724027L229.98642741231197 66.99353898724027Q229.98642741231197 69.03488261624747 231.2112335897163 69.95348724930071Q232.4360397671206 70.87209188235394 234.06911467032634 70.87209188235394L234.06911467032634 70.87209188235394Q235.39598802918104 70.87209188235394 236.7738949787609 70.31072238437696Q238.15180192834075 69.7493528864 239.32557451501987 68.52454670899567Q240.49934710169902 67.29974053159137 241.21381737185155 65.46253126548488Q241.92828764200408 63.625321999378414 241.92828764200408 61.17570964456978L241.92828764200408 61.17570964456978Q241.92828764200408 59.95090346716546 241.57105250692783 58.777130880486325Q241.21381737185155 57.60335829380719 240.0400447851724 56.78682084220431Q238.86627219849328 55.97028339060144 236.7228613880357 55.408913892624454Q234.57945057757814 54.84754439464748 231.10916640826593 54.84754439464748L231.10916640826593 54.84754439464748Q230.1905617752127 54.84754439464748 229.22092355143425 54.898577985372654Q228.25128532765584 54.94961157609784 226.6182104244501 55.153745938998554Q224.98513552124436 55.35788030189928 222.68862393861127 55.71511543697554Q220.39211235597818 56.072350572051796 216.81976100521558 56.68475366075395L216.81976100521558 56.68475366075395Q217.94250000116952 49.02971505197697 219.5755749043753 39.0781648605669Q221.20864980758103 29.12661466915683 223.55619498093932 16.572351350762588L223.55619498093932 16.572351350762588L262.44379111352634 15.143410810457553L260.40244748451914 31.780361386866183Q254.68668532329903 31.984495749766907 248.81782238990337 32.188630112667624Q242.94895945650765 32.39276447556834 236.82492856948608 32.698966019919425L236.82492856948608 32.698966019919425Q236.62079420658534 34.12790656022446 236.36562625295943 36.37338455213237Q236.11045829933357 38.61886254404028 235.8042567549825 41.272609261749636L235.8042567549825 41.272609261749636Q242.3365563678055 41.272609261749636 246.9295795330717 42.497415439153954Q251.5226026983379 43.72222161655827 254.38048377894793 45.865632427015825Q257.23836485955803 48.00904323747338 258.5142046276875 50.917957908808624Q259.790044395817 53.82687258014388 259.790044395817 57.39922393090647L259.790044395817 57.39922393090647Z M116.25536295274492 184.06970497253468Q116.04356670176401 184.17560309802514 114.7727891958786 184.4932974744965Q113.50201168999317 184.81099185096787 111.59584543116503 185.3404824784201Q109.6896791723369 185.86997310587236 107.41286947429217 186.5053618588151Q105.13605977624746 187.1407506117578 102.96514820369319 187.7761393647005Q100.79423663113893 188.41152811764323 98.88807037231079 188.9939678078407Q96.98190411348266 189.57640749803818 95.92292285857815 190L95.92292285857815 190Q95.60522848210678 185.7640749803819 95.39343223112587 181.73994621174475L95.39343223112587 181.73994621174475Q95.18163598014497 178.24530807055982 94.91689066641885 174.7506699293749Q94.65214535269271 171.25603178819 94.54624722720227 168.92627302740007L94.54624722720227 168.92627302740007Q93.59316409778819 171.25603178819 92.05764127817665 174.7506699293749Q90.52211845856509 178.24530807055982 89.03954470169876 181.6340480862543L89.03954470169876 181.6340480862543Q87.23927656836108 185.552278729401 85.33311030953294 189.57640749803818L85.33311030953294 189.57640749803818L67.33042897615611 187.9879356156814Q72.62533525067872 178.56300244703118 77.9202415252013 169.34986552936186Q83.21514779972391 160.13672861169255 87.6628690703229 150.07640669009962L87.6628690703229 150.07640669009962Q87.02748031738017 145.31099104302928 86.44504062718269 141.60455665086346Q85.8626009369852 137.89812225869764 85.12131405855204 134.29758599202228Q84.38002718011887 130.69704972534691 83.53284217619526 127.04356439592631Q82.68565717227165 123.39007906650572 81.83847216834803 118.73056154492583L81.83847216834803 118.73056154492583L98.78217224682034 111.741285262556Q99.3116628742726 116.71849716060724 100.00000068996054 122.754690313563Q100.68833850564849 128.79088346651878 101.21782913310074 133.87399349006046L101.21782913310074 133.87399349006046Q103.65348601938115 128.57908721553787 106.0361938429163 123.28418094101526Q108.41890166645146 117.98927466649268 110.96045667822233 112.80026651746051L110.96045667822233 112.80026651746051L126.31568487433785 116.93029341158815Q123.5623336115861 121.58981093316804 121.3384729762866 125.50804157631475Q119.11461234098712 129.42627221946148 117.10254795666853 133.3445028626082Q115.09048357234994 137.2627335057549 113.07841918803138 141.33981133713732Q111.06635480371278 145.41688916851973 108.73659604292283 150.39410106657095L108.73659604292283 150.39410106657095Q109.37198479586556 155.05361858815087 110.21916979978914 159.18364548227848Q111.06635480371278 163.3136723764061 112.07238699587205 167.33780114504327Q113.07841918803138 171.36192991368046 114.08445138019064 175.43900774506284Q115.09048357234994 179.51608557644525 116.25536295274492 184.06970497253468L116.25536295274492 184.06970497253468ZM140.92962619202024 185.12868622743923L122.82104673315291 187.3525468627387L127.69236050571371 166.06702363915787Q127.69236050571371 161.5134042430684 127.53351331747805 156.1655489058006Q127.37466612924237 150.81769356853277 127.056971752771 145.41688916851973Q126.73927737629964 140.0160847685067 126.4215829998283 134.9859238077102Q126.10388862335694 129.95576284691373 125.89209237237606 126.09048126651224Q125.68029612139514 122.22519968611076 125.46849987041423 119.8954409253208Q125.25670361943332 117.56568216453086 125.25670361943332 117.56568216453086L125.25670361943332 117.56568216453086L142.518098074377 110.99999838412285L142.518098074377 123.91956969395798Q142.518098074377 126.56702283121928 142.518098074377 129.32037409397103Q142.518098074377 132.07372535672278 142.46514901163175 134.72117849398407Q142.41219994888655 137.36863163124536 142.41219994888655 139.69839039203532Q142.41219994888655 142.02814915282528 142.41219994888655 143.61662103518205L142.41219994888655 143.61662103518205Q143.7888755802624 140.0160847685067 145.74799090183578 134.72117849398407Q147.70710622340914 129.42627221946148 149.40147623125637 124.44906032141024L149.40147623125637 124.44906032141024Q151.41354061557496 118.62466341943538 153.531503125384 112.16487776451781L153.531503125384 112.16487776451781L169.94571257640405 115.87131215668363Q165.39209318031462 124.9785509488625 161.0502700352061 133.9798916155509L161.0502700352061 133.9798916155509Q159.25000190186842 137.89812225869764 157.23793751754982 142.08109821557048Q155.22587313323123 146.26407417244334 153.21380874891264 150.4470501293162Q151.20174436459405 154.63002608618905 149.2955781057659 158.54825672933578Q147.38941184693778 162.4664873724825 145.800939964581 165.85522738817696L145.800939964581 165.85522738817696Q145.27144933712873 168.6085786509287 144.47721339595034 171.8914205411327Q143.68297745477196 175.17426243133673 142.9416905763388 178.13940994506936L142.9416905763388 178.13940994506936Q141.98860744692473 181.6340480862543 140.92962619202024 185.12868622743923L140.92962619202024 185.12868622743923ZM200.97386334510648 184.7050937254774Q200.0207802156924 184.7050937254774 196.94973457646927 184.81099185096787Q193.87868893724618 184.91688997645832 189.69571298037334 185.12868622743923Q185.51273702350048 185.3404824784201 180.6414232509397 185.65817685489148Q175.7701094783789 185.97587123136282 171.11059195679903 186.3465146705794Q166.45107443521914 186.717158109796 162.47989472932719 187.1407506117578Q158.50871502343523 187.5643431137196 156.1789562626453 187.9879356156814L156.1789562626453 187.9879356156814L156.28485438813576 172.52680929407543L186.3599220274241 131.5442347292705Q184.5596538940864 131.5442347292705 181.2768120038824 131.9148781684871Q177.99397011367842 132.28552160770369 174.65817916072916 132.7091141096655Q171.3223882077799 133.1327066116273 168.88673132149952 133.5562991135891L168.88673132149952 133.5562991135891L166.34517630972869 133.76809536457L168.35724069404728 117.14208966256906L211.6695740196421 114.07104402334595L208.91622275689036 128.68498534102832L180.006034497997 169.77345803132368Q182.12399700780603 169.77345803132368 185.67158421173616 169.56166178034277Q189.2191714156663 169.34986552936186 193.03150393332257 169.13806927838095Q196.84383645097884 168.92627302740007 201.29155772157782 168.6085786509287L201.29155772157782 168.6085786509287L200.97386334510648 184.7050937254774Z " fill="url(#SvgjsRadialGradient1002)"></path><path d="M132.62383287150814 197.41982663936955L132.2372007241234 197.41982663936955L131.84156666411036 196.39990993858507L130.55384306263448 196.39990993858507L130.1604594807785 197.41982663936955L129.78237915039062 197.41982663936955L131.03949624893033 194.1935411533929L131.37571768559673 194.1935411533929L132.62383287150814 197.41982663936955ZM130.6789696481676 196.06818945823284L131.72949285188824 196.06818945823284L131.35366299965742 195.05502419191959Q131.3406102263464 195.01541577635516 131.31090391467308 194.92539665007232Q131.28119760299973 194.83537752378948 131.2505911000636 194.73860696303544Q131.219534501496 194.6418364022814 131.19973029371377 194.58242377893475L131.19973029371377 194.58242377893475Q131.1781257034059 194.67244290521757 131.1524702524153 194.76156184023756Q131.1272648970561 194.85068077525756 131.10340982859117 194.92629684133516Q131.0791046644948 195.00236300304414 131.06155093486964 195.05502419191959L131.06155093486964 195.05502419191959L130.6789696481676 196.06818945823284ZM134.4417691267899 194.49015417449482L134.4417691267899 194.49015417449482Q134.17576260862413 194.49015417449482 133.96376756622806 194.5815235876719Q133.75132242820058 194.67244290521757 133.60324096546535 194.8452796276806Q133.45470940709868 195.01766625451222 133.3754925759698 195.26161808673868Q133.2967258404723 195.50556991896514 133.2967258404723 195.81118485269536L133.2967258404723 195.81118485269536Q133.2967258404723 196.21537072970528 133.42275261726826 196.51333403770144Q133.54922948969565 196.8108472500662 133.80083294765615 196.97378186863813Q134.05243640561665 197.1362663915786 134.43051673600453 197.1362663915786L134.43051673600453 197.1362663915786Q134.64611254345192 197.1362663915786 134.83605289990868 197.1002587410655Q135.02599325636547 197.06380099492094 135.20648160456253 197.00888932788843L135.20648160456253 197.00888932788843L135.20648160456253 197.33430846940084Q135.0304942126796 197.4000224315873 134.83695309117152 197.4319792214177Q134.64386206529485 197.4639360112481 134.3778555471291 197.4639360112481L134.3778555471291 197.4639360112481Q133.88770140451908 197.4639360112481 133.55913159358676 197.26049278584892Q133.23056178265443 197.05704956044974 133.06672697281968 196.68572066453305Q132.90334225861633 196.31439176861636 132.90334225861633 195.8089343745383L132.90334225861633 195.8089343745383Q132.90334225861633 195.44390681746142 133.00551396694735 195.14189264878252Q133.10768567527836 194.8398784801036 133.30437746620635 194.61978171634212Q133.50106925713433 194.400135048212 133.78778017434513 194.28040961025584Q134.07449109155596 194.16068417229968 134.44581998747262 194.16068417229968L134.44581998747262 194.16068417229968Q134.6897718196991 194.16068417229968 134.9161699223004 194.208844404861Q135.14256802490172 194.25745473305372 135.32485675562447 194.34747385933656L135.32485675562447 194.34747385933656L135.17542500599495 194.66389108822068Q135.02194239568274 194.59367616972008 134.83830337806575 194.54191517210745Q134.65466436044878 194.49015417449482 134.4417691267899 194.49015417449482ZM137.62169476273087 197.41982663936955L137.31607982900064 197.41982663936955L136.23720060050093 194.57612244009493L136.21964687087578 194.57612244009493Q136.22819868787266 194.66614156637775 136.23495012234386 194.79576910822504Q136.2417015568151 194.92539665007232 136.2457524174978 195.0779790691217Q136.25025337381194 195.2310115838025 136.25025337381194 195.38899515042888L136.25025337381194 195.38899515042888L136.25025337381194 197.41982663936955L135.90322964199163 197.41982663936955L135.90322964199163 194.20659392670393L136.45684726863104 194.20659392670393L137.47451349125845 196.87926178604113L137.4898167427265 196.87926178604113L138.522786216822 194.20659392670393L139.07235298277865 194.20659392670393L139.07235298277865 197.41982663936955L138.70282446938765 197.41982663936955L138.70282446938765 195.36288960380688Q138.70282446938765 195.21975919301718 138.70732542570178 195.07572859096464Q138.71182638201594 194.93214808454354 138.71857781648714 194.8034207339591Q138.72487915532693 194.67469338337463 138.73163058979816 194.58017330077766L138.73163058979816 194.58017330077766L138.714076860173 194.58017330077766L137.62169476273087 197.41982663936955ZM141.7400697901703 197.09035663717435L141.7400697901703 197.41982663936955L139.9513897509305 197.41982663936955L139.9513897509305 194.20659392670393L141.7400697901703 194.20659392670393L141.7400697901703 194.5365140245305L140.32496912500423 194.5365140245305L140.32496912500423 195.57578483746576L141.65905257651576 195.57578483746576L141.65905257651576 195.90120397897817L140.32496912500423 195.90120397897817L140.32496912500423 197.09035663717435L141.7400697901703 197.09035663717435ZM146.13345324840384 194.20659392670393L146.13345324840384 197.41982663936955L145.7027117291405 197.41982663936955L143.95093953167662 194.7210532334103L143.93338580205148 194.7210532334103Q143.94013723652267 194.82862608931828 143.94913914915097 194.9659052568996Q143.95769096614782 195.10363452011234 143.9630921137248 195.2584674173188Q143.96894335693318 195.41330031452526 143.96894335693318 195.5735343593087L143.96894335693318 195.5735343593087L143.96894335693318 197.41982663936955L143.62146952948146 197.41982663936955L143.62146952948146 194.20659392670393L144.04996057058773 194.20659392670393L145.79498133358038 196.89681551566628L145.81028458504846 196.89681551566628Q145.80623372436574 196.81984916269448 145.79948228989454 196.678069038799Q145.79273085542332 196.53628891490354 145.78732970784637 196.3724541050688Q145.7819285602694 196.20906939086547 145.7819285602694 196.06818945823284L145.7819285602694 196.06818945823284L145.7819285602694 194.20659392670393L146.13345324840384 194.20659392670393ZM148.57747252698266 195.01091482004102L148.9443004665852 195.01091482004102L148.9443004665852 197.41982663936955L148.6454369673262 197.41982663936955L148.59277577845074 197.0813547245461L148.57297157066853 197.0813547245461Q148.49825569585377 197.20648131007923 148.37943044916045 197.2924495756793Q148.2610552980985 197.377967745648 148.11252373973184 197.42072683063236Q147.96444227699658 197.4639360112481 147.79700670211054 197.4639360112481L147.79700670211054 197.4639360112481Q147.51164607179396 197.4639360112481 147.31810495028589 197.37166640680823Q147.12456382877778 197.27894670673692 147.02689307676093 197.08585568086022Q146.92922232474405 196.89231455935214 146.92922232474405 196.588950103779L146.92922232474405 196.588950103779L146.92922232474405 195.01091482004102L147.29830074250364 195.01091482004102L147.29830074250364 196.562844557157Q147.29830074250364 196.86395853457304 147.43467971882214 197.0120399973083Q147.5706085995092 197.16057155567498 147.8501179866174 197.16057155567498L147.8501179866174 197.16057155567498Q148.11792488730882 197.16057155567498 148.27725874082944 197.0593000386068Q148.43659259435003 196.95847861717004 148.50725760848206 196.76178682624203Q148.57747252698266 196.56509503531407 148.57747252698266 196.27928430936606L148.57747252698266 196.27928430936606L148.57747252698266 195.01091482004102ZM152.33127009297667 194.96725554379384L152.33127009297667 194.96725554379384Q152.72870453551536 194.96725554379384 152.93124756965173 195.17474962987575Q153.13334050815666 195.3826938115891 153.13334050815666 195.84179135563153L153.13334050815666 195.84179135563153L153.13334050815666 197.41982663936955L152.77281390739395 197.41982663936955L152.77281390739395 195.85934508525668Q152.77281390739395 195.5672330204689 152.64633703496656 195.4209519402593Q152.5203102581706 195.2746708600497 152.27185746963 195.2746708600497L152.27185746963 195.2746708600497Q151.9221331640212 195.2746708600497 151.76414959739483 195.47721389418606Q151.60571593513706 195.679306832691 151.60571593513706 196.07269041454697L151.60571593513706 196.07269041454697L151.60571593513706 197.41982663936955L151.24338895184866 197.41982663936955L151.24338895184866 195.85934508525668Q151.24338895184866 195.66400358122291 151.1871269979219 195.53437603937567Q151.13131513962654 195.40429840189697 151.02014151866726 195.33948463097335Q150.90896789770795 195.2746708600497 150.74018203592766 195.2746708600497L150.74018203592766 195.2746708600497Q150.5002810643839 195.2746708600497 150.35535027106854 195.37369189896083Q150.2104194777532 195.4727129378719 150.14560570682957 195.66715425064285Q150.08079193590592 195.86159556341374 150.08079193590592 196.14515581120466L150.08079193590592 196.14515581120466L150.08079193590592 197.41982663936955L149.71576437882905 197.41982663936955L149.71576437882905 195.01091482004102L150.0101269217739 195.01091482004102L150.06503858880643 195.35163721302152L150.08484279658865 195.35163721302152Q150.15775828887774 195.22651062748838 150.2675816229428 195.1409924575197Q150.37740495700785 195.05502419191959 150.51378393332632 195.01091482004102Q150.6497128140134 194.96725554379384 150.80364551995706 194.96725554379384L150.80364551995706 194.96725554379384Q151.07820385511968 194.96725554379384 151.26409335089372 195.06942725212485Q151.44998284666775 195.17159896045587 151.53325053847936 195.38044333343203L151.53325053847936 195.38044333343203L151.5530547462616 195.38044333343203Q151.67187999295493 195.17159896045587 151.87847388777402 195.06942725212485Q152.08506778259311 194.96725554379384 152.33127009297667 194.96725554379384ZM153.88274973446124 194.00000003188484L154.2473271959067 194.00000003188484L154.2473271959067 194.8551817315717Q154.2473271959067 195.00236300304414 154.23967557017266 195.1409924575197Q154.23202394443862 195.27917181636383 154.2279730837559 195.35613816933565L154.2279730837559 195.35613816933565L154.2473271959067 195.35613816933565Q154.3463482348178 195.19365364639515 154.5331379218547 195.08157983417303Q154.71992760889157 194.9695060219509 155.01023929115368 194.9695060219509L155.01023929115368 194.9695060219509Q155.46303549635633 194.9695060219509 155.73219268394197 195.28232248578374Q156.00134987152762 195.59558904524798 156.00134987152762 196.2131202515482L156.00134987152762 196.2131202515482Q156.00134987152762 196.6200067023466 155.87847376415158 196.89906599382334Q155.7551475611441 197.17812528530013 155.53099993669986 197.3208056004584Q155.30685231225561 197.4639360112481 155.0012373785254 197.4639360112481L155.0012373785254 197.4639360112481Q154.7158767482088 197.4639360112481 154.53223773059185 197.35726334660296Q154.34859871297488 197.25059068195782 154.24957767406377 197.09665797601417L154.24957767406377 197.09665797601417L154.22122164928467 197.09665797601417L154.14650577446992 197.41982663936955L153.88274973446124 197.41982663936955L153.88274973446124 194.00000003188484ZM154.950826667807 195.2746708600497L154.950826667807 195.2746708600497Q154.6893211059554 195.2746708600497 154.53538840001175 195.3768425683807Q154.3814556940681 195.47901427671172 154.3143914449874 195.684707980268Q154.2473271959067 195.89040168382425 154.2473271959067 196.20456843455133L154.2473271959067 196.20456843455133L154.2473271959067 196.22437264233355Q154.2473271959067 196.67896923006185 154.39900942369326 196.91977039286843Q154.55069165147984 197.16057155567498 154.950826667807 197.16057155567498L154.950826667807 197.16057155567498Q155.28704810447337 197.16057155567498 155.45538387062226 196.91436924529143Q155.62326954113976 196.6681669349079 155.62326954113976 196.21086977339112L155.62326954113976 196.21086977339112Q155.62326954113976 195.74502079487746 155.45718425314794 195.5100708752793Q155.29154906078753 195.2746708600497 154.950826667807 195.2746708600497ZM157.56408190379756 194.96725554379384L157.56408190379756 194.96725554379384Q157.87149722005344 194.96725554379384 158.09159398381496 195.10363452011234Q158.31124065194504 195.2395634007994 158.42781542048132 195.4848655199201Q158.54394009338617 195.72971754340938 158.54394009338617 196.0573871630789L158.54394009338617 196.0573871630789L158.54394009338617 196.28378526568022L156.88038663967947 196.28378526568022Q156.8871380741507 196.70777535047233 157.0914814908127 196.9296724967595Q157.29582490747472 197.15156964304668 157.66715380339141 197.15156964304668L157.66715380339141 197.15156964304668Q157.8958023841498 197.15156964304668 158.07178977603272 197.1101608449566Q158.24732707228424 197.06830195123507 158.43636723747818 196.98683464194912L158.43636723747818 196.98683464194912L158.43636723747818 197.3077528271474Q158.25407850675546 197.38922013643338 158.07494044545263 197.42657807384074Q157.8958023841498 197.4639360112481 157.65185055192333 197.4639360112481L157.65185055192333 197.4639360112481Q157.3043767244716 197.4639360112481 157.0464719276713 197.32215588735266Q156.78811703523957 197.18037576345722 156.64543672008128 196.90536733266316Q156.50230630929158 196.63080899750054 156.50230630929158 196.23292445933043L156.50230630929158 196.23292445933043Q156.50230630929158 195.8440418337886 156.6332841380331 195.55958139473483Q156.76381187114322 195.2746708600497 157.0023625557927 195.1211882497375Q157.2409132404422 194.96725554379384 157.56408190379756 194.96725554379384ZM157.55958094748343 195.2661190430528L157.55958094748343 195.2661190430528Q157.26701878706422 195.2661190430528 157.0937319689698 195.45740968640382Q156.91999505524393 195.64825023412345 156.8871380741507 195.991223105261L156.8871380741507 195.991223105261L158.16180890231556 195.991223105261Q158.1595584241585 195.77607739344506 158.09474465323484 195.6122425836103Q158.02993088231122 195.44840777377556 157.89805286230686 195.3570383605985Q157.76617484230252 195.2661190430528 157.55958094748343 195.2661190430528ZM160.25835435344266 194.96725554379384L160.25835435344266 194.96725554379384Q160.33081975010035 194.96725554379384 160.41003658122924 194.97490716952785Q160.48925341235812 194.98255879526192 160.55046641823046 194.99561156857294L160.55046641823046 194.99561156857294L160.5045566638262 195.33408348339637Q160.44514404047953 195.3187802319283 160.37267864382184 195.3097783193Q160.30021324716418 195.3012265023031 160.23629966750337 195.3012265023031L160.23629966750337 195.3012265023031Q160.09136887418802 195.3012265023031 159.96264152360357 195.35928883875556Q159.83436426865052 195.4178012708394 159.73759370789648 195.52627431801022Q159.64082314714244 195.63519746081244 159.58591148010993 195.78822997549324Q159.5309998130774 195.94081239454263 159.5309998130774 196.1276020815795L159.5309998130774 196.1276020815795L159.5309998130774 197.41982663936955L159.16372177784345 197.41982663936955L159.16372177784345 195.01091482004102L159.46708623341658 195.01091482004102L159.50669464898104 195.45515920824676L159.52199790044912 195.45515920824676Q159.59671377526385 195.32103071008535 159.70248624864618 195.20985708912605Q159.8078086263971 195.09913356379818 159.94733827213548 195.0329695059803Q160.08686791787386 194.96725554379384 160.25835435344266 194.96725554379384ZM162.22752274087958 194.20659392670393L163.06695109346697 194.20659392670393Q163.68898325608131 194.20659392670393 163.9756941732921 194.44964556766757Q164.2624050905029 194.69224711299978 164.2624050905029 195.14504331820243L164.2624050905029 195.14504331820243Q164.2624050905029 195.34938673486442 164.19579093705363 195.53302575248142Q164.12872668797291 195.7166647700984 163.97929493834343 195.8561944158368Q163.82986318871394 195.99572406157517 163.5868115477503 196.07584108396688Q163.34375990678666 196.15595810635858 162.9922352186522 196.15595810635858L162.9922352186522 196.15595810635858L162.6011021149533 196.15595810635858L162.6011021149533 197.41982663936955L162.22752274087958 197.41982663936955L162.22752274087958 194.20659392670393ZM163.03184363421664 194.52526163374512L163.03184363421664 194.52526163374512L162.6011021149533 194.52526163374512L162.6011021149533 195.83503992116033L162.9503763249307 195.83503992116033Q163.25824173681798 195.83503992116033 163.46393544037423 195.76932595897387Q163.66917904829907 195.70361199678737 163.77270104352434 195.5550804384207Q163.8757729431182 195.40654888005406 163.8757729431182 195.16034656967048L163.8757729431182 195.16034656967048Q163.8757729431182 194.8398784801036 163.67142952645617 194.68234500910867Q163.46708610979414 194.52526163374512 163.03184363421664 194.52526163374512ZM165.2472143320371 194.00000003188484L165.2472143320371 197.41982663936955L164.88038639243456 197.41982663936955L164.88038639243456 194.00000003188484L165.2472143320371 194.00000003188484ZM166.91751922021498 194.97175650010797L166.91751922021498 194.97175650010797Q167.34826073947835 194.97175650010797 167.5571051124545 195.16484752598464Q167.76594948543067 195.35838864749275 167.76594948543067 195.78237873228485L167.76594948543067 195.78237873228485L167.76594948543067 197.41982663936955L167.4999429672649 197.41982663936955L167.42972804876428 197.06380099492094L167.41217431913915 197.06380099492094Q167.31090280207096 197.1956790149253 167.2010794680059 197.2847979499453Q167.09125613394085 197.37346678933386 166.94722553188834 197.4189264481067Q166.8031949298358 197.4639360112481 166.59435055685964 197.4639360112481L166.59435055685964 197.4639360112481Q166.37470388872953 197.4639360112481 166.20411764442358 197.3869696582763Q166.033981495749 197.31000330530446 165.93631074373215 197.15382012120375Q165.83818989608386 196.99763693710304 165.83818989608386 196.7581860611907L165.83818989608386 196.7581860611907Q165.83818989608386 196.397659460428 166.12400062203184 196.20456843455133Q166.40981134797983 196.01102731304326 166.9944855731868 195.9934735834181L166.9944855731868 195.9934735834181L167.40992384098206 195.97591985379296L167.40992384098206 195.8287385823205Q167.40992384098206 195.5163722141191 167.27579534282066 195.39124562858598Q167.14166684465926 195.2661190430528 166.89771501243277 195.2661190430528L166.89771501243277 195.2661190430528Q166.70867484723883 195.2661190430528 166.53718841167003 195.32103071008535Q166.36570197610126 195.3759423771179 166.21221936578903 195.45065825193262L166.21221936578903 195.45065825193262L166.0996954579355 195.17384943861293Q166.2626300765074 195.09013165116988 166.47372492764066 195.03071902782324Q166.68436968314248 194.97175650010797 166.91751922021498 194.97175650010797ZM167.40542288466793 196.4548216056176L167.40542288466793 196.23292445933043L167.038144849434 196.24822771079852Q166.58759912238844 196.26623153605505 166.40305991350863 196.39585907790234Q166.21852070462882 196.5254866197496 166.21852070462882 196.76268701750487L166.21852070462882 196.76268701750487Q166.21852070462882 196.96928091232397 166.34364729016195 197.06830195123507Q166.4692239713265 197.16687289451477 166.6758178661456 197.16687289451477L166.6758178661456 197.16687289451477Q166.99673605134387 197.16687289451477 167.2010794680059 196.98908512010618Q167.40542288466793 196.8108472500662 167.40542288466793 196.4548216056176L167.40542288466793 196.4548216056176ZM169.29537444097593 197.16507251198914L169.29537444097593 197.16507251198914Q169.38539356725877 197.16507251198914 169.47991364985575 197.14931916488962Q169.57443373245272 197.13401591342154 169.6338463557994 197.11196122748225L169.6338463557994 197.11196122748225L169.6338463557994 197.39552147527317Q169.5699327761386 197.42432759568368 169.45695877265362 197.4441318034659Q169.34398476916869 197.4639360112481 169.2359618176293 197.4639360112481L169.2359618176293 197.4639360112481Q169.04467117427828 197.4639360112481 168.88893808580897 197.3968717621674Q168.73275490170826 197.3298075130867 168.63958510600554 197.16912337267183Q168.54596521467138 197.00888932788843 168.54596521467138 196.72532908009748L168.54596521467138 196.72532908009748L168.54596521467138 195.29672554598898L168.20299234353382 195.29672554598898L168.20299234353382 195.11893777158042L168.54821569282845 194.9758073607907L168.6931464861438 194.45279623708745L168.9127931542739 194.45279623708745L168.9127931542739 195.01091482004102L169.6185431043313 195.01091482004102L169.6185431043313 195.29672554598898L168.9127931542739 195.29672554598898L168.9127931542739 196.71452678494356Q168.9127931542739 196.9409248875449 169.017215340762 197.052998699767Q169.12163752725007 197.16507251198914 169.29537444097593 197.16507251198914ZM171.04939711659688 194.96725554379384L171.04939711659688 194.96725554379384Q171.35681243285273 194.96725554379384 171.57645910098285 195.10363452011234Q171.79655586474436 195.2395634007994 171.91313063328064 195.4848655199201Q172.0292553061855 195.72971754340938 172.0292553061855 196.0573871630789L172.0292553061855 196.0573871630789L172.0292553061855 196.28378526568022L170.3657018524788 196.28378526568022Q170.37245328695002 196.70777535047233 170.57679670361205 196.9296724967595Q170.78114012027405 197.15156964304668 171.1524690161907 197.15156964304668L171.1524690161907 197.15156964304668Q171.3811175969491 197.15156964304668 171.55710498883204 197.1101608449566Q171.73264228508356 197.06830195123507 171.9216824502775 196.98683464194912L171.9216824502775 196.98683464194912L171.9216824502775 197.3077528271474Q171.73939371955478 197.38922013643338 171.56025565825195 197.42657807384074Q171.3811175969491 197.4639360112481 171.13716576472262 197.4639360112481L171.13716576472262 197.4639360112481Q170.78969193727093 197.4639360112481 170.5317871404706 197.32215588735266Q170.2734322480389 197.18037576345722 170.1307519328806 196.90536733266316Q169.9876215220909 196.63080899750054 169.9876215220909 196.23292445933043L169.9876215220909 196.23292445933043Q169.9876215220909 195.8440418337886 170.11859935083243 195.55958139473483Q170.24912708394254 195.2746708600497 170.48767776859202 195.1211882497375Q170.72622845324153 194.96725554379384 171.04939711659688 194.96725554379384ZM171.04489616028275 195.2661190430528L171.04489616028275 195.2661190430528Q170.75233399986354 195.2661190430528 170.5790471817691 195.45740968640382Q170.40531026804322 195.64825023412345 170.37245328695002 195.991223105261L170.37245328695002 195.991223105261L171.64712411511488 195.991223105261Q171.6448736369578 195.77607739344506 171.58005986603416 195.6122425836103Q171.51524609511054 195.44840777377556 171.38336807510618 195.3570383605985Q171.25149005510184 195.2661190430528 171.04489616028275 195.2661190430528ZM174.20726806659854 196.7604365393478L174.20726806659854 196.7604365393478Q174.20726806659854 196.99133559826328 174.0920435849565 197.1484189736268Q173.9763690076831 197.30550234899033 173.76212348712997 197.38471918011922Q173.54787796657683 197.4639360112481 173.2512649454749 197.4639360112481L173.2512649454749 197.4639360112481Q172.99876129625156 197.4639360112481 172.81377199174034 197.42432759568368Q172.62923278286056 197.38471918011922 172.4910534240164 197.31225378346153L172.4910534240164 197.31225378346153L172.4910534240164 196.9760323467952Q172.63823469548885 197.04849774345286 172.84257811215087 197.10791036679953Q173.04692152881287 197.16687289451477 173.2602668581032 197.16687289451477L173.2602668581032 197.16687289451477Q173.57218313067318 197.16687289451477 173.7130630633058 197.066051473078Q173.85349290030703 196.9647799560098 173.85349290030703 196.79149313791538L173.85349290030703 196.79149313791538Q173.85349290030703 196.69247209900425 173.79768104201167 196.61640593729527Q173.7414190880849 196.5407898712177 173.60954106808057 196.46922466582285Q173.4776630480762 196.397659460428 173.2449636066351 196.3121412904593L173.2449636066351 196.3121412904593Q173.01406454771964 196.22437264233355 172.84572878157076 196.13750418547062Q172.67784311105328 196.0506357286077 172.58647369787622 195.92550914307455Q172.49510428469912 195.79993246191 172.49510428469912 195.60009000156214L172.49510428469912 195.60009000156214Q172.49510428469912 195.2944750678319 172.74265688197693 195.13109035362857Q172.9897593836233 194.96725554379384 173.39214487810753 194.96725554379384L173.39214487810753 194.96725554379384Q173.60954106808057 194.96725554379384 173.79948142453733 195.01001462877818Q173.9898718766255 195.05277371376252 174.1546068777231 195.12523911042018L174.1546068777231 195.12523911042018L174.03173077034705 195.4178012708394Q173.88229902071754 195.35388769117858 173.7130630633058 195.3097783193Q173.54382710589408 195.2661190430528 173.36783971401115 195.2661190430528L173.36783971401115 195.2661190430528Q173.11488596915643 195.2661190430528 172.97985727973216 195.34938673486442Q172.84482859030794 195.43310452230747 172.84482859030794 195.57803531562283L172.84482859030794 195.57803531562283Q172.84482859030794 195.69010912784495 172.9073918830745 195.76257452450264Q172.96995517584105 195.83503992116033 173.1085846303166 195.8989535008211Q173.24676398916077 195.96286708048194 173.47316209176208 196.04838525045062L173.47316209176208 196.04838525045062Q173.6995601943634 196.13210303789364 173.86429519546098 196.22077187728223Q174.02948029218996 196.30989081230223 174.11814913157855 196.43636768472962Q174.20726806659854 196.562844557157 174.20726806659854 196.7604365393478ZM174.82029831658463 196.89681551566628L175.21188151591494 196.89681551566628L175.24023754069404 196.94722622638466Q175.20062912512958 197.10791036679953 175.1403163105201 197.29019909752225Q175.0800034959106 197.472487828245 175.00843829051573 197.65612684586196Q174.9368730851209 197.83976586347893 174.86440768846322 197.99999990826237L174.86440768846322 197.99999990826237L174.59209983145766 197.99999990826237Q174.6380095858619 197.82401251637944 174.6821189577405 197.62957120360852Q174.72622832961906 197.43512989083763 174.7622359801322 197.24518953438084Q174.79869372627672 197.05479908229267 174.82029831658463 196.89681551566628L174.82029831658463 196.89681551566628ZM178.9962855848451 196.56509503531407L178.9962855848451 196.56509503531407Q178.9962855848451 196.85045566563065 178.85450546094964 197.05164841287274Q178.71272533705417 197.25284116011488 178.4579712096738 197.35816353786578Q178.20276698666194 197.4639360112481 177.85799373299872 197.4639360112481L177.85799373299872 197.4639360112481Q177.67525490664457 197.4639360112481 177.51277038370407 197.44638228162296Q177.35028586076356 197.4288285519978 177.21390688444507 197.39552147527317Q177.07752790812657 197.36266449417994 176.97445600853274 197.31450426161862L176.97445600853274 197.31450426161862L176.97445600853274 196.95622813901295Q177.13919100963034 197.0241925793565 177.3763914073856 197.0822549158089Q177.61404190077226 197.14076734789276 177.8732969844668 197.14076734789276L177.8732969844668 197.14076734789276Q178.1149983385362 197.14076734789276 178.28198381779083 197.0759535769691Q178.4489692970455 197.0111398060455 178.53583775390842 196.88916388993226Q178.62270621077136 196.76718797381903 178.62270621077136 196.59570153825024L178.62270621077136 196.59570153825024Q178.62270621077136 196.43096653715264 178.5502408141137 196.31979291619336Q178.4773253218246 196.20906939086547 178.30943965130712 196.1176999776884Q178.14110388515823 196.02633056451134 177.8512422985275 195.92325866491748L177.8512422985275 195.92325866491748Q177.64689888186547 195.8507932682598 177.49071569776478 195.76392481139686Q177.33453251366407 195.67705635453393 177.22921013591315 195.5672330204689Q177.12388775816225 195.45740968640382 177.06987628239256 195.31202879745706Q177.01586480662286 195.1670980041417 177.01586480662286 194.98030831710486L177.01586480662286 194.98030831710486Q177.01586480662286 194.72330371156738 177.14684263536435 194.53966469395039Q177.27737036847446 194.35602567633342 177.50961971428416 194.25835492431656Q177.74141896446247 194.16068417229968 178.04253294187853 194.16068417229968L178.04253294187853 194.16068417229968Q178.299537547416 194.16068417229968 178.51828402428328 194.208844404861Q178.73703050115054 194.25745473305372 178.9193192318733 194.33847194670827L178.9193192318733 194.33847194670827L178.802744463337 194.65939013190655Q178.62900754961117 194.58692473524889 178.43456623684025 194.53876450268757Q178.24012492406933 194.49015417449482 178.03353102925024 194.49015417449482L178.03353102925024 194.49015417449482Q177.82693713443115 194.49015417449482 177.68515701053568 194.55046698910434Q177.54337688664023 194.61122989934523 177.46866101182547 194.7210532334103Q177.39394513701072 194.83087656747534 177.39394513701072 194.98255879526192L177.39394513701072 194.98255879526192Q177.39394513701072 195.15179475267365 177.4655103424056 195.26386856489574Q177.53707554780044 195.3759423771179 177.69415892316397 195.46281083398083Q177.8512422985275 195.54967929084376 178.11049738222206 195.6441993734407L178.11049738222206 195.6441993734407Q178.39405763001298 195.74727127303456 178.59164961220378 195.862945850308Q178.78969169002602 195.97817033195003 178.89276358961985 196.14425561994182Q178.9962855848451 196.30989081230223 178.9962855848451 196.56509503531407ZM182.91031719562253 194.20659392670393L183.30145029932143 194.20659392670393L182.44221773895183 197.41982663936955L182.066387886721 197.41982663936955L181.42905247263857 195.25711713042455Q181.40069644785947 195.16484752598464 181.37504099686888 195.07167773028192Q181.34983564150969 194.9780578389478 181.3277809555704 194.89343986024193Q181.3061763652625 194.80882188153606 181.29177330505726 194.7440081106124Q181.27737024485202 194.67919433968876 181.2710689060122 194.64633735859553L181.2710689060122 194.64633735859553Q181.26656794969807 194.67919433968876 181.25441536764987 194.7431079193496Q181.2422627856017 194.806571403379 181.22380886471373 194.89028919082202Q181.20490484819433 194.97355688263363 181.17969949283514 195.0680769652306Q181.15449413747595 195.16259704782757 181.12568801706544 195.2593676085816L181.12568801706544 195.2593676085816L180.50590633260816 197.41982663936955L180.13007648037734 197.41982663936955L179.27759535447893 194.20659392670393L179.66647798002077 194.20659392670393L180.18318776488422 196.22212216417648Q180.20929331150623 196.32294358561325 180.23224818870835 196.42106443326153Q180.2556531615419 196.5187351852784 180.27410708242985 196.61100478971832Q180.29301109894928 196.7032743941582 180.30831435041733 196.79149313791538Q180.32361760188545 196.87926178604113 180.33667037519643 196.96252947785274L180.33667037519643 196.96252947785274Q180.3479227659818 196.87701130788406 180.36547649560694 196.78339141654993Q180.3830302252321 196.69022162084718 180.40373462427715 196.59345106009314Q180.42488911895362 196.4966804993391 180.4500944743128 196.397659460428Q180.475299829672 196.2990885171483 180.5036558544511 196.2000674782372L180.5036558544511 196.2000674782372L181.08202874081826 194.20659392670393L181.46641041004594 194.20659392670393L182.0686383648781 196.21537072970528Q182.09924486781424 196.31889272493052 182.12580051006768 196.41971414636728Q182.15235615232112 196.52098566343545 182.17306055136618 196.61640593729527Q182.1937649504112 196.7122763067865 182.21041848877354 196.79914476364942Q182.22707202713588 196.88556312488095 182.2401248004469 196.96252947785274L182.2401248004469 196.96252947785274Q182.25542805191495 196.85495662194478 182.27748273785426 196.73613137525143Q182.29953742379354 196.61775622418952 182.3292437354669 196.48812868234222Q182.3589500471402 196.35850114049498 182.3940575063905 196.21987168601942L182.3940575063905 196.21987168601942L182.91031719562253 194.20659392670393ZM184.94745002340298 194.20659392670393L184.94745002340298 197.41982663936955L184.5914243789544 197.41982663936955L184.5914243789544 195.14279284004533Q184.5914243789544 195.0131652981981 184.59277466584862 194.91999550249534Q184.59367485711147 194.8263756111612 184.59727562216278 194.74850906692654Q184.60042629158266 194.6706425226919 184.60717772605386 194.58917521340595L184.60717772605386 194.58917521340595Q184.53876319007892 194.65939013190655 184.47935056673225 194.70890065136211Q184.420388039017 194.75841117081768 184.33216929525983 194.83087656747534L184.33216929525983 194.83087656747534L183.9653413556573 195.12523911042018L183.7740507123063 194.877236417511L184.64453566346126 194.20659392670393L184.94745002340298 194.20659392670393ZM188.78271489868294 197.41982663936955L188.3960827512982 197.41982663936955L188.00044869128516 196.39990993858507L186.71227499417785 196.39990993858507L186.31889141232188 197.41982663936955L185.94126117756542 197.41982663936955L187.19792818047372 194.1935411533929L187.5345997127715 194.1935411533929L188.78271489868294 197.41982663936955ZM186.83785167534242 196.06818945823284L187.88837487906304 196.06818945823284L187.5125450268322 195.05502419191959Q187.4990421578898 195.01541577635516 187.46978594184787 194.92539665007232Q187.44007963017452 194.83537752378948 187.40902303160695 194.73860696303544Q187.3784165286708 194.6418364022814 187.35861232088857 194.58242377893475L187.35861232088857 194.58242377893475Q187.3365576349493 194.67244290521757 187.3113522795901 194.76156184023756Q187.28614692423088 194.85068077525756 187.26184176013453 194.92629684133516Q187.23753659603818 195.00236300304414 187.219982866413 195.05502419191959L187.219982866413 195.05502419191959L186.83785167534242 196.06818945823284ZM192.2835587198222 197.08585568086022L192.2835587198222 197.41982663936955L190.1784614516982 197.41982663936955L190.1784614516982 197.11421170563932L191.03769401206785 196.2419263719587Q191.27714488798017 196.0002250178893 191.4409796978149 195.81118485269536Q191.60481450764965 195.62214468750142 191.69033267761836 195.43850566988445Q191.77585084758704 195.25486665226748 191.77585084758704 195.03521998413737L191.77585084758704 195.03521998413737Q191.77585084758704 194.7629121271318 191.61426651590935 194.61888152507927Q191.4531322798631 194.47485092302674 191.1893762398544 194.47485092302674L191.1893762398544 194.47485092302674Q190.95847718093893 194.47485092302674 190.78023931089893 194.55406775415565Q190.60245153649035 194.6332845852845 190.41566184945347 194.7782153785999L190.41566184945347 194.7782153785999L190.21987024978833 194.53201306821634Q190.34769740910994 194.42444021230835 190.49802935000227 194.34072242486533Q190.64836129089457 194.25745473305372 190.82119801335762 194.208844404861Q190.99358464018925 194.16068417229968 191.1893762398544 194.16068417229968L191.1893762398544 194.16068417229968Q191.48598926095633 194.16068417229968 191.7011349727723 194.2637560718935Q191.91673078021967 194.36727806711878 192.03420574001876 194.55856871046979Q192.15168069981786 194.7494092581894 192.15168069981786 195.0131652981981L192.15168069981786 195.0131652981981Q192.15168069981786 195.26836952120988 192.0508592783811 195.48711599807717Q191.9495877613129 195.70541237931303 191.76729903059018 195.91965789986617Q191.58501029986743 196.13435351605074 191.34105846764098 196.37380439196306L191.34105846764098 196.37380439196306L190.6420599520548 197.07055242939214L190.6420599520548 197.08585568086022L192.2835587198222 197.08585568086022ZM195.37166484695467 197.41982663936955L194.98458260393852 197.41982663936955L194.58894854392545 196.39990993858507L193.30122494244958 196.39990993858507L192.90784136059364 197.41982663936955L192.52976103020575 197.41982663936955L193.78687812874546 194.1935411533929L194.12309956541182 194.1935411533929L195.37166484695467 197.41982663936955ZM193.42635152798272 196.06818945823284L194.47687473170333 196.06818945823284L194.1010448794725 195.05502419191959Q194.08799210616152 195.01541577635516 194.0582857944882 194.92539665007232Q194.02857948281485 194.83537752378948 193.99797297987868 194.73860696303544Q193.96736647694252 194.6418364022814 193.9475622691603 194.58242377893475L193.9475622691603 194.58242377893475Q193.92550758322102 194.67244290521757 193.9003022278618 194.76156184023756Q193.8746467768712 194.85068077525756 193.85079170840626 194.92629684133516Q193.8264865443099 195.00236300304414 193.80893281468474 195.05502419191959L193.80893281468474 195.05502419191959L193.42635152798272 196.06818945823284ZM198.21761952438635 197.41982663936955L197.83098737700158 197.41982663936955L197.43535331698854 196.39990993858507L196.14717961988126 196.39990993858507L195.75379603802529 197.41982663936955L195.3757157076374 197.41982663936955L196.63283280617713 194.1935411533929L196.96905424284347 194.1935411533929L198.21761952438635 197.41982663936955ZM196.2727563010458 196.06818945823284L197.32327950476642 196.06818945823284L196.94744965253562 195.05502419191959Q196.93394678359317 195.01541577635516 196.90424047191985 194.92539665007232Q196.87498425587793 194.83537752378948 196.84392765731036 194.73860696303544Q196.8133211543742 194.6418364022814 196.79351694659198 194.58242377893475L196.79351694659198 194.58242377893475Q196.77146226065267 194.67244290521757 196.74625690529348 194.76156184023756Q196.7210515499343 194.85068077525756 196.6967463858379 194.92629684133516Q196.67244122174156 195.00236300304414 196.65488749211642 195.05502419191959L196.65488749211642 195.05502419191959L196.2727563010458 196.06818945823284Z " fill="black"></path><path d="M248.56983374301834 197.97329315608147L248.56983374301834 196.02779668047884L249.12058992416317 196.02779668047884Q249.48521722271425 196.02779668047884 249.66889345531774 196.13707586337793Q249.8525696879212 196.24608252961144 249.8525696879212 196.50824356190304L249.8525696879212 196.50824356190304Q249.8525696879212 196.62133797812032 249.80923953809338 196.71126847776299Q249.76590938826556 196.80092646074002 249.68333683859368 196.85951754384052Q249.60103680558737 196.91810862694106 249.47976688940258 196.9407275101845L249.47976688940258 196.9407275101845L249.47976688940258 196.95408082679813Q249.6075772055614 196.97397454338574 249.70595572183714 197.02711529317457Q249.80460675477846 197.080528559629 249.86047267122314 197.1761819092489Q249.9163385876678 197.27210777553438 249.9163385876678 197.4198118082808L249.9163385876678 197.4198118082808Q249.9163385876678 197.59940029090052 249.83322100466475 197.72312285707557Q249.7501034216617 197.84684542325058 249.59831163893153 197.910069289666Q249.44651985620138 197.97329315608147 249.23913467369212 197.97329315608147L249.23913467369212 197.97329315608147L248.56983374301834 197.97329315608147ZM248.79602257545287 196.22073847971217L248.79602257545287 196.8622427104964L249.1685528573059 196.8622427104964Q249.42253838963 196.8622427104964 249.52037187257457 196.77830757749658Q249.61820535551917 196.69464496116234 249.61820535551917 196.53358761180235L249.61820535551917 196.53358761180235Q249.61820535551917 196.36707992913065 249.50184073931487 196.29404546275418Q249.3854761231106 196.22073847971217 249.13121807412094 196.22073847971217L249.13121807412094 196.22073847971217L248.79602257545287 196.22073847971217ZM249.1805435905916 197.05245934307385L248.79602257545287 197.05245934307385L248.79602257545287 197.78035135684814L249.20043730717921 197.78035135684814Q249.45987317281498 197.78035135684814 249.56778977238616 197.6784301239198Q249.67543385529174 197.57678140765705 249.67543385529174 197.40373332501136L249.67543385529174 197.40373332501136Q249.67543385529174 197.29336407544992 249.62692588881782 197.2148792757618Q249.57841792234393 197.13639447607366 249.46995628944157 197.09442690957377Q249.36149465653924 197.05245934307385 249.1805435905916 197.05245934307385L249.1805435905916 197.05245934307385ZM251.42798853166104 197.45578400813787L251.42798853166104 197.45578400813787Q251.42798853166104 197.628559574118 251.34214578200215 197.75037452363392Q251.25630303234328 197.8721894731499 251.10205859962286 197.9359583728965Q250.94754165023684 197.99999978930867 250.73879388439966 197.99999978930867L250.73879388439966 197.99999978930867Q250.62815211817266 197.99999978930867 250.52977360189692 197.9893716393509Q250.43139508562115 197.97874348939314 250.34882253594927 197.95857725613996Q250.2662499862774 197.93868353955233 250.2038436698587 197.90952425633486L250.2038436698587 197.90952425633486L250.2038436698587 197.69260099053017Q250.30358476946236 197.73375100703333 250.447201052225 197.76890565689362Q250.59108985165327 197.80433282341951 250.74805945102952 197.80433282341951L250.74805945102952 197.80433282341951Q250.894400900448 197.80433282341951 250.99550458337959 197.76509042357546Q251.09660826631116 197.72584802373137 251.14920398276885 197.65199600735818Q251.2017996992265 197.57814399098498 251.2017996992265 197.47431514139754L251.2017996992265 197.47431514139754Q251.2017996992265 197.3745740417939 251.15792451606754 197.3072624253947Q251.11404933290854 197.24022332566108 251.0121280999802 197.18490244254758Q250.91020686705187 197.1295815594341 250.73470613441592 197.06717524301538L250.73470613441592 197.06717524301538Q250.61098356824087 197.0233000598564 250.5164202852833 196.97070434339872Q250.42185700232574 196.91810862694106 250.35808810257913 196.85161456053862Q250.29431920283253 196.78512049413615 250.26161720296247 196.69709761115263Q250.2289152030924 196.60934724483462 250.2289152030924 196.49625282861734L250.2289152030924 196.49625282861734Q250.2289152030924 196.34064581256902 250.30821755277728 196.22945901301085Q250.3872473857966 196.11827221345266 250.5278659852378 196.059136097021Q250.66821206801347 195.99999998058928 250.85052571728903 195.99999998058928L250.85052571728903 195.99999998058928Q251.00613273333735 195.99999998058928 251.13857583281109 196.02915926380678Q251.2710189322848 196.0585910636898 251.38138818184623 196.1076440634949L251.38138818184623 196.1076440634949L251.31080636546002 196.30194844605614Q251.20561493254468 196.25807326289714 251.0878877330125 196.22891397967967Q250.9701605334803 196.19948217979663 250.84507538397733 196.19948217979663L250.84507538397733 196.19948217979663Q250.71999023447438 196.19948217979663 250.6341474848155 196.23599941298485Q250.5483047351566 196.27278916283865 250.50306696866969 196.33928322924112Q250.45782920218278 196.40577729564353 250.45782920218278 196.49761541194528L250.45782920218278 196.49761541194528Q250.45782920218278 196.6000816782048 250.5011593520106 196.66793832793513Q250.54448950183843 196.7357949776655 250.63959781812719 196.78839069412317Q250.73470613441592 196.84098641058085 250.89167573379217 196.89821491035343L250.89167573379217 196.89821491035343Q251.06336123310996 196.96062122677213 251.18299604930124 197.03065800982716Q251.3029033821581 197.1004222762166 251.3653096985768 197.20098092581702Q251.42798853166104 197.30126705875188 251.42798853166104 197.45578400813787ZM253.27892172430612 197.97329315608147L253.04455739190405 197.97329315608147L252.8052877595215 197.35577039186862L252.02534506262072 197.35577039186862L251.78716549690049 197.97329315608147L251.5582514978101 197.97329315608147L252.31939054478562 196.0198936971769L252.52296049397668 196.0198936971769L253.27892172430612 197.97329315608147ZM252.1013772123186 197.15492560933336L252.73743110979112 197.15492560933336L252.50987969402868 196.54149059510428Q252.50170419406115 196.51750912853288 252.48371809413263 196.46300579541614Q252.4657319942041 196.4085024622994 252.4472008609444 196.3499113791989Q252.4286697276847 196.29132029609838 252.416678994399 196.25534809624128L252.416678994399 196.25534809624128Q252.4033256777854 196.30985142935805 252.38806474451272 196.36380972914364Q252.37280381124003 196.41776802892923 252.3580879112985 196.46355082874732Q252.343372011357 196.50960614523098 252.33274386139922 196.54149059510428L252.33274386139922 196.54149059510428L252.1013772123186 197.15492560933336ZM254.79438690161751 196.02779668047884L255.01948566738972 196.02779668047884L255.01948566738972 197.2865511588103Q255.01948566738972 197.49284627465727 254.93609556772108 197.6539036240173Q254.85297798471802 197.81496097337728 254.685380235384 197.9073441230102Q254.51778248604998 197.99999978930867 254.26488702038824 197.99999978930867L254.26488702038824 197.99999978930867Q253.9043474718209 197.99999978930867 253.7160384559025 197.80433282341951Q253.5277294399841 197.60866585753035 253.5277294399841 197.28137334216424L253.5277294399841 197.28137334216424L253.5277294399841 196.02779668047884L253.75528085574655 196.02779668047884L253.75528085574655 197.28791374213824Q253.75528085574655 197.5356313911539 253.88636137189235 197.66998210728673Q254.01744188803815 197.80433282341951 254.27824033700185 197.80433282341951L254.27824033700185 197.80433282341951Q254.45646623629364 197.80433282341951 254.57037820250764 197.73974637367616Q254.6840176520561 197.67515992393282 254.7393385351696 197.55879530772853Q254.79438690161751 197.44243069152424 254.79438690161751 197.28927632546618L254.79438690161751 197.28927632546618L254.79438690161751 196.02779668047884ZM256.93282517645343 196.02779668047884L256.93282517645343 197.97329315608147L256.7172644939767 197.97329315608147L256.7172644939767 196.59463134489312Q256.7172644939767 196.51614654520498 256.71780952730785 196.45973559542915Q256.71862707730463 196.40305212898772 256.7205346939637 196.3559067458417Q256.72271482728837 196.30876136269572 256.72653006060654 196.25943584622507L256.72653006060654 196.25943584622507Q256.6853800441034 196.30194844605614 256.64940784424635 196.33192527927034Q256.61343564438926 196.36190211248456 256.5602948946004 196.40577729564353L256.5602948946004 196.40577729564353L256.3379212954841 196.58400319493535L256.22237422927657 196.43384651219867L256.74914894385 196.02779668047884L256.93282517645343 196.02779668047884ZM259.04046906807844 197.3225233586674L259.04046906807844 197.5222780745403L258.7491487525694 197.5222780745403L258.7491487525694 197.97329315608147L258.5335880700926 197.97329315608147L258.5335880700926 197.5222780745403L257.5928605404974 197.5222780745403L257.5928605404974 197.33587667528099L258.5188721701511 196.01716853052108L258.7491487525694 196.01716853052108L258.7491487525694 197.3225233586674L259.04046906807844 197.3225233586674ZM257.8125089729579 197.3225233586674L258.5335880700926 197.3225233586674L258.5335880700926 196.68646946119486Q258.5335880700926 196.6134349948184 258.53495065342054 196.55402636172113Q258.53631323674847 196.49489024528944 258.5390384034043 196.4436571121597Q258.5414910533945 196.39242397902996 258.5436711867192 196.34582362921512Q258.5455788033783 196.29922327940028 258.5469413867062 196.25398551291337L258.5469413867062 196.25398551291337L258.53631323674847 196.25398551291337Q258.51096918684914 196.30739877936782 258.4782671869791 196.36653489579948Q258.4458377037746 196.42567101223116 258.4125906705734 196.472271362046L258.4125906705734 196.472271362046L257.8125089729579 197.3225233586674ZM259.84166806489475 196.78375791080825L259.84166806489475 196.78375791080825Q260.03978768077417 196.78375791080825 260.18640164685826 196.85079701054187Q260.3327430962767 196.91810862694106 260.41313551262397 197.04591894309985Q260.49352792897116 197.17345674259306 260.49352792897116 197.35577039186862L260.49352792897116 197.35577039186862Q260.49352792897116 197.55552510774152 260.4071401459811 197.69995894050095Q260.3207523629911 197.84412025659475 260.1583324303031 197.9220600229517Q259.99591249761517 197.99999978930867 259.76972366518066 197.99999978930867L259.76972366518066 197.99999978930867Q259.61820439911605 197.99999978930867 259.4876689163014 197.97329315608147Q259.3574059501524 197.94658652285426 259.2680204838409 197.89344577306542L259.2680204838409 197.89344577306542L259.2680204838409 197.6833354239003Q259.3653089334543 197.74165399033524 259.5037473995709 197.7762636068644Q259.6419133490218 197.81087322339351 259.77244883183647 197.81087322339351L259.77244883183647 197.81087322339351Q259.92015286458286 197.81087322339351 260.03133966414106 197.76372784024755Q260.1422539470337 197.71658245710154 260.2041152301212 197.62011155748488Q260.2659765132087 197.5236406578682 260.2659765132087 197.37702669178415L260.2659765132087 197.37702669178415Q260.2659765132087 197.1829948258885 260.14688673034857 197.0769858429764Q260.02779694748847 196.9712493767299 259.77108624850854 196.9712493767299L259.77108624850854 196.9712493767299Q259.6885136988367 196.9712493767299 259.5901351825609 196.9846026933435Q259.4917566662852 196.9979560099571 259.427715249873 197.01376197656097L259.427715249873 197.01376197656097L259.31598341698367 196.9407275101845L259.3906529833536 196.02779668047884L260.3578146295105 196.02779668047884L260.3578146295105 196.23027656300758L259.57950703260315 196.23027656300758L259.5301815161325 196.81700494400945Q259.5808696159311 196.8063767940517 259.6607169989471 196.7949310940972Q259.74056438196317 196.78375791080825 259.84166806489475 196.78375791080825ZM262.0000000563183 197.77381095687412L262.0000000563183 197.97329315608147L260.9167463106228 197.97329315608147L260.9167463106228 196.02779668047884L262.0000000563183 196.02779668047884L262.0000000563183 196.22755139635177L261.14293514305734 196.22755139635177L261.14293514305734 196.85679237718472L261.9506745398477 196.85679237718472L261.9506745398477 197.05382192640178L261.14293514305734 197.05382192640178L261.14293514305734 197.77381095687412L262.0000000563183 197.77381095687412Z " fill="black"></path><rect width="44" height="193" fill="url(#SvgjsLinearGradient1003)" rx="3" ry="3" x="5" y="5" mask="url(#SvgjsMask1004)"></rect><g><svg xmlns:dc="http://purl.org/dc/elements/1.1/" xmlns:cc="http://creativecommons.org/ns#" xmlns:rdf="http://www.w3.org/1999/02/22-rdf-syntax-ns#" xmlns:svg="http://www.w3.org/2000/svg" xmlns="http://www.w3.org/2000/svg" id="svg8" version="1.1" viewBox="0 0 187.14808 331.69903" height="76" width="38" x="8" y="8">
  <defs id="defs2">
    <clipPath id="a">
      <path style="fill-opacity:0.7" d="M -77.6,0 H 605 V 512 H -77.6 Z" id="path10"></path>
    </clipPath>
    <clipPath id="a-6">
      <path style="fill-opacity:0.7" d="m -5.3,-6 h 40 v 30 h -40 z" id="path256"></path>
    </clipPath>
    <clipPath id="a-3">
      <path style="fill-opacity:0.7" d="M -77.6,0 H 605 V 512 H -77.6 Z" id="path10-5"></path>
    </clipPath>
    <clipPath id="a-6-6">
      <path style="fill-opacity:0.7" d="m -5.3,-6 h 40 v 30 h -40 z" id="path256-2"></path>
    </clipPath>
    <clipPath id="a-9">
      <path style="fill-opacity:0.7" d="m -5.3,-6 h 40 v 30 h -40 z" id="path5630"></path>
    </clipPath>
    <clipPath id="a-0">
      <rect y="0" x="0" width="5" height="3" id="rect6646"></rect>
    </clipPath>
  </defs>
  <metadata id="metadata5">
    <rdf:rdf>
      <cc:work rdf:about="">
        <dc:format>image/svg+xml</dc:format>
        <dc:type rdf:resource="http://purl.org/dc/dcmitype/StillImage"></dc:type>
        <dc:title></dc:title>
      </cc:work>
    </rdf:rdf>
  </metadata>
  <g transform="translate(603.00475,110.51986)" id="layer1">
    <g transform="matrix(0,6.23753,-6.23753,0,-415.8418,-128.01348)" id="g6904">
      <path style="fill:#00247d" d="M 0,0 V 30 H 60 V 0 Z" id="path6881"></path>
      <path style="stroke:#ffffff;stroke-width:6" d="M 0,0 60,30 M 60,0 0,30" id="path6883"></path>
      <path style="stroke:#cf142b;stroke-width:4" d="M 0,0 60,30 M 60,0 0,30" clip-path="url(#t)" id="path6885"></path>
      <path style="stroke:#ffffff;stroke-width:10" d="M 30,0 V 30 M 0,15 h 60" id="path6887"></path>
      <path style="stroke:#cf142b;stroke-width:6" d="M 30,0 V 30 M 0,15 h 60" id="path6889"></path>
    </g>
  </g>
</svg></g><rect width="44" height="79" fill="url(#SvgjsLinearGradient1005)" rx="3" ry="3" x="223" y="111"></rect><g><svg xmlns="http://www.w3.org/2000/svg" viewBox="0 0 60 30" width="38" height="19" x="226" y="114">
<clipPath id="t">
	<path d="M30,15 h30 v15 z v15 h-30 z h-30 v-15 z v-15 h30 z"></path>
</clipPath>
<path d="M0,0 v30 h60 v-30 z" fill="#00247d"></path>
<path d="M0,0 L60,30 M60,0 L0,30" stroke="#ffffff" stroke-width="6"></path>
<path d="M0,0 L60,30 M60,0 L0,30" clip-path="url(#t)" stroke="#cf142b" stroke-width="4"></path>
<path d="M30,0 v30 M0,15 h60" stroke="#ffffff" stroke-width="10"></path>
<path d="M30,0 v30 M0,15 h60" stroke="#cf142b" stroke-width="6"></path>
</svg></g><path d="M237.555361124775 166.9937437277563L242.88796679492603 166.9937437277563L242.88796679492603 178.87254443518967Q242.88796679492603 181.35777641936062 241.9425281535618 183.18507157123713Q240.99708951219753 185.0151311635855 239.10897666994083 186.00756529297078Q237.21809938721233 186.99999942235607 234.37072570123226 186.99999942235607L234.37072570123226 186.99999942235607Q230.29317600528992 186.99999942235607 228.14797019915352 184.9073179851843Q225.99999995254524 182.81463654801257 225.99999995254524 178.99417981594996L225.99999995254524 178.99417981594996L225.99999995254524 166.9937437277563L231.3602500274145 166.9937437277563L231.3602500274145 178.57674930470438Q231.3602500274145 180.6694307418761 232.14258668094106 181.61210494276855Q232.92492333446762 182.55754358413282 234.4508944749152 182.55754358413282L234.4508944749152 182.55754358413282Q235.54561290175803 182.55754358413282 236.23395857924254 182.14564195383082Q236.92230425672705 181.73374032352888 237.2374504705151 180.8435904916011Q237.555361124775 179.95344065967336 237.555361124775 178.5491048999861L237.555361124775 178.5491048999861L237.555361124775 166.9937437277563ZM257.77724317617714 175.83718879712546L263.8894210593829 186.72908425611718L257.8712341522192 186.72908425611718L253.9706086464737 179.18492620850594L252.38934869658962 180.12760040939835L252.38934869658962 186.72908425611718L247.03186306219217 186.72908425611718L247.03186306219217 166.9937437277563L252.38934869658962 166.9937437277563L252.38934869658962 175.5662736308866Q252.7266104341523 174.91939456047947 253.16615646917253 174.26975104960053Q253.60570250419278 173.6228719791934 254.02313301543836 173.0423394801101L254.02313301543836 173.0423394801101L258.1670292827045 166.9937437277563L263.9999986782559 166.9937437277563L257.77724317617714 175.83718879712546Z " fill="pink"></path></svg>
