<svg xmlns="http://www.w3.org/2000/svg" version="1.1" xmlns:xlink="http://www.w3.org/1999/xlink" xmlns:svgjs="http://svgjs.dev/svgjs" generator="Plateit 3.0.0" viewBox="0 0 279 203" preserveAspectRatio="xMidYMid meet"><rect width="279" height="203" rx="3" ry="3" fill="yellow" class="do-not-print" id="Background"></rect><path d="M104.24922521124833 197.94906415982192L103.80275955373158 197.94906415982192L103.34589888672666 196.77130958481266L101.85889277944446 196.77130958481266L101.40463086481158 197.94906415982192L100.9680404663086 197.94906415982192L102.41970354133103 194.22349275926308L102.80795714571406 194.22349275926308L104.24922521124833 197.94906415982192ZM102.00338341132996 196.38825348517372L103.21648101859898 196.38825348517372L102.78248937246804 195.2182951672806Q102.76741660871019 195.17255712553265 102.73311307739925 195.06860703065098Q102.6988095460883 194.96465693576934 102.66346651382852 194.85291058377155Q102.62760373109435 194.74116423177375 102.60473471022038 194.67255716915184L102.60473471022038 194.67255716915184Q102.5797866874488 194.7765072640335 102.55016091040753 194.87941785796636Q102.52105488384066 194.9823284518992 102.49350810869701 195.0696465315998Q102.46544158307896 195.15748436177483 102.44517131457704 195.2182951672806L102.44517131457704 195.2182951672806L102.00338341132996 196.38825348517372ZM105.81263463826855 197.99999970631393L105.81263463826855 197.99999970631393Q105.43737479574574 197.99999970631393 105.15047253387235 197.84511406494025Q104.86357027199895 197.69022842356657 104.7040068763556 197.3731806341775Q104.54392373023784 197.05561309431403 104.54392373023784 196.5738044045375L104.54392373023784 196.5738044045375Q104.54392373023784 196.0686069434126 104.71284263442054 195.74740115022826Q104.88124178812885 195.42619535704392 105.17853905949039 195.27182946614465Q105.47531658037755 195.11694382477097 105.8531751752724 195.11694382477097L105.8531751752724 195.11694382477097Q106.06159511551013 195.11694382477097 106.25546204246444 195.15852386272365Q106.44984871989314 195.2006236511507 106.57406908327674 195.26403320902853L106.57406908327674 195.26403320902853L106.44724996752112 195.61694378115178Q106.32043085176548 195.56600823465976 106.15411069995481 195.52546769765593Q105.98779054814415 195.48492716065206 105.84329991625864 195.48492716065206L105.84329991625864 195.48492716065206Q105.5537989020132 195.48492716065206 105.36253072743094 195.60914752403565Q105.17074280237426 195.73336788741926 105.07562846555754 195.9745321075447Q104.98051412874082 196.21569632767017 104.98051412874082 196.5686068997934L104.98051412874082 196.5686068997934Q104.98051412874082 196.90592495768442 105.0730297131855 197.14449042543782Q105.16554529763019 197.38305589319125 105.34953696557073 197.50883550799807Q105.53352863351128 197.63461512280486 105.8100358858965 197.63461512280486L105.8100358858965 197.63461512280486Q106.03092983752003 197.63461512280486 106.20868449976768 197.58731782963372Q106.38643916201534 197.54054028693696 106.53092979390084 197.47713072905916L106.53092979390084 197.47713072905916L106.53092979390084 197.85239057158196Q106.39163666675941 197.92359638657592 106.22011901020467 197.9615381712077Q106.04860135364993 197.99999970631393 105.81263463826855 197.99999970631393ZM110.20816440033971 195.11694382477097L110.20816440033971 195.11694382477097Q110.66762381971667 195.11694382477097 110.90099178272601 195.35654879347322Q111.13487949620975 195.59667351264986 111.13487949620975 196.12681899654635L111.13487949620975 196.12681899654635L111.13487949620975 197.94906415982192L110.71855936620868 197.94906415982192L110.71855936620868 196.14708926504827Q110.71855936620868 195.80977120715727 110.57250948289995 195.64085230297457Q110.42645959959121 195.47193339879186 110.13955733771782 195.47193339879186L110.13955733771782 195.47193339879186Q109.73623096957695 195.47193339879186 109.55379855305964 195.7058211122756Q109.37084638606791 195.93918907528496 109.37084638606791 196.39345098991782L109.37084638606791 196.39345098991782L109.37084638606791 197.94906415982192L108.9519275036948 197.94906415982192L108.9519275036948 196.14708926504827Q108.9519275036948 195.92151755915506 108.88747844486818 195.77182942252546Q108.82250963556713 195.62162153542147 108.69465101886269 195.54677746710666Q108.56627265168383 195.47193339879186 108.3708464733063 195.47193339879186L108.3708464733063 195.47193339879186Q108.09433922092107 195.47193339879186 107.9269795681616 195.58627850316168Q107.7591001649277 195.7006236075315 107.68425609661291 195.9251558124759Q107.60941202829811 196.14968801742032 107.60941202829811 196.47713081629755L107.60941202829811 196.47713081629755L107.60941202829811 197.94906415982192L107.18841414402738 197.94906415982192L107.18841414402738 195.16735962078857L107.52833095429041 195.16735962078857L107.59174051216823 195.56081072991566L107.6146095330422 195.56081072991566Q107.69828935942193 195.41632009803016 107.82510847517756 195.3175675078926Q107.9524473414076 195.2182951672806 108.10941198467891 195.16735962078857Q108.26689637842463 195.11694382477097 108.44465104067228 195.11694382477097L108.44465104067228 195.11694382477097Q108.76169883006136 195.11694382477097 108.976355775992 195.23492718246166Q109.19049297144822 195.35291054015235 109.28716655968817 195.5940747602778L109.28716655968817 195.5940747602778L109.31003558056213 195.5940747602778Q109.44672995533153 195.35291054015235 109.68529542308494 195.23492718246166Q109.92386089083837 195.11694382477097 110.20816440033971 195.11694382477097ZM113.07095001338075 195.11694382477097L113.07095001338075 195.11694382477097Q113.42645933787603 195.11694382477097 113.6800975693873 195.27442821851668Q113.93373580089855 195.43139286178803 114.06835117377031 195.71465687034055Q114.20296654664206 195.9974011284187 114.20296654664206 196.37577947378793L114.20296654664206 196.37577947378793L114.20296654664206 196.63721396241533L112.28196879322891 196.63721396241533Q112.28924529987063 197.12681890930793 112.52521201525201 197.38305589319125Q112.76117873063339 197.63929287707455 113.19049262249466 197.63929287707455L113.19049262249466 197.63929287707455Q113.45400611301967 197.63929287707455 113.65722854851333 197.591475833429Q113.86045098400697 197.543139039309 114.07874618325847 197.4490642034411L114.07874618325847 197.4490642034411L114.07874618325847 197.81964629169426Q113.86772749064869 197.91372112756216 113.66086680183419 197.95686041693804Q113.45400611301967 197.99999970631393 113.17230135589037 197.99999970631393L113.17230135589037 197.99999970631393Q112.77157374012155 197.99999970631393 112.47323696781118 197.8362783068753Q112.17541994597521 197.67255690743667 112.01013929511336 197.35498936757318Q111.84537839472593 197.03794157818413 111.84537839472593 196.57848215880716L111.84537839472593 196.57848215880716Q111.84537839472593 196.1294177489184 111.99610603230434 195.80093544909232Q112.14735342035715 195.47193339879186 112.42282117179357 195.29469848701862Q112.69776917275557 195.11694382477097 113.07095001338075 195.11694382477097ZM113.06575250863666 195.4620581397781L113.06575250863666 195.4620581397781Q112.72843445074565 195.4620581397781 112.52781076762405 195.68295209140163Q112.32718708450244 195.90332629255076 112.28924529987063 196.29937615404992L112.28924529987063 196.29937615404992L113.761178643395 196.29937615404992Q113.75857989102295 196.05093542728272 113.68373582270814 195.8617462545981Q113.60889175439335 195.67255708191345 113.45660486539171 195.56704773560858Q113.30431797639008 195.4620581397781 113.06575250863666 195.4620581397781ZM119.23311163796579 194.2385655230209L119.23311163796579 197.94906415982192L118.73571043395702 197.94906415982192L116.71284158755984 194.83264031526963L116.69257131905792 194.83264031526963Q116.70036757617405 194.95686067865321 116.7102428351878 195.11538457334774Q116.72063784467596 195.27442821851668 116.72687485036887 195.45322238171315Q116.73311185606177 195.63201654490962 116.73311185606177 195.81704771379898L116.73311185606177 195.81704771379898L116.73311185606177 197.94906415982192L116.33238424029295 197.94906415982192L116.33238424029295 194.2385655230209L116.82718669192968 194.2385655230209L118.84225928121073 197.34511410855944L118.85993079734061 197.34511410855944Q118.85473329259653 197.25623677743562 118.84693703548041 197.09251537799702Q118.83966052883869 196.92879397855836 118.8334235231458 196.73960480587374Q118.82666676697849 196.55093538366353 118.82666676697849 196.38825348517372L118.82666676697849 196.38825348517372L118.82666676697849 194.2385655230209L119.23311163796579 194.2385655230209ZM122.05483696352856 195.16735962078857L122.47895335064575 195.16735962078857L122.47895335064575 197.94906415982192L122.13383903563863 197.94906415982192L122.07250847965844 197.55821180306685L122.05015920925888 197.55821180306685Q121.9638806305071 197.70270243495236 121.8266665052633 197.80197477556436Q121.68945238001952 197.90072736570193 121.51845447393917 197.9501036607707Q121.34693681738443 197.99999970631393 121.15410939137894 197.99999970631393L121.15410939137894 197.99999970631393Q120.82406784012966 197.99999970631393 120.60057513613408 197.89345085906024Q120.37760218261292 197.7863822613321 120.26429657919189 197.56340930781096Q120.15151072624529 197.33991660381537 120.15151072624529 196.98960478406417L120.15151072624529 196.98960478406417L120.15151072624529 195.16735962078857L120.57770611526011 195.16735962078857L120.57770611526011 196.95945925654848Q120.57770611526011 197.30717232392763 120.73519050900583 197.47817023000798Q120.89267490275157 197.64968788656273 121.21492019688472 197.64968788656273L121.21492019688472 197.64968788656273Q121.52469147963208 197.64968788656273 121.70868314757263 197.53274402982083Q121.89267481551316 197.41631992355337 121.97375588952086 197.18918896623694Q122.05483696352856 196.9620580089205 122.05483696352856 196.63201645767123L122.05483696352856 196.63201645767123L122.05483696352856 195.16735962078857ZM126.38955592009395 195.11694382477097L126.38955592009395 195.11694382477097Q126.84901533947091 195.11694382477097 127.08238330248024 195.35654879347322Q127.31575126548958 195.59667351264986 127.31575126548958 196.12681899654635L127.31575126548958 196.12681899654635L127.31575126548958 197.94906415982192L126.89995088596292 197.94906415982192L126.89995088596292 196.14708926504827Q126.89995088596292 195.80977120715727 126.75390100265419 195.64085230297457Q126.60785111934544 195.47193339879186 126.32094885747206 195.47193339879186L126.32094885747206 195.47193339879186Q125.9176224893312 195.47193339879186 125.73467032233947 195.7058211122756Q125.55223790582215 195.93918907528496 125.55223790582215 196.39345098991782L125.55223790582215 196.39345098991782L125.55223790582215 197.94906415982192L125.13331902344905 197.94906415982192L125.13331902344905 196.14708926504827Q125.13331902344905 195.92151755915506 125.06886996462242 195.77182942252546Q125.00390115532137 195.62162153542147 124.87604253861693 195.54677746710666Q124.74766417143806 195.47193339879186 124.55223799306054 195.47193339879186L124.55223799306054 195.47193339879186Q124.27573074067531 195.47193339879186 124.10785133744143 195.58627850316168Q123.94049168468194 195.7006236075315 123.86564761636716 195.9251558124759Q123.79080354805235 196.14968801742032 123.79080354805235 196.47713081629755L123.79080354805235 196.47713081629755L123.79080354805235 197.94906415982192L123.36980566378162 197.94906415982192L123.36980566378162 195.16735962078857L123.70972247404465 195.16735962078857L123.77313203192247 195.56081072991566L123.79600105279644 195.56081072991566Q123.87968087917618 195.41632009803016 124.0064999949318 195.3175675078926Q124.13331911068744 195.2182951672806 124.29080350443316 195.16735962078857Q124.44828789817888 195.11694382477097 124.62604256042653 195.11694382477097L124.62604256042653 195.11694382477097Q124.9430903498156 195.11694382477097 125.15774729574623 195.23492718246166Q125.37188449120247 195.35291054015235 125.4685580794424 195.5940747602778L125.4685580794424 195.5940747602778L125.49142710031637 195.5940747602778Q125.62812147508576 195.35291054015235 125.86668694283918 195.23492718246166Q126.1052524105926 195.11694382477097 126.38955592009395 195.11694382477097ZM128.18113580537943 194.0000000552675L128.60265344012458 194.0000000552675L128.60265344012458 194.9875259566433Q128.60265344012458 195.15748436177483 128.59381768205964 195.3175675078926Q128.5849819239947 195.47713090353594 128.57978441925061 195.56600823465976L128.57978441925061 195.56600823465976L128.60265344012458 195.56600823465976Q128.7169985444944 195.37837831339834 128.93269499137386 195.24896044527068Q129.14839143825333 195.11954257714302 129.48311074377227 195.11954257714302L129.48311074377227 195.11954257714302Q130.00597972102705 195.11954257714302 130.31679050472323 195.4807691568568Q130.62760128841938 195.84251548704498 130.62760128841938 196.55561313793322L130.62760128841938 196.55561313793322Q130.62760128841938 197.02546756679834 130.48570940890593 197.3477128609315Q130.34381752939245 197.66995815506465 130.0849817931371 197.83471905545207Q129.82562630640737 197.99999970631393 129.47323548475853 197.99999970631393L129.47323548475853 197.99999970631393Q129.14319393350922 197.99999970631393 128.93113573995063 197.87681884387916Q128.71959729686645 197.7536379814444 128.6052521924966 197.57588331919675L128.6052521924966 197.57588331919675L128.5719881621345 197.57588331919675L128.48570958338271 197.94906415982192L128.18113580537943 197.94906415982192L128.18113580537943 194.0000000552675ZM129.41450368115036 195.47193339879186L129.41450368115036 195.47193339879186Q129.11252865551916 195.47193339879186 128.93529374374592 195.58991675648255Q128.75753908149827 195.70790011417324 128.6800962608114 195.94542608097782Q128.60265344012458 196.18295204778244 128.60265344012458 196.54573787891945L128.60265344012458 196.54573787891945L128.60265344012458 196.5686068997934Q128.60265344012458 197.0935548789458 128.77780935000018 197.37162138275426Q128.95296525987578 197.64968788656273 129.41450368115036 197.64968788656273L129.41450368115036 197.64968788656273Q129.80327703600778 197.64968788656273 129.9971439629621 197.3653843770614Q130.19153064039082 197.08108086756002 130.19153064039082 196.55301438556117L130.19153064039082 196.55301438556117Q130.19153064039082 196.01507264454855 129.99974271533415 195.7437628969074Q129.80795479027748 195.47193339879186 129.41450368115036 195.47193339879186ZM132.4321749355651 195.11694382477097L132.4321749355651 195.11694382477097Q132.7876842600604 195.11694382477097 133.04132249157163 195.27442821851668Q133.2949607230829 195.43139286178803 133.42957609595464 195.71465687034055Q133.5641914688264 195.9974011284187 133.5641914688264 196.37577947378793L133.5641914688264 196.37577947378793L133.5641914688264 196.63721396241533L131.64319371541325 196.63721396241533Q131.65047022205496 197.12681890930793 131.88643693743634 197.38305589319125Q132.12240365281772 197.63929287707455 132.551717544679 197.63929287707455L132.551717544679 197.63929287707455Q132.81523103520402 197.63929287707455 133.01845347069766 197.591475833429Q133.2216759061913 197.543139039309 133.43997110544282 197.4490642034411L133.43997110544282 197.4490642034411L133.43997110544282 197.81964629169426Q133.22895241283305 197.91372112756216 133.02209172401854 197.95686041693804Q132.81523103520402 197.99999970631393 132.5335262780747 197.99999970631393L132.5335262780747 197.99999970631393Q132.1327986623059 197.99999970631393 131.8344618899955 197.8362783068753Q131.53612511768515 197.67255690743667 131.3713642172977 197.35498936757318Q131.20660331691028 197.03794157818413 131.20660331691028 196.57848215880716L131.20660331691028 196.57848215880716Q131.20660331691028 196.1294177489184 131.35733095448867 195.80093544909232Q131.5085783425415 195.47193339879186 131.7840460939779 195.29469848701862Q132.05899409493992 195.11694382477097 132.4321749355651 195.11694382477097ZM132.426977430821 195.4620581397781L132.426977430821 195.4620581397781Q132.08965937293002 195.4620581397781 131.8890356898084 195.68295209140163Q131.68841200668678 195.90332629255076 131.65047022205496 196.29937615404992L131.65047022205496 196.29937615404992L133.12240356557933 196.29937615404992Q133.11980481320728 196.05093542728272 133.0449607448925 195.8617462545981Q132.9701166765777 195.67255708191345 132.81782978757604 195.56704773560858Q132.66554289857442 195.4620581397781 132.426977430821 195.4620581397781ZM135.5434012753733 195.11694382477097L135.5434012753733 195.11694382477097Q135.62760085222743 195.11694382477097 135.7185571852489 195.12577958283592Q135.81003326874475 195.13461534090084 135.8812390837387 195.1496881046587L135.8812390837387 195.1496881046587L135.82770478487464 195.54054046141374Q135.75909772225276 195.52286894528388 135.675417895873 195.5124739357957Q135.59173806949326 195.50259867678193 135.5184532526017 195.50259867678193L135.5184532526017 195.50259867678193Q135.3505738493678 195.50259867678193 135.20244496416143 195.5696464879806Q135.05379632848064 195.63721404965372 134.94204997648285 195.76247391398613Q134.83030362448508 195.88825352879292 134.76689406660725 196.06496869009175Q134.70348450872945 196.24116410091617 134.70348450872945 196.45686054779563L134.70348450872945 196.45686054779563L134.70348450872945 197.94906415982192L134.27988787208668 197.94906415982192L134.27988787208668 195.16735962078857L134.63019969183787 195.16735962078857L134.6759377335858 195.68035333902958L134.69360924971568 195.68035333902958Q134.77988782846745 195.52546769765593 134.901509439479 195.39708933047706Q135.02313105049058 195.26923071377263 135.18477344803156 195.1928273940346Q135.3458960950981 195.11694382477097 135.5434012753733 195.11694382477097ZM137.8173096009097 194.2385655230209L138.78716398615563 194.2385655230209Q139.50545914178792 194.2385655230209 139.83654019398602 194.5192307792014Q140.16762124618413 194.7993762849075 140.16762124618413 195.32224526216226L140.16762124618413 195.32224526216226Q140.16762124618413 195.55821197754364 140.0901784254973 195.77027017110223Q140.01273560481044 195.98232836466082 139.84017844730687 196.1434510117274Q139.66762128980332 196.30457365879397 139.38695603362282 196.39708924323867Q139.10681052791674 196.48960482768337 138.70088540740386 196.48960482768337L138.70088540740386 196.48960482768337L138.24922224514302 196.48960482768337L138.24922224514302 197.94906415982192L137.8173096009097 197.94906415982192L137.8173096009097 194.2385655230209ZM138.74662344915177 194.606548858902L138.74662344915177 194.606548858902L138.24922224514302 194.606548858902L138.24922224514302 196.11902273943022L138.65254861328387 196.11902273943022Q139.00753818730476 196.11902273943022 139.24506415410934 196.0431391701666Q139.48259012091395 195.967255600903 139.60161297955347 195.79573794434825Q139.7211555886674 195.6242202877935 139.7211555886674 195.33991677829215L139.7211555886674 195.33991677829215Q139.7211555886674 194.96985444051342 139.48466912281157 194.7879417744705Q139.24870240743022 194.606548858902 138.74662344915177 194.606548858902ZM141.3043155337151 194.0000000552675L141.3043155337151 197.94906415982192L140.88071889707234 197.94906415982192L140.88071889707234 194.0000000552675L141.3043155337151 194.0000000552675ZM143.2331095442444 195.12214132951505L143.2331095442444 195.12214132951505Q143.73051074825315 195.12214132951505 143.9716749683786 195.34511428303622Q144.21283918850406 195.56860698703179 144.21283918850406 196.05821193392444L144.21283918850406 196.05821193392444L144.21283918850406 197.94906415982192L143.90566665812878 197.94906415982192L143.82458558412105 197.53794153456494L143.80431531561914 197.53794153456494Q143.68737145887727 197.69022842356657 143.56055234312163 197.7931390174994Q143.43373322736602 197.89552986095785 143.26741307555534 197.9480246588731Q143.1010929237447 197.99999970631393 142.8604484540936 197.99999970631393L142.8604484540936 197.99999970631393Q142.60629047210796 197.99999970631393 142.40982479278162 197.9111223751901Q142.21283936298084 197.82224504406628 142.10005351003426 197.6418916294466Q141.98726765708764 197.4615382148269 141.98726765708764 197.1850309624417L141.98726765708764 197.1850309624417Q141.98726765708764 196.7687108324406 142.31730920833695 196.54573787891945Q142.6468310091118 196.32224517492386 143.32198687536822 196.30197490642195L143.32198687536822 196.30197490642195L143.8017165632471 196.28170463792003L143.8017165632471 196.1117462327885Q143.8017165632471 195.75103940354913 143.6468309218734 195.6065487716636Q143.49194528049975 195.4620581397781 143.21024052337043 195.4620581397781L143.21024052337043 195.4620581397781Q142.99194532411894 195.4620581397781 142.79444014384376 195.52546769765593Q142.5964152130942 195.58887725553373 142.41866055084654 195.6751558342855L142.41866055084654 195.6751558342855L142.28924268271888 195.3555092925244Q142.4768726039803 195.25883570428445 142.7206355764778 195.19022864166254Q142.96439854897528 195.12214132951505 143.2331095442444 195.12214132951505ZM143.796519058503 196.83471914269046L143.796519058503 196.57848215880716L143.37292242186024 196.59615367493706Q142.85265219697752 196.61694369391338 142.6395545024701 196.76663183054296Q142.42645680796267 196.91631996717257 142.42645680796267 197.19022846718576L142.42645680796267 197.19022846718576Q142.42645680796267 197.42879393493916 142.5709474398482 197.543139039309Q142.7154380717337 197.65696439320442 142.95400353948713 197.65696439320442L142.95400353948713 197.65696439320442Q143.32458562774025 197.65696439320442 143.56055234312163 197.45166295581316Q143.796519058503 197.24584176794747 143.796519058503 196.83471914269046L143.796519058503 196.83471914269046ZM145.97947105101795 197.6548853913068L145.97947105101795 197.6548853913068Q146.08342114589962 197.6548853913068 146.19256874552536 197.6366941247025Q146.3017163451511 197.61902260857264 146.37032340777301 197.59355483532661L146.37032340777301 197.59355483532661L146.37032340777301 197.92099763420384Q146.29651884040703 197.954261664566 146.16554172085614 197.97713068543996Q146.03508435177966 197.99999970631393 145.91086398839607 197.99999970631393L145.91086398839607 197.99999970631393Q145.68997003677254 197.99999970631393 145.50961662215283 197.9225568856271Q145.32978295800757 197.84511406494025 145.22167485933062 197.6595631455765Q145.1140865111281 197.4745319766871 145.1140865111281 197.14708917780987L145.1140865111281 197.14708917780987L145.1140865111281 195.49740117203788L144.71803664962897 195.49740117203788L144.71803664962897 195.29209973464657L145.11616551302575 195.12681908378474L145.28404491625963 194.52286903252227L145.53768314777088 194.52286903252227L145.53768314777088 195.16735962078857L146.35213214116874 195.16735962078857L146.35213214116874 195.49740117203788L145.53768314777088 195.49740117203788L145.53768314777088 197.13461516642406Q145.53768314777088 197.39604965505146 145.65826525783362 197.52546752317915Q145.77884736789636 197.6548853913068 145.97947105101795 197.6548853913068ZM148.00441889931278 195.11694382477097L148.00441889931278 195.11694382477097Q148.35992822380808 195.11694382477097 148.61356645531933 195.27442821851668Q148.86720468683058 195.43139286178803 149.00182005970234 195.71465687034055Q149.1364354325741 195.9974011284187 149.1364354325741 196.37577947378793L149.1364354325741 196.37577947378793L149.1364354325741 196.63721396241533L147.21491792868653 196.63721396241533Q147.22271418580266 197.12681890930793 147.45868090118404 197.38305589319125Q147.69464761656542 197.63929287707455 148.1239615084267 197.63929287707455L148.1239615084267 197.63929287707455Q148.38747499895172 197.63929287707455 148.59069743444536 197.591475833429Q148.793919869939 197.543139039309 149.01221506919052 197.4490642034411L149.01221506919052 197.4490642034411L149.01221506919052 197.81964629169426Q148.80119637658072 197.91372112756216 148.5943356877662 197.95686041693804Q148.38747499895172 197.99999970631393 148.1057702418224 197.99999970631393L148.1057702418224 197.99999970631393Q147.70504262605357 197.99999970631393 147.4067058537432 197.8362783068753Q147.10836908143284 197.67255690743667 146.9436081810454 197.35498936757318Q146.77884728065794 197.03794157818413 146.77884728065794 196.57848215880716L146.77884728065794 196.57848215880716Q146.77884728065794 196.1294177489184 146.92957491823637 195.80093544909232Q147.08082230628918 195.47193339879186 147.3557703072512 195.29469848701862Q147.6312380586876 195.11694382477097 148.00441889931278 195.11694382477097ZM147.99922139456868 195.4620581397781L147.99922139456868 195.4620581397781Q147.66190333667768 195.4620581397781 147.4612796535561 195.68295209140163Q147.26065597043447 195.90332629255076 147.22271418580266 196.29937615404992L147.22271418580266 196.29937615404992L148.69464752932703 196.29937615404992Q148.69204877695498 196.05093542728272 148.61720470864017 195.8617462545981Q148.5423606403254 195.67255708191345 148.39007375132377 195.56704773560858Q148.2377868623221 195.4620581397781 147.99922139456868 195.4620581397781ZM151.65150797823597 197.18762971481374L151.65150797823597 197.18762971481374Q151.65150797823597 197.4542617081852 151.51793210631303 197.63565462375368Q151.3848759848645 197.8170475393222 151.13747475904614 197.90852362281805Q150.89007353322776 197.99999970631393 150.5475579705927 197.99999970631393L150.5475579705927 197.99999970631393Q150.25545820397522 197.99999970631393 150.0423605094678 197.954261664566Q149.82926281496037 197.90852362281805 149.66917966884262 197.82484379643833L149.66917966884262 197.82484379643833L149.66917966884262 197.4365901920553Q149.83913807397414 197.52027001843504 150.07510478935552 197.58887708105695Q150.3115912552113 197.65696439320442 150.55743322960646 197.65696439320442L150.55743322960646 197.65696439320442Q150.91814005884584 197.65696439320442 151.08030220686123 197.54054028693696Q151.242984105351 197.42359643019512 151.242984105351 197.2234924975479L151.242984105351 197.2234924975479Q151.242984105351 197.10914739317806 151.17801529604998 197.02130956300306Q151.11304648674894 196.93399148330246 150.9612793482217 196.85135115787153Q150.80899245922006 196.7687108324406 150.53976171347657 196.66995824230304L150.53976171347657 196.66995824230304Q150.2731297201051 196.5686068997934 150.0792627931508 196.46829505823263Q149.88487611572208 196.3679832166718 149.7798865198916 196.2234925847863Q149.67437717358672 196.07848220242636 149.67437717358672 195.84771299178908L149.67437717358672 195.84771299178908Q149.67437717358672 195.4948024196658 149.95972018403688 195.30613299745562Q150.24558294496146 195.11694382477097 150.70972011860806 195.11694382477097L150.70972011860806 195.11694382477097Q150.9612793482217 195.11694382477097 151.18061404842203 195.16632011983978Q151.39994874862234 195.21569641490856 151.59017742225578 195.29937624128831L151.59017742225578 195.29937624128831L151.4482855427423 195.63721404965372Q151.27572838523875 195.56340948228774 151.08030220686123 195.5124739357957Q150.8848760284837 195.4620581397781 150.68165359299005 195.4620581397781L150.68165359299005 195.4620581397781Q150.390073576847 195.4620581397781 150.23414843452446 195.55821197754364Q150.07770354172757 195.6548855657836 150.07770354172757 195.82224521854306L150.07770354172757 195.82224521854306Q150.07770354172757 195.95166308667075 150.14994885767032 196.03534291305047Q150.2227139240875 196.11902273943022 150.38227731973083 196.1928273067962Q150.54236046584862 196.26663187416216 150.803794954476 196.36538446429978L150.803794954476 196.36538446429978Q151.06522944310336 196.4620580525397 151.2554581167368 196.56444889599814Q151.44568679037027 196.667359489931 151.54859738430312 196.81340937323972Q151.65150797823597 196.95945925654848 151.65150797823597 197.18762971481374ZM155.83601904769736 196.9620580089205L155.83601904769736 196.9620580089205Q155.83601904769736 197.2915798096954 155.67229764825873 197.5239082717559Q155.50909599929452 197.75623673381642 155.214397480305 197.87785834482798Q154.9202187117899 197.99999970631393 154.5215700979187 197.99999970631393L154.5215700979187 197.99999970631393Q154.31107115578334 197.99999970631393 154.12344123452192 197.979729437812Q153.93529156278612 197.9594591693101 153.7778071690404 197.92099763420384Q153.6208425257691 197.88305584957206 153.50129991665517 197.82744254881038L153.50129991665517 197.82744254881038L153.50129991665517 197.41372117118135Q153.6915285902886 197.492203492817 153.96595684077622 197.55925130401567Q154.2398653407894 197.62681886568873 154.5392416140486 197.62681886568873L154.5392416140486 197.62681886568873Q154.81834761880586 197.62681886568873 155.01117504481135 197.55197479737396Q155.20452222129126 197.47713072905916 155.30431431237764 197.3362783504945Q155.40462615393844 197.19542597192986 155.40462615393844 196.9974010411803L155.40462615393844 196.9974010411803Q155.40462615393844 196.80717236754683 155.32094632755872 196.678794000368Q155.23726650117896 196.55093538366353 155.04339957422465 196.44542603735863Q154.84901289679595 196.33991669105376 154.51377384080257 196.22089383241425L154.51377384080257 196.22089383241425Q154.27780712542122 196.13721400603453 154.09797346127593 196.0369021644737Q153.91762004665622 195.93659032291288 153.7959984356447 195.80977120715727Q153.67385707415872 195.68295209140163 153.61200676770414 195.51507268816775Q153.54963671077513 195.34771303540828 153.54963671077513 195.1320165885288L153.54963671077513 195.1320165885288Q153.54963671077513 194.83523906764168 153.70088409882797 194.62318087408306Q153.85161173640637 194.41112268052447 154.11928323072667 194.29833682757788Q154.38695472504696 194.18555097463127 154.7346677924261 194.18555097463127L154.7346677924261 194.18555097463127Q155.03196506378768 194.18555097463127 155.28404404387572 194.24116427539295Q155.53664277443815 194.29729732662906 155.74766146704792 194.39085241202255L155.74766146704792 194.39085241202255L155.61304609417618 194.7614345002757Q155.41242241105456 194.67775467389595 155.18789020611018 194.62214137313424Q154.96335800116577 194.56600832189815 154.72479253341237 194.56600832189815L154.72479253341237 194.56600832189815Q154.48622706565894 194.56600832189815 154.3225056662203 194.63565488546885Q154.1587842667817 194.705821199514 154.07250568802993 194.83264031526963Q153.98622710927813 194.95945943102527 153.98622710927813 195.13461534090084L153.98622710927813 195.13461534090084Q153.98622710927813 195.33004151927838 154.06886743470906 195.45945938740607Q154.15098800966558 195.58887725553373 154.33238092523408 195.68918909709453Q154.51377384080257 195.78950093865535 154.81366986453617 195.8986485382811L154.81366986453617 195.8986485382811Q155.14111266341342 196.0176713969206 155.36928312167868 196.15124726884352Q155.59745357994393 196.28430339029205 155.71699618905782 196.47609131534873Q155.83601904769736 196.667359489931 155.83601904769736 196.9620580089205ZM160.35628892362652 194.2385655230209L160.80795208588734 194.2385655230209L159.81574843024185 197.94906415982192L159.3817567841109 197.94906415982192L158.64579011234872 195.45166313028994Q158.6125260819866 195.34511428303622 158.58342005541974 195.23752593483368Q158.55431402885287 195.1294178361568 158.52884625560685 195.031704746968Q158.50337848236086 194.93399165777925 158.4872662176542 194.85914758946444Q158.47063420247312 194.78430352114964 158.462837945357 194.74636173651783L158.462837945357 194.74636173651783Q158.45764044061292 194.78430352114964 158.4436071778039 194.85810808851562Q158.43009366546926 194.93139290540722 158.40826414554414 195.02806649364715Q158.3869543760934 195.1242203314127 158.3573285990521 195.23336793103846Q158.32822257248523 195.34251553066417 158.29547829259752 195.45426188266197L158.29547829259752 195.45426188266197L157.57978188933726 197.94906415982192L157.1457902432063 197.94906415982192L156.16086309420257 194.2385655230209L156.61044725456574 194.2385655230209L157.2066010487121 196.56600814742137Q157.23726632670218 196.68243225368883 157.26377360089703 196.79573785710986Q157.29028087509184 196.90852371005644 157.312110395017 197.01507255731016Q157.33342016446773 197.12162140456388 157.3510916805976 197.2234924975479Q157.3692829472019 197.32484384005753 157.38435571095974 197.42099767782304L157.38435571095974 197.42099767782304Q157.39682972234556 197.32224508768547 157.41709999084745 197.21413698900855Q157.4373702593494 197.106548640806 157.46179853164656 196.99480228880822Q157.48570705346935 196.88305593681045 157.51481308003622 196.7687108324406Q157.5444388570775 196.6548854785452 157.57718313696523 196.54054037417535L157.57718313696523 196.54054037417535L158.2445427461055 194.2385655230209L158.6889294017246 194.2385655230209L159.38435553648296 196.55821189030524Q159.41969856874272 196.67775449941917 159.4503638467328 196.79417860568662Q159.48050937424847 196.9111224624285 159.50493764654567 197.02130956300306Q159.52884616836846 197.13201641405203 159.54807693592159 197.23232825561286Q159.56678795300027 197.33212034669924 159.58186071675811 197.42099767782304L159.58186071675811 197.42099767782304Q159.6000519833624 197.29677731443945 159.625000006134 197.1595631891957Q159.65046777938 197.0228688144263 159.68477131069096 196.87318067779668Q159.7190748420019 196.7234925411671 159.75961537900577 196.56340939504935L159.75961537900577 196.56340939504935L160.35628892362652 194.2385655230209ZM162.70867957079858 194.2385655230209L162.70867957079858 197.94906415982192L162.2975569455416 197.94906415982192L162.2975569455416 195.31964650979023Q162.2975569455416 195.16995837316063 162.29859644649042 195.0623700249581Q162.30015569791362 194.95426192628116 162.30379395123447 194.86434509420855Q162.30795195502975 194.77442826213587 162.31522846167147 194.68035342626797L162.31522846167147 194.68035342626797Q162.2367461400358 194.7614345002757 162.1681390774139 194.8186070524606Q162.09953201479203 194.87577960464552 161.9981806722824 194.95945943102527L161.9981806722824 194.95945943102527L161.5740642851652 195.29937624128831L161.35369008401608 195.0129937298893L162.35836775104735 194.2385655230209L162.70867957079858 194.2385655230209ZM167.13747336323186 197.94906415982192L166.6904879552407 197.94906415982192L166.2336272882358 196.77130958481266L164.74662118095358 196.77130958481266L164.29235926632072 197.94906415982192L163.85576886781774 197.94906415982192L165.3074319428402 194.22349275926308L165.69568554722318 194.22349275926308L167.13747336323186 197.94906415982192ZM164.8911118128391 196.38825348517372L166.10420942010813 196.38825348517372L165.67021777397719 195.2182951672806Q165.65514501021934 195.17255712553265 165.6208414789084 195.06860703065098Q165.58653794759744 194.96465693576934 165.55119491533767 194.85291058377155Q165.5153321326035 194.74116423177375 165.49298286220395 194.67255716915184L165.49298286220395 194.67255716915184Q165.46751508895795 194.7765072640335 165.4384090623911 194.87941785796636Q165.40878328534978 194.9823284518992 165.38123651020615 195.0696465315998Q165.3531699845881 195.15748436177483 165.3328997160862 195.2182951672806L165.3328997160862 195.2182951672806L164.8911118128391 196.38825348517372ZM171.1800925531798 197.56340930781096L171.1800925531798 197.94906415982192L168.74869983389766 197.94906415982192L168.74869983389766 197.59615358769867L169.74090348954314 196.58887716829534Q170.0179304924028 196.30977116353807 170.206599914613 196.0914759642866Q170.39578908729763 195.8731807650351 170.4950614279096 195.66112257147648Q170.5938140180472 195.4490643779179 170.5938140180472 195.19542614640665L170.5938140180472 195.19542614640665Q170.5938140180472 194.8809771093896 170.40722359773463 194.71465695757894Q170.22063317742203 194.54833680576826 169.91605939941874 194.54833680576826L169.91605939941874 194.54833680576826Q169.6499471565217 194.54833680576826 169.444125968656 194.63981288926414Q169.2388245312647 194.73128897276 169.02312808438526 194.89864862551948L169.02312808438526 194.89864862551948L168.79703662801762 194.61434511601811Q168.94412601227518 194.49012475263453 169.11824242120196 194.3934511643946Q169.29183907965435 194.29729732662906 169.49090351135274 194.24116427539295Q169.69048769352554 194.18555097463127 169.91605939941874 194.18555097463127L169.91605939941874 194.18555097463127Q170.25857496205384 194.18555097463127 170.50753543929542 194.30457383327075Q170.7559761660626 194.42411644238467 170.89215079035756 194.64501039400824Q171.02780566417815 194.86538459515737 171.02780566417815 195.16995837316063L171.02780566417815 195.16995837316063Q171.02780566417815 195.46465689215015 170.91086180743628 195.71725562271257Q170.79443770116882 195.96933460280061 170.58341900855902 196.216735828619Q170.37292006642366 196.46465680491175 170.09121530929434 196.74116405729697L170.09121530929434 196.74116405729697L169.28404282253825 197.54573779168106L169.28404282253825 197.56340930781096L171.1800925531798 197.56340930781096ZM174.74558080762085 197.94906415982192L174.29911515010411 197.94906415982192L173.8422544830992 196.77130958481266L172.35524837581698 196.77130958481266L171.90098646118412 197.94906415982192L171.46439606268115 197.94906415982192L172.91605913770357 194.22349275926308L173.30431274208658 194.22349275926308L174.74558080762085 197.94906415982192ZM172.49973900770252 196.38825348517372L173.71283661497154 196.38825348517372L173.2788449688406 195.2182951672806Q173.26377220508274 195.17255712553265 173.2294686737718 195.06860703065098Q173.19516514246084 194.96465693576934 173.15930235972667 194.85291058377155Q173.1239593274669 194.74116423177375 173.10109030659294 194.67255716915184L173.10109030659294 194.67255716915184Q173.07562253334692 194.7765072640335 173.04651650678005 194.87941785796636Q173.0174104802132 194.9823284518992 172.98934395459514 195.0696465315998Q172.9617971794515 195.15748436177483 172.9415269109496 195.2182951672806L172.9415269109496 195.2182951672806L172.49973900770252 196.38825348517372ZM178.03196305730467 197.94906415982192L177.58549739978793 197.94906415982192L177.128636732783 196.77130958481266L175.6416306255008 196.77130958481266L175.18736871086793 197.94906415982192L174.75077831236496 197.94906415982192L176.20244138738738 194.22349275926308L176.59069499177042 194.22349275926308L178.03196305730467 197.94906415982192ZM175.7861212573863 196.38825348517372L176.99921886465535 196.38825348517372L176.5652272185244 195.2182951672806Q176.55015445476656 195.17255712553265 176.51585092345562 195.06860703065098Q176.48154739214465 194.96465693576934 176.4462043598849 194.85291058377155Q176.41034157715072 194.74116423177375 176.38747255627675 194.67255716915184L176.38747255627675 194.67255716915184Q176.36252453350517 194.7765072640335 176.33289875646386 194.87941785796636Q176.303792729897 194.9823284518992 176.27624595475336 195.0696465315998Q176.24817942913532 195.15748436177483 176.22790916063337 195.2182951672806L176.22790916063337 195.2182951672806L175.7861212573863 196.38825348517372Z " id="BottomLineText" fill="black"></path><path d="M244.29391443583938 197.95993979372685L243.9427767122347 197.95993979372685L243.58346348866246 197.03365564740756L242.41395821830966 197.03365564740756L242.05668886972933 197.95993979372685L241.71331787109375 197.95993979372685L242.85502644155702 195.02984060537L243.16038136534362 195.02984060537L244.29391443583938 197.95993979372685ZM242.5275976678581 196.7323884736047L243.4816785140669 196.7323884736047L243.14035139042323 195.81223595226106Q243.12849691547032 195.776263752404 243.10151776557754 195.69450875272884Q243.07453861568473 195.6127537530537 243.0467419157952 195.52486712840295Q243.01853644090727 195.43698050375218 243.00055034097875 195.3830222039666L243.00055034097875 195.3830222039666Q242.98092914105672 195.46477720364175 242.95762896614931 195.5457146533201Q242.93473756624027 195.6266521029985 242.91307249132635 195.69532630272562Q242.89099864141406 195.76440927745108 242.8750564164774 195.81223595226106L242.8750564164774 195.81223595226106L242.5275976678581 196.7323884736047ZM245.5235096309534 197.99999974356766L245.5235096309534 197.99999974356766Q245.22837408212618 197.99999974356766 245.0027302830228 197.87818479405172Q244.77708648391942 197.75636984453575 244.6515925594181 197.50701709552658Q244.52568985991837 197.25725557151907 244.52568985991837 196.8783211480248L244.52568985991837 196.8783211480248Q244.52568985991837 196.48099184960364 244.6585417343905 196.2283689006075Q244.7909848338642 195.97574595161132 245.0248041329351 195.85433977709374Q245.25821465700758 195.73252482757778 245.55539408082672 195.73252482757778L245.55539408082672 195.73252482757778Q245.71931285517536 195.73252482757778 245.87178592956948 195.76522682744786Q246.024667778962 195.79833760231628 246.12236500357378 195.8482081521181L246.12236500357378 195.8482081521181L246.0226239039701 196.12576637601518Q245.92288280436645 196.0857064261744 245.79207480488623 196.0538219763011Q245.661266805406 196.0219375264278 245.54762735585757 196.0219375264278L245.54762735585757 196.0219375264278Q245.31993968176232 196.0219375264278 245.16951048236007 196.11963475103954Q245.01867250795945 196.21733197565135 244.94386668325672 196.40700357489766Q244.86906085855395 196.59667517414397 244.86906085855395 196.87423339804104L244.86906085855395 196.87423339804104Q244.86906085855395 197.13952837198687 244.94182280826482 197.3271560962413Q245.01458475797568 197.51478382049572 245.1592911074007 197.61370737010265Q245.30399745682567 197.71263091970957 245.52146575596151 197.71263091970957L245.52146575596151 197.71263091970957Q245.6951951302712 197.71263091970957 245.83499617971566 197.67543239485735Q245.97479722916015 197.63864264500356 246.0884366787086 197.58877209520173L246.0884366787086 197.58877209520173L246.0884366787086 197.88390764402897Q245.9788849791439 197.93990981880643 245.84398922967995 197.96975039368786Q245.70909348021596 197.99999974356766 245.5235096309534 197.99999974356766ZM248.98051979221648 195.73252482757778L248.98051979221648 195.73252482757778Q249.34187689078058 195.73252482757778 249.52541686505126 195.92097010182897Q249.70936561432032 196.10982415107856 249.70936561432032 196.52677464942172L249.70936561432032 196.52677464942172L249.70936561432032 197.95993979372685L249.3819368406214 197.95993979372685L249.3819368406214 196.54271687435838Q249.3819368406214 196.27742190041255 249.26707106607785 196.14457002594048Q249.15220529153427 196.0117181514684 248.9265614924309 196.0117181514684L248.9265614924309 196.0117181514684Q248.60935209369137 196.0117181514684 248.4658720692615 196.19566690073742Q248.32198326983328 196.3792068750081 248.32198326983328 196.73647622358845L248.32198326983328 196.73647622358845L248.32198326983328 197.95993979372685L247.9925106211425 197.95993979372685L247.9925106211425 196.54271687435838Q247.9925106211425 196.36530852506334 247.9418225213439 196.24758132553114Q247.89072564654694 196.12944535100058 247.7901669969465 196.07058175123447Q247.68919957234772 196.0117181514684 247.53550017295848 196.0117181514684L247.53550017295848 196.0117181514684Q247.31803187382263 196.0117181514684 247.18640632434565 196.10164865111102Q247.0543719998703 196.19157915075368 246.9955084001042 196.36816995005196Q246.93664480033812 196.54476074935025 246.93664480033812 196.80228899832693L246.93664480033812 196.80228899832693L246.93664480033812 197.95993979372685L246.6055370516538 197.95993979372685L246.6055370516538 195.77217600242022L246.8728759005915 195.77217600242022L246.92274645039333 196.0816186761906L246.94073255032188 196.0816186761906Q247.00654532506036 195.96797922664217 247.106286424664 195.89031197695078Q247.20643629926604 195.81223595226106 247.32988634877552 195.77217600242022Q247.45374517328335 195.73252482757778 247.5935462227278 195.73252482757778L247.5935462227278 195.73252482757778Q247.842898971737 195.73252482757778 248.01172304606615 195.82531675220906Q248.18013834539693 195.91810867684035 248.25617049509478 196.10778027608666L248.25617049509478 196.10778027608666L248.27415659502333 196.10778027608666Q248.38166441959612 195.91810867684035 248.56929214385056 195.82531675220906Q248.756919868105 195.73252482757778 248.98051979221648 195.73252482757778ZM251.23205248326968 195.73252482757778L251.23205248326968 195.73252482757778Q251.51165458215866 195.73252482757778 251.71113678136598 195.85638365208564Q251.9106189805733 195.97983370159508 252.01649170515262 196.2026160757098Q252.1223644297319 196.42498967482618 252.1223644297319 196.72257787364367L252.1223644297319 196.72257787364367L252.1223644297319 196.92819169782663L250.61153203573542 196.92819169782663Q250.61725488571267 197.31325774629653 250.80283873497524 197.51478382049572Q250.9884225842378 197.71630989469494 251.3260707328961 197.71630989469494L251.3260707328961 197.71630989469494Q251.53331965707258 197.71630989469494 251.69315068143746 197.67870259484437Q251.85298170580234 197.64068651999543 252.02466720512012 197.56669824528944L252.02466720512012 197.56669824528944L252.02466720512012 197.8581548191313Q251.8587045557796 197.93214309383728 251.69601210642608 197.96607141870248Q251.53331965707258 197.99999974356766 251.31176360795294 197.99999974356766L251.31176360795294 197.99999974356766Q250.99659808420532 197.99999974356766 250.76196123513768 197.8712356190793Q250.5277331610684 197.74247149459097 250.39774271158495 197.49270997058346Q250.26816103709984 197.24335722157429 250.26816103709984 196.8820001230102L250.26816103709984 196.8820001230102Q250.26816103709984 196.52881852441362 250.3867057866288 196.2704727254402Q250.50565931115614 196.0117181514684 250.72231006029523 195.87232587702226Q250.93855203443596 195.73252482757778 251.23205248326968 195.73252482757778ZM251.22796473328594 196.00395142649924L251.22796473328594 196.00395142649924Q250.96266975934012 196.00395142649924 250.8048826099671 196.1776808008089Q250.6470954605941 196.3510014001202 250.61725488571267 196.66248794888247L250.61725488571267 196.66248794888247L251.77490568111259 196.66248794888247Q251.77286180612072 196.4670934996589 251.71399820635463 196.31829940025014Q251.65513460658852 196.1695053008414 251.53536353206445 196.08652397617112Q251.41559245754038 196.00395142649924 251.22796473328594 196.00395142649924ZM253.79711559807706 197.95993979372685L253.79711559807706 195.0416950803229L254.62324986979428 195.0416950803229Q255.17019081762095 195.0416950803229 255.44570516652615 195.20561385467155Q255.72121951543136 195.36912385402184 255.72121951543136 195.76236540245924L255.72121951543136 195.76236540245924Q255.72121951543136 195.93200702678513 255.6562242906896 196.0669027762491Q255.59122906594789 196.2013897507147 255.46737024144005 196.28927637536546Q255.3439201919306 196.37716300001622 255.1620153176534 196.4110913248814L255.1620153176534 196.4110913248814L255.1620153176534 196.43112129980182Q255.35373079189162 196.46096187468325 255.50129856630525 196.5406729993665Q255.64927511571724 196.62079289904813 255.73307399038424 196.764272923478Q255.81687286505127 196.90816172290624 255.81687286505127 197.12971777202586L255.81687286505127 197.12971777202586Q255.81687286505127 197.39910049595542 255.69219649054668 197.58468434521797Q255.5675201160421 197.77026819448054 255.33983244194684 197.8651039941037Q255.1121447678516 197.95993979372685 254.8010669940877 197.95993979372685L254.8010669940877 197.95993979372685L253.79711559807706 197.95993979372685ZM254.13639884672887 195.3311077791729L254.13639884672887 196.29336412534923L254.69519426950842 196.29336412534923Q255.07617256799455 196.29336412534923 255.2229227924114 196.16746142584952Q255.36967301682827 196.04196750134818 255.36967301682827 195.80038147730815L255.36967301682827 195.80038147730815Q255.36967301682827 195.5506199533006 255.19512609252186 195.44106825373592Q255.02057916821545 195.3311077791729 254.63919209473093 195.3311077791729L254.63919209473093 195.3311077791729L254.13639884672887 195.3311077791729ZM254.71318036943694 196.57868907421545L254.13639884672887 196.57868907421545L254.13639884672887 197.67052709487686L254.74302094431837 197.67052709487686Q255.132174742772 197.67052709487686 255.29404964212878 197.51764524548435Q255.45551576648717 197.36517217109025 255.45551576648717 197.1056000471217L255.45551576648717 197.1056000471217Q255.45551576648717 196.94004617277955 255.3827538167763 196.82231897324732Q255.30999186706543 196.70459177371515 255.1472994177119 196.6416404239653Q254.98460696835838 196.57868907421545 254.71318036943694 196.57868907421545L254.71318036943694 196.57868907421545ZM258.0843477810411 197.18367607181142L258.0843477810411 197.18367607181142Q258.0843477810411 197.4428394207816 257.9555836565528 197.62556184505553Q257.82681953206446 197.80828426932948 257.5954528829838 197.90393761894939Q257.3636774589048 197.99999974356766 257.05055581014904 197.99999974356766L257.05055581014904 197.99999974356766Q256.8845931608085 197.99999974356766 256.7370253863949 197.984057518631Q256.5894576119813 197.96811529369435 256.4655987874734 197.93786594381456Q256.3417399629656 197.90802536893312 256.2481304883376 197.86428644410694L256.2481304883376 197.86428644410694L256.2481304883376 197.53890154539988Q256.3977421377431 197.60062657015465 256.61316656188706 197.6533585449451Q256.8289997610294 197.70649929473393 257.0644541600938 197.70649929473393L257.0644541600938 197.70649929473393Q257.28396633422153 197.70649929473393 257.4356218586189 197.64763569496785Q257.5872773830163 197.58877209520173 257.66617095770283 197.47799407064193Q257.74506453238934 197.36721604608212 257.74506453238934 197.21147277170098L257.74506453238934 197.21147277170098Q257.74506453238934 197.06186112229548 257.67925175765083 196.9608936976967Q257.613030207914 196.86033504809626 257.46055713351984 196.77735372342602Q257.30767528412736 196.69437239875577 257.0444241851734 196.6007629241277L257.0444241851734 196.6007629241277Q256.8588403359108 196.53495014938926 256.7169954114745 196.45605657470276Q256.5751504870381 196.37716300001622 256.4794971374182 196.27742190041255Q256.3838437877983 196.1776808008089 256.33479078799326 196.04564647633356Q256.28573778818816 195.9140209268566 256.28573778818816 195.7443793025307L256.28573778818816 195.7443793025307Q256.28573778818816 195.51096877845816 256.4046913127155 195.3441885791209Q256.52323606224445 195.17740837978363 256.7341639614063 195.0887042051361Q256.94468308556975 195.0000000304886 257.2181535594831 195.0000000304886L257.2181535594831 195.0000000304886Q257.4515640835556 195.0000000304886 257.65022873276615 195.04373895531478Q257.8488933819767 195.08788665513936 258.0144472563189 195.16146615484698L258.0144472563189 195.16146615484698L257.9085745317396 195.45292272868883Q257.7507873823666 195.38710995395036 257.5741965830683 195.34337102912417Q257.39760578376996 195.2992233292996 257.20997805951555 195.2992233292996L257.20997805951555 195.2992233292996Q257.02235033526114 195.2992233292996 256.8935862107728 195.35399917908194Q256.7648220862844 195.40918380386262 256.6969654365541 195.5089249034663Q256.62910878682374 195.60866600306997 256.62910878682374 195.74642317752256L256.62910878682374 195.74642317752256Q256.62910878682374 195.90012257691183 256.69410401156546 196.00190755150737Q256.7590992363072 196.10369252610292 256.9017617107403 196.18258610078942Q257.0444241851734 196.26147967547593 257.2798785842378 196.3473224251348L257.2798785842378 196.3473224251348Q257.53740683321445 196.44093189976283 257.7168590575014 196.5459870743454Q257.8967200567867 196.65063347392956 257.9903295314147 196.80147144833018Q258.0843477810411 196.95190064773243 258.0843477810411 197.18367607181142ZM260.8607475700087 197.95993979372685L260.50920107140564 197.95993979372685L260.1502966228318 197.03365564740756L258.9803825774806 197.03365564740756L258.62311322890025 197.95993979372685L258.2797422302647 197.95993979372685L259.42145080072794 195.02984060537L259.7268057245146 195.02984060537L260.8607475700087 197.95993979372685ZM259.09443080202743 196.7323884736047L260.04851164823623 196.7323884736047L259.70718452459255 195.81223595226106Q259.6949212746413 195.776263752404 259.6679421247485 195.69450875272884Q259.6409629748557 195.6127537530537 259.61316627496615 195.52486712840295Q259.5853695750766 195.43698050375218 259.56738347514806 195.3830222039666L259.56738347514806 195.3830222039666Q259.54735350022764 195.46477720364175 259.5244621003186 195.5457146533201Q259.50157070040956 195.6266521029985 259.4794968504973 195.69532630272562Q259.457423000585 195.76440927745108 259.44148077564836 195.81223595226106L259.44148077564836 195.81223595226106L259.09443080202743 196.7323884736047ZM263.1339453359758 195.0416950803229L263.4715934846341 195.0416950803229L263.4715934846341 196.92982679782014Q263.4715934846341 197.23926947159055 263.34650833513115 197.48085549563055Q263.2218319606266 197.72244151967058 262.97043533662554 197.86101624411992Q262.7190387126245 197.99999974356766 262.3396955141319 197.99999974356766L262.3396955141319 197.99999974356766Q261.79888619128087 197.99999974356766 261.5164226674033 197.70649929473393Q261.2339591435257 197.41299884590018 261.2339591435257 196.92206007285102L261.2339591435257 196.92206007285102L261.2339591435257 195.0416950803229L261.57528626716936 195.0416950803229L261.57528626716936 196.931870672812Q261.57528626716936 197.30344714633551 261.7719070413881 197.50497322053474Q261.96852781560676 197.70649929473393 262.35972548905227 197.70649929473393L262.35972548905227 197.70649929473393Q262.62706433798996 197.70649929473393 262.797932287311 197.6096196201189Q262.9683914616337 197.51273994550385 263.05137278630394 197.33819302119744Q263.1339453359758 197.16364609689103 263.1339453359758 196.9339145478039L263.1339453359758 196.9339145478039L263.1339453359758 195.0416950803229ZM266.3416027482297 195.0416950803229L266.3416027482297 197.95993979372685L266.01826172451456 197.95993979372685L266.01826172451456 195.8919470769443Q266.01826172451456 195.77421987741212 266.01907927451134 195.68960345274834Q266.02030559950646 195.6045782530862 266.0231670244951 195.5338601783672Q266.0264372244821 195.46314210364824 266.03216007445934 195.38915382894223L266.03216007445934 195.38915382894223Q265.97043504970463 195.45292272868883 265.916476749919 195.49788797851016Q265.86251845013345 195.54285322833147 265.78280732545016 195.60866600306997L265.78280732545016 195.60866600306997L265.44924692677563 195.87600485200767L265.27592632746433 195.65076982790265L266.06608839932454 195.0416950803229L266.3416027482297 195.0416950803229ZM269.5030685856672 196.98378509760573L269.5030685856672 197.2834171714151L269.0660881124036 197.2834171714151L269.0660881124036 197.95993979372685L268.7427470886885 197.95993979372685L268.7427470886885 197.2834171714151L267.3316557942956 197.2834171714151L267.3316557942956 197.00381507252615L268.72067323877616 195.02575285538626L269.0660881124036 195.02575285538626L269.0660881124036 196.98378509760573L269.5030685856672 196.98378509760573ZM267.6611284429864 196.98378509760573L268.7427470886885 196.98378509760573L268.7427470886885 196.0297042513969Q268.7427470886885 195.92015255183225 268.7447909636803 195.83103960218634Q268.7468348386722 195.74233542753882 268.75092258865595 195.66548572784419Q268.75460156364136 195.58863602814955 268.7578717636284 195.5187355034273Q268.760733188617 195.44883497870507 268.76277706360884 195.38097832897472L268.76277706360884 195.38097832897472L268.7468348386722 195.38097832897472Q268.7088187638233 195.46109822865634 268.6597657640182 195.5498024033039Q268.61112153921147 195.63850657795138 268.56125098940964 195.70840710267362L268.56125098940964 195.70840710267362L267.6611284429864 196.98378509760573ZM270.7048670808917 196.17563692581703L270.7048670808917 196.17563692581703Q271.0020465047108 196.17563692581703 271.2219674538369 196.27619557541743Q271.44147962796467 196.37716300001622 271.56206825248546 196.5688784742544Q271.6826568770063 196.76018517349422 271.6826568770063 197.03365564740756L271.6826568770063 197.03365564740756Q271.6826568770063 197.33328772121695 271.5530752025212 197.54993847035604Q271.4234935280361 197.76618044449677 271.1798636290042 197.8830900940322Q270.9362337299723 197.99999974356766 270.5969504813205 197.99999974356766L270.5969504813205 197.99999974356766Q270.36967158222365 197.99999974356766 270.1738683580017 197.95993979372685Q269.97847390877814 197.919879843886 269.8443957093109 197.84016871920278L269.8443957093109 197.84016871920278L269.8443957093109 197.52500319545513Q269.990328383731 197.61248104510753 270.19798608290586 197.66439546990122Q270.4052350070823 197.71630989469494 270.60103823130424 197.71630989469494L270.60103823130424 197.71630989469494Q270.82259428042386 197.71630989469494 270.9893744797612 197.64559181997595Q271.15574590410006 197.57487374525695 271.24853782873134 197.43016739583197Q271.34132975336263 197.28546104640697 271.34132975336263 197.06554009728086L271.34132975336263 197.06554009728086Q271.34132975336263 196.7744922984374 271.1626950790724 196.61547882406927Q270.98406040478227 196.45687412469948 270.5989943563124 196.45687412469948L270.5989943563124 196.45687412469948Q270.47513553180454 196.45687412469948 270.3275677573909 196.4769040996199Q270.17999998297734 196.49693407454032 270.08393785835904 196.5206430244461L270.08393785835904 196.5206430244461L269.916340109025 196.4110913248814L270.02834445857997 195.0416950803229L271.4790869278152 195.0416950803229L271.4790869278152 195.345414904116L270.3116255324543 195.345414904116L270.2376372577483 196.22550747561885Q270.3136694074462 196.2095652506822 270.43344048197025 196.1923967007504Q270.5532115564943 196.17563692581703 270.7048670808917 196.17563692581703ZM273.1100991713341 195.73252482757778L273.1100991713341 195.73252482757778Q273.3892924952247 195.73252482757778 273.58918346943045 195.85638365208564Q273.78866566863775 195.97983370159508 273.8945383932171 196.2026160757098Q274.000002342798 196.42498967482618 274.000002342798 196.72257787364367L274.000002342798 196.72257787364367L274.000002342798 196.92819169782663L272.4891699488015 196.92819169782663Q272.4953015737771 197.31325774629653 272.6808854230397 197.51478382049572Q272.86646927230225 197.71630989469494 273.2037086459622 197.71630989469494L273.2037086459622 197.71630989469494Q273.411366345137 197.71630989469494 273.57119736950193 197.67870259484437Q273.73061961886845 197.64068651999543 273.9023051181862 197.56669824528944L273.9023051181862 197.56669824528944L273.9023051181862 197.8581548191313Q273.7367512438441 197.93214309383728 273.57405879449055 197.96607141870248Q273.411366345137 197.99999974356766 273.1898102960174 197.99999974356766L273.1898102960174 197.99999974356766Q272.8742359972714 197.99999974356766 272.6400079232021 197.8712356190793Q272.4053710741345 197.74247149459097 272.2757893996494 197.49270997058346Q272.14579895016595 197.24335722157429 272.14579895016595 196.8820001230102L272.14579895016595 196.8820001230102Q272.14579895016595 196.52881852441362 272.26475247469324 196.2704727254402Q272.3832972242222 196.0117181514684 272.5999479733613 195.87232587702226Q272.81659872250043 195.73252482757778 273.1100991713341 195.73252482757778ZM273.1060114213504 196.00395142649924L273.1060114213504 196.00395142649924Q272.8403076724062 196.00395142649924 272.6829292980316 196.1776808008089Q272.5251421486586 196.3510014001202 272.4953015737771 196.66248794888247L272.4953015737771 196.66248794888247L273.65295236917706 196.66248794888247Q273.65090849418516 196.4670934996589 273.5920448944191 196.31829940025014Q273.533181294653 196.1695053008414 273.4134102201289 196.08652397617112Q273.2936391456048 196.00395142649924 273.1060114213504 196.00395142649924Z " id="BsauText" fill="black"></path><path d="M59 13L59 13L73 13L73 89.2L73 92L59 92L58.8 92L37 45.8L37 92L23 92L23 13L37 13L59 59.6L59 13ZM134 52.8L134 74.3L133.9 74.3L134 74.3Q133.9 78 132.45 81.2Q131 84.4 128.6 86.8Q126.2 89.2 122.95 90.6Q119.7 92 116 92L116 92L102 92Q98.3 92 95 90.6Q91.7 89.2 89.25 86.75Q86.8 84.3 85.4 81Q84 77.7 84 74L84 74L84 31Q84 27.299999999999997 85.4 24Q86.8 20.700000000000003 89.25 18.25Q91.7 15.799999999999997 95 14.400000000000006Q98.3 13 102 13L102 13L116 13Q119.7 13 122.95 14.400000000000006Q126.2 15.799999999999997 128.65 18.25Q131.1 20.700000000000003 132.55 23.950000000000003Q134 27.200000000000003 134 30.9L134 30.9L120 36L120 31Q120 29.299999999999997 118.8 28.15Q117.6 27 116 27L116 27L102 27Q100.3 27 99.15 28.15Q98 29.299999999999997 98 31L98 31L98 74Q98 75.7 99.15 76.85000000000001Q100.3 78 102 78L102 78L116 78Q117.6 78 118.8 76.85000000000001Q120 75.7 120 74L120 74L120 69.2L120 66.5L109 66.5L109 52.5L134 52.5L134 52.8ZM175.6 63.4L175.6 63.4Q169.9 67.2 166 70.5Q162.1 73.8 160.3 78L160.3 78L195 78L195 92L145 92L145 85Q145 81.2 145.7 78L145.7 78Q146.3 75.3 147.2 73L147.2 73Q149.3 67.89999999999999 153 63.7L153 63.7Q156.3 59.9 160.2 57.05Q164.1 54.2 167.8 51.7L167.8 51.7Q170.7 49.7 173.35 47.85Q176 46 177.9 44L177.9 44Q179.6 42.3 180.3 40.65Q181 39 181 37L181 37L181 31Q181 29.299999999999997 179.85 28.15Q178.7 27 177 27L177 27L163 27Q161.3 27 160.15 28.15Q159 29.299999999999997 159 31L159 31L159 36L145 30.9Q145 27.200000000000003 146.45 23.950000000000003Q147.9 20.700000000000003 150.35 18.25Q152.8 15.799999999999997 156.05 14.400000000000006Q159.3 13 163 13L163 13L177 13Q180.7 13 184 14.400000000000006Q187.3 15.799999999999997 189.75 18.25Q192.2 20.700000000000003 193.6 24Q195 27.299999999999997 195 31L195 31L195 37Q195 41.8 193 46.4L193 46.4Q191.3 50.2 188.1 53.6L188.1 53.6Q185.5 56.5 182.2 58.8Q178.9 61.1 175.6 63.4ZM256 27L228.3 27L224.1 45.5L238 45.5Q241.7 45.5 245 46.9Q248.3 48.3 250.75 50.75Q253.2 53.2 254.6 56.5Q256 59.8 256 63.5L256 63.5L256 74Q256 77.7 254.6 81Q253.2 84.3 250.75 86.75Q248.3 89.2 245 90.6Q241.7 92 238 92L238 92L224 92Q220.3 92 217.05 90.6Q213.8 89.2 211.4 86.8Q209 84.4 207.55 81.2Q206.1 78 206 74.3L206 74.3L220 69.2L220 74Q220 75.7 221.15 76.85000000000001Q222.3 78 224 78L224 78L238 78Q239.7 78 240.85 76.85000000000001Q242 75.7 242 74L242 74L242 63.5Q242 61.8 240.85 60.65Q239.7 59.5 238 59.5L238 59.5L224 59.5Q222.8 59.5 221.8 60.15Q220.8 60.8 220.3 61.9L220.3 61.9L220 63.4L206.7 58.6Q206.8 58.4 206.8 58.25Q206.8 58.1 206.9 57.9L206.9 57.9L213.9 27L217.1 13L223.7 13L256 13L256 27Z M103.5 111L103.5 111L103.5 117.7L86.4 150.5L103.5 183.3L103.5 190L89.5 190L89.5 186.7L78.5 165.60000000000002L67.5 186.7L67.5 190L53.5 190L53.5 183.3L70.6 150.5L53.5 117.7L53.5 111L67.5 111L67.5 114.3L78.5 135.4L89.5 114.3L89.5 111L103.5 111ZM164.5 111L164.5 111L164.5 117.7L146.5 152.2L146.5 190L132.5 190L132.5 152.2L114.5 117.7L114.5 111L128.5 111L128.5 114.3L139.5 135.4L150.5 114.3L150.5 111L164.5 111ZM225.5 124.6L225.5 124.6L192.2 176L225.5 176L225.5 190L175.5 190L175.5 176L208.6 125L175.5 125L175.5 111L217.6 111L220.5 111L225.5 111L225.5 114.3L225.5 124.6Z " id="RegistrationText" fill="black"></path></svg>