<svg xmlns="http://www.w3.org/2000/svg" version="1.1" xmlns:xlink="http://www.w3.org/1999/xlink" xmlns:svgjs="http://svgjs.dev/svgjs" generator="Plateit 3.0.0" viewBox="0 0 520 111" preserveAspectRatio="xMidYMid meet"><rect width="520" height="111" rx="3" ry="3" fill="yellow" class="do-not-print" id="Background"></rect><path d="M224.74922521124833 105.94906415982192L224.30275955373156 105.94906415982192L223.84589888672667 104.77130958481266L222.35889277944446 104.77130958481266L221.90463086481157 105.94906415982192L221.4680404663086 105.94906415982192L222.91970354133105 102.22349275926307L223.30795714571406 102.22349275926307L224.74922521124833 105.94906415982192ZM222.50338341132996 104.38825348517372L223.71648101859898 104.38825348517372L223.28248937246804 103.2182951672806Q223.2674166087102 103.17255712553266 223.23311307739925 103.068607030651Q223.19880954608828 102.96465693576934 223.16346651382852 102.85291058377155Q223.12760373109435 102.74116423177375 223.10473471022038 102.67255716915186L223.10473471022038 102.67255716915186Q223.0797866874488 102.77650726403353 223.05016091040753 102.87941785796637Q223.02105488384066 102.98232845189922 222.99350810869703 103.06964653159982Q222.96544158307896 103.15748436177482 222.94517131457704 103.2182951672806L222.94517131457704 103.2182951672806L222.50338341132996 104.38825348517372ZM226.31263463826855 105.99999970631393L226.31263463826855 105.99999970631393Q225.93737479574574 105.99999970631393 225.65047253387235 105.84511406494025Q225.36357027199895 105.69022842356657 225.2040068763556 105.37318063417749Q225.04392373023785 105.05561309431401 225.04392373023785 104.5738044045375L225.04392373023785 104.5738044045375Q225.04392373023785 104.0686069434126 225.21284263442055 103.74740115022827Q225.38124178812885 103.42619535704392 225.6785390594904 103.27182946614465Q225.97531658037755 103.11694382477097 226.35317517527238 103.11694382477097L226.35317517527238 103.11694382477097Q226.56159511551013 103.11694382477097 226.75546204246444 103.15852386272364Q226.94984871989314 103.2006236511507 227.07406908327675 103.26403320902853L227.07406908327675 103.26403320902853L226.94724996752112 103.61694378115178Q226.82043085176548 103.56600823465976 226.6541106999548 103.52546769765591Q226.48779054814415 103.48492716065206 226.34329991625864 103.48492716065206L226.34329991625864 103.48492716065206Q226.0537989020132 103.48492716065206 225.86253072743094 103.60914752403565Q225.67074280237426 103.73336788741925 225.57562846555754 103.9745321075447Q225.48051412874082 104.21569632767016 225.48051412874082 104.56860689979341L225.48051412874082 104.56860689979341Q225.48051412874082 104.90592495768442 225.57302971318552 105.14449042543784Q225.6655452976302 105.38305589319125 225.84953696557073 105.50883550799807Q226.03352863351128 105.63461512280487 226.3100358858965 105.63461512280487L226.3100358858965 105.63461512280487Q226.53092983752003 105.63461512280487 226.70868449976768 105.58731782963372Q226.88643916201534 105.54054028693697 227.03092979390084 105.47713072905916L227.03092979390084 105.47713072905916L227.03092979390084 105.85239057158196Q226.8916366667594 105.92359638657591 226.72011901020466 105.9615381712077Q226.54860135364993 105.99999970631393 226.31263463826855 105.99999970631393ZM230.7081644003397 103.11694382477097L230.7081644003397 103.11694382477097Q231.16762381971668 103.11694382477097 231.400991782726 103.35654879347321Q231.63487949620975 103.59667351264986 231.63487949620975 104.12681899654635L231.63487949620975 104.12681899654635L231.63487949620975 105.94906415982192L231.2185593662087 105.94906415982192L231.2185593662087 104.14708926504827Q231.2185593662087 103.80977120715727 231.07250948289993 103.64085230297457Q230.9264595995912 103.47193339879186 230.6395573377178 103.47193339879186L230.6395573377178 103.47193339879186Q230.23623096957695 103.47193339879186 230.05379855305964 103.7058211122756Q229.8708463860679 103.93918907528494 229.8708463860679 104.39345098991781L229.8708463860679 104.39345098991781L229.8708463860679 105.94906415982192L229.4519275036948 105.94906415982192L229.4519275036948 104.14708926504827Q229.4519275036948 103.92151755915505 229.38747844486818 103.77182942252546Q229.32250963556714 103.62162153542145 229.1946510188627 103.54677746710665Q229.06627265168382 103.47193339879186 228.8708464733063 103.47193339879186L228.8708464733063 103.47193339879186Q228.59433922092109 103.47193339879186 228.42697956816158 103.5862785031617Q228.2591001649277 103.70062360753151 228.1842560966129 103.92515581247591Q228.10941202829812 104.1496880174203 228.10941202829812 104.47713081629755L228.10941202829812 104.47713081629755L228.10941202829812 105.94906415982192L227.68841414402738 105.94906415982192L227.68841414402738 103.16735962078857L228.02833095429042 103.16735962078857L228.09174051216823 103.56081072991567L228.1146095330422 103.56081072991567Q228.19828935942195 103.41632009803017 228.32510847517756 103.31756750789259Q228.4524473414076 103.2182951672806 228.60941198467893 103.16735962078857Q228.76689637842463 103.11694382477097 228.94465104067228 103.11694382477097L228.94465104067228 103.11694382477097Q229.26169883006136 103.11694382477097 229.476355775992 103.23492718246166Q229.69049297144824 103.35291054015235 229.78716655968816 103.5940747602778L229.78716655968816 103.5940747602778L229.81003558056213 103.5940747602778Q229.94672995533153 103.35291054015235 230.18529542308494 103.23492718246166Q230.42386089083837 103.11694382477097 230.7081644003397 103.11694382477097ZM233.57095001338075 103.11694382477097L233.57095001338075 103.11694382477097Q233.92645933787603 103.11694382477097 234.1800975693873 103.27442821851669Q234.43373580089855 103.43139286178801 234.5683511737703 103.71465687034055Q234.70296654664207 103.99740112841867 234.70296654664207 104.37577947378793L234.70296654664207 104.37577947378793L234.70296654664207 104.63721396241532L232.7819687932289 104.63721396241532Q232.78924529987063 105.12681890930794 233.025212015252 105.38305589319125Q233.2611787306334 105.63929287707455 233.69049262249467 105.63929287707455L233.69049262249467 105.63929287707455Q233.95400611301966 105.63929287707455 234.15722854851333 105.59147583342899Q234.36045098400697 105.54313903930901 234.5787461832585 105.44906420344111L234.5787461832585 105.44906420344111L234.5787461832585 105.81964629169424Q234.3677274906487 105.91372112756214 234.16086680183417 105.95686041693804Q233.95400611301966 105.99999970631393 233.67230135589037 105.99999970631393L233.67230135589037 105.99999970631393Q233.27157374012154 105.99999970631393 232.97323696781118 105.8362783068753Q232.6754199459752 105.67255690743669 232.51013929511336 105.3549893675732Q232.3453783947259 105.03794157818413 232.3453783947259 104.57848215880718L232.3453783947259 104.57848215880718Q232.3453783947259 104.12941774891839 232.49610603230434 103.80093544909232Q232.64735342035715 103.47193339879186 232.92282117179357 103.29469848701862Q233.19776917275556 103.11694382477097 233.57095001338075 103.11694382477097ZM233.56575250863665 103.4620581397781L233.56575250863665 103.4620581397781Q233.22843445074565 103.4620581397781 233.02781076762403 103.68295209140163Q232.82718708450244 103.90332629255076 232.78924529987063 104.29937615404991L232.78924529987063 104.29937615404991L234.261178643395 104.29937615404991Q234.25857989102295 104.05093542728272 234.18373582270814 103.8617462545981Q234.10889175439337 103.67255708191347 233.9566048653917 103.56704773560858Q233.80431797639008 103.4620581397781 233.56575250863665 103.4620581397781ZM239.7331116379658 102.23856552302091L239.7331116379658 105.94906415982192L239.23571043395702 105.94906415982192L237.21284158755984 102.83264031526963L237.19257131905792 102.83264031526963Q237.20036757617405 102.95686067865321 237.2102428351878 103.11538457334775Q237.22063784467596 103.27442821851669 237.22687485036886 103.45322238171316Q237.23311185606178 103.63201654490962 237.23311185606178 103.81704771379898L237.23311185606178 103.81704771379898L237.23311185606178 105.94906415982192L236.83238424029295 105.94906415982192L236.83238424029295 102.23856552302091L237.32718669192968 102.23856552302091L239.34225928121074 105.34511410855944L239.3599307973406 105.34511410855944Q239.35473329259653 105.25623677743562 239.3469370354804 105.092515377997Q239.3396605288387 104.92879397855837 239.3334235231458 104.73960480587375Q239.3266667669785 104.55093538366353 239.3266667669785 104.38825348517372L239.3266667669785 104.38825348517372L239.3266667669785 102.23856552302091L239.7331116379658 102.23856552302091ZM242.55483696352857 103.16735962078857L242.97895335064575 103.16735962078857L242.97895335064575 105.94906415982192L242.63383903563863 105.94906415982192L242.57250847965844 105.55821180306685L242.55015920925888 105.55821180306685Q242.4638806305071 105.70270243495237 242.32666650526332 105.80197477556436Q242.1894523800195 105.90072736570194 242.0184544739392 105.95010366077072Q241.84693681738443 105.99999970631393 241.65410939137894 105.99999970631393L241.65410939137894 105.99999970631393Q241.32406784012966 105.99999970631393 241.10057513613407 105.89345085906022Q240.87760218261292 105.78638226133211 240.7642965791919 105.56340930781094Q240.6515107262453 105.33991660381535 240.6515107262453 104.98960478406416L240.6515107262453 104.98960478406416L240.6515107262453 103.16735962078857L241.07770611526013 103.16735962078857L241.07770611526013 104.95945925654847Q241.07770611526013 105.30717232392763 241.23519050900583 105.47817023000798Q241.39267490275157 105.64968788656272 241.71492019688472 105.64968788656272L241.71492019688472 105.64968788656272Q242.02469147963208 105.64968788656272 242.20868314757263 105.53274402982085Q242.39267481551317 105.41631992355339 242.47375588952087 105.18918896623694Q242.55483696352857 104.96205800892051 242.55483696352857 104.63201645767123L242.55483696352857 104.63201645767123L242.55483696352857 103.16735962078857ZM246.88955592009395 103.11694382477097L246.88955592009395 103.11694382477097Q247.3490153394709 103.11694382477097 247.58238330248025 103.35654879347321Q247.81575126548958 103.59667351264986 247.81575126548958 104.12681899654635L247.81575126548958 104.12681899654635L247.81575126548958 105.94906415982192L247.39995088596294 105.94906415982192L247.39995088596294 104.14708926504827Q247.39995088596294 103.80977120715727 247.25390100265417 103.64085230297457Q247.10785111934544 103.47193339879186 246.82094885747205 103.47193339879186L246.82094885747205 103.47193339879186Q246.4176224893312 103.47193339879186 246.23467032233947 103.7058211122756Q246.05223790582215 103.93918907528494 246.05223790582215 104.39345098991781L246.05223790582215 104.39345098991781L246.05223790582215 105.94906415982192L245.63331902344905 105.94906415982192L245.63331902344905 104.14708926504827Q245.63331902344905 103.92151755915505 245.56886996462242 103.77182942252546Q245.5039011553214 103.62162153542145 245.37604253861693 103.54677746710665Q245.24766417143806 103.47193339879186 245.05223799306054 103.47193339879186L245.05223799306054 103.47193339879186Q244.77573074067533 103.47193339879186 244.60785133744142 103.5862785031617Q244.44049168468194 103.70062360753151 244.36564761636714 103.92515581247591Q244.29080354805237 104.1496880174203 244.29080354805237 104.47713081629755L244.29080354805237 104.47713081629755L244.29080354805237 105.94906415982192L243.86980566378162 105.94906415982192L243.86980566378162 103.16735962078857L244.20972247404467 103.16735962078857L244.27313203192247 103.56081072991567L244.29600105279644 103.56081072991567Q244.37968087917616 103.41632009803017 244.5064999949318 103.31756750789259Q244.63331911068744 103.2182951672806 244.79080350443314 103.16735962078857Q244.94828789817888 103.11694382477097 245.12604256042653 103.11694382477097L245.12604256042653 103.11694382477097Q245.4430903498156 103.11694382477097 245.65774729574622 103.23492718246166Q245.87188449120245 103.35291054015235 245.9685580794424 103.5940747602778L245.9685580794424 103.5940747602778L245.99142710031637 103.5940747602778Q246.12812147508578 103.35291054015235 246.36668694283918 103.23492718246166Q246.6052524105926 103.11694382477097 246.88955592009395 103.11694382477097ZM248.68113580537943 102.00000005526749L249.10265344012458 102.00000005526749L249.10265344012458 102.9875259566433Q249.10265344012458 103.15748436177482 249.09381768205964 103.31756750789259Q249.0849819239947 103.47713090353594 249.07978441925061 103.56600823465976L249.07978441925061 103.56600823465976L249.10265344012458 103.56600823465976Q249.2169985444944 103.37837831339836 249.43269499137386 103.24896044527068Q249.64839143825333 103.11954257714302 249.98311074377227 103.11954257714302L249.98311074377227 103.11954257714302Q250.50597972102705 103.11954257714302 250.81679050472323 103.4807691568568Q251.12760128841938 103.84251548704499 251.12760128841938 104.55561313793321L251.12760128841938 104.55561313793321Q251.12760128841938 105.02546756679833 250.98570940890593 105.34771286093148Q250.84381752939245 105.66995815506465 250.5849817931371 105.83471905545208Q250.32562630640737 105.99999970631393 249.97323548475853 105.99999970631393L249.97323548475853 105.99999970631393Q249.64319393350922 105.99999970631393 249.43113573995063 105.87681884387915Q249.21959729686645 105.75363798144438 249.1052521924966 105.57588331919673L249.1052521924966 105.57588331919673L249.0719881621345 105.57588331919673L248.98570958338271 105.94906415982192L248.68113580537943 105.94906415982192L248.68113580537943 102.00000005526749ZM249.91450368115036 103.47193339879186L249.91450368115036 103.47193339879186Q249.61252865551916 103.47193339879186 249.43529374374592 103.58991675648255Q249.25753908149827 103.70790011417323 249.1800962608114 103.94542608097784Q249.10265344012458 104.18295204778244 249.10265344012458 104.54573787891945L249.10265344012458 104.54573787891945L249.10265344012458 104.56860689979341Q249.10265344012458 105.09355487894581 249.27780935000018 105.37162138275427Q249.45296525987578 105.64968788656272 249.91450368115036 105.64968788656272L249.91450368115036 105.64968788656272Q250.30327703600778 105.64968788656272 250.4971439629621 105.36538437706137Q250.69153064039082 105.08108086756002 250.69153064039082 104.55301438556117L250.69153064039082 104.55301438556117Q250.69153064039082 104.01507264454855 250.49974271533415 103.74376289690741Q250.30795479027748 103.47193339879186 249.91450368115036 103.47193339879186ZM252.9321749355651 103.11694382477097L252.9321749355651 103.11694382477097Q253.2876842600604 103.11694382477097 253.54132249157163 103.27442821851669Q253.7949607230829 103.43139286178801 253.92957609595464 103.71465687034055Q254.0641914688264 103.99740112841867 254.0641914688264 104.37577947378793L254.0641914688264 104.37577947378793L254.0641914688264 104.63721396241532L252.14319371541325 104.63721396241532Q252.15047022205496 105.12681890930794 252.38643693743634 105.38305589319125Q252.62240365281772 105.63929287707455 253.051717544679 105.63929287707455L253.051717544679 105.63929287707455Q253.31523103520402 105.63929287707455 253.51845347069766 105.59147583342899Q253.7216759061913 105.54313903930901 253.93997110544282 105.44906420344111L253.93997110544282 105.44906420344111L253.93997110544282 105.81964629169424Q253.72895241283305 105.91372112756214 253.52209172401854 105.95686041693804Q253.31523103520402 105.99999970631393 253.0335262780747 105.99999970631393L253.0335262780747 105.99999970631393Q252.6327986623059 105.99999970631393 252.3344618899955 105.8362783068753Q252.03612511768515 105.67255690743669 251.8713642172977 105.3549893675732Q251.70660331691028 105.03794157818413 251.70660331691028 104.57848215880718L251.70660331691028 104.57848215880718Q251.70660331691028 104.12941774891839 251.85733095448867 103.80093544909232Q252.0085783425415 103.47193339879186 252.2840460939779 103.29469848701862Q252.55899409493992 103.11694382477097 252.9321749355651 103.11694382477097ZM252.926977430821 103.4620581397781L252.926977430821 103.4620581397781Q252.58965937293002 103.4620581397781 252.3890356898084 103.68295209140163Q252.18841200668678 103.90332629255076 252.15047022205496 104.29937615404991L252.15047022205496 104.29937615404991L253.62240356557933 104.29937615404991Q253.61980481320728 104.05093542728272 253.5449607448925 103.8617462545981Q253.4701166765777 103.67255708191347 253.31782978757604 103.56704773560858Q253.16554289857442 103.4620581397781 252.926977430821 103.4620581397781ZM256.0434012753733 103.11694382477097L256.0434012753733 103.11694382477097Q256.12760085222743 103.11694382477097 256.21855718524887 103.12577958283592Q256.31003326874475 103.13461534090085 256.3812390837387 103.1496881046587L256.3812390837387 103.1496881046587L256.32770478487464 103.54054046141376Q256.25909772225276 103.52286894528388 256.175417895873 103.51247393579571Q256.09173806949326 103.50259867678194 256.0184532526017 103.50259867678194L256.0184532526017 103.50259867678194Q255.8505738493678 103.50259867678194 255.70244496416143 103.56964648798062Q255.55379632848064 103.6372140496537 255.44204997648285 103.76247391398611Q255.33030362448508 103.88825352879292 255.26689406660725 104.06496869009175Q255.20348450872945 104.24116410091617 255.20348450872945 104.45686054779563L255.20348450872945 104.45686054779563L255.20348450872945 105.94906415982192L254.77988787208668 105.94906415982192L254.77988787208668 103.16735962078857L255.13019969183787 103.16735962078857L255.1759377335858 103.6803533390296L255.19360924971568 103.6803533390296Q255.27988782846745 103.52546769765591 255.401509439479 103.39708933047706Q255.52313105049058 103.26923071377261 255.68477344803156 103.1928273940346Q255.8458960950981 103.11694382477097 256.0434012753733 103.11694382477097ZM258.3173096009097 102.23856552302091L259.28716398615563 102.23856552302091Q260.0054591417879 102.23856552302091 260.336540193986 102.51923077920141Q260.6676212461841 102.7993762849075 260.6676212461841 103.32224526216226L260.6676212461841 103.32224526216226Q260.6676212461841 103.55821197754364 260.5901784254973 103.77027017110223Q260.5127356048105 103.98232836466083 260.34017844730687 104.14345101172741Q260.1676212898033 104.30457365879398 259.8869560336228 104.39708924323867Q259.60681052791676 104.48960482768335 259.20088540740386 104.48960482768335L259.20088540740386 104.48960482768335L258.749222245143 104.48960482768335L258.749222245143 105.94906415982192L258.3173096009097 105.94906415982192L258.3173096009097 102.23856552302091ZM259.2466234491518 102.606548858902L259.2466234491518 102.606548858902L258.749222245143 102.606548858902L258.749222245143 104.11902273943022L259.15254861328384 104.11902273943022Q259.50753818730476 104.11902273943022 259.74506415410934 104.0431391701666Q259.982590120914 103.96725560090299 260.10161297955347 103.79573794434825Q260.2211555886674 103.62422028779349 260.2211555886674 103.33991677829215L260.2211555886674 103.33991677829215Q260.2211555886674 102.96985444051342 259.98466912281157 102.78794177447051Q259.7487024074302 102.606548858902 259.2466234491518 102.606548858902ZM261.8043155337151 102.00000005526749L261.8043155337151 105.94906415982192L261.3807188970723 105.94906415982192L261.3807188970723 102.00000005526749L261.8043155337151 102.00000005526749ZM263.73310954424437 103.12214132951506L263.73310954424437 103.12214132951506Q264.23051074825315 103.12214132951506 264.47167496837864 103.34511428303622Q264.71283918850406 103.5686069870318 264.71283918850406 104.05821193392444L264.71283918850406 104.05821193392444L264.71283918850406 105.94906415982192L264.4056666581288 105.94906415982192L264.32458558412105 105.53794153456494L264.30431531561914 105.53794153456494Q264.18737145887724 105.69022842356657 264.0605523431216 105.79313901749941Q263.933733227366 105.89552986095785 263.76741307555534 105.9480246588731Q263.60109292374466 105.99999970631393 263.3604484540936 105.99999970631393L263.3604484540936 105.99999970631393Q263.10629047210796 105.99999970631393 262.9098247927816 105.9111223751901Q262.71283936298084 105.82224504406628 262.6000535100343 105.64189162944659Q262.48726765708767 105.4615382148269 262.48726765708767 105.18503096244169L262.48726765708767 105.18503096244169Q262.48726765708767 104.76871083244062 262.81730920833695 104.54573787891945Q263.1468310091118 104.32224517492386 263.8219868753682 104.30197490642195L263.8219868753682 104.30197490642195L264.3017165632471 104.28170463792001L264.3017165632471 104.1117462327885Q264.3017165632471 103.75103940354913 264.1468309218734 103.60654877166361Q263.99194528049975 103.4620581397781 263.71024052337043 103.4620581397781L263.71024052337043 103.4620581397781Q263.49194532411894 103.4620581397781 263.29444014384376 103.52546769765591Q263.0964152130942 103.58887725553373 262.91866055084654 103.6751558342855L262.91866055084654 103.6751558342855L262.7892426827189 103.35550929252439Q262.97687260398027 103.25883570428445 263.2206355764778 103.19022864166254Q263.4643985489753 103.12214132951506 263.73310954424437 103.12214132951506ZM264.296519058503 104.83471914269047L264.296519058503 104.57848215880718L263.8729224218602 104.59615367493706Q263.3526521969775 104.61694369391338 263.1395545024701 104.76663183054298Q262.92645680796267 104.91631996717258 262.92645680796267 105.19022846718576L262.92645680796267 105.19022846718576Q262.92645680796267 105.42879393493918 263.07094743984817 105.54313903930901Q263.21543807173373 105.65696439320443 263.45400353948713 105.65696439320443L263.45400353948713 105.65696439320443Q263.82458562774025 105.65696439320443 264.0605523431216 105.45166295581315Q264.296519058503 105.24584176794745 264.296519058503 104.83471914269047L264.296519058503 104.83471914269047ZM266.479471051018 105.6548853913068L266.479471051018 105.6548853913068Q266.5834211458996 105.6548853913068 266.69256874552536 105.63669412470252Q266.80171634515114 105.61902260857264 266.870323407773 105.59355483532661L266.870323407773 105.59355483532661L266.870323407773 105.92099763420386Q266.79651884040703 105.95426166456599 266.66554172085614 105.97713068543996Q266.53508435177963 105.99999970631393 266.41086398839604 105.99999970631393L266.41086398839604 105.99999970631393Q266.18997003677254 105.99999970631393 266.00961662215286 105.92255688562709Q265.82978295800757 105.84511406494025 265.7216748593306 105.65956314557648Q265.6140865111281 105.47453197668712 265.6140865111281 105.14708917780987L265.6140865111281 105.14708917780987L265.6140865111281 103.49740117203787L265.21803664962897 103.49740117203787L265.21803664962897 103.29209973464658L265.61616551302575 103.12681908378474L265.78404491625963 102.52286903252227L266.0376831477709 102.52286903252227L266.0376831477709 103.16735962078857L266.85213214116874 103.16735962078857L266.85213214116874 103.49740117203787L266.0376831477709 103.49740117203787L266.0376831477709 105.13461516642407Q266.0376831477709 105.39604965505146 266.1582652578336 105.52546752317913Q266.27884736789633 105.6548853913068 266.479471051018 105.6548853913068ZM268.5044188993128 103.11694382477097L268.5044188993128 103.11694382477097Q268.8599282238081 103.11694382477097 269.1135664553193 103.27442821851669Q269.3672046868306 103.43139286178801 269.50182005970237 103.71465687034055Q269.6364354325741 103.99740112841867 269.6364354325741 104.37577947378793L269.6364354325741 104.37577947378793L269.6364354325741 104.63721396241532L267.71491792868653 104.63721396241532Q267.72271418580266 105.12681890930794 267.95868090118404 105.38305589319125Q268.1946476165654 105.63929287707455 268.6239615084267 105.63929287707455L268.6239615084267 105.63929287707455Q268.8874749989517 105.63929287707455 269.09069743444536 105.59147583342899Q269.29391986993903 105.54313903930901 269.5122150691905 105.44906420344111L269.5122150691905 105.44906420344111L269.5122150691905 105.81964629169424Q269.3011963765807 105.91372112756214 269.0943356877662 105.95686041693804Q268.8874749989517 105.99999970631393 268.60577024182237 105.99999970631393L268.60577024182237 105.99999970631393Q268.20504262605357 105.99999970631393 267.90670585374323 105.8362783068753Q267.60836908143284 105.67255690743669 267.4436081810454 105.3549893675732Q267.27884728065794 105.03794157818413 267.27884728065794 104.57848215880718L267.27884728065794 104.57848215880718Q267.27884728065794 104.12941774891839 267.42957491823637 103.80093544909232Q267.5808223062892 103.47193339879186 267.8557703072512 103.29469848701862Q268.1312380586876 103.11694382477097 268.5044188993128 103.11694382477097ZM268.4992213945687 103.4620581397781L268.4992213945687 103.4620581397781Q268.1619033366777 103.4620581397781 267.96127965355606 103.68295209140163Q267.76065597043447 103.90332629255076 267.72271418580266 104.29937615404991L267.72271418580266 104.29937615404991L269.194647529327 104.29937615404991Q269.192048776955 104.05093542728272 269.1172047086402 103.8617462545981Q269.0423606403254 103.67255708191347 268.89007375132377 103.56704773560858Q268.73778686232214 103.4620581397781 268.4992213945687 103.4620581397781ZM272.15150797823594 105.18762971481372L272.15150797823594 105.18762971481372Q272.15150797823594 105.45426170818519 272.017932106313 105.6356546237537Q271.8848759848645 105.8170475393222 271.63747475904614 105.90852362281807Q271.3900735332278 105.99999970631393 271.04755797059266 105.99999970631393L271.04755797059266 105.99999970631393Q270.7554582039752 105.99999970631393 270.5423605094678 105.95426166456599Q270.3292628149604 105.90852362281807 270.1691796688426 105.82484379643833L270.1691796688426 105.82484379643833L270.1691796688426 105.4365901920553Q270.33913807397414 105.52027001843504 270.5751047893555 105.58887708105695Q270.8115912552113 105.65696439320443 271.05743322960643 105.65696439320443L271.05743322960643 105.65696439320443Q271.41814005884584 105.65696439320443 271.58030220686123 105.54054028693697Q271.742984105351 105.4235964301951 271.742984105351 105.2234924975479L271.742984105351 105.2234924975479Q271.742984105351 105.10914739317806 271.67801529605 105.02130956300306Q271.61304648674894 104.93399148330246 271.4612793482217 104.85135115787153Q271.30899245922006 104.76871083244062 271.03976171347654 104.66995824230304L271.03976171347654 104.66995824230304Q270.7731297201051 104.56860689979341 270.5792627931508 104.46829505823261Q270.3848761157221 104.3679832166718 270.2798865198916 104.22349258478629Q270.1743771735867 104.07848220242637 270.1743771735867 103.84771299178907L270.1743771735867 103.84771299178907Q270.1743771735867 103.49480241966582 270.4597201840369 103.3061329974556Q270.7455829449615 103.11694382477097 271.20972011860806 103.11694382477097L271.20972011860806 103.11694382477097Q271.4612793482217 103.11694382477097 271.680614048422 103.16632011983977Q271.89994874862236 103.21569641490855 272.0901774222558 103.2993762412883L272.0901774222558 103.2993762412883L271.9482855427423 103.6372140496537Q271.7757283852387 103.56340948228772 271.58030220686123 103.51247393579571Q271.3848760284837 103.4620581397781 271.18165359299 103.4620581397781L271.18165359299 103.4620581397781Q270.890073576847 103.4620581397781 270.73414843452446 103.55821197754364Q270.5777035417276 103.65488556578359 270.5777035417276 103.82224521854306L270.5777035417276 103.82224521854306Q270.5777035417276 103.95166308667073 270.6499488576703 104.03534291305047Q270.7227139240875 104.11902273943022 270.88227731973086 104.1928273067962Q271.0423604658486 104.26663187416217 271.303794954476 104.36538446429977L271.303794954476 104.36538446429977Q271.56522944310336 104.4620580525397 271.7554581167368 104.56444889599814Q271.94568679037025 104.66735948993099 272.0485973843031 104.81340937323974Q272.15150797823594 104.95945925654847 272.15150797823594 105.18762971481372ZM276.33601904769733 104.96205800892051L276.33601904769733 104.96205800892051Q276.33601904769733 105.29157980969539 276.17229764825873 105.5239082717559Q276.0090959992945 105.75623673381642 275.714397480305 105.87785834482797Q275.42021871178986 105.99999970631393 275.0215700979187 105.99999970631393L275.0215700979187 105.99999970631393Q274.81107115578334 105.99999970631393 274.6234412345219 105.979729437812Q274.4352915627861 105.95945916931008 274.2778071690404 105.92099763420386Q274.1208425257691 105.88305584957206 274.00129991665517 105.82744254881037L274.00129991665517 105.82744254881037L274.00129991665517 105.41372117118134Q274.1915285902886 105.492203492817 274.46595684077624 105.55925130401567Q274.7398653407894 105.62681886568875 275.0392416140486 105.62681886568875L275.0392416140486 105.62681886568875Q275.31834761880583 105.62681886568875 275.51117504481135 105.55197479737396Q275.70452222129126 105.47713072905916 275.80431431237764 105.3362783504945Q275.9046261539384 105.19542597192985 275.9046261539384 104.99740104118028L275.9046261539384 104.99740104118028Q275.9046261539384 104.80717236754683 275.8209463275587 104.67879400036797Q275.73726650117896 104.55093538366353 275.5433995742247 104.44542603735864Q275.34901289679595 104.33991669105376 275.01377384080257 104.22089383241425L275.01377384080257 104.22089383241425Q274.7778071254212 104.13721400603451 274.59797346127596 104.0369021644737Q274.4176200466562 103.93659032291289 274.2959984356447 103.80977120715727Q274.1738570741587 103.68295209140163 274.11200676770414 103.51507268816775Q274.04963671077513 103.34771303540826 274.04963671077513 103.13201658852881L274.04963671077513 103.13201658852881Q274.04963671077513 102.83523906764167 274.20088409882794 102.62318087408308Q274.35161173640637 102.41112268052447 274.61928323072664 102.29833682757787Q274.88695472504696 102.18555097463127 275.23466779242614 102.18555097463127L275.23466779242614 102.18555097463127Q275.53196506378765 102.18555097463127 275.7840440438757 102.24116427539295Q276.0366427744382 102.29729732662905 276.2476614670479 102.39085241202255L276.2476614670479 102.39085241202255L276.1130460941762 102.76143450027568Q275.9124224110546 102.67775467389595 275.6878902061102 102.62214137313426Q275.4633580011658 102.56600832189815 275.22479253341237 102.56600832189815L275.22479253341237 102.56600832189815Q274.98622706565897 102.56600832189815 274.8225056662203 102.63565488546887Q274.6587842667817 102.70582119951399 274.57250568802993 102.83264031526963Q274.48622710927816 102.95945943102525 274.48622710927816 103.13461534090085L274.48622710927816 103.13461534090085Q274.48622710927816 103.33004151927838 274.5688674347091 103.45945938740606Q274.6509880096656 103.58887725553373 274.8323809252341 103.68918909709454Q275.01377384080257 103.78950093865534 275.31366986453617 103.8986485382811L275.31366986453617 103.8986485382811Q275.6411126634134 104.01767139692059 275.8692831216787 104.15124726884353Q276.09745357994393 104.28430339029207 276.21699618905785 104.47609131534873Q276.33601904769733 104.66735948993099 276.33601904769733 104.96205800892051ZM280.8562889236265 102.23856552302091L281.30795208588734 102.23856552302091L280.31574843024185 105.94906415982192L279.8817567841109 105.94906415982192L279.1457901123487 103.45166313028993Q279.1125260819866 103.34511428303622 279.0834200554197 103.2375259348337Q279.05431402885284 103.12941783615678 279.0288462556069 103.031704746968Q279.00337848236086 102.93399165777925 278.9872662176542 102.85914758946444Q278.9706342024731 102.78430352114965 278.962837945357 102.74636173651784L278.962837945357 102.74636173651784Q278.9576404406129 102.78430352114965 278.94360717780387 102.85810808851564Q278.93009366546926 102.93139290540721 278.90826414554414 103.02806649364715Q278.8869543760934 103.12422033141269 278.8573285990521 103.23336793103844Q278.82822257248523 103.34251553066419 278.7954782925975 103.45426188266197L278.7954782925975 103.45426188266197L278.07978188933726 105.94906415982192L277.6457902432063 105.94906415982192L276.66086309420257 102.23856552302091L277.11044725456577 102.23856552302091L277.70660104871206 104.56600814742137Q277.7372663267022 104.68243225368883 277.763773600897 104.79573785710986Q277.7902808750918 104.90852371005646 277.812110395017 105.01507255731016Q277.8334201644677 105.12162140456387 277.8510916805976 105.2234924975479Q277.8692829472019 105.32484384005753 277.88435571095977 105.42099767782305L277.88435571095977 105.42099767782305Q277.89682972234556 105.32224508768547 277.9170999908475 105.21413698900855Q277.9373702593494 105.10654864080603 277.9617985316466 104.99480228880823Q277.98570705346935 104.88305593681045 278.0148130800362 104.76871083244062Q278.04443885707747 104.6548854785452 278.07718313696523 104.54054037417536L278.07718313696523 104.54054037417536L278.7445427461055 102.23856552302091L279.18892940172464 102.23856552302091L279.884355536483 104.55821189030524Q279.9196985687427 104.67775449941917 279.9503638467328 104.79417860568662Q279.98050937424847 104.9111224624285 280.00493764654567 105.02130956300306Q280.0288461683685 105.13201641405203 280.0480769359216 105.23232825561284Q280.06678795300024 105.33212034669924 280.0818607167581 105.42099767782305L280.0818607167581 105.42099767782305Q280.1000519833624 105.29677731443947 280.125000006134 105.15956318919568Q280.15046777938 105.02286881442629 280.18477131069096 104.87318067779668Q280.21907484200193 104.72349254116709 280.25961537900577 104.56340939504933L280.25961537900577 104.56340939504933L280.8562889236265 102.23856552302091ZM283.2086795707986 102.23856552302091L283.2086795707986 105.94906415982192L282.7975569455416 105.94906415982192L282.7975569455416 103.31964650979022Q282.7975569455416 103.16995837316063 282.7985964464904 103.0623700249581Q282.8001556979136 102.95426192628116 282.80379395123447 102.86434509420853Q282.80795195502975 102.77442826213588 282.8152284616715 102.68035342626798L282.8152284616715 102.68035342626798Q282.7367461400358 102.76143450027568 282.6681390774139 102.81860705246059Q282.59953201479203 102.87577960464552 282.4981806722824 102.95945943102525L282.4981806722824 102.95945943102525L282.0740642851652 103.2993762412883L281.8536900840161 103.0129937298893L282.85836775104735 102.23856552302091L283.2086795707986 102.23856552302091ZM287.63747336323183 105.94906415982192L287.1904879552407 105.94906415982192L286.73362728823577 104.77130958481266L285.2466211809536 104.77130958481266L284.7923592663207 105.94906415982192L284.35576886781774 105.94906415982192L285.8074319428402 102.22349275926307L286.1956855472232 102.22349275926307L287.63747336323183 105.94906415982192ZM285.3911118128391 104.38825348517372L286.60420942010813 104.38825348517372L286.1702177739772 103.2182951672806Q286.15514501021937 103.17255712553266 286.1208414789084 103.068607030651Q286.08653794759744 102.96465693576934 286.05119491533765 102.85291058377155Q286.0153321326035 102.74116423177375 285.9929828622039 102.67255716915186L285.9929828622039 102.67255716915186Q285.96751508895795 102.77650726403353 285.9384090623911 102.87941785796637Q285.9087832853498 102.98232845189922 285.8812365102061 103.06964653159982Q285.85316998458813 103.15748436177482 285.8328997160862 103.2182951672806L285.8328997160862 103.2182951672806L285.3911118128391 104.38825348517372ZM291.6800925531798 105.56340930781094L291.6800925531798 105.94906415982192L289.24869983389766 105.94906415982192L289.24869983389766 105.59615358769867L290.24090348954314 104.58887716829534Q290.5179304924028 104.30977116353807 290.706599914613 104.09147596428657Q290.89578908729766 103.87318076503509 290.9950614279096 103.66112257147648Q291.09381401804717 103.44906437791789 291.09381401804717 103.19542614640663L291.09381401804717 103.19542614640663Q291.09381401804717 102.88097710938959 290.9072235977346 102.71465695757894Q290.72063317742203 102.54833680576827 290.4160593994187 102.54833680576827L290.4160593994187 102.54833680576827Q290.1499471565217 102.54833680576827 289.944125968656 102.63981288926414Q289.7388245312647 102.73128897276 289.52312808438523 102.89864862551948L289.52312808438523 102.89864862551948L289.2970366280176 102.61434511601813Q289.4441260122752 102.49012475263454 289.61824242120196 102.39345116439459Q289.7918390796543 102.29729732662905 289.9909035113527 102.24116427539295Q290.19048769352554 102.18555097463127 290.4160593994187 102.18555097463127L290.4160593994187 102.18555097463127Q290.75857496205384 102.18555097463127 291.00753543929545 102.30457383327077Q291.2559761660626 102.42411644238469 291.39215079035756 102.64501039400822Q291.5278056641781 102.86538459515735 291.5278056641781 103.16995837316063L291.5278056641781 103.16995837316063Q291.5278056641781 103.46465689215015 291.4108618074363 103.71725562271259Q291.2944377011688 103.96933460280061 291.083419008559 104.21673582861898Q290.87292006642366 104.46465680491175 290.59121530929434 104.74116405729697L290.59121530929434 104.74116405729697L289.78404282253825 105.54573779168105L289.78404282253825 105.56340930781094L291.6800925531798 105.56340930781094ZM295.24558080762085 105.94906415982192L294.7991151501041 105.94906415982192L294.34225448309917 104.77130958481266L292.855248375817 104.77130958481266L292.4009864611841 105.94906415982192L291.96439606268115 105.94906415982192L293.41605913770354 102.22349275926307L293.8043127420866 102.22349275926307L295.24558080762085 105.94906415982192ZM292.9997390077025 104.38825348517372L294.21283661497154 104.38825348517372L293.7788449688406 103.2182951672806Q293.7637722050828 103.17255712553266 293.7294686737718 103.068607030651Q293.69516514246084 102.96465693576934 293.65930235972667 102.85291058377155Q293.6239593274669 102.74116423177375 293.60109030659294 102.67255716915186L293.60109030659294 102.67255716915186Q293.5756225333469 102.77650726403353 293.54651650678005 102.87941785796637Q293.5174104802132 102.98232845189922 293.48934395459514 103.06964653159982Q293.46179717945154 103.15748436177482 293.4415269109496 103.2182951672806L293.4415269109496 103.2182951672806L292.9997390077025 104.38825348517372ZM298.53196305730467 105.94906415982192L298.0854973997879 105.94906415982192L297.628636732783 104.77130958481266L296.1416306255008 104.77130958481266L295.68736871086793 105.94906415982192L295.25077831236496 105.94906415982192L296.70244138738735 102.22349275926307L297.0906949917704 102.22349275926307L298.53196305730467 105.94906415982192ZM296.2861212573863 104.38825348517372L297.49921886465535 104.38825348517372L297.0652272185244 103.2182951672806Q297.0501544547666 103.17255712553266 297.0158509234556 103.068607030651Q296.98154739214465 102.96465693576934 296.94620435988486 102.85291058377155Q296.9103415771507 102.74116423177375 296.88747255627675 102.67255716915186L296.88747255627675 102.67255716915186Q296.86252453350517 102.77650726403353 296.83289875646386 102.87941785796637Q296.803792729897 102.98232845189922 296.77624595475334 103.06964653159982Q296.74817942913535 103.15748436177482 296.7279091606334 103.2182951672806L296.7279091606334 103.2182951672806L296.2861212573863 104.38825348517372Z " id="BottomLineText" fill="black"></path><path d="M485.2939144358394 105.95993979372685L484.94277671223466 105.95993979372685L484.58346348866246 105.03365564740757L483.41395821830963 105.03365564740757L483.0566888697293 105.95993979372685L482.71331787109375 105.95993979372685L483.855026441557 103.02984060537001L484.16038136534365 103.02984060537001L485.2939144358394 105.95993979372685ZM483.5275976678581 104.73238847360469L484.4816785140669 104.73238847360469L484.14035139042323 103.81223595226105Q484.12849691547035 103.77626375240399 484.1015177655775 103.69450875272885Q484.07453861568473 103.61275375305372 484.0467419157952 103.52486712840295Q484.01853644090727 103.43698050375218 484.00055034097875 103.38302220396659L484.00055034097875 103.38302220396659Q483.9809291410567 103.46477720364173 483.9576289661493 103.5457146533201Q483.93473756624024 103.62665210299849 483.9130724913264 103.6953263027256Q483.89099864141406 103.7644092774511 483.87505641647743 103.81223595226105L483.87505641647743 103.81223595226105L483.5275976678581 104.73238847360469ZM486.5235096309534 105.99999974356766L486.5235096309534 105.99999974356766Q486.22837408212615 105.99999974356766 486.0027302830228 105.8781847940517Q485.77708648391945 105.75636984453575 485.6515925594181 105.50701709552659Q485.5256898599184 105.25725557151905 485.5256898599184 104.87832114802481L485.5256898599184 104.87832114802481Q485.5256898599184 104.48099184960365 485.6585417343905 104.22836890060749Q485.7909848338642 103.97574595161132 486.02480413293506 103.85433977709374Q486.2582146570076 103.73252482757779 486.5553940808267 103.73252482757779L486.5553940808267 103.73252482757779Q486.71931285517536 103.73252482757779 486.87178592956946 103.76522682744785Q487.024667778962 103.79833760231628 487.12236500357375 103.8482081521181L487.12236500357375 103.8482081521181L487.0226239039701 104.12576637601519Q486.92288280436645 104.08570642617438 486.7920748048862 104.05382197630108Q486.661266805406 104.02193752642778 486.54762735585757 104.02193752642778L486.54762735585757 104.02193752642778Q486.3199396817623 104.02193752642778 486.16951048236007 104.11963475103956Q486.0186725079594 104.21733197565135 485.9438666832567 104.40700357489766Q485.86906085855395 104.59667517414397 485.86906085855395 104.87423339804106L485.86906085855395 104.87423339804106Q485.86906085855395 105.13952837198687 485.9418228082648 105.3271560962413Q486.0145847579757 105.51478382049574 486.1592911074007 105.61370737010265Q486.3039974568257 105.71263091970955 486.5214657559615 105.71263091970955L486.5214657559615 105.71263091970955Q486.6951951302712 105.71263091970955 486.8349961797157 105.67543239485737Q486.9747972291602 105.63864264500356 487.0884366787086 105.58877209520173L487.0884366787086 105.58877209520173L487.0884366787086 105.88390764402897Q486.9788849791439 105.93990981880643 486.84398922967995 105.96975039368786Q486.709093480216 105.99999974356766 486.5235096309534 105.99999974356766ZM489.98051979221646 103.73252482757779L489.98051979221646 103.73252482757779Q490.34187689078055 103.73252482757779 490.5254168650513 103.92097010182898Q490.7093656143203 104.10982415107854 490.7093656143203 104.52677464942172L490.7093656143203 104.52677464942172L490.7093656143203 105.95993979372685L490.3819368406214 105.95993979372685L490.3819368406214 104.54271687435838Q490.3819368406214 104.27742190041256 490.26707106607785 104.14457002594047Q490.15220529153424 104.01171815146839 489.9265614924309 104.01171815146839L489.9265614924309 104.01171815146839Q489.60935209369137 104.01171815146839 489.46587206926154 104.19566690073744Q489.32198326983325 104.37920687500811 489.32198326983325 104.73647622358845L489.32198326983325 104.73647622358845L489.32198326983325 105.95993979372685L488.99251062114246 105.95993979372685L488.99251062114246 104.54271687435838Q488.99251062114246 104.36530852506334 488.9418225213439 104.24758132553114Q488.8907256465469 104.12944535100057 488.79016699694654 104.07058175123447Q488.6891995723477 104.01171815146839 488.53550017295845 104.01171815146839L488.53550017295845 104.01171815146839Q488.31803187382263 104.01171815146839 488.1864063243456 104.10164865111103Q488.0543719998703 104.19157915075368 487.9955084001042 104.36816995005196Q487.9366448003381 104.54476074935026 487.9366448003381 104.80228899832693L487.9366448003381 104.80228899832693L487.9366448003381 105.95993979372685L487.6055370516538 105.95993979372685L487.6055370516538 103.77217600242024L487.8728759005915 103.77217600242024L487.92274645039333 104.08161867619062L487.94073255032185 104.08161867619062Q488.00654532506036 103.96797922664219 488.106286424664 103.8903119769508Q488.20643629926604 103.81223595226105 488.3298863487755 103.77217600242024Q488.4537451732833 103.73252482757779 488.5935462227278 103.73252482757779L488.5935462227278 103.73252482757779Q488.842898971737 103.73252482757779 489.01172304606615 103.82531675220908Q489.1801383453969 103.91810867684035 489.2561704950948 104.10778027608666L489.2561704950948 104.10778027608666L489.2741565950233 104.10778027608666Q489.3816644195961 103.91810867684035 489.56929214385053 103.82531675220908Q489.756919868105 103.73252482757779 489.98051979221646 103.73252482757779ZM492.2320524832697 103.73252482757779L492.2320524832697 103.73252482757779Q492.51165458215866 103.73252482757779 492.711136781366 103.85638365208563Q492.9106189805733 103.97983370159508 493.0164917051526 104.20261607570981Q493.12236442973193 104.42498967482618 493.12236442973193 104.72257787364367L493.12236442973193 104.72257787364367L493.12236442973193 104.92819169782663L491.6115320357354 104.92819169782663Q491.61725488571267 105.31325774629653 491.80283873497524 105.51478382049574Q491.9884225842378 105.71630989469494 492.3260707328961 105.71630989469494L492.3260707328961 105.71630989469494Q492.5333196570726 105.71630989469494 492.69315068143743 105.67870259484438Q492.85298170580234 105.64068651999544 493.0246672051201 105.56669824528944L493.0246672051201 105.56669824528944L493.0246672051201 105.8581548191313Q492.8587045557796 105.9321430938373 492.6960121064261 105.96607141870248Q492.5333196570726 105.99999974356766 492.31176360795297 105.99999974356766L492.31176360795297 105.99999974356766Q491.9965980842053 105.99999974356766 491.7619612351377 105.87123561907931Q491.5277331610684 105.74247149459099 491.39774271158495 105.49270997058345Q491.26816103709984 105.24335722157429 491.26816103709984 104.88200012301019L491.26816103709984 104.88200012301019Q491.26816103709984 104.52881852441361 491.3867057866288 104.27047272544019Q491.50565931115614 104.01171815146839 491.72231006029523 103.87232587702228Q491.938552034436 103.73252482757779 492.2320524832697 103.73252482757779ZM492.22796473328594 104.00395142649924L492.22796473328594 104.00395142649924Q491.96266975934014 104.00395142649924 491.80488260996714 104.1776808008089Q491.64709546059413 104.35100140012018 491.61725488571267 104.66248794888246L491.61725488571267 104.66248794888246L492.7749056811126 104.66248794888246Q492.7728618061207 104.46709349965889 492.71399820635463 104.31829940025014Q492.65513460658855 104.1695053008414 492.5353635320644 104.08652397617112Q492.41559245754036 104.00395142649924 492.22796473328594 104.00395142649924ZM494.797115598077 105.95993979372685L494.797115598077 103.04169508032291L495.6232498697943 103.04169508032291Q496.17019081762095 103.04169508032291 496.4457051665261 103.20561385467155Q496.72121951543136 103.36912385402182 496.72121951543136 103.76236540245922L496.72121951543136 103.76236540245922Q496.72121951543136 103.93200702678513 496.65622429068964 104.0669027762491Q496.59122906594786 104.2013897507147 496.46737024144005 104.28927637536546Q496.3439201919306 104.37716300001622 496.1620153176534 104.41109132488141L496.1620153176534 104.41109132488141L496.1620153176534 104.43112129980182Q496.3537307918916 104.46096187468325 496.50129856630525 104.5406729993665Q496.6492751157172 104.62079289904813 496.73307399038424 104.76427292347799Q496.81687286505127 104.90816172290623 496.81687286505127 105.12971777202584L496.81687286505127 105.12971777202584Q496.81687286505127 105.39910049595542 496.6921964905467 105.58468434521798Q496.5675201160421 105.77026819448052 496.33983244194684 105.86510399410369Q496.1121447678516 105.95993979372685 495.8010669940877 105.95993979372685L495.8010669940877 105.95993979372685L494.797115598077 105.95993979372685ZM495.13639884672887 103.33110777917288L495.13639884672887 104.29336412534921L495.6951942695084 104.29336412534921Q496.07617256799455 104.29336412534921 496.2229227924114 104.16746142584951Q496.36967301682824 104.04196750134818 496.36967301682824 103.80038147730815L496.36967301682824 103.80038147730815Q496.36967301682824 103.55061995330063 496.19512609252183 103.44106825373593Q496.0205791682154 103.33110777917288 495.63919209473096 103.33110777917288L495.63919209473096 103.33110777917288L495.13639884672887 103.33110777917288ZM495.71318036943694 104.57868907421543L495.13639884672887 104.57868907421543L495.13639884672887 105.67052709487686L495.74302094431835 105.67052709487686Q496.132174742772 105.67052709487686 496.29404964212875 105.51764524548436Q496.45551576648717 105.36517217109024 496.45551576648717 105.10560004712168L496.45551576648717 105.10560004712168Q496.45551576648717 104.94004617277953 496.3827538167763 104.82231897324733Q496.30999186706543 104.70459177371515 496.1472994177119 104.6416404239653Q495.9846069683584 104.57868907421543 495.71318036943694 104.57868907421543L495.71318036943694 104.57868907421543ZM499.0843477810411 105.18367607181143L499.0843477810411 105.18367607181143Q499.0843477810411 105.44283942078161 498.9555836565528 105.62556184505554Q498.82681953206446 105.80828426932946 498.5954528829838 105.90393761894937Q498.3636774589048 105.99999974356766 498.05055581014904 105.99999974356766L498.05055581014904 105.99999974356766Q497.8845931608085 105.99999974356766 497.7370253863949 105.984057518631Q497.5894576119813 105.96811529369435 497.4655987874734 105.93786594381456Q497.3417399629656 105.90802536893312 497.2481304883376 105.86428644410694L497.2481304883376 105.86428644410694L497.2481304883376 105.5389015453999Q497.3977421377431 105.60062657015463 497.61316656188706 105.65335854494509Q497.8289997610294 105.70649929473393 498.0644541600938 105.70649929473393L498.0644541600938 105.70649929473393Q498.28396633422153 105.70649929473393 498.4356218586189 105.64763569496783Q498.5872773830163 105.58877209520173 498.66617095770283 105.47799407064193Q498.74506453238934 105.36721604608212 498.74506453238934 105.21147277170098L498.74506453238934 105.21147277170098Q498.74506453238934 105.06186112229548 498.67925175765083 104.96089369769669Q498.613030207914 104.86033504809627 498.46055713351984 104.77735372342602Q498.30767528412736 104.69437239875576 498.0444241851734 104.60076292412772L498.0444241851734 104.60076292412772Q497.8588403359108 104.53495014938925 497.7169954114745 104.45605657470274Q497.5751504870381 104.37716300001622 497.4794971374182 104.27742190041256Q497.3838437877983 104.1776808008089 497.33479078799326 104.04564647633356Q497.28573778818816 103.9140209268566 497.28573778818816 103.74437930253069L497.28573778818816 103.74437930253069Q497.28573778818816 103.51096877845818 497.4046913127155 103.34418857912091Q497.52323606224445 103.17740837978363 497.7341639614063 103.08870420513611Q497.94468308556975 103.0000000304886 498.2181535594831 103.0000000304886L498.2181535594831 103.0000000304886Q498.4515640835556 103.0000000304886 498.65022873276615 103.04373895531478Q498.8488933819767 103.08788665513936 499.0144472563189 103.16146615484698L499.0144472563189 103.16146615484698L498.9085745317396 103.45292272868883Q498.7507873823666 103.38710995395034 498.5741965830683 103.34337102912416Q498.39760578376996 103.29922332929958 498.20997805951555 103.29922332929958L498.20997805951555 103.29922332929958Q498.02235033526114 103.29922332929958 497.8935862107728 103.35399917908192Q497.7648220862844 103.40918380386263 497.6969654365541 103.5089249034663Q497.62910878682374 103.60866600306997 497.62910878682374 103.74642317752257L497.62910878682374 103.74642317752257Q497.62910878682374 103.90012257691183 497.69410401156546 104.00190755150736Q497.7590992363072 104.1036925261029 497.9017617107403 104.18258610078941Q498.0444241851734 104.26147967547591 498.2798785842378 104.3473224251348L498.2798785842378 104.3473224251348Q498.53740683321445 104.44093189976283 498.7168590575014 104.54598707434539Q498.8967200567867 104.65063347392956 498.9903295314147 104.80147144833018Q499.0843477810411 104.95190064773243 499.0843477810411 105.18367607181143ZM501.8607475700087 105.95993979372685L501.50920107140564 105.95993979372685L501.1502966228318 105.03365564740757L499.9803825774806 105.03365564740757L499.62311322890025 105.95993979372685L499.2797422302647 105.95993979372685L500.42145080072794 103.02984060537001L500.7268057245146 103.02984060537001L501.8607475700087 105.95993979372685ZM500.09443080202743 104.73238847360469L501.04851164823623 104.73238847360469L500.70718452459255 103.81223595226105Q500.6949212746413 103.77626375240399 500.6679421247485 103.69450875272885Q500.6409629748557 103.61275375305372 500.61316627496615 103.52486712840295Q500.5853695750766 103.43698050375218 500.56738347514806 103.38302220396659L500.56738347514806 103.38302220396659Q500.54735350022764 103.46477720364173 500.5244621003186 103.5457146533201Q500.50157070040956 103.62665210299849 500.4794968504973 103.6953263027256Q500.457423000585 103.7644092774511 500.44148077564836 103.81223595226105L500.44148077564836 103.81223595226105L500.09443080202743 104.73238847360469ZM504.1339453359758 103.04169508032291L504.4715934846341 103.04169508032291L504.4715934846341 104.92982679782014Q504.4715934846341 105.23926947159053 504.34650833513115 105.48085549563055Q504.2218319606266 105.72244151967058 503.97043533662554 105.86101624411992Q503.7190387126245 105.99999974356766 503.3396955141319 105.99999974356766L503.3396955141319 105.99999974356766Q502.79888619128087 105.99999974356766 502.5164226674033 105.70649929473393Q502.2339591435257 105.41299884590019 502.2339591435257 104.92206007285101L502.2339591435257 104.92206007285101L502.2339591435257 103.04169508032291L502.57528626716936 103.04169508032291L502.57528626716936 104.93187067281202Q502.57528626716936 105.30344714633551 502.7719070413881 105.50497322053472Q502.96852781560676 105.70649929473393 503.35972548905227 105.70649929473393L503.35972548905227 105.70649929473393Q503.62706433798996 105.70649929473393 503.797932287311 105.60961962011889Q503.9683914616337 105.51273994550385 504.05137278630394 105.33819302119744Q504.1339453359758 105.16364609689103 504.1339453359758 104.9339145478039L504.1339453359758 104.9339145478039L504.1339453359758 103.04169508032291ZM507.3416027482297 103.04169508032291L507.3416027482297 105.95993979372685L507.01826172451456 105.95993979372685L507.01826172451456 103.8919470769443Q507.01826172451456 103.77421987741211 507.01907927451134 103.68960345274834Q507.02030559950646 103.6045782530862 507.0231670244951 103.53386017836722Q507.0264372244821 103.46314210364822 507.03216007445934 103.38915382894223L507.03216007445934 103.38915382894223Q506.97043504970463 103.45292272868883 506.916476749919 103.49788797851016Q506.86251845013345 103.54285322833148 506.78280732545016 103.60866600306997L506.78280732545016 103.60866600306997L506.44924692677563 103.87600485200765L506.27592632746433 103.65076982790266L507.06608839932454 103.04169508032291L507.3416027482297 103.04169508032291ZM510.5030685856672 104.98378509760573L510.5030685856672 105.2834171714151L510.0660881124036 105.2834171714151L510.0660881124036 105.95993979372685L509.7427470886885 105.95993979372685L509.7427470886885 105.2834171714151L508.3316557942956 105.2834171714151L508.3316557942956 105.00381507252614L509.72067323877616 103.02575285538626L510.0660881124036 103.02575285538626L510.0660881124036 104.98378509760573L510.5030685856672 104.98378509760573ZM508.6611284429864 104.98378509760573L509.7427470886885 104.98378509760573L509.7427470886885 104.02970425139691Q509.7427470886885 103.92015255183223 509.7447909636803 103.83103960218634Q509.7468348386722 103.7423354275388 509.75092258865595 103.66548572784419Q509.75460156364136 103.58863602814955 509.7578717636284 103.51873550342732Q509.760733188617 103.44883497870508 509.76277706360884 103.38097832897472L509.76277706360884 103.38097832897472L509.7468348386722 103.38097832897472Q509.7088187638233 103.46109822865634 509.6597657640182 103.54980240330387Q509.61112153921147 103.63850657795139 509.56125098940964 103.70840710267363L509.56125098940964 103.70840710267363L508.6611284429864 104.98378509760573ZM511.7048670808917 104.17563692581703L511.7048670808917 104.17563692581703Q512.0020465047108 104.17563692581703 512.2219674538369 104.27619557541745Q512.4414796279647 104.37716300001622 512.5620682524855 104.56887847425442Q512.6826568770063 104.76018517349424 512.6826568770063 105.03365564740757L512.6826568770063 105.03365564740757Q512.6826568770063 105.33328772121693 512.5530752025212 105.54993847035604Q512.4234935280361 105.76618044449677 512.1798636290042 105.88309009403221Q511.9362337299723 105.99999974356766 511.5969504813205 105.99999974356766L511.5969504813205 105.99999974356766Q511.36967158222365 105.99999974356766 511.1738683580017 105.95993979372685Q510.97847390877814 105.91987984388602 510.8443957093109 105.84016871920277L510.8443957093109 105.84016871920277L510.8443957093109 105.52500319545513Q510.990328383731 105.61248104510751 511.19798608290586 105.66439546990122Q511.4052350070823 105.71630989469494 511.60103823130424 105.71630989469494L511.60103823130424 105.71630989469494Q511.82259428042386 105.71630989469494 511.9893744797612 105.64559181997595Q512.1557459041001 105.57487374525695 512.2485378287313 105.43016739583197Q512.3413297533626 105.28546104640698 512.3413297533626 105.06554009728087L512.3413297533626 105.06554009728087Q512.3413297533626 104.77449229843738 512.1626950790725 104.61547882406926Q511.98406040478227 104.45687412469948 511.5989943563124 104.45687412469948L511.5989943563124 104.45687412469948Q511.47513553180454 104.45687412469948 511.3275677573909 104.4769040996199Q511.17999998297734 104.4969340745403 511.08393785835904 104.52064302444609L511.08393785835904 104.52064302444609L510.916340109025 104.41109132488141L511.02834445857997 103.04169508032291L512.4790869278152 103.04169508032291L512.4790869278152 103.34541490411603L511.3116255324543 103.34541490411603L511.2376372577483 104.22550747561885Q511.3136694074462 104.2095652506822 511.43344048197025 104.19239670075042Q511.5532115564943 104.17563692581703 511.7048670808917 104.17563692581703ZM514.1100991713341 103.73252482757779L514.1100991713341 103.73252482757779Q514.3892924952247 103.73252482757779 514.5891834694304 103.85638365208563Q514.7886656686378 103.97983370159508 514.8945383932171 104.20261607570981Q515.000002342798 104.42498967482618 515.000002342798 104.72257787364367L515.000002342798 104.72257787364367L515.000002342798 104.92819169782663L513.4891699488015 104.92819169782663Q513.4953015737772 105.31325774629653 513.6808854230397 105.51478382049574Q513.8664692723022 105.71630989469494 514.2037086459621 105.71630989469494L514.2037086459621 105.71630989469494Q514.411366345137 105.71630989469494 514.5711973695019 105.67870259484438Q514.7306196188684 105.64068651999544 514.9023051181862 105.56669824528944L514.9023051181862 105.56669824528944L514.9023051181862 105.8581548191313Q514.7367512438441 105.9321430938373 514.5740587944905 105.96607141870248Q514.411366345137 105.99999974356766 514.1898102960174 105.99999974356766L514.1898102960174 105.99999974356766Q513.8742359972714 105.99999974356766 513.6400079232021 105.87123561907931Q513.4053710741345 105.74247149459099 513.2757893996494 105.49270997058345Q513.145798950166 105.24335722157429 513.145798950166 104.88200012301019L513.145798950166 104.88200012301019Q513.145798950166 104.52881852441361 513.2647524746933 104.27047272544019Q513.3832972242222 104.01171815146839 513.5999479733613 103.87232587702228Q513.8165987225004 103.73252482757779 514.1100991713341 103.73252482757779ZM514.1060114213504 104.00395142649924L514.1060114213504 104.00395142649924Q513.8403076724062 104.00395142649924 513.6829292980316 104.1776808008089Q513.5251421486586 104.35100140012018 513.4953015737772 104.66248794888246L513.4953015737772 104.66248794888246L514.652952369177 104.66248794888246Q514.6509084941852 104.46709349965889 514.592044894419 104.31829940025014Q514.533181294653 104.1695053008414 514.4134102201289 104.08652397617112Q514.2936391456049 104.00395142649924 514.1060114213504 104.00395142649924Z " id="BsauText" fill="black"></path><path d="M77 16L77 16L91 16L91 92.2L91 95L77 95L76.80000000000001 95L55 48.8L55 95L41 95L41 16L55 16L77 62.6L77 16ZM152 55.8L152 77.3L151.9 77.3L152 77.3Q151.9 81 150.45 84.2Q149 87.4 146.6 89.8Q144.2 92.2 140.95 93.6Q137.7 95 134 95L134 95L120 95Q116.30000000000001 95 113 93.6Q109.69999999999999 92.2 107.25 89.75Q104.80000000000001 87.3 103.4 84Q102 80.7 102 77L102 77L102 34Q102 30.299999999999997 103.4 27Q104.80000000000001 23.700000000000003 107.25 21.25Q109.69999999999999 18.799999999999997 113 17.400000000000006Q116.30000000000001 16 120 16L120 16L134 16Q137.7 16 140.95 17.400000000000006Q144.2 18.799999999999997 146.65 21.25Q149.1 23.700000000000003 150.55 26.950000000000003Q152 30.200000000000003 152 33.9L152 33.9L138 39L138 34Q138 32.3 136.8 31.15Q135.6 30 134 30L134 30L120 30Q118.30000000000001 30 117.15 31.15Q116 32.3 116 34L116 34L116 77Q116 78.7 117.15 79.85000000000001Q118.30000000000001 81 120 81L120 81L134 81Q135.6 81 136.8 79.85000000000001Q138 78.7 138 77L138 77L138 72.2L138 69.5L127 69.5L127 55.5L152 55.5L152 55.8ZM193.6 66.4L193.6 66.4Q187.9 70.2 184 73.5Q180.1 76.8 178.3 81L178.3 81L213 81L213 95L163 95L163 88Q163 84.2 163.7 81L163.7 81Q164.3 78.3 165.2 76L165.2 76Q167.3 70.89999999999999 171 66.7L171 66.7Q174.3 62.9 178.2 60.05Q182.1 57.2 185.8 54.7L185.8 54.7Q188.7 52.7 191.35 50.85Q194 49 195.9 47L195.9 47Q197.6 45.3 198.3 43.65Q199 42 199 40L199 40L199 34Q199 32.3 197.85 31.15Q196.7 30 195 30L195 30L181 30Q179.3 30 178.15 31.15Q177 32.3 177 34L177 34L177 39L163 33.9Q163 30.200000000000003 164.45 26.950000000000003Q165.9 23.700000000000003 168.35 21.25Q170.8 18.799999999999997 174.05 17.400000000000006Q177.3 16 181 16L181 16L195 16Q198.7 16 202 17.400000000000006Q205.3 18.799999999999997 207.75 21.25Q210.2 23.700000000000003 211.6 27Q213 30.299999999999997 213 34L213 34L213 40Q213 44.8 211 49.4L211 49.4Q209.3 53.2 206.1 56.6L206.1 56.6Q203.5 59.5 200.2 61.8Q196.9 64.1 193.6 66.4ZM274 30L246.3 30L242.1 48.5L256 48.5Q259.7 48.5 263 49.9Q266.3 51.3 268.75 53.75Q271.2 56.2 272.6 59.5Q274 62.8 274 66.5L274 66.5L274 77Q274 80.7 272.6 84Q271.2 87.3 268.75 89.75Q266.3 92.2 263 93.6Q259.7 95 256 95L256 95L242 95Q238.3 95 235.05 93.6Q231.8 92.2 229.4 89.8Q227 87.4 225.55 84.2Q224.1 81 224 77.3L224 77.3L238 72.2L238 77Q238 78.7 239.15 79.85000000000001Q240.3 81 242 81L242 81L256 81Q257.7 81 258.85 79.85000000000001Q260 78.7 260 77L260 77L260 66.5Q260 64.8 258.85 63.65Q257.7 62.5 256 62.5L256 62.5L242 62.5Q240.8 62.5 239.8 63.15Q238.8 63.8 238.3 64.9L238.3 64.9L238 66.4L224.7 61.6Q224.8 61.4 224.8 61.25Q224.8 61.1 224.9 60.9L224.9 60.9L231.9 30L235.1 16L241.7 16L274 16L274 30ZM357 16L357 16L357 22.700000000000003L339.9 55.5L357 88.3L357 95L343 95L343 91.7L332 70.60000000000001L321 91.7L321 95L307 95L307 88.3L324.1 55.5L307 22.700000000000003L307 16L321 16L321 19.299999999999997L332 40.4L343 19.299999999999997L343 16L357 16ZM418 16L418 16L418 22.700000000000003L400 57.2L400 95L386 95L386 57.2L368 22.700000000000003L368 16L382 16L382 19.299999999999997L393 40.4L404 19.299999999999997L404 16L418 16ZM479 29.599999999999994L479 29.599999999999994L445.7 81L479 81L479 95L429 95L429 81L462.1 30L429 30L429 16L471.1 16L474 16L479 16L479 19.299999999999997L479 29.599999999999994Z " id="RegistrationText" fill="black"></path><path d="M78 16L78 16L92 16L92 92.2L92 95L78 95L77.80000000000001 95L56 48.8L56 95L42 95L42 16L56 16L78 62.6L78 16ZM153 55.8L153 77.3L152.9 77.3L153 77.3Q152.9 81 151.45 84.2Q150 87.4 147.6 89.8Q145.2 92.2 141.95 93.6Q138.7 95 135 95L135 95L121 95Q117.30000000000001 95 114 93.6Q110.69999999999999 92.2 108.25 89.75Q105.80000000000001 87.3 104.4 84Q103 80.7 103 77L103 77L103 34Q103 30.299999999999997 104.4 27Q105.80000000000001 23.700000000000003 108.25 21.25Q110.69999999999999 18.799999999999997 114 17.400000000000006Q117.30000000000001 16 121 16L121 16L135 16Q138.7 16 141.95 17.400000000000006Q145.2 18.799999999999997 147.65 21.25Q150.1 23.700000000000003 151.55 26.950000000000003Q153 30.200000000000003 153 33.9L153 33.9L139 39L139 34Q139 32.3 137.8 31.15Q136.6 30 135 30L135 30L121 30Q119.30000000000001 30 118.15 31.15Q117 32.3 117 34L117 34L117 77Q117 78.7 118.15 79.85000000000001Q119.30000000000001 81 121 81L121 81L135 81Q136.6 81 137.8 79.85000000000001Q139 78.7 139 77L139 77L139 72.2L139 69.5L128 69.5L128 55.5L153 55.5L153 55.8ZM194.6 66.4L194.6 66.4Q188.9 70.2 185 73.5Q181.1 76.8 179.3 81L179.3 81L214 81L214 95L164 95L164 88Q164 84.2 164.7 81L164.7 81Q165.3 78.3 166.2 76L166.2 76Q168.3 70.89999999999999 172 66.7L172 66.7Q175.3 62.9 179.2 60.05Q183.1 57.2 186.8 54.7L186.8 54.7Q189.7 52.7 192.35 50.85Q195 49 196.9 47L196.9 47Q198.6 45.3 199.3 43.65Q200 42 200 40L200 40L200 34Q200 32.3 198.85 31.15Q197.7 30 196 30L196 30L182 30Q180.3 30 179.15 31.15Q178 32.3 178 34L178 34L178 39L164 33.9Q164 30.200000000000003 165.45 26.950000000000003Q166.9 23.700000000000003 169.35 21.25Q171.8 18.799999999999997 175.05 17.400000000000006Q178.3 16 182 16L182 16L196 16Q199.7 16 203 17.400000000000006Q206.3 18.799999999999997 208.75 21.25Q211.2 23.700000000000003 212.6 27Q214 30.299999999999997 214 34L214 34L214 40Q214 44.8 212 49.4L212 49.4Q210.3 53.2 207.1 56.6L207.1 56.6Q204.5 59.5 201.2 61.8Q197.9 64.1 194.6 66.4ZM275 30L247.3 30L243.1 48.5L257 48.5Q260.7 48.5 264 49.9Q267.3 51.3 269.75 53.75Q272.2 56.2 273.6 59.5Q275 62.8 275 66.5L275 66.5L275 77Q275 80.7 273.6 84Q272.2 87.3 269.75 89.75Q267.3 92.2 264 93.6Q260.7 95 257 95L257 95L243 95Q239.3 95 236.05 93.6Q232.8 92.2 230.4 89.8Q228 87.4 226.55 84.2Q225.1 81 225 77.3L225 77.3L239 72.2L239 77Q239 78.7 240.15 79.85000000000001Q241.3 81 243 81L243 81L257 81Q258.7 81 259.85 79.85000000000001Q261 78.7 261 77L261 77L261 66.5Q261 64.8 259.85 63.65Q258.7 62.5 257 62.5L257 62.5L243 62.5Q241.8 62.5 240.8 63.15Q239.8 63.8 239.3 64.9L239.3 64.9L239 66.4L225.7 61.6Q225.8 61.4 225.8 61.25Q225.8 61.1 225.9 60.9L225.9 60.9L232.9 30L236.1 16L242.7 16L275 16L275 30ZM358 16L358 16L358 22.700000000000003L340.9 55.5L358 88.3L358 95L344 95L344 91.7L333 70.60000000000001L322 91.7L322 95L308 95L308 88.3L325.1 55.5L308 22.700000000000003L308 16L322 16L322 19.299999999999997L333 40.4L344 19.299999999999997L344 16L358 16ZM419 16L419 16L419 22.700000000000003L401 57.2L401 95L387 95L387 57.2L369 22.700000000000003L369 16L383 16L383 19.299999999999997L394 40.4L405 19.299999999999997L405 16L419 16ZM480 29.599999999999994L480 29.599999999999994L446.7 81L480 81L480 95L430 95L430 81L463.1 30L430 30L430 16L472.1 16L475 16L480 16L480 19.299999999999997L480 29.599999999999994Z " id="RegistrationOverlay0Text" fill="gray" class="do-not-print"></path><path d="M79 16L79 16L93 16L93 92.2L93 95L79 95L78.80000000000001 95L57 48.8L57 95L43 95L43 16L57 16L79 62.6L79 16ZM154 55.8L154 77.3L153.9 77.3L154 77.3Q153.9 81 152.45 84.2Q151 87.4 148.6 89.8Q146.2 92.2 142.95 93.6Q139.7 95 136 95L136 95L122 95Q118.30000000000001 95 115 93.6Q111.69999999999999 92.2 109.25 89.75Q106.80000000000001 87.3 105.4 84Q104 80.7 104 77L104 77L104 34Q104 30.299999999999997 105.4 27Q106.80000000000001 23.700000000000003 109.25 21.25Q111.69999999999999 18.799999999999997 115 17.400000000000006Q118.30000000000001 16 122 16L122 16L136 16Q139.7 16 142.95 17.400000000000006Q146.2 18.799999999999997 148.65 21.25Q151.1 23.700000000000003 152.55 26.950000000000003Q154 30.200000000000003 154 33.9L154 33.9L140 39L140 34Q140 32.3 138.8 31.15Q137.6 30 136 30L136 30L122 30Q120.30000000000001 30 119.15 31.15Q118 32.3 118 34L118 34L118 77Q118 78.7 119.15 79.85000000000001Q120.30000000000001 81 122 81L122 81L136 81Q137.6 81 138.8 79.85000000000001Q140 78.7 140 77L140 77L140 72.2L140 69.5L129 69.5L129 55.5L154 55.5L154 55.8ZM195.6 66.4L195.6 66.4Q189.9 70.2 186 73.5Q182.1 76.8 180.3 81L180.3 81L215 81L215 95L165 95L165 88Q165 84.2 165.7 81L165.7 81Q166.3 78.3 167.2 76L167.2 76Q169.3 70.89999999999999 173 66.7L173 66.7Q176.3 62.9 180.2 60.05Q184.1 57.2 187.8 54.7L187.8 54.7Q190.7 52.7 193.35 50.85Q196 49 197.9 47L197.9 47Q199.6 45.3 200.3 43.65Q201 42 201 40L201 40L201 34Q201 32.3 199.85 31.15Q198.7 30 197 30L197 30L183 30Q181.3 30 180.15 31.15Q179 32.3 179 34L179 34L179 39L165 33.9Q165 30.200000000000003 166.45 26.950000000000003Q167.9 23.700000000000003 170.35 21.25Q172.8 18.799999999999997 176.05 17.400000000000006Q179.3 16 183 16L183 16L197 16Q200.7 16 204 17.400000000000006Q207.3 18.799999999999997 209.75 21.25Q212.2 23.700000000000003 213.6 27Q215 30.299999999999997 215 34L215 34L215 40Q215 44.8 213 49.4L213 49.4Q211.3 53.2 208.1 56.6L208.1 56.6Q205.5 59.5 202.2 61.8Q198.9 64.1 195.6 66.4ZM276 30L248.3 30L244.1 48.5L258 48.5Q261.7 48.5 265 49.9Q268.3 51.3 270.75 53.75Q273.2 56.2 274.6 59.5Q276 62.8 276 66.5L276 66.5L276 77Q276 80.7 274.6 84Q273.2 87.3 270.75 89.75Q268.3 92.2 265 93.6Q261.7 95 258 95L258 95L244 95Q240.3 95 237.05 93.6Q233.8 92.2 231.4 89.8Q229 87.4 227.55 84.2Q226.1 81 226 77.3L226 77.3L240 72.2L240 77Q240 78.7 241.15 79.85000000000001Q242.3 81 244 81L244 81L258 81Q259.7 81 260.85 79.85000000000001Q262 78.7 262 77L262 77L262 66.5Q262 64.8 260.85 63.65Q259.7 62.5 258 62.5L258 62.5L244 62.5Q242.8 62.5 241.8 63.15Q240.8 63.8 240.3 64.9L240.3 64.9L240 66.4L226.7 61.6Q226.8 61.4 226.8 61.25Q226.8 61.1 226.9 60.9L226.9 60.9L233.9 30L237.1 16L243.7 16L276 16L276 30ZM359 16L359 16L359 22.700000000000003L341.9 55.5L359 88.3L359 95L345 95L345 91.7L334 70.60000000000001L323 91.7L323 95L309 95L309 88.3L326.1 55.5L309 22.700000000000003L309 16L323 16L323 19.299999999999997L334 40.4L345 19.299999999999997L345 16L359 16ZM420 16L420 16L420 22.700000000000003L402 57.2L402 95L388 95L388 57.2L370 22.700000000000003L370 16L384 16L384 19.299999999999997L395 40.4L406 19.299999999999997L406 16L420 16ZM481 29.599999999999994L481 29.599999999999994L447.7 81L481 81L481 95L431 95L431 81L464.1 30L431 30L431 16L473.1 16L476 16L481 16L481 19.299999999999997L481 29.599999999999994Z " id="RegistrationOverlay1Text" fill="black" class="do-not-print"></path></svg>