<svg xmlns="http://www.w3.org/2000/svg" version="1.1" xmlns:xlink="http://www.w3.org/1999/xlink" xmlns:svgjs="http://svgjs.dev/svgjs" generator="Plateit 3.0.0" viewBox="0 0 520 111" preserveAspectRatio="xMidYMid meet"><rect width="520" height="111" rx="3" ry="3" fill="yellow" class="do-not-print" id="Background"></rect><path d="M9 6H511A3 3 0 0 1 514 9V102A3 3 0 0 1 511 105H301.5319519042969M218.46804809570312 105H9A3 3 0 0 1 6 102V9A3 3 0 0 1 9 6 " stroke-width="2" stroke="black" fill="none" id="Border"></path><path d="M224.74922521124833 105.94906415982192L224.30275955373156 105.94906415982192L223.84589888672667 104.77130958481266L222.35889277944446 104.77130958481266L221.90463086481157 105.94906415982192L221.4680404663086 105.94906415982192L222.91970354133105 102.22349275926307L223.30795714571406 102.22349275926307L224.74922521124833 105.94906415982192ZM222.50338341132996 104.38825348517372L223.71648101859898 104.38825348517372L223.28248937246804 103.2182951672806Q223.2674166087102 103.17255712553266 223.23311307739925 103.068607030651Q223.19880954608828 102.96465693576934 223.16346651382852 102.85291058377155Q223.12760373109435 102.74116423177375 223.10473471022038 102.67255716915186L223.10473471022038 102.67255716915186Q223.0797866874488 102.77650726403353 223.05016091040753 102.87941785796637Q223.02105488384066 102.98232845189922 222.99350810869703 103.06964653159982Q222.96544158307896 103.15748436177482 222.94517131457704 103.2182951672806L222.94517131457704 103.2182951672806L222.50338341132996 104.38825348517372ZM226.31263463826855 105.99999970631393L226.31263463826855 105.99999970631393Q225.93737479574574 105.99999970631393 225.65047253387235 105.84511406494025Q225.36357027199895 105.69022842356657 225.2040068763556 105.37318063417749Q225.04392373023785 105.05561309431401 225.04392373023785 104.5738044045375L225.04392373023785 104.5738044045375Q225.04392373023785 104.0686069434126 225.21284263442055 103.74740115022827Q225.38124178812885 103.42619535704392 225.6785390594904 103.27182946614465Q225.97531658037755 103.11694382477097 226.35317517527238 103.11694382477097L226.35317517527238 103.11694382477097Q226.56159511551013 103.11694382477097 226.75546204246444 103.15852386272364Q226.94984871989314 103.2006236511507 227.07406908327675 103.26403320902853L227.07406908327675 103.26403320902853L226.94724996752112 103.61694378115178Q226.82043085176548 103.56600823465976 226.6541106999548 103.52546769765591Q226.48779054814415 103.48492716065206 226.34329991625864 103.48492716065206L226.34329991625864 103.48492716065206Q226.0537989020132 103.48492716065206 225.86253072743094 103.60914752403565Q225.67074280237426 103.73336788741925 225.57562846555754 103.9745321075447Q225.48051412874082 104.21569632767016 225.48051412874082 104.56860689979341L225.48051412874082 104.56860689979341Q225.48051412874082 104.90592495768442 225.57302971318552 105.14449042543784Q225.6655452976302 105.38305589319125 225.84953696557073 105.50883550799807Q226.03352863351128 105.63461512280487 226.3100358858965 105.63461512280487L226.3100358858965 105.63461512280487Q226.53092983752003 105.63461512280487 226.70868449976768 105.58731782963372Q226.88643916201534 105.54054028693697 227.03092979390084 105.47713072905916L227.03092979390084 105.47713072905916L227.03092979390084 105.85239057158196Q226.8916366667594 105.92359638657591 226.72011901020466 105.9615381712077Q226.54860135364993 105.99999970631393 226.31263463826855 105.99999970631393ZM230.7081644003397 103.11694382477097L230.7081644003397 103.11694382477097Q231.16762381971668 103.11694382477097 231.400991782726 103.35654879347321Q231.63487949620975 103.59667351264986 231.63487949620975 104.12681899654635L231.63487949620975 104.12681899654635L231.63487949620975 105.94906415982192L231.2185593662087 105.94906415982192L231.2185593662087 104.14708926504827Q231.2185593662087 103.80977120715727 231.07250948289993 103.64085230297457Q230.9264595995912 103.47193339879186 230.6395573377178 103.47193339879186L230.6395573377178 103.47193339879186Q230.23623096957695 103.47193339879186 230.05379855305964 103.7058211122756Q229.8708463860679 103.93918907528494 229.8708463860679 104.39345098991781L229.8708463860679 104.39345098991781L229.8708463860679 105.94906415982192L229.4519275036948 105.94906415982192L229.4519275036948 104.14708926504827Q229.4519275036948 103.92151755915505 229.38747844486818 103.77182942252546Q229.32250963556714 103.62162153542145 229.1946510188627 103.54677746710665Q229.06627265168382 103.47193339879186 228.8708464733063 103.47193339879186L228.8708464733063 103.47193339879186Q228.59433922092109 103.47193339879186 228.42697956816158 103.5862785031617Q228.2591001649277 103.70062360753151 228.1842560966129 103.92515581247591Q228.10941202829812 104.1496880174203 228.10941202829812 104.47713081629755L228.10941202829812 104.47713081629755L228.10941202829812 105.94906415982192L227.68841414402738 105.94906415982192L227.68841414402738 103.16735962078857L228.02833095429042 103.16735962078857L228.09174051216823 103.56081072991567L228.1146095330422 103.56081072991567Q228.19828935942195 103.41632009803017 228.32510847517756 103.31756750789259Q228.4524473414076 103.2182951672806 228.60941198467893 103.16735962078857Q228.76689637842463 103.11694382477097 228.94465104067228 103.11694382477097L228.94465104067228 103.11694382477097Q229.26169883006136 103.11694382477097 229.476355775992 103.23492718246166Q229.69049297144824 103.35291054015235 229.78716655968816 103.5940747602778L229.78716655968816 103.5940747602778L229.81003558056213 103.5940747602778Q229.94672995533153 103.35291054015235 230.18529542308494 103.23492718246166Q230.42386089083837 103.11694382477097 230.7081644003397 103.11694382477097ZM233.57095001338075 103.11694382477097L233.57095001338075 103.11694382477097Q233.92645933787603 103.11694382477097 234.1800975693873 103.27442821851669Q234.43373580089855 103.43139286178801 234.5683511737703 103.71465687034055Q234.70296654664207 103.99740112841867 234.70296654664207 104.37577947378793L234.70296654664207 104.37577947378793L234.70296654664207 104.63721396241532L232.7819687932289 104.63721396241532Q232.78924529987063 105.12681890930794 233.025212015252 105.38305589319125Q233.2611787306334 105.63929287707455 233.69049262249467 105.63929287707455L233.69049262249467 105.63929287707455Q233.95400611301966 105.63929287707455 234.15722854851333 105.59147583342899Q234.36045098400697 105.54313903930901 234.5787461832585 105.44906420344111L234.5787461832585 105.44906420344111L234.5787461832585 105.81964629169424Q234.3677274906487 105.91372112756214 234.16086680183417 105.95686041693804Q233.95400611301966 105.99999970631393 233.67230135589037 105.99999970631393L233.67230135589037 105.99999970631393Q233.27157374012154 105.99999970631393 232.97323696781118 105.8362783068753Q232.6754199459752 105.67255690743669 232.51013929511336 105.3549893675732Q232.3453783947259 105.03794157818413 232.3453783947259 104.57848215880718L232.3453783947259 104.57848215880718Q232.3453783947259 104.12941774891839 232.49610603230434 103.80093544909232Q232.64735342035715 103.47193339879186 232.92282117179357 103.29469848701862Q233.19776917275556 103.11694382477097 233.57095001338075 103.11694382477097ZM233.56575250863665 103.4620581397781L233.56575250863665 103.4620581397781Q233.22843445074565 103.4620581397781 233.02781076762403 103.68295209140163Q232.82718708450244 103.90332629255076 232.78924529987063 104.29937615404991L232.78924529987063 104.29937615404991L234.261178643395 104.29937615404991Q234.25857989102295 104.05093542728272 234.18373582270814 103.8617462545981Q234.10889175439337 103.67255708191347 233.9566048653917 103.56704773560858Q233.80431797639008 103.4620581397781 233.56575250863665 103.4620581397781ZM239.7331116379658 102.23856552302091L239.7331116379658 105.94906415982192L239.23571043395702 105.94906415982192L237.21284158755984 102.83264031526963L237.19257131905792 102.83264031526963Q237.20036757617405 102.95686067865321 237.2102428351878 103.11538457334775Q237.22063784467596 103.27442821851669 237.22687485036886 103.45322238171316Q237.23311185606178 103.63201654490962 237.23311185606178 103.81704771379898L237.23311185606178 103.81704771379898L237.23311185606178 105.94906415982192L236.83238424029295 105.94906415982192L236.83238424029295 102.23856552302091L237.32718669192968 102.23856552302091L239.34225928121074 105.34511410855944L239.3599307973406 105.34511410855944Q239.35473329259653 105.25623677743562 239.3469370354804 105.092515377997Q239.3396605288387 104.92879397855837 239.3334235231458 104.73960480587375Q239.3266667669785 104.55093538366353 239.3266667669785 104.38825348517372L239.3266667669785 104.38825348517372L239.3266667669785 102.23856552302091L239.7331116379658 102.23856552302091ZM242.55483696352857 103.16735962078857L242.97895335064575 103.16735962078857L242.97895335064575 105.94906415982192L242.63383903563863 105.94906415982192L242.57250847965844 105.55821180306685L242.55015920925888 105.55821180306685Q242.4638806305071 105.70270243495237 242.32666650526332 105.80197477556436Q242.1894523800195 105.90072736570194 242.0184544739392 105.95010366077072Q241.84693681738443 105.99999970631393 241.65410939137894 105.99999970631393L241.65410939137894 105.99999970631393Q241.32406784012966 105.99999970631393 241.10057513613407 105.89345085906022Q240.87760218261292 105.78638226133211 240.7642965791919 105.56340930781094Q240.6515107262453 105.33991660381535 240.6515107262453 104.98960478406416L240.6515107262453 104.98960478406416L240.6515107262453 103.16735962078857L241.07770611526013 103.16735962078857L241.07770611526013 104.95945925654847Q241.07770611526013 105.30717232392763 241.23519050900583 105.47817023000798Q241.39267490275157 105.64968788656272 241.71492019688472 105.64968788656272L241.71492019688472 105.64968788656272Q242.02469147963208 105.64968788656272 242.20868314757263 105.53274402982085Q242.39267481551317 105.41631992355339 242.47375588952087 105.18918896623694Q242.55483696352857 104.96205800892051 242.55483696352857 104.63201645767123L242.55483696352857 104.63201645767123L242.55483696352857 103.16735962078857ZM246.88955592009395 103.11694382477097L246.88955592009395 103.11694382477097Q247.3490153394709 103.11694382477097 247.58238330248025 103.35654879347321Q247.81575126548958 103.59667351264986 247.81575126548958 104.12681899654635L247.81575126548958 104.12681899654635L247.81575126548958 105.94906415982192L247.39995088596294 105.94906415982192L247.39995088596294 104.14708926504827Q247.39995088596294 103.80977120715727 247.25390100265417 103.64085230297457Q247.10785111934544 103.47193339879186 246.82094885747205 103.47193339879186L246.82094885747205 103.47193339879186Q246.4176224893312 103.47193339879186 246.23467032233947 103.7058211122756Q246.05223790582215 103.93918907528494 246.05223790582215 104.39345098991781L246.05223790582215 104.39345098991781L246.05223790582215 105.94906415982192L245.63331902344905 105.94906415982192L245.63331902344905 104.14708926504827Q245.63331902344905 103.92151755915505 245.56886996462242 103.77182942252546Q245.5039011553214 103.62162153542145 245.37604253861693 103.54677746710665Q245.24766417143806 103.47193339879186 245.05223799306054 103.47193339879186L245.05223799306054 103.47193339879186Q244.77573074067533 103.47193339879186 244.60785133744142 103.5862785031617Q244.44049168468194 103.70062360753151 244.36564761636714 103.92515581247591Q244.29080354805237 104.1496880174203 244.29080354805237 104.47713081629755L244.29080354805237 104.47713081629755L244.29080354805237 105.94906415982192L243.86980566378162 105.94906415982192L243.86980566378162 103.16735962078857L244.20972247404467 103.16735962078857L244.27313203192247 103.56081072991567L244.29600105279644 103.56081072991567Q244.37968087917616 103.41632009803017 244.5064999949318 103.31756750789259Q244.63331911068744 103.2182951672806 244.79080350443314 103.16735962078857Q244.94828789817888 103.11694382477097 245.12604256042653 103.11694382477097L245.12604256042653 103.11694382477097Q245.4430903498156 103.11694382477097 245.65774729574622 103.23492718246166Q245.87188449120245 103.35291054015235 245.9685580794424 103.5940747602778L245.9685580794424 103.5940747602778L245.99142710031637 103.5940747602778Q246.12812147508578 103.35291054015235 246.36668694283918 103.23492718246166Q246.6052524105926 103.11694382477097 246.88955592009395 103.11694382477097ZM248.68113580537943 102.00000005526749L249.10265344012458 102.00000005526749L249.10265344012458 102.9875259566433Q249.10265344012458 103.15748436177482 249.09381768205964 103.31756750789259Q249.0849819239947 103.47713090353594 249.07978441925061 103.56600823465976L249.07978441925061 103.56600823465976L249.10265344012458 103.56600823465976Q249.2169985444944 103.37837831339836 249.43269499137386 103.24896044527068Q249.64839143825333 103.11954257714302 249.98311074377227 103.11954257714302L249.98311074377227 103.11954257714302Q250.50597972102705 103.11954257714302 250.81679050472323 103.4807691568568Q251.12760128841938 103.84251548704499 251.12760128841938 104.55561313793321L251.12760128841938 104.55561313793321Q251.12760128841938 105.02546756679833 250.98570940890593 105.34771286093148Q250.84381752939245 105.66995815506465 250.5849817931371 105.83471905545208Q250.32562630640737 105.99999970631393 249.97323548475853 105.99999970631393L249.97323548475853 105.99999970631393Q249.64319393350922 105.99999970631393 249.43113573995063 105.87681884387915Q249.21959729686645 105.75363798144438 249.1052521924966 105.57588331919673L249.1052521924966 105.57588331919673L249.0719881621345 105.57588331919673L248.98570958338271 105.94906415982192L248.68113580537943 105.94906415982192L248.68113580537943 102.00000005526749ZM249.91450368115036 103.47193339879186L249.91450368115036 103.47193339879186Q249.61252865551916 103.47193339879186 249.43529374374592 103.58991675648255Q249.25753908149827 103.70790011417323 249.1800962608114 103.94542608097784Q249.10265344012458 104.18295204778244 249.10265344012458 104.54573787891945L249.10265344012458 104.54573787891945L249.10265344012458 104.56860689979341Q249.10265344012458 105.09355487894581 249.27780935000018 105.37162138275427Q249.45296525987578 105.64968788656272 249.91450368115036 105.64968788656272L249.91450368115036 105.64968788656272Q250.30327703600778 105.64968788656272 250.4971439629621 105.36538437706137Q250.69153064039082 105.08108086756002 250.69153064039082 104.55301438556117L250.69153064039082 104.55301438556117Q250.69153064039082 104.01507264454855 250.49974271533415 103.74376289690741Q250.30795479027748 103.47193339879186 249.91450368115036 103.47193339879186ZM252.9321749355651 103.11694382477097L252.9321749355651 103.11694382477097Q253.2876842600604 103.11694382477097 253.54132249157163 103.27442821851669Q253.7949607230829 103.43139286178801 253.92957609595464 103.71465687034055Q254.0641914688264 103.99740112841867 254.0641914688264 104.37577947378793L254.0641914688264 104.37577947378793L254.0641914688264 104.63721396241532L252.14319371541325 104.63721396241532Q252.15047022205496 105.12681890930794 252.38643693743634 105.38305589319125Q252.62240365281772 105.63929287707455 253.051717544679 105.63929287707455L253.051717544679 105.63929287707455Q253.31523103520402 105.63929287707455 253.51845347069766 105.59147583342899Q253.7216759061913 105.54313903930901 253.93997110544282 105.44906420344111L253.93997110544282 105.44906420344111L253.93997110544282 105.81964629169424Q253.72895241283305 105.91372112756214 253.52209172401854 105.95686041693804Q253.31523103520402 105.99999970631393 253.0335262780747 105.99999970631393L253.0335262780747 105.99999970631393Q252.6327986623059 105.99999970631393 252.3344618899955 105.8362783068753Q252.03612511768515 105.67255690743669 251.8713642172977 105.3549893675732Q251.70660331691028 105.03794157818413 251.70660331691028 104.57848215880718L251.70660331691028 104.57848215880718Q251.70660331691028 104.12941774891839 251.85733095448867 103.80093544909232Q252.0085783425415 103.47193339879186 252.2840460939779 103.29469848701862Q252.55899409493992 103.11694382477097 252.9321749355651 103.11694382477097ZM252.926977430821 103.4620581397781L252.926977430821 103.4620581397781Q252.58965937293002 103.4620581397781 252.3890356898084 103.68295209140163Q252.18841200668678 103.90332629255076 252.15047022205496 104.29937615404991L252.15047022205496 104.29937615404991L253.62240356557933 104.29937615404991Q253.61980481320728 104.05093542728272 253.5449607448925 103.8617462545981Q253.4701166765777 103.67255708191347 253.31782978757604 103.56704773560858Q253.16554289857442 103.4620581397781 252.926977430821 103.4620581397781ZM256.0434012753733 103.11694382477097L256.0434012753733 103.11694382477097Q256.12760085222743 103.11694382477097 256.21855718524887 103.12577958283592Q256.31003326874475 103.13461534090085 256.3812390837387 103.1496881046587L256.3812390837387 103.1496881046587L256.32770478487464 103.54054046141376Q256.25909772225276 103.52286894528388 256.175417895873 103.51247393579571Q256.09173806949326 103.50259867678194 256.0184532526017 103.50259867678194L256.0184532526017 103.50259867678194Q255.8505738493678 103.50259867678194 255.70244496416143 103.56964648798062Q255.55379632848064 103.6372140496537 255.44204997648285 103.76247391398611Q255.33030362448508 103.88825352879292 255.26689406660725 104.06496869009175Q255.20348450872945 104.24116410091617 255.20348450872945 104.45686054779563L255.20348450872945 104.45686054779563L255.20348450872945 105.94906415982192L254.77988787208668 105.94906415982192L254.77988787208668 103.16735962078857L255.13019969183787 103.16735962078857L255.1759377335858 103.6803533390296L255.19360924971568 103.6803533390296Q255.27988782846745 103.52546769765591 255.401509439479 103.39708933047706Q255.52313105049058 103.26923071377261 255.68477344803156 103.1928273940346Q255.8458960950981 103.11694382477097 256.0434012753733 103.11694382477097ZM258.3173096009097 102.23856552302091L259.28716398615563 102.23856552302091Q260.0054591417879 102.23856552302091 260.336540193986 102.51923077920141Q260.6676212461841 102.7993762849075 260.6676212461841 103.32224526216226L260.6676212461841 103.32224526216226Q260.6676212461841 103.55821197754364 260.5901784254973 103.77027017110223Q260.5127356048105 103.98232836466083 260.34017844730687 104.14345101172741Q260.1676212898033 104.30457365879398 259.8869560336228 104.39708924323867Q259.60681052791676 104.48960482768335 259.20088540740386 104.48960482768335L259.20088540740386 104.48960482768335L258.749222245143 104.48960482768335L258.749222245143 105.94906415982192L258.3173096009097 105.94906415982192L258.3173096009097 102.23856552302091ZM259.2466234491518 102.606548858902L259.2466234491518 102.606548858902L258.749222245143 102.606548858902L258.749222245143 104.11902273943022L259.15254861328384 104.11902273943022Q259.50753818730476 104.11902273943022 259.74506415410934 104.0431391701666Q259.982590120914 103.96725560090299 260.10161297955347 103.79573794434825Q260.2211555886674 103.62422028779349 260.2211555886674 103.33991677829215L260.2211555886674 103.33991677829215Q260.2211555886674 102.96985444051342 259.98466912281157 102.78794177447051Q259.7487024074302 102.606548858902 259.2466234491518 102.606548858902ZM261.8043155337151 102.00000005526749L261.8043155337151 105.94906415982192L261.3807188970723 105.94906415982192L261.3807188970723 102.00000005526749L261.8043155337151 102.00000005526749ZM263.73310954424437 103.12214132951506L263.73310954424437 103.12214132951506Q264.23051074825315 103.12214132951506 264.47167496837864 103.34511428303622Q264.71283918850406 103.5686069870318 264.71283918850406 104.05821193392444L264.71283918850406 104.05821193392444L264.71283918850406 105.94906415982192L264.4056666581288 105.94906415982192L264.32458558412105 105.53794153456494L264.30431531561914 105.53794153456494Q264.18737145887724 105.69022842356657 264.0605523431216 105.79313901749941Q263.933733227366 105.89552986095785 263.76741307555534 105.9480246588731Q263.60109292374466 105.99999970631393 263.3604484540936 105.99999970631393L263.3604484540936 105.99999970631393Q263.10629047210796 105.99999970631393 262.9098247927816 105.9111223751901Q262.71283936298084 105.82224504406628 262.6000535100343 105.64189162944659Q262.48726765708767 105.4615382148269 262.48726765708767 105.18503096244169L262.48726765708767 105.18503096244169Q262.48726765708767 104.76871083244062 262.81730920833695 104.54573787891945Q263.1468310091118 104.32224517492386 263.8219868753682 104.30197490642195L263.8219868753682 104.30197490642195L264.3017165632471 104.28170463792001L264.3017165632471 104.1117462327885Q264.3017165632471 103.75103940354913 264.1468309218734 103.60654877166361Q263.99194528049975 103.4620581397781 263.71024052337043 103.4620581397781L263.71024052337043 103.4620581397781Q263.49194532411894 103.4620581397781 263.29444014384376 103.52546769765591Q263.0964152130942 103.58887725553373 262.91866055084654 103.6751558342855L262.91866055084654 103.6751558342855L262.7892426827189 103.35550929252439Q262.97687260398027 103.25883570428445 263.2206355764778 103.19022864166254Q263.4643985489753 103.12214132951506 263.73310954424437 103.12214132951506ZM264.296519058503 104.83471914269047L264.296519058503 104.57848215880718L263.8729224218602 104.59615367493706Q263.3526521969775 104.61694369391338 263.1395545024701 104.76663183054298Q262.92645680796267 104.91631996717258 262.92645680796267 105.19022846718576L262.92645680796267 105.19022846718576Q262.92645680796267 105.42879393493918 263.07094743984817 105.54313903930901Q263.21543807173373 105.65696439320443 263.45400353948713 105.65696439320443L263.45400353948713 105.65696439320443Q263.82458562774025 105.65696439320443 264.0605523431216 105.45166295581315Q264.296519058503 105.24584176794745 264.296519058503 104.83471914269047L264.296519058503 104.83471914269047ZM266.479471051018 105.6548853913068L266.479471051018 105.6548853913068Q266.5834211458996 105.6548853913068 266.69256874552536 105.63669412470252Q266.80171634515114 105.61902260857264 266.870323407773 105.59355483532661L266.870323407773 105.59355483532661L266.870323407773 105.92099763420386Q266.79651884040703 105.95426166456599 266.66554172085614 105.97713068543996Q266.53508435177963 105.99999970631393 266.41086398839604 105.99999970631393L266.41086398839604 105.99999970631393Q266.18997003677254 105.99999970631393 266.00961662215286 105.92255688562709Q265.82978295800757 105.84511406494025 265.7216748593306 105.65956314557648Q265.6140865111281 105.47453197668712 265.6140865111281 105.14708917780987L265.6140865111281 105.14708917780987L265.6140865111281 103.49740117203787L265.21803664962897 103.49740117203787L265.21803664962897 103.29209973464658L265.61616551302575 103.12681908378474L265.78404491625963 102.52286903252227L266.0376831477709 102.52286903252227L266.0376831477709 103.16735962078857L266.85213214116874 103.16735962078857L266.85213214116874 103.49740117203787L266.0376831477709 103.49740117203787L266.0376831477709 105.13461516642407Q266.0376831477709 105.39604965505146 266.1582652578336 105.52546752317913Q266.27884736789633 105.6548853913068 266.479471051018 105.6548853913068ZM268.5044188993128 103.11694382477097L268.5044188993128 103.11694382477097Q268.8599282238081 103.11694382477097 269.1135664553193 103.27442821851669Q269.3672046868306 103.43139286178801 269.50182005970237 103.71465687034055Q269.6364354325741 103.99740112841867 269.6364354325741 104.37577947378793L269.6364354325741 104.37577947378793L269.6364354325741 104.63721396241532L267.71491792868653 104.63721396241532Q267.72271418580266 105.12681890930794 267.95868090118404 105.38305589319125Q268.1946476165654 105.63929287707455 268.6239615084267 105.63929287707455L268.6239615084267 105.63929287707455Q268.8874749989517 105.63929287707455 269.09069743444536 105.59147583342899Q269.29391986993903 105.54313903930901 269.5122150691905 105.44906420344111L269.5122150691905 105.44906420344111L269.5122150691905 105.81964629169424Q269.3011963765807 105.91372112756214 269.0943356877662 105.95686041693804Q268.8874749989517 105.99999970631393 268.60577024182237 105.99999970631393L268.60577024182237 105.99999970631393Q268.20504262605357 105.99999970631393 267.90670585374323 105.8362783068753Q267.60836908143284 105.67255690743669 267.4436081810454 105.3549893675732Q267.27884728065794 105.03794157818413 267.27884728065794 104.57848215880718L267.27884728065794 104.57848215880718Q267.27884728065794 104.12941774891839 267.42957491823637 103.80093544909232Q267.5808223062892 103.47193339879186 267.8557703072512 103.29469848701862Q268.1312380586876 103.11694382477097 268.5044188993128 103.11694382477097ZM268.4992213945687 103.4620581397781L268.4992213945687 103.4620581397781Q268.1619033366777 103.4620581397781 267.96127965355606 103.68295209140163Q267.76065597043447 103.90332629255076 267.72271418580266 104.29937615404991L267.72271418580266 104.29937615404991L269.194647529327 104.29937615404991Q269.192048776955 104.05093542728272 269.1172047086402 103.8617462545981Q269.0423606403254 103.67255708191347 268.89007375132377 103.56704773560858Q268.73778686232214 103.4620581397781 268.4992213945687 103.4620581397781ZM272.15150797823594 105.18762971481372L272.15150797823594 105.18762971481372Q272.15150797823594 105.45426170818519 272.017932106313 105.6356546237537Q271.8848759848645 105.8170475393222 271.63747475904614 105.90852362281807Q271.3900735332278 105.99999970631393 271.04755797059266 105.99999970631393L271.04755797059266 105.99999970631393Q270.7554582039752 105.99999970631393 270.5423605094678 105.95426166456599Q270.3292628149604 105.90852362281807 270.1691796688426 105.82484379643833L270.1691796688426 105.82484379643833L270.1691796688426 105.4365901920553Q270.33913807397414 105.52027001843504 270.5751047893555 105.58887708105695Q270.8115912552113 105.65696439320443 271.05743322960643 105.65696439320443L271.05743322960643 105.65696439320443Q271.41814005884584 105.65696439320443 271.58030220686123 105.54054028693697Q271.742984105351 105.4235964301951 271.742984105351 105.2234924975479L271.742984105351 105.2234924975479Q271.742984105351 105.10914739317806 271.67801529605 105.02130956300306Q271.61304648674894 104.93399148330246 271.4612793482217 104.85135115787153Q271.30899245922006 104.76871083244062 271.03976171347654 104.66995824230304L271.03976171347654 104.66995824230304Q270.7731297201051 104.56860689979341 270.5792627931508 104.46829505823261Q270.3848761157221 104.3679832166718 270.2798865198916 104.22349258478629Q270.1743771735867 104.07848220242637 270.1743771735867 103.84771299178907L270.1743771735867 103.84771299178907Q270.1743771735867 103.49480241966582 270.4597201840369 103.3061329974556Q270.7455829449615 103.11694382477097 271.20972011860806 103.11694382477097L271.20972011860806 103.11694382477097Q271.4612793482217 103.11694382477097 271.680614048422 103.16632011983977Q271.89994874862236 103.21569641490855 272.0901774222558 103.2993762412883L272.0901774222558 103.2993762412883L271.9482855427423 103.6372140496537Q271.7757283852387 103.56340948228772 271.58030220686123 103.51247393579571Q271.3848760284837 103.4620581397781 271.18165359299 103.4620581397781L271.18165359299 103.4620581397781Q270.890073576847 103.4620581397781 270.73414843452446 103.55821197754364Q270.5777035417276 103.65488556578359 270.5777035417276 103.82224521854306L270.5777035417276 103.82224521854306Q270.5777035417276 103.95166308667073 270.6499488576703 104.03534291305047Q270.7227139240875 104.11902273943022 270.88227731973086 104.1928273067962Q271.0423604658486 104.26663187416217 271.303794954476 104.36538446429977L271.303794954476 104.36538446429977Q271.56522944310336 104.4620580525397 271.7554581167368 104.56444889599814Q271.94568679037025 104.66735948993099 272.0485973843031 104.81340937323974Q272.15150797823594 104.95945925654847 272.15150797823594 105.18762971481372ZM276.33601904769733 104.96205800892051L276.33601904769733 104.96205800892051Q276.33601904769733 105.29157980969539 276.17229764825873 105.5239082717559Q276.0090959992945 105.75623673381642 275.714397480305 105.87785834482797Q275.42021871178986 105.99999970631393 275.0215700979187 105.99999970631393L275.0215700979187 105.99999970631393Q274.81107115578334 105.99999970631393 274.6234412345219 105.979729437812Q274.4352915627861 105.95945916931008 274.2778071690404 105.92099763420386Q274.1208425257691 105.88305584957206 274.00129991665517 105.82744254881037L274.00129991665517 105.82744254881037L274.00129991665517 105.41372117118134Q274.1915285902886 105.492203492817 274.46595684077624 105.55925130401567Q274.7398653407894 105.62681886568875 275.0392416140486 105.62681886568875L275.0392416140486 105.62681886568875Q275.31834761880583 105.62681886568875 275.51117504481135 105.55197479737396Q275.70452222129126 105.47713072905916 275.80431431237764 105.3362783504945Q275.9046261539384 105.19542597192985 275.9046261539384 104.99740104118028L275.9046261539384 104.99740104118028Q275.9046261539384 104.80717236754683 275.8209463275587 104.67879400036797Q275.73726650117896 104.55093538366353 275.5433995742247 104.44542603735864Q275.34901289679595 104.33991669105376 275.01377384080257 104.22089383241425L275.01377384080257 104.22089383241425Q274.7778071254212 104.13721400603451 274.59797346127596 104.0369021644737Q274.4176200466562 103.93659032291289 274.2959984356447 103.80977120715727Q274.1738570741587 103.68295209140163 274.11200676770414 103.51507268816775Q274.04963671077513 103.34771303540826 274.04963671077513 103.13201658852881L274.04963671077513 103.13201658852881Q274.04963671077513 102.83523906764167 274.20088409882794 102.62318087408308Q274.35161173640637 102.41112268052447 274.61928323072664 102.29833682757787Q274.88695472504696 102.18555097463127 275.23466779242614 102.18555097463127L275.23466779242614 102.18555097463127Q275.53196506378765 102.18555097463127 275.7840440438757 102.24116427539295Q276.0366427744382 102.29729732662905 276.2476614670479 102.39085241202255L276.2476614670479 102.39085241202255L276.1130460941762 102.76143450027568Q275.9124224110546 102.67775467389595 275.6878902061102 102.62214137313426Q275.4633580011658 102.56600832189815 275.22479253341237 102.56600832189815L275.22479253341237 102.56600832189815Q274.98622706565897 102.56600832189815 274.8225056662203 102.63565488546887Q274.6587842667817 102.70582119951399 274.57250568802993 102.83264031526963Q274.48622710927816 102.95945943102525 274.48622710927816 103.13461534090085L274.48622710927816 103.13461534090085Q274.48622710927816 103.33004151927838 274.5688674347091 103.45945938740606Q274.6509880096656 103.58887725553373 274.8323809252341 103.68918909709454Q275.01377384080257 103.78950093865534 275.31366986453617 103.8986485382811L275.31366986453617 103.8986485382811Q275.6411126634134 104.01767139692059 275.8692831216787 104.15124726884353Q276.09745357994393 104.28430339029207 276.21699618905785 104.47609131534873Q276.33601904769733 104.66735948993099 276.33601904769733 104.96205800892051ZM280.8562889236265 102.23856552302091L281.30795208588734 102.23856552302091L280.31574843024185 105.94906415982192L279.8817567841109 105.94906415982192L279.1457901123487 103.45166313028993Q279.1125260819866 103.34511428303622 279.0834200554197 103.2375259348337Q279.05431402885284 103.12941783615678 279.0288462556069 103.031704746968Q279.00337848236086 102.93399165777925 278.9872662176542 102.85914758946444Q278.9706342024731 102.78430352114965 278.962837945357 102.74636173651784L278.962837945357 102.74636173651784Q278.9576404406129 102.78430352114965 278.94360717780387 102.85810808851564Q278.93009366546926 102.93139290540721 278.90826414554414 103.02806649364715Q278.8869543760934 103.12422033141269 278.8573285990521 103.23336793103844Q278.82822257248523 103.34251553066419 278.7954782925975 103.45426188266197L278.7954782925975 103.45426188266197L278.07978188933726 105.94906415982192L277.6457902432063 105.94906415982192L276.66086309420257 102.23856552302091L277.11044725456577 102.23856552302091L277.70660104871206 104.56600814742137Q277.7372663267022 104.68243225368883 277.763773600897 104.79573785710986Q277.7902808750918 104.90852371005646 277.812110395017 105.01507255731016Q277.8334201644677 105.12162140456387 277.8510916805976 105.2234924975479Q277.8692829472019 105.32484384005753 277.88435571095977 105.42099767782305L277.88435571095977 105.42099767782305Q277.89682972234556 105.32224508768547 277.9170999908475 105.21413698900855Q277.9373702593494 105.10654864080603 277.9617985316466 104.99480228880823Q277.98570705346935 104.88305593681045 278.0148130800362 104.76871083244062Q278.04443885707747 104.6548854785452 278.07718313696523 104.54054037417536L278.07718313696523 104.54054037417536L278.7445427461055 102.23856552302091L279.18892940172464 102.23856552302091L279.884355536483 104.55821189030524Q279.9196985687427 104.67775449941917 279.9503638467328 104.79417860568662Q279.98050937424847 104.9111224624285 280.00493764654567 105.02130956300306Q280.0288461683685 105.13201641405203 280.0480769359216 105.23232825561284Q280.06678795300024 105.33212034669924 280.0818607167581 105.42099767782305L280.0818607167581 105.42099767782305Q280.1000519833624 105.29677731443947 280.125000006134 105.15956318919568Q280.15046777938 105.02286881442629 280.18477131069096 104.87318067779668Q280.21907484200193 104.72349254116709 280.25961537900577 104.56340939504933L280.25961537900577 104.56340939504933L280.8562889236265 102.23856552302091ZM283.2086795707986 102.23856552302091L283.2086795707986 105.94906415982192L282.7975569455416 105.94906415982192L282.7975569455416 103.31964650979022Q282.7975569455416 103.16995837316063 282.7985964464904 103.0623700249581Q282.8001556979136 102.95426192628116 282.80379395123447 102.86434509420853Q282.80795195502975 102.77442826213588 282.8152284616715 102.68035342626798L282.8152284616715 102.68035342626798Q282.7367461400358 102.76143450027568 282.6681390774139 102.81860705246059Q282.59953201479203 102.87577960464552 282.4981806722824 102.95945943102525L282.4981806722824 102.95945943102525L282.0740642851652 103.2993762412883L281.8536900840161 103.0129937298893L282.85836775104735 102.23856552302091L283.2086795707986 102.23856552302091ZM287.63747336323183 105.94906415982192L287.1904879552407 105.94906415982192L286.73362728823577 104.77130958481266L285.2466211809536 104.77130958481266L284.7923592663207 105.94906415982192L284.35576886781774 105.94906415982192L285.8074319428402 102.22349275926307L286.1956855472232 102.22349275926307L287.63747336323183 105.94906415982192ZM285.3911118128391 104.38825348517372L286.60420942010813 104.38825348517372L286.1702177739772 103.2182951672806Q286.15514501021937 103.17255712553266 286.1208414789084 103.068607030651Q286.08653794759744 102.96465693576934 286.05119491533765 102.85291058377155Q286.0153321326035 102.74116423177375 285.9929828622039 102.67255716915186L285.9929828622039 102.67255716915186Q285.96751508895795 102.77650726403353 285.9384090623911 102.87941785796637Q285.9087832853498 102.98232845189922 285.8812365102061 103.06964653159982Q285.85316998458813 103.15748436177482 285.8328997160862 103.2182951672806L285.8328997160862 103.2182951672806L285.3911118128391 104.38825348517372ZM291.6800925531798 105.56340930781094L291.6800925531798 105.94906415982192L289.24869983389766 105.94906415982192L289.24869983389766 105.59615358769867L290.24090348954314 104.58887716829534Q290.5179304924028 104.30977116353807 290.706599914613 104.09147596428657Q290.89578908729766 103.87318076503509 290.9950614279096 103.66112257147648Q291.09381401804717 103.44906437791789 291.09381401804717 103.19542614640663L291.09381401804717 103.19542614640663Q291.09381401804717 102.88097710938959 290.9072235977346 102.71465695757894Q290.72063317742203 102.54833680576827 290.4160593994187 102.54833680576827L290.4160593994187 102.54833680576827Q290.1499471565217 102.54833680576827 289.944125968656 102.63981288926414Q289.7388245312647 102.73128897276 289.52312808438523 102.89864862551948L289.52312808438523 102.89864862551948L289.2970366280176 102.61434511601813Q289.4441260122752 102.49012475263454 289.61824242120196 102.39345116439459Q289.7918390796543 102.29729732662905 289.9909035113527 102.24116427539295Q290.19048769352554 102.18555097463127 290.4160593994187 102.18555097463127L290.4160593994187 102.18555097463127Q290.75857496205384 102.18555097463127 291.00753543929545 102.30457383327077Q291.2559761660626 102.42411644238469 291.39215079035756 102.64501039400822Q291.5278056641781 102.86538459515735 291.5278056641781 103.16995837316063L291.5278056641781 103.16995837316063Q291.5278056641781 103.46465689215015 291.4108618074363 103.71725562271259Q291.2944377011688 103.96933460280061 291.083419008559 104.21673582861898Q290.87292006642366 104.46465680491175 290.59121530929434 104.74116405729697L290.59121530929434 104.74116405729697L289.78404282253825 105.54573779168105L289.78404282253825 105.56340930781094L291.6800925531798 105.56340930781094ZM295.24558080762085 105.94906415982192L294.7991151501041 105.94906415982192L294.34225448309917 104.77130958481266L292.855248375817 104.77130958481266L292.4009864611841 105.94906415982192L291.96439606268115 105.94906415982192L293.41605913770354 102.22349275926307L293.8043127420866 102.22349275926307L295.24558080762085 105.94906415982192ZM292.9997390077025 104.38825348517372L294.21283661497154 104.38825348517372L293.7788449688406 103.2182951672806Q293.7637722050828 103.17255712553266 293.7294686737718 103.068607030651Q293.69516514246084 102.96465693576934 293.65930235972667 102.85291058377155Q293.6239593274669 102.74116423177375 293.60109030659294 102.67255716915186L293.60109030659294 102.67255716915186Q293.5756225333469 102.77650726403353 293.54651650678005 102.87941785796637Q293.5174104802132 102.98232845189922 293.48934395459514 103.06964653159982Q293.46179717945154 103.15748436177482 293.4415269109496 103.2182951672806L293.4415269109496 103.2182951672806L292.9997390077025 104.38825348517372ZM298.53196305730467 105.94906415982192L298.0854973997879 105.94906415982192L297.628636732783 104.77130958481266L296.1416306255008 104.77130958481266L295.68736871086793 105.94906415982192L295.25077831236496 105.94906415982192L296.70244138738735 102.22349275926307L297.0906949917704 102.22349275926307L298.53196305730467 105.94906415982192ZM296.2861212573863 104.38825348517372L297.49921886465535 104.38825348517372L297.0652272185244 103.2182951672806Q297.0501544547666 103.17255712553266 297.0158509234556 103.068607030651Q296.98154739214465 102.96465693576934 296.94620435988486 102.85291058377155Q296.9103415771507 102.74116423177375 296.88747255627675 102.67255716915186L296.88747255627675 102.67255716915186Q296.86252453350517 102.77650726403353 296.83289875646386 102.87941785796637Q296.803792729897 102.98232845189922 296.77624595475334 103.06964653159982Q296.74817942913535 103.15748436177482 296.7279091606334 103.2182951672806L296.7279091606334 103.2182951672806L296.2861212573863 104.38825348517372Z " id="BottomLineText" fill="black"></path><path d="M480.2939144358394 100.95993979372685L479.94277671223466 100.95993979372685L479.58346348866246 100.03365564740757L478.41395821830963 100.03365564740757L478.0566888697293 100.95993979372685L477.71331787109375 100.95993979372685L478.855026441557 98.02984060537001L479.16038136534365 98.02984060537001L480.2939144358394 100.95993979372685ZM478.5275976678581 99.73238847360469L479.4816785140669 99.73238847360469L479.14035139042323 98.81223595226105Q479.12849691547035 98.77626375240399 479.1015177655775 98.69450875272885Q479.07453861568473 98.61275375305372 479.0467419157952 98.52486712840295Q479.01853644090727 98.43698050375218 479.00055034097875 98.38302220396659L479.00055034097875 98.38302220396659Q478.9809291410567 98.46477720364173 478.9576289661493 98.5457146533201Q478.93473756624024 98.62665210299849 478.9130724913264 98.6953263027256Q478.89099864141406 98.7644092774511 478.87505641647743 98.81223595226105L478.87505641647743 98.81223595226105L478.5275976678581 99.73238847360469ZM481.5235096309534 100.99999974356766L481.5235096309534 100.99999974356766Q481.22837408212615 100.99999974356766 481.0027302830228 100.8781847940517Q480.77708648391945 100.75636984453575 480.6515925594181 100.50701709552659Q480.5256898599184 100.25725557151905 480.5256898599184 99.87832114802481L480.5256898599184 99.87832114802481Q480.5256898599184 99.48099184960365 480.6585417343905 99.22836890060749Q480.7909848338642 98.97574595161132 481.02480413293506 98.85433977709374Q481.2582146570076 98.73252482757779 481.5553940808267 98.73252482757779L481.5553940808267 98.73252482757779Q481.71931285517536 98.73252482757779 481.87178592956946 98.76522682744785Q482.024667778962 98.79833760231628 482.12236500357375 98.8482081521181L482.12236500357375 98.8482081521181L482.0226239039701 99.12576637601519Q481.92288280436645 99.08570642617438 481.7920748048862 99.05382197630108Q481.661266805406 99.02193752642778 481.54762735585757 99.02193752642778L481.54762735585757 99.02193752642778Q481.3199396817623 99.02193752642778 481.16951048236007 99.11963475103956Q481.0186725079594 99.21733197565135 480.9438666832567 99.40700357489766Q480.86906085855395 99.59667517414397 480.86906085855395 99.87423339804106L480.86906085855395 99.87423339804106Q480.86906085855395 100.13952837198687 480.9418228082648 100.3271560962413Q481.0145847579757 100.51478382049574 481.1592911074007 100.61370737010265Q481.3039974568257 100.71263091970955 481.5214657559615 100.71263091970955L481.5214657559615 100.71263091970955Q481.6951951302712 100.71263091970955 481.8349961797157 100.67543239485737Q481.9747972291602 100.63864264500356 482.0884366787086 100.58877209520173L482.0884366787086 100.58877209520173L482.0884366787086 100.88390764402897Q481.9788849791439 100.93990981880643 481.84398922967995 100.96975039368786Q481.709093480216 100.99999974356766 481.5235096309534 100.99999974356766ZM484.98051979221646 98.73252482757779L484.98051979221646 98.73252482757779Q485.34187689078055 98.73252482757779 485.5254168650513 98.92097010182898Q485.7093656143203 99.10982415107854 485.7093656143203 99.52677464942172L485.7093656143203 99.52677464942172L485.7093656143203 100.95993979372685L485.3819368406214 100.95993979372685L485.3819368406214 99.54271687435838Q485.3819368406214 99.27742190041256 485.26707106607785 99.14457002594047Q485.15220529153424 99.01171815146839 484.9265614924309 99.01171815146839L484.9265614924309 99.01171815146839Q484.60935209369137 99.01171815146839 484.46587206926154 99.19566690073744Q484.32198326983325 99.37920687500811 484.32198326983325 99.73647622358845L484.32198326983325 99.73647622358845L484.32198326983325 100.95993979372685L483.99251062114246 100.95993979372685L483.99251062114246 99.54271687435838Q483.99251062114246 99.36530852506334 483.9418225213439 99.24758132553114Q483.8907256465469 99.12944535100057 483.79016699694654 99.07058175123447Q483.6891995723477 99.01171815146839 483.53550017295845 99.01171815146839L483.53550017295845 99.01171815146839Q483.31803187382263 99.01171815146839 483.1864063243456 99.10164865111103Q483.0543719998703 99.19157915075368 482.9955084001042 99.36816995005196Q482.9366448003381 99.54476074935026 482.9366448003381 99.80228899832693L482.9366448003381 99.80228899832693L482.9366448003381 100.95993979372685L482.6055370516538 100.95993979372685L482.6055370516538 98.77217600242024L482.8728759005915 98.77217600242024L482.92274645039333 99.08161867619062L482.94073255032185 99.08161867619062Q483.00654532506036 98.96797922664219 483.106286424664 98.8903119769508Q483.20643629926604 98.81223595226105 483.3298863487755 98.77217600242024Q483.4537451732833 98.73252482757779 483.5935462227278 98.73252482757779L483.5935462227278 98.73252482757779Q483.842898971737 98.73252482757779 484.01172304606615 98.82531675220908Q484.1801383453969 98.91810867684035 484.2561704950948 99.10778027608666L484.2561704950948 99.10778027608666L484.2741565950233 99.10778027608666Q484.3816644195961 98.91810867684035 484.56929214385053 98.82531675220908Q484.756919868105 98.73252482757779 484.98051979221646 98.73252482757779ZM487.2320524832697 98.73252482757779L487.2320524832697 98.73252482757779Q487.51165458215866 98.73252482757779 487.711136781366 98.85638365208563Q487.9106189805733 98.97983370159508 488.0164917051526 99.20261607570981Q488.12236442973193 99.42498967482618 488.12236442973193 99.72257787364367L488.12236442973193 99.72257787364367L488.12236442973193 99.92819169782663L486.6115320357354 99.92819169782663Q486.61725488571267 100.31325774629653 486.80283873497524 100.51478382049574Q486.9884225842378 100.71630989469494 487.3260707328961 100.71630989469494L487.3260707328961 100.71630989469494Q487.5333196570726 100.71630989469494 487.69315068143743 100.67870259484438Q487.85298170580234 100.64068651999544 488.0246672051201 100.56669824528944L488.0246672051201 100.56669824528944L488.0246672051201 100.8581548191313Q487.8587045557796 100.9321430938373 487.6960121064261 100.96607141870248Q487.5333196570726 100.99999974356766 487.31176360795297 100.99999974356766L487.31176360795297 100.99999974356766Q486.9965980842053 100.99999974356766 486.7619612351377 100.87123561907931Q486.5277331610684 100.74247149459099 486.39774271158495 100.49270997058345Q486.26816103709984 100.24335722157429 486.26816103709984 99.88200012301019L486.26816103709984 99.88200012301019Q486.26816103709984 99.52881852441361 486.3867057866288 99.27047272544019Q486.50565931115614 99.01171815146839 486.72231006029523 98.87232587702228Q486.938552034436 98.73252482757779 487.2320524832697 98.73252482757779ZM487.22796473328594 99.00395142649924L487.22796473328594 99.00395142649924Q486.96266975934014 99.00395142649924 486.80488260996714 99.1776808008089Q486.64709546059413 99.35100140012018 486.61725488571267 99.66248794888246L486.61725488571267 99.66248794888246L487.7749056811126 99.66248794888246Q487.7728618061207 99.46709349965889 487.71399820635463 99.31829940025014Q487.65513460658855 99.1695053008414 487.5353635320644 99.08652397617112Q487.41559245754036 99.00395142649924 487.22796473328594 99.00395142649924ZM489.797115598077 100.95993979372685L489.797115598077 98.04169508032291L490.6232498697943 98.04169508032291Q491.17019081762095 98.04169508032291 491.4457051665261 98.20561385467155Q491.72121951543136 98.36912385402182 491.72121951543136 98.76236540245922L491.72121951543136 98.76236540245922Q491.72121951543136 98.93200702678513 491.65622429068964 99.0669027762491Q491.59122906594786 99.2013897507147 491.46737024144005 99.28927637536546Q491.3439201919306 99.37716300001622 491.1620153176534 99.41109132488141L491.1620153176534 99.41109132488141L491.1620153176534 99.43112129980182Q491.3537307918916 99.46096187468325 491.50129856630525 99.5406729993665Q491.6492751157172 99.62079289904813 491.73307399038424 99.76427292347799Q491.81687286505127 99.90816172290623 491.81687286505127 100.12971777202584L491.81687286505127 100.12971777202584Q491.81687286505127 100.39910049595542 491.6921964905467 100.58468434521798Q491.5675201160421 100.77026819448052 491.33983244194684 100.86510399410369Q491.1121447678516 100.95993979372685 490.8010669940877 100.95993979372685L490.8010669940877 100.95993979372685L489.797115598077 100.95993979372685ZM490.13639884672887 98.33110777917288L490.13639884672887 99.29336412534921L490.6951942695084 99.29336412534921Q491.07617256799455 99.29336412534921 491.2229227924114 99.16746142584951Q491.36967301682824 99.04196750134818 491.36967301682824 98.80038147730815L491.36967301682824 98.80038147730815Q491.36967301682824 98.55061995330063 491.19512609252183 98.44106825373593Q491.0205791682154 98.33110777917288 490.63919209473096 98.33110777917288L490.63919209473096 98.33110777917288L490.13639884672887 98.33110777917288ZM490.71318036943694 99.57868907421543L490.13639884672887 99.57868907421543L490.13639884672887 100.67052709487686L490.74302094431835 100.67052709487686Q491.132174742772 100.67052709487686 491.29404964212875 100.51764524548436Q491.45551576648717 100.36517217109024 491.45551576648717 100.10560004712168L491.45551576648717 100.10560004712168Q491.45551576648717 99.94004617277953 491.3827538167763 99.82231897324733Q491.30999186706543 99.70459177371515 491.1472994177119 99.6416404239653Q490.9846069683584 99.57868907421543 490.71318036943694 99.57868907421543L490.71318036943694 99.57868907421543ZM494.0843477810411 100.18367607181143L494.0843477810411 100.18367607181143Q494.0843477810411 100.44283942078161 493.9555836565528 100.62556184505554Q493.82681953206446 100.80828426932946 493.5954528829838 100.90393761894937Q493.3636774589048 100.99999974356766 493.05055581014904 100.99999974356766L493.05055581014904 100.99999974356766Q492.8845931608085 100.99999974356766 492.7370253863949 100.984057518631Q492.5894576119813 100.96811529369435 492.4655987874734 100.93786594381456Q492.3417399629656 100.90802536893312 492.2481304883376 100.86428644410694L492.2481304883376 100.86428644410694L492.2481304883376 100.5389015453999Q492.3977421377431 100.60062657015463 492.61316656188706 100.65335854494509Q492.8289997610294 100.70649929473393 493.0644541600938 100.70649929473393L493.0644541600938 100.70649929473393Q493.28396633422153 100.70649929473393 493.4356218586189 100.64763569496783Q493.5872773830163 100.58877209520173 493.66617095770283 100.47799407064193Q493.74506453238934 100.36721604608212 493.74506453238934 100.21147277170098L493.74506453238934 100.21147277170098Q493.74506453238934 100.06186112229548 493.67925175765083 99.96089369769669Q493.613030207914 99.86033504809627 493.46055713351984 99.77735372342602Q493.30767528412736 99.69437239875576 493.0444241851734 99.60076292412772L493.0444241851734 99.60076292412772Q492.8588403359108 99.53495014938925 492.7169954114745 99.45605657470274Q492.5751504870381 99.37716300001622 492.4794971374182 99.27742190041256Q492.3838437877983 99.1776808008089 492.33479078799326 99.04564647633356Q492.28573778818816 98.9140209268566 492.28573778818816 98.74437930253069L492.28573778818816 98.74437930253069Q492.28573778818816 98.51096877845818 492.4046913127155 98.34418857912091Q492.52323606224445 98.17740837978363 492.7341639614063 98.08870420513611Q492.94468308556975 98.0000000304886 493.2181535594831 98.0000000304886L493.2181535594831 98.0000000304886Q493.4515640835556 98.0000000304886 493.65022873276615 98.04373895531478Q493.8488933819767 98.08788665513936 494.0144472563189 98.16146615484698L494.0144472563189 98.16146615484698L493.9085745317396 98.45292272868883Q493.7507873823666 98.38710995395034 493.5741965830683 98.34337102912416Q493.39760578376996 98.29922332929958 493.20997805951555 98.29922332929958L493.20997805951555 98.29922332929958Q493.02235033526114 98.29922332929958 492.8935862107728 98.35399917908192Q492.7648220862844 98.40918380386263 492.6969654365541 98.5089249034663Q492.62910878682374 98.60866600306997 492.62910878682374 98.74642317752257L492.62910878682374 98.74642317752257Q492.62910878682374 98.90012257691183 492.69410401156546 99.00190755150736Q492.7590992363072 99.1036925261029 492.9017617107403 99.18258610078941Q493.0444241851734 99.26147967547591 493.2798785842378 99.3473224251348L493.2798785842378 99.3473224251348Q493.53740683321445 99.44093189976283 493.7168590575014 99.54598707434539Q493.8967200567867 99.65063347392956 493.9903295314147 99.80147144833018Q494.0843477810411 99.95190064773243 494.0843477810411 100.18367607181143ZM496.8607475700087 100.95993979372685L496.50920107140564 100.95993979372685L496.1502966228318 100.03365564740757L494.9803825774806 100.03365564740757L494.62311322890025 100.95993979372685L494.2797422302647 100.95993979372685L495.42145080072794 98.02984060537001L495.7268057245146 98.02984060537001L496.8607475700087 100.95993979372685ZM495.09443080202743 99.73238847360469L496.04851164823623 99.73238847360469L495.70718452459255 98.81223595226105Q495.6949212746413 98.77626375240399 495.6679421247485 98.69450875272885Q495.6409629748557 98.61275375305372 495.61316627496615 98.52486712840295Q495.5853695750766 98.43698050375218 495.56738347514806 98.38302220396659L495.56738347514806 98.38302220396659Q495.54735350022764 98.46477720364173 495.5244621003186 98.5457146533201Q495.50157070040956 98.62665210299849 495.4794968504973 98.6953263027256Q495.457423000585 98.7644092774511 495.44148077564836 98.81223595226105L495.44148077564836 98.81223595226105L495.09443080202743 99.73238847360469ZM499.1339453359758 98.04169508032291L499.4715934846341 98.04169508032291L499.4715934846341 99.92982679782014Q499.4715934846341 100.23926947159053 499.34650833513115 100.48085549563055Q499.2218319606266 100.72244151967058 498.97043533662554 100.86101624411992Q498.7190387126245 100.99999974356766 498.3396955141319 100.99999974356766L498.3396955141319 100.99999974356766Q497.79888619128087 100.99999974356766 497.5164226674033 100.70649929473393Q497.2339591435257 100.41299884590019 497.2339591435257 99.92206007285101L497.2339591435257 99.92206007285101L497.2339591435257 98.04169508032291L497.57528626716936 98.04169508032291L497.57528626716936 99.93187067281202Q497.57528626716936 100.30344714633551 497.7719070413881 100.50497322053472Q497.96852781560676 100.70649929473393 498.35972548905227 100.70649929473393L498.35972548905227 100.70649929473393Q498.62706433798996 100.70649929473393 498.797932287311 100.60961962011889Q498.9683914616337 100.51273994550385 499.05137278630394 100.33819302119744Q499.1339453359758 100.16364609689103 499.1339453359758 99.9339145478039L499.1339453359758 99.9339145478039L499.1339453359758 98.04169508032291ZM502.3416027482297 98.04169508032291L502.3416027482297 100.95993979372685L502.01826172451456 100.95993979372685L502.01826172451456 98.8919470769443Q502.01826172451456 98.77421987741211 502.01907927451134 98.68960345274834Q502.02030559950646 98.6045782530862 502.0231670244951 98.53386017836722Q502.0264372244821 98.46314210364822 502.03216007445934 98.38915382894223L502.03216007445934 98.38915382894223Q501.97043504970463 98.45292272868883 501.916476749919 98.49788797851016Q501.86251845013345 98.54285322833148 501.78280732545016 98.60866600306997L501.78280732545016 98.60866600306997L501.44924692677563 98.87600485200765L501.27592632746433 98.65076982790266L502.06608839932454 98.04169508032291L502.3416027482297 98.04169508032291ZM505.5030685856672 99.98378509760573L505.5030685856672 100.2834171714151L505.0660881124036 100.2834171714151L505.0660881124036 100.95993979372685L504.7427470886885 100.95993979372685L504.7427470886885 100.2834171714151L503.3316557942956 100.2834171714151L503.3316557942956 100.00381507252614L504.72067323877616 98.02575285538626L505.0660881124036 98.02575285538626L505.0660881124036 99.98378509760573L505.5030685856672 99.98378509760573ZM503.6611284429864 99.98378509760573L504.7427470886885 99.98378509760573L504.7427470886885 99.02970425139691Q504.7427470886885 98.92015255183223 504.7447909636803 98.83103960218634Q504.7468348386722 98.7423354275388 504.75092258865595 98.66548572784419Q504.75460156364136 98.58863602814955 504.7578717636284 98.51873550342732Q504.760733188617 98.44883497870508 504.76277706360884 98.38097832897472L504.76277706360884 98.38097832897472L504.7468348386722 98.38097832897472Q504.7088187638233 98.46109822865634 504.6597657640182 98.54980240330387Q504.61112153921147 98.63850657795139 504.56125098940964 98.70840710267363L504.56125098940964 98.70840710267363L503.6611284429864 99.98378509760573ZM506.7048670808917 99.17563692581703L506.7048670808917 99.17563692581703Q507.0020465047108 99.17563692581703 507.2219674538369 99.27619557541745Q507.44147962796467 99.37716300001622 507.56206825248546 99.56887847425442Q507.6826568770063 99.76018517349424 507.6826568770063 100.03365564740757L507.6826568770063 100.03365564740757Q507.6826568770063 100.33328772121693 507.5530752025212 100.54993847035604Q507.4234935280361 100.76618044449677 507.1798636290042 100.88309009403221Q506.9362337299723 100.99999974356766 506.5969504813205 100.99999974356766L506.5969504813205 100.99999974356766Q506.36967158222365 100.99999974356766 506.1738683580017 100.95993979372685Q505.97847390877814 100.91987984388602 505.8443957093109 100.84016871920277L505.8443957093109 100.84016871920277L505.8443957093109 100.52500319545513Q505.990328383731 100.61248104510751 506.19798608290586 100.66439546990122Q506.4052350070823 100.71630989469494 506.60103823130424 100.71630989469494L506.60103823130424 100.71630989469494Q506.82259428042386 100.71630989469494 506.9893744797612 100.64559181997595Q507.15574590410006 100.57487374525695 507.24853782873134 100.43016739583197Q507.34132975336263 100.28546104640698 507.34132975336263 100.06554009728087L507.34132975336263 100.06554009728087Q507.34132975336263 99.77449229843738 507.1626950790724 99.61547882406926Q506.98406040478227 99.45687412469948 506.5989943563124 99.45687412469948L506.5989943563124 99.45687412469948Q506.47513553180454 99.45687412469948 506.3275677573909 99.4769040996199Q506.17999998297734 99.4969340745403 506.08393785835904 99.52064302444609L506.08393785835904 99.52064302444609L505.916340109025 99.41109132488141L506.02834445857997 98.04169508032291L507.4790869278152 98.04169508032291L507.4790869278152 98.34541490411603L506.3116255324543 98.34541490411603L506.2376372577483 99.22550747561885Q506.3136694074462 99.2095652506822 506.43344048197025 99.19239670075042Q506.5532115564943 99.17563692581703 506.7048670808917 99.17563692581703ZM509.1100991713341 98.73252482757779L509.1100991713341 98.73252482757779Q509.3892924952247 98.73252482757779 509.58918346943045 98.85638365208563Q509.78866566863775 98.97983370159508 509.8945383932171 99.20261607570981Q510.000002342798 99.42498967482618 510.000002342798 99.72257787364367L510.000002342798 99.72257787364367L510.000002342798 99.92819169782663L508.4891699488015 99.92819169782663Q508.4953015737771 100.31325774629653 508.6808854230397 100.51478382049574Q508.86646927230225 100.71630989469494 509.2037086459622 100.71630989469494L509.2037086459622 100.71630989469494Q509.411366345137 100.71630989469494 509.57119736950193 100.67870259484438Q509.73061961886845 100.64068651999544 509.9023051181862 100.56669824528944L509.9023051181862 100.56669824528944L509.9023051181862 100.8581548191313Q509.7367512438441 100.9321430938373 509.57405879449055 100.96607141870248Q509.411366345137 100.99999974356766 509.1898102960174 100.99999974356766L509.1898102960174 100.99999974356766Q508.8742359972714 100.99999974356766 508.6400079232021 100.87123561907931Q508.4053710741345 100.74247149459099 508.2757893996494 100.49270997058345Q508.14579895016595 100.24335722157429 508.14579895016595 99.88200012301019L508.14579895016595 99.88200012301019Q508.14579895016595 99.52881852441361 508.26475247469324 99.27047272544019Q508.3832972242222 99.01171815146839 508.5999479733613 98.87232587702228Q508.81659872250043 98.73252482757779 509.1100991713341 98.73252482757779ZM509.1060114213504 99.00395142649924L509.1060114213504 99.00395142649924Q508.8403076724062 99.00395142649924 508.6829292980316 99.1776808008089Q508.5251421486586 99.35100140012018 508.4953015737771 99.66248794888246L508.4953015737771 99.66248794888246L509.65295236917706 99.66248794888246Q509.65090849418516 99.46709349965889 509.5920448944191 99.31829940025014Q509.533181294653 99.1695053008414 509.4134102201289 99.08652397617112Q509.2936391456048 99.00395142649924 509.1060114213504 99.00395142649924Z " id="BsauText" fill="black"></path><path d="M77 16L77 16L91 16L91 92.2L91 95L77 95L76.80000000000001 95L55 48.8L55 95L41 95L41 16L55 16L77 62.6L77 16ZM152 55.8L152 77.3L151.9 77.3L152 77.3Q151.9 81 150.45 84.2Q149 87.4 146.6 89.8Q144.2 92.2 140.95 93.6Q137.7 95 134 95L134 95L120 95Q116.30000000000001 95 113 93.6Q109.69999999999999 92.2 107.25 89.75Q104.80000000000001 87.3 103.4 84Q102 80.7 102 77L102 77L102 34Q102 30.299999999999997 103.4 27Q104.80000000000001 23.700000000000003 107.25 21.25Q109.69999999999999 18.799999999999997 113 17.400000000000006Q116.30000000000001 16 120 16L120 16L134 16Q137.7 16 140.95 17.400000000000006Q144.2 18.799999999999997 146.65 21.25Q149.1 23.700000000000003 150.55 26.950000000000003Q152 30.200000000000003 152 33.9L152 33.9L138 39L138 34Q138 32.3 136.8 31.15Q135.6 30 134 30L134 30L120 30Q118.30000000000001 30 117.15 31.15Q116 32.3 116 34L116 34L116 77Q116 78.7 117.15 79.85000000000001Q118.30000000000001 81 120 81L120 81L134 81Q135.6 81 136.8 79.85000000000001Q138 78.7 138 77L138 77L138 72.2L138 69.5L127 69.5L127 55.5L152 55.5L152 55.8ZM193.6 66.4L193.6 66.4Q187.9 70.2 184 73.5Q180.1 76.8 178.3 81L178.3 81L213 81L213 95L163 95L163 88Q163 84.2 163.7 81L163.7 81Q164.3 78.3 165.2 76L165.2 76Q167.3 70.89999999999999 171 66.7L171 66.7Q174.3 62.9 178.2 60.05Q182.1 57.2 185.8 54.7L185.8 54.7Q188.7 52.7 191.35 50.85Q194 49 195.9 47L195.9 47Q197.6 45.3 198.3 43.65Q199 42 199 40L199 40L199 34Q199 32.3 197.85 31.15Q196.7 30 195 30L195 30L181 30Q179.3 30 178.15 31.15Q177 32.3 177 34L177 34L177 39L163 33.9Q163 30.200000000000003 164.45 26.950000000000003Q165.9 23.700000000000003 168.35 21.25Q170.8 18.799999999999997 174.05 17.400000000000006Q177.3 16 181 16L181 16L195 16Q198.7 16 202 17.400000000000006Q205.3 18.799999999999997 207.75 21.25Q210.2 23.700000000000003 211.6 27Q213 30.299999999999997 213 34L213 34L213 40Q213 44.8 211 49.4L211 49.4Q209.3 53.2 206.1 56.6L206.1 56.6Q203.5 59.5 200.2 61.8Q196.9 64.1 193.6 66.4ZM274 30L246.3 30L242.1 48.5L256 48.5Q259.7 48.5 263 49.9Q266.3 51.3 268.75 53.75Q271.2 56.2 272.6 59.5Q274 62.8 274 66.5L274 66.5L274 77Q274 80.7 272.6 84Q271.2 87.3 268.75 89.75Q266.3 92.2 263 93.6Q259.7 95 256 95L256 95L242 95Q238.3 95 235.05 93.6Q231.8 92.2 229.4 89.8Q227 87.4 225.55 84.2Q224.1 81 224 77.3L224 77.3L238 72.2L238 77Q238 78.7 239.15 79.85000000000001Q240.3 81 242 81L242 81L256 81Q257.7 81 258.85 79.85000000000001Q260 78.7 260 77L260 77L260 66.5Q260 64.8 258.85 63.65Q257.7 62.5 256 62.5L256 62.5L242 62.5Q240.8 62.5 239.8 63.15Q238.8 63.8 238.3 64.9L238.3 64.9L238 66.4L224.7 61.6Q224.8 61.4 224.8 61.25Q224.8 61.1 224.9 60.9L224.9 60.9L231.9 30L235.1 16L241.7 16L274 16L274 30ZM357 16L357 16L357 22.700000000000003L339.9 55.5L357 88.3L357 95L343 95L343 91.7L332 70.60000000000001L321 91.7L321 95L307 95L307 88.3L324.1 55.5L307 22.700000000000003L307 16L321 16L321 19.299999999999997L332 40.4L343 19.299999999999997L343 16L357 16ZM418 16L418 16L418 22.700000000000003L400 57.2L400 95L386 95L386 57.2L368 22.700000000000003L368 16L382 16L382 19.299999999999997L393 40.4L404 19.299999999999997L404 16L418 16ZM479 29.599999999999994L479 29.599999999999994L445.7 81L479 81L479 95L429 95L429 81L462.1 30L429 30L429 16L471.1 16L474 16L479 16L479 19.299999999999997L479 29.599999999999994Z " id="RegistrationText" fill="black"></path></svg>