<svg xmlns="http://www.w3.org/2000/svg" version="1.1" xmlns:xlink="http://www.w3.org/1999/xlink" xmlns:svgjs="http://svgjs.dev/svgjs" generator="Plateit 3.0.0" viewBox="0 0 279 203" preserveAspectRatio="xMidYMid meet"><rect width="279" height="203" rx="3" ry="3" fill="yellow" class="do-not-print" id="Background"></rect><path d="M58 6H270A3 3 0 0 1 273 9V194A3 3 0 0 1 270 197H265M226.71331787109375 197H205.53196716308594M122.4680404663086 197H58A3 3 0 0 1 55 194V9A3 3 0 0 1 58 6 " stroke-width="2" stroke="url(#SvgjsLinearGradient1000)" fill="none" id="Border"></path><path d="M128.74922521124833 197.94906415982192L128.30275955373156 197.94906415982192L127.84589888672666 196.77130958481266L126.35889277944446 196.77130958481266L125.90463086481158 197.94906415982192L125.4680404663086 197.94906415982192L126.91970354133103 194.22349275926308L127.30795714571406 194.22349275926308L128.74922521124833 197.94906415982192ZM126.50338341132996 196.38825348517372L127.71648101859898 196.38825348517372L127.28248937246804 195.2182951672806Q127.26741660871019 195.17255712553265 127.23311307739925 195.06860703065098Q127.1988095460883 194.96465693576934 127.16346651382852 194.85291058377155Q127.12760373109435 194.74116423177375 127.10473471022038 194.67255716915184L127.10473471022038 194.67255716915184Q127.0797866874488 194.7765072640335 127.05016091040753 194.87941785796636Q127.02105488384066 194.9823284518992 126.99350810869701 195.0696465315998Q126.96544158307896 195.15748436177483 126.94517131457704 195.2182951672806L126.94517131457704 195.2182951672806L126.50338341132996 196.38825348517372ZM130.31263463826855 197.99999970631393L130.31263463826855 197.99999970631393Q129.93737479574574 197.99999970631393 129.65047253387235 197.84511406494025Q129.36357027199895 197.69022842356657 129.2040068763556 197.3731806341775Q129.04392373023785 197.05561309431403 129.04392373023785 196.5738044045375L129.04392373023785 196.5738044045375Q129.04392373023785 196.0686069434126 129.21284263442055 195.74740115022826Q129.38124178812885 195.42619535704392 129.6785390594904 195.27182946614465Q129.97531658037755 195.11694382477097 130.35317517527238 195.11694382477097L130.35317517527238 195.11694382477097Q130.56159511551013 195.11694382477097 130.75546204246444 195.15852386272365Q130.94984871989314 195.2006236511507 131.07406908327675 195.26403320902853L131.07406908327675 195.26403320902853L130.94724996752112 195.61694378115178Q130.82043085176548 195.56600823465976 130.6541106999548 195.52546769765593Q130.48779054814415 195.48492716065206 130.34329991625864 195.48492716065206L130.34329991625864 195.48492716065206Q130.0537989020132 195.48492716065206 129.86253072743094 195.60914752403565Q129.67074280237426 195.73336788741926 129.57562846555754 195.9745321075447Q129.48051412874082 196.21569632767017 129.48051412874082 196.5686068997934L129.48051412874082 196.5686068997934Q129.48051412874082 196.90592495768442 129.57302971318552 197.14449042543782Q129.6655452976302 197.38305589319125 129.84953696557073 197.50883550799807Q130.03352863351128 197.63461512280486 130.3100358858965 197.63461512280486L130.3100358858965 197.63461512280486Q130.53092983752003 197.63461512280486 130.70868449976768 197.58731782963372Q130.88643916201534 197.54054028693696 131.03092979390084 197.47713072905916L131.03092979390084 197.47713072905916L131.03092979390084 197.85239057158196Q130.8916366667594 197.92359638657592 130.72011901020466 197.9615381712077Q130.54860135364993 197.99999970631393 130.31263463826855 197.99999970631393ZM134.7081644003397 195.11694382477097L134.7081644003397 195.11694382477097Q135.16762381971668 195.11694382477097 135.400991782726 195.35654879347322Q135.63487949620975 195.59667351264986 135.63487949620975 196.12681899654635L135.63487949620975 196.12681899654635L135.63487949620975 197.94906415982192L135.2185593662087 197.94906415982192L135.2185593662087 196.14708926504827Q135.2185593662087 195.80977120715727 135.07250948289993 195.64085230297457Q134.9264595995912 195.47193339879186 134.6395573377178 195.47193339879186L134.6395573377178 195.47193339879186Q134.23623096957695 195.47193339879186 134.05379855305964 195.7058211122756Q133.8708463860679 195.93918907528496 133.8708463860679 196.39345098991782L133.8708463860679 196.39345098991782L133.8708463860679 197.94906415982192L133.4519275036948 197.94906415982192L133.4519275036948 196.14708926504827Q133.4519275036948 195.92151755915506 133.38747844486818 195.77182942252546Q133.32250963556714 195.62162153542147 133.1946510188627 195.54677746710666Q133.06627265168382 195.47193339879186 132.8708464733063 195.47193339879186L132.8708464733063 195.47193339879186Q132.59433922092109 195.47193339879186 132.42697956816158 195.58627850316168Q132.2591001649277 195.7006236075315 132.1842560966129 195.9251558124759Q132.10941202829812 196.14968801742032 132.10941202829812 196.47713081629755L132.10941202829812 196.47713081629755L132.10941202829812 197.94906415982192L131.68841414402738 197.94906415982192L131.68841414402738 195.16735962078857L132.02833095429042 195.16735962078857L132.09174051216823 195.56081072991566L132.1146095330422 195.56081072991566Q132.19828935942195 195.41632009803016 132.32510847517756 195.3175675078926Q132.4524473414076 195.2182951672806 132.60941198467893 195.16735962078857Q132.76689637842463 195.11694382477097 132.94465104067228 195.11694382477097L132.94465104067228 195.11694382477097Q133.26169883006136 195.11694382477097 133.476355775992 195.23492718246166Q133.69049297144824 195.35291054015235 133.78716655968816 195.5940747602778L133.78716655968816 195.5940747602778L133.81003558056213 195.5940747602778Q133.94672995533153 195.35291054015235 134.18529542308494 195.23492718246166Q134.42386089083837 195.11694382477097 134.7081644003397 195.11694382477097ZM137.57095001338075 195.11694382477097L137.57095001338075 195.11694382477097Q137.92645933787603 195.11694382477097 138.1800975693873 195.27442821851668Q138.43373580089855 195.43139286178803 138.5683511737703 195.71465687034055Q138.70296654664207 195.9974011284187 138.70296654664207 196.37577947378793L138.70296654664207 196.37577947378793L138.70296654664207 196.63721396241533L136.7819687932289 196.63721396241533Q136.78924529987063 197.12681890930793 137.025212015252 197.38305589319125Q137.2611787306334 197.63929287707455 137.69049262249467 197.63929287707455L137.69049262249467 197.63929287707455Q137.95400611301966 197.63929287707455 138.15722854851333 197.591475833429Q138.36045098400697 197.543139039309 138.5787461832585 197.4490642034411L138.5787461832585 197.4490642034411L138.5787461832585 197.81964629169426Q138.3677274906487 197.91372112756216 138.16086680183417 197.95686041693804Q137.95400611301966 197.99999970631393 137.67230135589037 197.99999970631393L137.67230135589037 197.99999970631393Q137.27157374012154 197.99999970631393 136.97323696781118 197.8362783068753Q136.6754199459752 197.67255690743667 136.51013929511336 197.35498936757318Q136.3453783947259 197.03794157818413 136.3453783947259 196.57848215880716L136.3453783947259 196.57848215880716Q136.3453783947259 196.1294177489184 136.49610603230434 195.80093544909232Q136.64735342035715 195.47193339879186 136.92282117179357 195.29469848701862Q137.19776917275556 195.11694382477097 137.57095001338075 195.11694382477097ZM137.56575250863665 195.4620581397781L137.56575250863665 195.4620581397781Q137.22843445074565 195.4620581397781 137.02781076762403 195.68295209140163Q136.82718708450244 195.90332629255076 136.78924529987063 196.29937615404992L136.78924529987063 196.29937615404992L138.261178643395 196.29937615404992Q138.25857989102295 196.05093542728272 138.18373582270814 195.8617462545981Q138.10889175439337 195.67255708191345 137.9566048653917 195.56704773560858Q137.80431797639008 195.4620581397781 137.56575250863665 195.4620581397781ZM143.7331116379658 194.2385655230209L143.7331116379658 197.94906415982192L143.23571043395702 197.94906415982192L141.21284158755984 194.83264031526963L141.19257131905792 194.83264031526963Q141.20036757617405 194.95686067865321 141.2102428351878 195.11538457334774Q141.22063784467596 195.27442821851668 141.22687485036886 195.45322238171315Q141.23311185606178 195.63201654490962 141.23311185606178 195.81704771379898L141.23311185606178 195.81704771379898L141.23311185606178 197.94906415982192L140.83238424029295 197.94906415982192L140.83238424029295 194.2385655230209L141.32718669192968 194.2385655230209L143.34225928121074 197.34511410855944L143.3599307973406 197.34511410855944Q143.35473329259653 197.25623677743562 143.3469370354804 197.09251537799702Q143.3396605288387 196.92879397855836 143.3334235231458 196.73960480587374Q143.3266667669785 196.55093538366353 143.3266667669785 196.38825348517372L143.3266667669785 196.38825348517372L143.3266667669785 194.2385655230209L143.7331116379658 194.2385655230209ZM146.55483696352857 195.16735962078857L146.97895335064575 195.16735962078857L146.97895335064575 197.94906415982192L146.63383903563863 197.94906415982192L146.57250847965844 197.55821180306685L146.55015920925888 197.55821180306685Q146.4638806305071 197.70270243495236 146.32666650526332 197.80197477556436Q146.1894523800195 197.90072736570193 146.0184544739392 197.9501036607707Q145.84693681738443 197.99999970631393 145.65410939137894 197.99999970631393L145.65410939137894 197.99999970631393Q145.32406784012966 197.99999970631393 145.10057513613407 197.89345085906024Q144.87760218261292 197.7863822613321 144.7642965791919 197.56340930781096Q144.6515107262453 197.33991660381537 144.6515107262453 196.98960478406417L144.6515107262453 196.98960478406417L144.6515107262453 195.16735962078857L145.07770611526013 195.16735962078857L145.07770611526013 196.95945925654848Q145.07770611526013 197.30717232392763 145.23519050900583 197.47817023000798Q145.39267490275157 197.64968788656273 145.71492019688472 197.64968788656273L145.71492019688472 197.64968788656273Q146.02469147963208 197.64968788656273 146.20868314757263 197.53274402982083Q146.39267481551317 197.41631992355337 146.47375588952087 197.18918896623694Q146.55483696352857 196.9620580089205 146.55483696352857 196.63201645767123L146.55483696352857 196.63201645767123L146.55483696352857 195.16735962078857ZM150.88955592009395 195.11694382477097L150.88955592009395 195.11694382477097Q151.3490153394709 195.11694382477097 151.58238330248025 195.35654879347322Q151.81575126548958 195.59667351264986 151.81575126548958 196.12681899654635L151.81575126548958 196.12681899654635L151.81575126548958 197.94906415982192L151.39995088596294 197.94906415982192L151.39995088596294 196.14708926504827Q151.39995088596294 195.80977120715727 151.25390100265417 195.64085230297457Q151.10785111934544 195.47193339879186 150.82094885747205 195.47193339879186L150.82094885747205 195.47193339879186Q150.4176224893312 195.47193339879186 150.23467032233947 195.7058211122756Q150.05223790582215 195.93918907528496 150.05223790582215 196.39345098991782L150.05223790582215 196.39345098991782L150.05223790582215 197.94906415982192L149.63331902344905 197.94906415982192L149.63331902344905 196.14708926504827Q149.63331902344905 195.92151755915506 149.56886996462242 195.77182942252546Q149.5039011553214 195.62162153542147 149.37604253861693 195.54677746710666Q149.24766417143806 195.47193339879186 149.05223799306054 195.47193339879186L149.05223799306054 195.47193339879186Q148.77573074067533 195.47193339879186 148.60785133744142 195.58627850316168Q148.44049168468194 195.7006236075315 148.36564761636714 195.9251558124759Q148.29080354805237 196.14968801742032 148.29080354805237 196.47713081629755L148.29080354805237 196.47713081629755L148.29080354805237 197.94906415982192L147.86980566378162 197.94906415982192L147.86980566378162 195.16735962078857L148.20972247404467 195.16735962078857L148.27313203192247 195.56081072991566L148.29600105279644 195.56081072991566Q148.37968087917616 195.41632009803016 148.5064999949318 195.3175675078926Q148.63331911068744 195.2182951672806 148.79080350443314 195.16735962078857Q148.94828789817888 195.11694382477097 149.12604256042653 195.11694382477097L149.12604256042653 195.11694382477097Q149.4430903498156 195.11694382477097 149.65774729574622 195.23492718246166Q149.87188449120245 195.35291054015235 149.9685580794424 195.5940747602778L149.9685580794424 195.5940747602778L149.99142710031637 195.5940747602778Q150.12812147508578 195.35291054015235 150.36668694283918 195.23492718246166Q150.6052524105926 195.11694382477097 150.88955592009395 195.11694382477097ZM152.68113580537943 194.0000000552675L153.10265344012458 194.0000000552675L153.10265344012458 194.9875259566433Q153.10265344012458 195.15748436177483 153.09381768205964 195.3175675078926Q153.0849819239947 195.47713090353594 153.07978441925061 195.56600823465976L153.07978441925061 195.56600823465976L153.10265344012458 195.56600823465976Q153.2169985444944 195.37837831339834 153.43269499137386 195.24896044527068Q153.64839143825333 195.11954257714302 153.98311074377227 195.11954257714302L153.98311074377227 195.11954257714302Q154.50597972102705 195.11954257714302 154.81679050472323 195.4807691568568Q155.12760128841938 195.84251548704498 155.12760128841938 196.55561313793322L155.12760128841938 196.55561313793322Q155.12760128841938 197.02546756679834 154.98570940890593 197.3477128609315Q154.84381752939245 197.66995815506465 154.5849817931371 197.83471905545207Q154.32562630640737 197.99999970631393 153.97323548475853 197.99999970631393L153.97323548475853 197.99999970631393Q153.64319393350922 197.99999970631393 153.43113573995063 197.87681884387916Q153.21959729686645 197.7536379814444 153.1052521924966 197.57588331919675L153.1052521924966 197.57588331919675L153.0719881621345 197.57588331919675L152.98570958338271 197.94906415982192L152.68113580537943 197.94906415982192L152.68113580537943 194.0000000552675ZM153.91450368115036 195.47193339879186L153.91450368115036 195.47193339879186Q153.61252865551916 195.47193339879186 153.43529374374592 195.58991675648255Q153.25753908149827 195.70790011417324 153.1800962608114 195.94542608097782Q153.10265344012458 196.18295204778244 153.10265344012458 196.54573787891945L153.10265344012458 196.54573787891945L153.10265344012458 196.5686068997934Q153.10265344012458 197.0935548789458 153.27780935000018 197.37162138275426Q153.45296525987578 197.64968788656273 153.91450368115036 197.64968788656273L153.91450368115036 197.64968788656273Q154.30327703600778 197.64968788656273 154.4971439629621 197.3653843770614Q154.69153064039082 197.08108086756002 154.69153064039082 196.55301438556117L154.69153064039082 196.55301438556117Q154.69153064039082 196.01507264454855 154.49974271533415 195.7437628969074Q154.30795479027748 195.47193339879186 153.91450368115036 195.47193339879186ZM156.9321749355651 195.11694382477097L156.9321749355651 195.11694382477097Q157.2876842600604 195.11694382477097 157.54132249157163 195.27442821851668Q157.7949607230829 195.43139286178803 157.92957609595464 195.71465687034055Q158.0641914688264 195.9974011284187 158.0641914688264 196.37577947378793L158.0641914688264 196.37577947378793L158.0641914688264 196.63721396241533L156.14319371541325 196.63721396241533Q156.15047022205496 197.12681890930793 156.38643693743634 197.38305589319125Q156.62240365281772 197.63929287707455 157.051717544679 197.63929287707455L157.051717544679 197.63929287707455Q157.31523103520402 197.63929287707455 157.51845347069766 197.591475833429Q157.7216759061913 197.543139039309 157.93997110544282 197.4490642034411L157.93997110544282 197.4490642034411L157.93997110544282 197.81964629169426Q157.72895241283305 197.91372112756216 157.52209172401854 197.95686041693804Q157.31523103520402 197.99999970631393 157.0335262780747 197.99999970631393L157.0335262780747 197.99999970631393Q156.6327986623059 197.99999970631393 156.3344618899955 197.8362783068753Q156.03612511768515 197.67255690743667 155.8713642172977 197.35498936757318Q155.70660331691028 197.03794157818413 155.70660331691028 196.57848215880716L155.70660331691028 196.57848215880716Q155.70660331691028 196.1294177489184 155.85733095448867 195.80093544909232Q156.0085783425415 195.47193339879186 156.2840460939779 195.29469848701862Q156.55899409493992 195.11694382477097 156.9321749355651 195.11694382477097ZM156.926977430821 195.4620581397781L156.926977430821 195.4620581397781Q156.58965937293002 195.4620581397781 156.3890356898084 195.68295209140163Q156.18841200668678 195.90332629255076 156.15047022205496 196.29937615404992L156.15047022205496 196.29937615404992L157.62240356557933 196.29937615404992Q157.61980481320728 196.05093542728272 157.5449607448925 195.8617462545981Q157.4701166765777 195.67255708191345 157.31782978757604 195.56704773560858Q157.16554289857442 195.4620581397781 156.926977430821 195.4620581397781ZM160.0434012753733 195.11694382477097L160.0434012753733 195.11694382477097Q160.12760085222743 195.11694382477097 160.2185571852489 195.12577958283592Q160.31003326874475 195.13461534090084 160.3812390837387 195.1496881046587L160.3812390837387 195.1496881046587L160.32770478487464 195.54054046141374Q160.25909772225276 195.52286894528388 160.175417895873 195.5124739357957Q160.09173806949326 195.50259867678193 160.0184532526017 195.50259867678193L160.0184532526017 195.50259867678193Q159.8505738493678 195.50259867678193 159.70244496416143 195.5696464879806Q159.55379632848064 195.63721404965372 159.44204997648285 195.76247391398613Q159.33030362448508 195.88825352879292 159.26689406660725 196.06496869009175Q159.20348450872945 196.24116410091617 159.20348450872945 196.45686054779563L159.20348450872945 196.45686054779563L159.20348450872945 197.94906415982192L158.77988787208668 197.94906415982192L158.77988787208668 195.16735962078857L159.13019969183787 195.16735962078857L159.1759377335858 195.68035333902958L159.19360924971568 195.68035333902958Q159.27988782846745 195.52546769765593 159.401509439479 195.39708933047706Q159.52313105049058 195.26923071377263 159.68477344803156 195.1928273940346Q159.8458960950981 195.11694382477097 160.0434012753733 195.11694382477097ZM162.3173096009097 194.2385655230209L163.28716398615563 194.2385655230209Q164.00545914178792 194.2385655230209 164.33654019398602 194.5192307792014Q164.66762124618413 194.7993762849075 164.66762124618413 195.32224526216226L164.66762124618413 195.32224526216226Q164.66762124618413 195.55821197754364 164.5901784254973 195.77027017110223Q164.51273560481044 195.98232836466082 164.34017844730687 196.1434510117274Q164.16762128980332 196.30457365879397 163.88695603362282 196.39708924323867Q163.60681052791674 196.48960482768337 163.20088540740386 196.48960482768337L163.20088540740386 196.48960482768337L162.74922224514302 196.48960482768337L162.74922224514302 197.94906415982192L162.3173096009097 197.94906415982192L162.3173096009097 194.2385655230209ZM163.24662344915177 194.606548858902L163.24662344915177 194.606548858902L162.74922224514302 194.606548858902L162.74922224514302 196.11902273943022L163.15254861328387 196.11902273943022Q163.50753818730476 196.11902273943022 163.74506415410934 196.0431391701666Q163.98259012091395 195.967255600903 164.10161297955347 195.79573794434825Q164.2211555886674 195.6242202877935 164.2211555886674 195.33991677829215L164.2211555886674 195.33991677829215Q164.2211555886674 194.96985444051342 163.98466912281157 194.7879417744705Q163.74870240743022 194.606548858902 163.24662344915177 194.606548858902ZM165.8043155337151 194.0000000552675L165.8043155337151 197.94906415982192L165.38071889707234 197.94906415982192L165.38071889707234 194.0000000552675L165.8043155337151 194.0000000552675ZM167.7331095442444 195.12214132951505L167.7331095442444 195.12214132951505Q168.23051074825315 195.12214132951505 168.4716749683786 195.34511428303622Q168.71283918850406 195.56860698703179 168.71283918850406 196.05821193392444L168.71283918850406 196.05821193392444L168.71283918850406 197.94906415982192L168.40566665812878 197.94906415982192L168.32458558412105 197.53794153456494L168.30431531561914 197.53794153456494Q168.18737145887727 197.69022842356657 168.06055234312163 197.7931390174994Q167.93373322736602 197.89552986095785 167.76741307555534 197.9480246588731Q167.6010929237447 197.99999970631393 167.3604484540936 197.99999970631393L167.3604484540936 197.99999970631393Q167.10629047210796 197.99999970631393 166.90982479278162 197.9111223751901Q166.71283936298084 197.82224504406628 166.60005351003426 197.6418916294466Q166.48726765708764 197.4615382148269 166.48726765708764 197.1850309624417L166.48726765708764 197.1850309624417Q166.48726765708764 196.7687108324406 166.81730920833695 196.54573787891945Q167.1468310091118 196.32224517492386 167.82198687536822 196.30197490642195L167.82198687536822 196.30197490642195L168.3017165632471 196.28170463792003L168.3017165632471 196.1117462327885Q168.3017165632471 195.75103940354913 168.1468309218734 195.6065487716636Q167.99194528049975 195.4620581397781 167.71024052337043 195.4620581397781L167.71024052337043 195.4620581397781Q167.49194532411894 195.4620581397781 167.29444014384376 195.52546769765593Q167.0964152130942 195.58887725553373 166.91866055084654 195.6751558342855L166.91866055084654 195.6751558342855L166.78924268271888 195.3555092925244Q166.9768726039803 195.25883570428445 167.2206355764778 195.19022864166254Q167.46439854897528 195.12214132951505 167.7331095442444 195.12214132951505ZM168.296519058503 196.83471914269046L168.296519058503 196.57848215880716L167.87292242186024 196.59615367493706Q167.35265219697752 196.61694369391338 167.1395545024701 196.76663183054296Q166.92645680796267 196.91631996717257 166.92645680796267 197.19022846718576L166.92645680796267 197.19022846718576Q166.92645680796267 197.42879393493916 167.0709474398482 197.543139039309Q167.2154380717337 197.65696439320442 167.45400353948713 197.65696439320442L167.45400353948713 197.65696439320442Q167.82458562774025 197.65696439320442 168.06055234312163 197.45166295581316Q168.296519058503 197.24584176794747 168.296519058503 196.83471914269046L168.296519058503 196.83471914269046ZM170.47947105101795 197.6548853913068L170.47947105101795 197.6548853913068Q170.58342114589962 197.6548853913068 170.69256874552536 197.6366941247025Q170.8017163451511 197.61902260857264 170.87032340777301 197.59355483532661L170.87032340777301 197.59355483532661L170.87032340777301 197.92099763420384Q170.79651884040703 197.954261664566 170.66554172085614 197.97713068543996Q170.53508435177966 197.99999970631393 170.41086398839607 197.99999970631393L170.41086398839607 197.99999970631393Q170.18997003677254 197.99999970631393 170.00961662215283 197.9225568856271Q169.82978295800757 197.84511406494025 169.72167485933062 197.6595631455765Q169.6140865111281 197.4745319766871 169.6140865111281 197.14708917780987L169.6140865111281 197.14708917780987L169.6140865111281 195.49740117203788L169.21803664962897 195.49740117203788L169.21803664962897 195.29209973464657L169.61616551302575 195.12681908378474L169.78404491625963 194.52286903252227L170.03768314777088 194.52286903252227L170.03768314777088 195.16735962078857L170.85213214116874 195.16735962078857L170.85213214116874 195.49740117203788L170.03768314777088 195.49740117203788L170.03768314777088 197.13461516642406Q170.03768314777088 197.39604965505146 170.15826525783362 197.52546752317915Q170.27884736789636 197.6548853913068 170.47947105101795 197.6548853913068ZM172.50441889931278 195.11694382477097L172.50441889931278 195.11694382477097Q172.85992822380808 195.11694382477097 173.11356645531933 195.27442821851668Q173.36720468683058 195.43139286178803 173.50182005970234 195.71465687034055Q173.6364354325741 195.9974011284187 173.6364354325741 196.37577947378793L173.6364354325741 196.37577947378793L173.6364354325741 196.63721396241533L171.71491792868653 196.63721396241533Q171.72271418580266 197.12681890930793 171.95868090118404 197.38305589319125Q172.19464761656542 197.63929287707455 172.6239615084267 197.63929287707455L172.6239615084267 197.63929287707455Q172.88747499895172 197.63929287707455 173.09069743444536 197.591475833429Q173.293919869939 197.543139039309 173.51221506919052 197.4490642034411L173.51221506919052 197.4490642034411L173.51221506919052 197.81964629169426Q173.30119637658072 197.91372112756216 173.0943356877662 197.95686041693804Q172.88747499895172 197.99999970631393 172.6057702418224 197.99999970631393L172.6057702418224 197.99999970631393Q172.20504262605357 197.99999970631393 171.9067058537432 197.8362783068753Q171.60836908143284 197.67255690743667 171.4436081810454 197.35498936757318Q171.27884728065794 197.03794157818413 171.27884728065794 196.57848215880716L171.27884728065794 196.57848215880716Q171.27884728065794 196.1294177489184 171.42957491823637 195.80093544909232Q171.58082230628918 195.47193339879186 171.8557703072512 195.29469848701862Q172.1312380586876 195.11694382477097 172.50441889931278 195.11694382477097ZM172.49922139456868 195.4620581397781L172.49922139456868 195.4620581397781Q172.16190333667768 195.4620581397781 171.9612796535561 195.68295209140163Q171.76065597043447 195.90332629255076 171.72271418580266 196.29937615404992L171.72271418580266 196.29937615404992L173.19464752932703 196.29937615404992Q173.19204877695498 196.05093542728272 173.11720470864017 195.8617462545981Q173.0423606403254 195.67255708191345 172.89007375132377 195.56704773560858Q172.7377868623221 195.4620581397781 172.49922139456868 195.4620581397781ZM176.15150797823597 197.18762971481374L176.15150797823597 197.18762971481374Q176.15150797823597 197.4542617081852 176.01793210631303 197.63565462375368Q175.8848759848645 197.8170475393222 175.63747475904614 197.90852362281805Q175.39007353322776 197.99999970631393 175.0475579705927 197.99999970631393L175.0475579705927 197.99999970631393Q174.75545820397522 197.99999970631393 174.5423605094678 197.954261664566Q174.32926281496037 197.90852362281805 174.16917966884262 197.82484379643833L174.16917966884262 197.82484379643833L174.16917966884262 197.4365901920553Q174.33913807397414 197.52027001843504 174.57510478935552 197.58887708105695Q174.8115912552113 197.65696439320442 175.05743322960646 197.65696439320442L175.05743322960646 197.65696439320442Q175.41814005884584 197.65696439320442 175.58030220686123 197.54054028693696Q175.742984105351 197.42359643019512 175.742984105351 197.2234924975479L175.742984105351 197.2234924975479Q175.742984105351 197.10914739317806 175.67801529604998 197.02130956300306Q175.61304648674894 196.93399148330246 175.4612793482217 196.85135115787153Q175.30899245922006 196.7687108324406 175.03976171347657 196.66995824230304L175.03976171347657 196.66995824230304Q174.7731297201051 196.5686068997934 174.5792627931508 196.46829505823263Q174.38487611572208 196.3679832166718 174.2798865198916 196.2234925847863Q174.17437717358672 196.07848220242636 174.17437717358672 195.84771299178908L174.17437717358672 195.84771299178908Q174.17437717358672 195.4948024196658 174.45972018403688 195.30613299745562Q174.74558294496146 195.11694382477097 175.20972011860806 195.11694382477097L175.20972011860806 195.11694382477097Q175.4612793482217 195.11694382477097 175.68061404842203 195.16632011983978Q175.89994874862234 195.21569641490856 176.09017742225578 195.29937624128831L176.09017742225578 195.29937624128831L175.9482855427423 195.63721404965372Q175.77572838523875 195.56340948228774 175.58030220686123 195.5124739357957Q175.3848760284837 195.4620581397781 175.18165359299005 195.4620581397781L175.18165359299005 195.4620581397781Q174.890073576847 195.4620581397781 174.73414843452446 195.55821197754364Q174.57770354172757 195.6548855657836 174.57770354172757 195.82224521854306L174.57770354172757 195.82224521854306Q174.57770354172757 195.95166308667075 174.64994885767032 196.03534291305047Q174.7227139240875 196.11902273943022 174.88227731973083 196.1928273067962Q175.04236046584862 196.26663187416216 175.303794954476 196.36538446429978L175.303794954476 196.36538446429978Q175.56522944310336 196.4620580525397 175.7554581167368 196.56444889599814Q175.94568679037027 196.667359489931 176.04859738430312 196.81340937323972Q176.15150797823597 196.95945925654848 176.15150797823597 197.18762971481374ZM180.33601904769736 196.9620580089205L180.33601904769736 196.9620580089205Q180.33601904769736 197.2915798096954 180.17229764825873 197.5239082717559Q180.00909599929452 197.75623673381642 179.714397480305 197.87785834482798Q179.4202187117899 197.99999970631393 179.0215700979187 197.99999970631393L179.0215700979187 197.99999970631393Q178.81107115578334 197.99999970631393 178.62344123452192 197.979729437812Q178.43529156278612 197.9594591693101 178.2778071690404 197.92099763420384Q178.1208425257691 197.88305584957206 178.00129991665517 197.82744254881038L178.00129991665517 197.82744254881038L178.00129991665517 197.41372117118135Q178.1915285902886 197.492203492817 178.46595684077622 197.55925130401567Q178.7398653407894 197.62681886568873 179.0392416140486 197.62681886568873L179.0392416140486 197.62681886568873Q179.31834761880586 197.62681886568873 179.51117504481135 197.55197479737396Q179.70452222129126 197.47713072905916 179.80431431237764 197.3362783504945Q179.90462615393844 197.19542597192986 179.90462615393844 196.9974010411803L179.90462615393844 196.9974010411803Q179.90462615393844 196.80717236754683 179.82094632755872 196.678794000368Q179.73726650117896 196.55093538366353 179.54339957422465 196.44542603735863Q179.34901289679595 196.33991669105376 179.01377384080257 196.22089383241425L179.01377384080257 196.22089383241425Q178.77780712542122 196.13721400603453 178.59797346127593 196.0369021644737Q178.41762004665622 195.93659032291288 178.2959984356447 195.80977120715727Q178.17385707415872 195.68295209140163 178.11200676770414 195.51507268816775Q178.04963671077513 195.34771303540828 178.04963671077513 195.1320165885288L178.04963671077513 195.1320165885288Q178.04963671077513 194.83523906764168 178.20088409882797 194.62318087408306Q178.35161173640637 194.41112268052447 178.61928323072667 194.29833682757788Q178.88695472504696 194.18555097463127 179.2346677924261 194.18555097463127L179.2346677924261 194.18555097463127Q179.53196506378768 194.18555097463127 179.78404404387572 194.24116427539295Q180.03664277443815 194.29729732662906 180.24766146704792 194.39085241202255L180.24766146704792 194.39085241202255L180.11304609417618 194.7614345002757Q179.91242241105456 194.67775467389595 179.68789020611018 194.62214137313424Q179.46335800116577 194.56600832189815 179.22479253341237 194.56600832189815L179.22479253341237 194.56600832189815Q178.98622706565894 194.56600832189815 178.8225056662203 194.63565488546885Q178.6587842667817 194.705821199514 178.57250568802993 194.83264031526963Q178.48622710927813 194.95945943102527 178.48622710927813 195.13461534090084L178.48622710927813 195.13461534090084Q178.48622710927813 195.33004151927838 178.56886743470906 195.45945938740607Q178.65098800966558 195.58887725553373 178.83238092523408 195.68918909709453Q179.01377384080257 195.78950093865535 179.31366986453617 195.8986485382811L179.31366986453617 195.8986485382811Q179.64111266341342 196.0176713969206 179.86928312167868 196.15124726884352Q180.09745357994393 196.28430339029205 180.21699618905782 196.47609131534873Q180.33601904769736 196.667359489931 180.33601904769736 196.9620580089205ZM184.85628892362652 194.2385655230209L185.30795208588734 194.2385655230209L184.31574843024185 197.94906415982192L183.8817567841109 197.94906415982192L183.14579011234872 195.45166313028994Q183.1125260819866 195.34511428303622 183.08342005541974 195.23752593483368Q183.05431402885287 195.1294178361568 183.02884625560685 195.031704746968Q183.00337848236086 194.93399165777925 182.9872662176542 194.85914758946444Q182.97063420247312 194.78430352114964 182.962837945357 194.74636173651783L182.962837945357 194.74636173651783Q182.95764044061292 194.78430352114964 182.9436071778039 194.85810808851562Q182.93009366546926 194.93139290540722 182.90826414554414 195.02806649364715Q182.8869543760934 195.1242203314127 182.8573285990521 195.23336793103846Q182.82822257248523 195.34251553066417 182.79547829259752 195.45426188266197L182.79547829259752 195.45426188266197L182.07978188933726 197.94906415982192L181.6457902432063 197.94906415982192L180.66086309420257 194.2385655230209L181.11044725456574 194.2385655230209L181.7066010487121 196.56600814742137Q181.73726632670218 196.68243225368883 181.76377360089703 196.79573785710986Q181.79028087509184 196.90852371005644 181.812110395017 197.01507255731016Q181.83342016446773 197.12162140456388 181.8510916805976 197.2234924975479Q181.8692829472019 197.32484384005753 181.88435571095974 197.42099767782304L181.88435571095974 197.42099767782304Q181.89682972234556 197.32224508768547 181.91709999084745 197.21413698900855Q181.9373702593494 197.106548640806 181.96179853164656 196.99480228880822Q181.98570705346935 196.88305593681045 182.01481308003622 196.7687108324406Q182.0444388570775 196.6548854785452 182.07718313696523 196.54054037417535L182.07718313696523 196.54054037417535L182.7445427461055 194.2385655230209L183.1889294017246 194.2385655230209L183.88435553648296 196.55821189030524Q183.91969856874272 196.67775449941917 183.9503638467328 196.79417860568662Q183.98050937424847 196.9111224624285 184.00493764654567 197.02130956300306Q184.02884616836846 197.13201641405203 184.04807693592159 197.23232825561286Q184.06678795300027 197.33212034669924 184.08186071675811 197.42099767782304L184.08186071675811 197.42099767782304Q184.1000519833624 197.29677731443945 184.125000006134 197.1595631891957Q184.15046777938 197.0228688144263 184.18477131069096 196.87318067779668Q184.2190748420019 196.7234925411671 184.25961537900577 196.56340939504935L184.25961537900577 196.56340939504935L184.85628892362652 194.2385655230209ZM187.20867957079858 194.2385655230209L187.20867957079858 197.94906415982192L186.7975569455416 197.94906415982192L186.7975569455416 195.31964650979023Q186.7975569455416 195.16995837316063 186.79859644649042 195.0623700249581Q186.80015569791362 194.95426192628116 186.80379395123447 194.86434509420855Q186.80795195502975 194.77442826213587 186.81522846167147 194.68035342626797L186.81522846167147 194.68035342626797Q186.7367461400358 194.7614345002757 186.6681390774139 194.8186070524606Q186.59953201479203 194.87577960464552 186.4981806722824 194.95945943102527L186.4981806722824 194.95945943102527L186.0740642851652 195.29937624128831L185.85369008401608 195.0129937298893L186.85836775104735 194.2385655230209L187.20867957079858 194.2385655230209ZM191.63747336323186 197.94906415982192L191.1904879552407 197.94906415982192L190.7336272882358 196.77130958481266L189.24662118095358 196.77130958481266L188.79235926632072 197.94906415982192L188.35576886781774 197.94906415982192L189.8074319428402 194.22349275926308L190.19568554722318 194.22349275926308L191.63747336323186 197.94906415982192ZM189.3911118128391 196.38825348517372L190.60420942010813 196.38825348517372L190.17021777397719 195.2182951672806Q190.15514501021934 195.17255712553265 190.1208414789084 195.06860703065098Q190.08653794759744 194.96465693576934 190.05119491533767 194.85291058377155Q190.0153321326035 194.74116423177375 189.99298286220395 194.67255716915184L189.99298286220395 194.67255716915184Q189.96751508895795 194.7765072640335 189.9384090623911 194.87941785796636Q189.90878328534978 194.9823284518992 189.88123651020615 195.0696465315998Q189.8531699845881 195.15748436177483 189.8328997160862 195.2182951672806L189.8328997160862 195.2182951672806L189.3911118128391 196.38825348517372ZM195.6800925531798 197.56340930781096L195.6800925531798 197.94906415982192L193.24869983389766 197.94906415982192L193.24869983389766 197.59615358769867L194.24090348954314 196.58887716829534Q194.5179304924028 196.30977116353807 194.706599914613 196.0914759642866Q194.89578908729763 195.8731807650351 194.9950614279096 195.66112257147648Q195.0938140180472 195.4490643779179 195.0938140180472 195.19542614640665L195.0938140180472 195.19542614640665Q195.0938140180472 194.8809771093896 194.90722359773463 194.71465695757894Q194.72063317742203 194.54833680576826 194.41605939941874 194.54833680576826L194.41605939941874 194.54833680576826Q194.1499471565217 194.54833680576826 193.944125968656 194.63981288926414Q193.7388245312647 194.73128897276 193.52312808438526 194.89864862551948L193.52312808438526 194.89864862551948L193.29703662801762 194.61434511601811Q193.44412601227518 194.49012475263453 193.61824242120196 194.3934511643946Q193.79183907965435 194.29729732662906 193.99090351135274 194.24116427539295Q194.19048769352554 194.18555097463127 194.41605939941874 194.18555097463127L194.41605939941874 194.18555097463127Q194.75857496205384 194.18555097463127 195.00753543929542 194.30457383327075Q195.2559761660626 194.42411644238467 195.39215079035756 194.64501039400824Q195.52780566417815 194.86538459515737 195.52780566417815 195.16995837316063L195.52780566417815 195.16995837316063Q195.52780566417815 195.46465689215015 195.41086180743628 195.71725562271257Q195.29443770116882 195.96933460280061 195.08341900855902 196.216735828619Q194.87292006642366 196.46465680491175 194.59121530929434 196.74116405729697L194.59121530929434 196.74116405729697L193.78404282253825 197.54573779168106L193.78404282253825 197.56340930781096L195.6800925531798 197.56340930781096ZM199.24558080762085 197.94906415982192L198.79911515010411 197.94906415982192L198.3422544830992 196.77130958481266L196.85524837581698 196.77130958481266L196.40098646118412 197.94906415982192L195.96439606268115 197.94906415982192L197.41605913770357 194.22349275926308L197.80431274208658 194.22349275926308L199.24558080762085 197.94906415982192ZM196.99973900770252 196.38825348517372L198.21283661497154 196.38825348517372L197.7788449688406 195.2182951672806Q197.76377220508274 195.17255712553265 197.7294686737718 195.06860703065098Q197.69516514246084 194.96465693576934 197.65930235972667 194.85291058377155Q197.6239593274669 194.74116423177375 197.60109030659294 194.67255716915184L197.60109030659294 194.67255716915184Q197.57562253334692 194.7765072640335 197.54651650678005 194.87941785796636Q197.5174104802132 194.9823284518992 197.48934395459514 195.0696465315998Q197.4617971794515 195.15748436177483 197.4415269109496 195.2182951672806L197.4415269109496 195.2182951672806L196.99973900770252 196.38825348517372ZM202.53196305730467 197.94906415982192L202.08549739978793 197.94906415982192L201.628636732783 196.77130958481266L200.1416306255008 196.77130958481266L199.68736871086793 197.94906415982192L199.25077831236496 197.94906415982192L200.70244138738738 194.22349275926308L201.09069499177042 194.22349275926308L202.53196305730467 197.94906415982192ZM200.2861212573863 196.38825348517372L201.49921886465535 196.38825348517372L201.0652272185244 195.2182951672806Q201.05015445476656 195.17255712553265 201.01585092345562 195.06860703065098Q200.98154739214465 194.96465693576934 200.9462043598849 194.85291058377155Q200.91034157715072 194.74116423177375 200.88747255627675 194.67255716915184L200.88747255627675 194.67255716915184Q200.86252453350517 194.7765072640335 200.83289875646386 194.87941785796636Q200.803792729897 194.9823284518992 200.77624595475336 195.0696465315998Q200.74817942913532 195.15748436177483 200.72790916063337 195.2182951672806L200.72790916063337 195.2182951672806L200.2861212573863 196.38825348517372Z " id="BottomLineText" fill="black"></path><path d="M232.29391443583938 197.95993979372685L231.9427767122347 197.95993979372685L231.58346348866246 197.03365564740756L230.41395821830966 197.03365564740756L230.05668886972933 197.95993979372685L229.71331787109375 197.95993979372685L230.85502644155702 195.02984060537L231.16038136534362 195.02984060537L232.29391443583938 197.95993979372685ZM230.5275976678581 196.7323884736047L231.4816785140669 196.7323884736047L231.14035139042323 195.81223595226106Q231.12849691547032 195.776263752404 231.10151776557754 195.69450875272884Q231.07453861568473 195.6127537530537 231.0467419157952 195.52486712840295Q231.01853644090727 195.43698050375218 231.00055034097875 195.3830222039666L231.00055034097875 195.3830222039666Q230.98092914105672 195.46477720364175 230.95762896614931 195.5457146533201Q230.93473756624027 195.6266521029985 230.91307249132635 195.69532630272562Q230.89099864141406 195.76440927745108 230.8750564164774 195.81223595226106L230.8750564164774 195.81223595226106L230.5275976678581 196.7323884736047ZM233.5235096309534 197.99999974356766L233.5235096309534 197.99999974356766Q233.22837408212618 197.99999974356766 233.0027302830228 197.87818479405172Q232.77708648391942 197.75636984453575 232.6515925594181 197.50701709552658Q232.52568985991837 197.25725557151907 232.52568985991837 196.8783211480248L232.52568985991837 196.8783211480248Q232.52568985991837 196.48099184960364 232.6585417343905 196.2283689006075Q232.7909848338642 195.97574595161132 233.0248041329351 195.85433977709374Q233.25821465700758 195.73252482757778 233.55539408082672 195.73252482757778L233.55539408082672 195.73252482757778Q233.71931285517536 195.73252482757778 233.87178592956948 195.76522682744786Q234.024667778962 195.79833760231628 234.12236500357378 195.8482081521181L234.12236500357378 195.8482081521181L234.0226239039701 196.12576637601518Q233.92288280436645 196.0857064261744 233.79207480488623 196.0538219763011Q233.661266805406 196.0219375264278 233.54762735585757 196.0219375264278L233.54762735585757 196.0219375264278Q233.31993968176232 196.0219375264278 233.16951048236007 196.11963475103954Q233.01867250795945 196.21733197565135 232.94386668325672 196.40700357489766Q232.86906085855395 196.59667517414397 232.86906085855395 196.87423339804104L232.86906085855395 196.87423339804104Q232.86906085855395 197.13952837198687 232.94182280826482 197.3271560962413Q233.01458475797568 197.51478382049572 233.1592911074007 197.61370737010265Q233.30399745682567 197.71263091970957 233.52146575596151 197.71263091970957L233.52146575596151 197.71263091970957Q233.6951951302712 197.71263091970957 233.83499617971566 197.67543239485735Q233.97479722916015 197.63864264500356 234.0884366787086 197.58877209520173L234.0884366787086 197.58877209520173L234.0884366787086 197.88390764402897Q233.9788849791439 197.93990981880643 233.84398922967995 197.96975039368786Q233.70909348021596 197.99999974356766 233.5235096309534 197.99999974356766ZM236.98051979221648 195.73252482757778L236.98051979221648 195.73252482757778Q237.34187689078058 195.73252482757778 237.52541686505126 195.92097010182897Q237.70936561432032 196.10982415107856 237.70936561432032 196.52677464942172L237.70936561432032 196.52677464942172L237.70936561432032 197.95993979372685L237.3819368406214 197.95993979372685L237.3819368406214 196.54271687435838Q237.3819368406214 196.27742190041255 237.26707106607785 196.14457002594048Q237.15220529153427 196.0117181514684 236.9265614924309 196.0117181514684L236.9265614924309 196.0117181514684Q236.60935209369137 196.0117181514684 236.4658720692615 196.19566690073742Q236.32198326983328 196.3792068750081 236.32198326983328 196.73647622358845L236.32198326983328 196.73647622358845L236.32198326983328 197.95993979372685L235.9925106211425 197.95993979372685L235.9925106211425 196.54271687435838Q235.9925106211425 196.36530852506334 235.9418225213439 196.24758132553114Q235.89072564654694 196.12944535100058 235.7901669969465 196.07058175123447Q235.68919957234772 196.0117181514684 235.53550017295848 196.0117181514684L235.53550017295848 196.0117181514684Q235.31803187382263 196.0117181514684 235.18640632434565 196.10164865111102Q235.0543719998703 196.19157915075368 234.9955084001042 196.36816995005196Q234.93664480033812 196.54476074935025 234.93664480033812 196.80228899832693L234.93664480033812 196.80228899832693L234.93664480033812 197.95993979372685L234.6055370516538 197.95993979372685L234.6055370516538 195.77217600242022L234.8728759005915 195.77217600242022L234.92274645039333 196.0816186761906L234.94073255032188 196.0816186761906Q235.00654532506036 195.96797922664217 235.106286424664 195.89031197695078Q235.20643629926604 195.81223595226106 235.32988634877552 195.77217600242022Q235.45374517328335 195.73252482757778 235.5935462227278 195.73252482757778L235.5935462227278 195.73252482757778Q235.842898971737 195.73252482757778 236.01172304606615 195.82531675220906Q236.18013834539693 195.91810867684035 236.25617049509478 196.10778027608666L236.25617049509478 196.10778027608666L236.27415659502333 196.10778027608666Q236.38166441959612 195.91810867684035 236.56929214385056 195.82531675220906Q236.756919868105 195.73252482757778 236.98051979221648 195.73252482757778ZM239.23205248326968 195.73252482757778L239.23205248326968 195.73252482757778Q239.51165458215866 195.73252482757778 239.71113678136598 195.85638365208564Q239.9106189805733 195.97983370159508 240.01649170515262 196.2026160757098Q240.1223644297319 196.42498967482618 240.1223644297319 196.72257787364367L240.1223644297319 196.72257787364367L240.1223644297319 196.92819169782663L238.61153203573542 196.92819169782663Q238.61725488571267 197.31325774629653 238.80283873497524 197.51478382049572Q238.9884225842378 197.71630989469494 239.3260707328961 197.71630989469494L239.3260707328961 197.71630989469494Q239.53331965707258 197.71630989469494 239.69315068143746 197.67870259484437Q239.85298170580234 197.64068651999543 240.02466720512012 197.56669824528944L240.02466720512012 197.56669824528944L240.02466720512012 197.8581548191313Q239.8587045557796 197.93214309383728 239.69601210642608 197.96607141870248Q239.53331965707258 197.99999974356766 239.31176360795294 197.99999974356766L239.31176360795294 197.99999974356766Q238.99659808420532 197.99999974356766 238.76196123513768 197.8712356190793Q238.5277331610684 197.74247149459097 238.39774271158495 197.49270997058346Q238.26816103709984 197.24335722157429 238.26816103709984 196.8820001230102L238.26816103709984 196.8820001230102Q238.26816103709984 196.52881852441362 238.3867057866288 196.2704727254402Q238.50565931115614 196.0117181514684 238.72231006029523 195.87232587702226Q238.93855203443596 195.73252482757778 239.23205248326968 195.73252482757778ZM239.22796473328594 196.00395142649924L239.22796473328594 196.00395142649924Q238.96266975934012 196.00395142649924 238.8048826099671 196.1776808008089Q238.6470954605941 196.3510014001202 238.61725488571267 196.66248794888247L238.61725488571267 196.66248794888247L239.77490568111259 196.66248794888247Q239.77286180612072 196.4670934996589 239.71399820635463 196.31829940025014Q239.65513460658852 196.1695053008414 239.53536353206445 196.08652397617112Q239.41559245754038 196.00395142649924 239.22796473328594 196.00395142649924ZM241.79711559807706 197.95993979372685L241.79711559807706 195.0416950803229L242.62324986979428 195.0416950803229Q243.17019081762095 195.0416950803229 243.44570516652615 195.20561385467155Q243.72121951543136 195.36912385402184 243.72121951543136 195.76236540245924L243.72121951543136 195.76236540245924Q243.72121951543136 195.93200702678513 243.6562242906896 196.0669027762491Q243.59122906594789 196.2013897507147 243.46737024144005 196.28927637536546Q243.3439201919306 196.37716300001622 243.1620153176534 196.4110913248814L243.1620153176534 196.4110913248814L243.1620153176534 196.43112129980182Q243.35373079189162 196.46096187468325 243.50129856630525 196.5406729993665Q243.64927511571724 196.62079289904813 243.73307399038424 196.764272923478Q243.81687286505127 196.90816172290624 243.81687286505127 197.12971777202586L243.81687286505127 197.12971777202586Q243.81687286505127 197.39910049595542 243.69219649054668 197.58468434521797Q243.5675201160421 197.77026819448054 243.33983244194684 197.8651039941037Q243.1121447678516 197.95993979372685 242.8010669940877 197.95993979372685L242.8010669940877 197.95993979372685L241.79711559807706 197.95993979372685ZM242.13639884672887 195.3311077791729L242.13639884672887 196.29336412534923L242.69519426950842 196.29336412534923Q243.07617256799455 196.29336412534923 243.2229227924114 196.16746142584952Q243.36967301682827 196.04196750134818 243.36967301682827 195.80038147730815L243.36967301682827 195.80038147730815Q243.36967301682827 195.5506199533006 243.19512609252186 195.44106825373592Q243.02057916821545 195.3311077791729 242.63919209473093 195.3311077791729L242.63919209473093 195.3311077791729L242.13639884672887 195.3311077791729ZM242.71318036943694 196.57868907421545L242.13639884672887 196.57868907421545L242.13639884672887 197.67052709487686L242.74302094431837 197.67052709487686Q243.132174742772 197.67052709487686 243.29404964212878 197.51764524548435Q243.45551576648717 197.36517217109025 243.45551576648717 197.1056000471217L243.45551576648717 197.1056000471217Q243.45551576648717 196.94004617277955 243.3827538167763 196.82231897324732Q243.30999186706543 196.70459177371515 243.1472994177119 196.6416404239653Q242.98460696835838 196.57868907421545 242.71318036943694 196.57868907421545L242.71318036943694 196.57868907421545ZM246.08434778104112 197.18367607181142L246.08434778104112 197.18367607181142Q246.08434778104112 197.4428394207816 245.9555836565528 197.62556184505553Q245.82681953206443 197.80828426932948 245.5954528829838 197.90393761894939Q245.36367745890482 197.99999974356766 245.05055581014904 197.99999974356766L245.05055581014904 197.99999974356766Q244.88459316080852 197.99999974356766 244.7370253863949 197.984057518631Q244.5894576119813 197.96811529369435 244.46559878747345 197.93786594381456Q244.34173996296562 197.90802536893312 244.24813048833758 197.86428644410694L244.24813048833758 197.86428644410694L244.24813048833758 197.53890154539988Q244.39774213774308 197.60062657015465 244.61316656188706 197.6533585449451Q244.82899976102942 197.70649929473393 245.06445416009382 197.70649929473393L245.06445416009382 197.70649929473393Q245.28396633422156 197.70649929473393 245.43562185861893 197.64763569496785Q245.5872773830163 197.58877209520173 245.6661709577028 197.47799407064193Q245.7450645323893 197.36721604608212 245.7450645323893 197.21147277170098L245.7450645323893 197.21147277170098Q245.7450645323893 197.06186112229548 245.67925175765083 196.9608936976967Q245.61303020791397 196.86033504809626 245.46055713351984 196.77735372342602Q245.30767528412733 196.69437239875577 245.0444241851734 196.6007629241277L245.0444241851734 196.6007629241277Q244.85884033591086 196.53495014938926 244.7169954114745 196.45605657470276Q244.57515048703814 196.37716300001622 244.47949713741824 196.27742190041255Q244.38384378779833 196.1776808008089 244.33479078799323 196.04564647633356Q244.28573778818816 195.9140209268566 244.28573778818816 195.7443793025307L244.28573778818816 195.7443793025307Q244.28573778818816 195.51096877845816 244.40469131271547 195.3441885791209Q244.52323606224442 195.17740837978363 244.73416396140627 195.0887042051361Q244.94468308556975 195.0000000304886 245.21815355948306 195.0000000304886L245.21815355948306 195.0000000304886Q245.45156408355558 195.0000000304886 245.65022873276615 195.04373895531478Q245.84889338197672 195.08788665513936 246.01444725631887 195.16146615484698L246.01444725631887 195.16146615484698L245.9085745317396 195.45292272868883Q245.75078738236658 195.38710995395036 245.57419658306827 195.34337102912417Q245.39760578377 195.2992233292996 245.20997805951555 195.2992233292996L245.20997805951555 195.2992233292996Q245.0223503352611 195.2992233292996 244.89358621077278 195.35399917908194Q244.76482208628445 195.40918380386262 244.69696543655408 195.5089249034663Q244.62910878682374 195.60866600306997 244.62910878682374 195.74642317752256L244.62910878682374 195.74642317752256Q244.62910878682374 195.90012257691183 244.69410401156546 196.00190755150737Q244.75909923630718 196.10369252610292 244.9017617107403 196.18258610078942Q245.0444241851734 196.26147967547593 245.2798785842378 196.3473224251348L245.2798785842378 196.3473224251348Q245.53740683321448 196.44093189976283 245.71685905750138 196.5459870743454Q245.89672005678668 196.65063347392956 245.99032953141472 196.80147144833018Q246.08434778104112 196.95190064773243 246.08434778104112 197.18367607181142ZM248.8607475700087 197.95993979372685L248.5092010714056 197.95993979372685L248.15029662283177 197.03365564740756L246.9803825774806 197.03365564740756L246.62311322890025 197.95993979372685L246.2797422302647 197.95993979372685L247.42145080072794 195.02984060537L247.72680572451458 195.02984060537L248.8607475700087 197.95993979372685ZM247.0944308020274 196.7323884736047L248.04851164823623 196.7323884736047L247.70718452459255 195.81223595226106Q247.69492127464127 195.776263752404 247.6679421247485 195.69450875272884Q247.64096297485568 195.6127537530537 247.61316627496615 195.52486712840295Q247.58536957507658 195.43698050375218 247.56738347514806 195.3830222039666L247.56738347514806 195.3830222039666Q247.54735350022764 195.46477720364175 247.52446210031863 195.5457146533201Q247.5015707004096 195.6266521029985 247.4794968504973 195.69532630272562Q247.457423000585 195.76440927745108 247.44148077564836 195.81223595226106L247.44148077564836 195.81223595226106L247.0944308020274 196.7323884736047ZM251.13394533597582 195.0416950803229L251.47159348463413 195.0416950803229L251.47159348463413 196.92982679782014Q251.47159348463413 197.23926947159055 251.34650833513118 197.48085549563055Q251.2218319606266 197.72244151967058 250.97043533662554 197.86101624411992Q250.71903871262452 197.99999974356766 250.33969551413188 197.99999974356766L250.33969551413188 197.99999974356766Q249.79888619128087 197.99999974356766 249.51642266740328 197.70649929473393Q249.23395914352568 197.41299884590018 249.23395914352568 196.92206007285102L249.23395914352568 196.92206007285102L249.23395914352568 195.0416950803229L249.5752862671694 195.0416950803229L249.5752862671694 196.931870672812Q249.5752862671694 197.30344714633551 249.7719070413881 197.50497322053474Q249.96852781560676 197.70649929473393 250.3597254890523 197.70649929473393L250.3597254890523 197.70649929473393Q250.62706433799 197.70649929473393 250.79793228731103 197.6096196201189Q250.96839146163367 197.51273994550385 251.05137278630394 197.33819302119744Q251.13394533597582 197.16364609689103 251.13394533597582 196.9339145478039L251.13394533597582 196.9339145478039L251.13394533597582 195.0416950803229ZM254.34160274822975 195.0416950803229L254.34160274822975 197.95993979372685L254.0182617245146 197.95993979372685L254.0182617245146 195.8919470769443Q254.0182617245146 195.77421987741212 254.01907927451134 195.68960345274834Q254.02030559950646 195.6045782530862 254.02316702449508 195.5338601783672Q254.0264372244821 195.46314210364824 254.03216007445934 195.38915382894223L254.03216007445934 195.38915382894223Q253.97043504970463 195.45292272868883 253.91647674991904 195.49788797851016Q253.86251845013345 195.54285322833147 253.7828073254502 195.60866600306997L253.7828073254502 195.60866600306997L253.44924692677563 195.87600485200767L253.27592632746436 195.65076982790265L254.06608839932454 195.0416950803229L254.34160274822975 195.0416950803229ZM257.5030685856672 196.98378509760573L257.5030685856672 197.2834171714151L257.0660881124036 197.2834171714151L257.0660881124036 197.95993979372685L256.7427470886885 197.95993979372685L256.7427470886885 197.2834171714151L255.3316557942956 197.2834171714151L255.3316557942956 197.00381507252615L256.72067323877616 195.02575285538626L257.0660881124036 195.02575285538626L257.0660881124036 196.98378509760573L257.5030685856672 196.98378509760573ZM255.6611284429864 196.98378509760573L256.7427470886885 196.98378509760573L256.7427470886885 196.0297042513969Q256.7427470886885 195.92015255183225 256.7447909636803 195.83103960218634Q256.7468348386722 195.74233542753882 256.75092258865595 195.66548572784419Q256.75460156364136 195.58863602814955 256.7578717636284 195.5187355034273Q256.760733188617 195.44883497870507 256.76277706360884 195.38097832897472L256.76277706360884 195.38097832897472L256.7468348386722 195.38097832897472Q256.7088187638233 195.46109822865634 256.6597657640182 195.5498024033039Q256.61112153921147 195.63850657795138 256.56125098940964 195.70840710267362L256.56125098940964 195.70840710267362L255.6611284429864 196.98378509760573ZM258.7048670808917 196.17563692581703L258.7048670808917 196.17563692581703Q259.0020465047108 196.17563692581703 259.2219674538369 196.27619557541743Q259.44147962796467 196.37716300001622 259.56206825248546 196.5688784742544Q259.6826568770063 196.76018517349422 259.6826568770063 197.03365564740756L259.6826568770063 197.03365564740756Q259.6826568770063 197.33328772121695 259.5530752025212 197.54993847035604Q259.4234935280361 197.76618044449677 259.1798636290042 197.8830900940322Q258.9362337299723 197.99999974356766 258.5969504813205 197.99999974356766L258.5969504813205 197.99999974356766Q258.36967158222365 197.99999974356766 258.1738683580017 197.95993979372685Q257.97847390877814 197.919879843886 257.8443957093109 197.84016871920278L257.8443957093109 197.84016871920278L257.8443957093109 197.52500319545513Q257.990328383731 197.61248104510753 258.19798608290586 197.66439546990122Q258.4052350070823 197.71630989469494 258.60103823130424 197.71630989469494L258.60103823130424 197.71630989469494Q258.82259428042386 197.71630989469494 258.9893744797612 197.64559181997595Q259.15574590410006 197.57487374525695 259.24853782873134 197.43016739583197Q259.34132975336263 197.28546104640697 259.34132975336263 197.06554009728086L259.34132975336263 197.06554009728086Q259.34132975336263 196.7744922984374 259.1626950790724 196.61547882406927Q258.98406040478227 196.45687412469948 258.5989943563124 196.45687412469948L258.5989943563124 196.45687412469948Q258.47513553180454 196.45687412469948 258.3275677573909 196.4769040996199Q258.17999998297734 196.49693407454032 258.08393785835904 196.5206430244461L258.08393785835904 196.5206430244461L257.916340109025 196.4110913248814L258.02834445857997 195.0416950803229L259.4790869278152 195.0416950803229L259.4790869278152 195.345414904116L258.3116255324543 195.345414904116L258.2376372577483 196.22550747561885Q258.3136694074462 196.2095652506822 258.43344048197025 196.1923967007504Q258.5532115564943 196.17563692581703 258.7048670808917 196.17563692581703ZM261.1100991713341 195.73252482757778L261.1100991713341 195.73252482757778Q261.3892924952247 195.73252482757778 261.58918346943045 195.85638365208564Q261.78866566863775 195.97983370159508 261.8945383932171 196.2026160757098Q262.000002342798 196.42498967482618 262.000002342798 196.72257787364367L262.000002342798 196.72257787364367L262.000002342798 196.92819169782663L260.4891699488015 196.92819169782663Q260.4953015737771 197.31325774629653 260.6808854230397 197.51478382049572Q260.86646927230225 197.71630989469494 261.2037086459622 197.71630989469494L261.2037086459622 197.71630989469494Q261.411366345137 197.71630989469494 261.57119736950193 197.67870259484437Q261.73061961886845 197.64068651999543 261.9023051181862 197.56669824528944L261.9023051181862 197.56669824528944L261.9023051181862 197.8581548191313Q261.7367512438441 197.93214309383728 261.57405879449055 197.96607141870248Q261.411366345137 197.99999974356766 261.1898102960174 197.99999974356766L261.1898102960174 197.99999974356766Q260.8742359972714 197.99999974356766 260.6400079232021 197.8712356190793Q260.4053710741345 197.74247149459097 260.2757893996494 197.49270997058346Q260.14579895016595 197.24335722157429 260.14579895016595 196.8820001230102L260.14579895016595 196.8820001230102Q260.14579895016595 196.52881852441362 260.26475247469324 196.2704727254402Q260.3832972242222 196.0117181514684 260.5999479733613 195.87232587702226Q260.81659872250043 195.73252482757778 261.1100991713341 195.73252482757778ZM261.1060114213504 196.00395142649924L261.1060114213504 196.00395142649924Q260.8403076724062 196.00395142649924 260.6829292980316 196.1776808008089Q260.5251421486586 196.3510014001202 260.4953015737771 196.66248794888247L260.4953015737771 196.66248794888247L261.65295236917706 196.66248794888247Q261.65090849418516 196.4670934996589 261.5920448944191 196.31829940025014Q261.533181294653 196.1695053008414 261.4134102201289 196.08652397617112Q261.2936391456048 196.00395142649924 261.1060114213504 196.00395142649924Z " id="BsauText" fill="black"></path><defs><linearGradient id="SvgjsLinearGradient1000"><stop stop-opacity="1" stop-color="black" offset="0"></stop><stop stop-opacity="1" stop-color="red" offset="0.5"></stop><stop stop-opacity="1" stop-color="blue" offset="1"></stop></linearGradient><radialGradient id="SvgjsRadialGradient1001"><stop stop-opacity="1" stop-color="red" offset="0"></stop><stop stop-opacity="1" stop-color="black" offset="1"></stop></radialGradient><linearGradient x1="0" y1="0" x2="0" y2="1" id="SvgjsLinearGradient1002"><stop stop-opacity="1" stop-color="blue" offset="0"></stop><stop stop-opacity="1" stop-color="green" offset="1"></stop></linearGradient><mask id="SideBadgeLeftTextCutMask"><rect width="44" height="193" fill="white" x="5" y="5" id="SideBadgeLeftVisibleArea"></rect><path d="M15.888751262115647 180.9049796582609L17.391544857008796 180.9049796582609L17.391544857008796 184.2525711964963Q17.391544857008796 184.95294001029046 17.125108667556503 185.4678941659278Q16.85867247810421 185.98362737475065 16.326579152385193 186.263307468357Q15.793706773480608 186.54298756196334 14.991281992381573 186.54298756196334L14.991281992381573 186.54298756196334Q13.842178543720365 186.54298756196334 13.237633271746745 185.95324430051485Q12.632308946587614 185.36350103906636 12.632308946587614 184.28684953665973L12.632308946587614 184.28684953665973L12.632308946587614 180.9049796582609L14.142893073336154 180.9049796582609L14.142893073336154 184.16921250564425Q14.142893073336154 184.75895576709274 14.363365124841948 185.0246129033595Q14.5838371763478 185.2910490928118 15.013874534762067 185.2910490928118L15.013874534762067 185.2910490928118Q15.322379596233077 185.2910490928118 15.516363839430824 185.17497016816736Q15.71034808262857 185.05889124352296 15.799160145779297 184.8080361177813Q15.888751262115647 184.5571809920397 15.888751262115647 184.16142197378892L15.888751262115647 184.16142197378892L15.888751262115647 180.9049796582609ZM23.854570084190698 180.9049796582609L23.854570084190698 186.4666403497811L21.883565524792175 186.4666403497811L19.852573870107562 182.54878187973557L19.818295529944123 182.54878187973557Q19.836992806396893 182.72718505922262 19.852573870107562 182.97804018496427Q19.868154933818232 183.22967436389143 19.879061678415724 183.48987812785947Q19.890747476198726 183.75086094501302 19.890747476198726 183.95964719873587L19.890747476198726 183.95964719873587L19.890747476198726 186.4666403497811L18.559345582122774 186.4666403497811L18.559345582122774 180.9049796582609L20.52178055648045 180.9049796582609L22.54576073249524 184.7698625116902L22.568353274875676 184.7698625116902Q22.557446530278185 184.5875640662755 22.54576073249524 184.34605757876025Q22.534074934712237 184.104551091245 22.524726296485824 183.85681217824552Q22.515377658259467 183.60985231843154 22.515377658259467 183.41976334116148L22.515377658259467 183.41976334116148L22.515377658259467 180.9049796582609L23.854570084190698 180.9049796582609ZM26.566454223031087 186.4666403497811L25.05664914946817 186.4666403497811L25.05664914946817 180.9049796582609L26.566454223031087 180.9049796582609L26.566454223031087 186.4666403497811ZM30.22255082273756 182.1335465318465L30.22255082273756 186.4666403497811L28.719757227844354 186.4666403497811L28.719757227844354 182.1335465318465L27.361867525460298 182.1335465318465L27.361867525460298 180.9049796582609L31.57654525919395 180.9049796582609L31.57654525919395 182.1335465318465L30.22255082273756 182.1335465318465ZM35.67358596191207 185.24196874212322L35.67358596191207 186.4666403497811L32.37117950843765 186.4666403497811L32.37117950843765 180.9049796582609L35.67358596191207 180.9049796582609L35.67358596191207 182.11095398946603L33.8739731033308 182.11095398946603L33.8739731033308 182.9858307168196L35.54036786718592 182.9858307168196L35.54036786718592 184.19180504802472L33.8739731033308 184.19180504802472L33.8739731033308 185.24196874212322L35.67358596191207 185.24196874212322ZM41.36768569497286 183.56778344641276L41.36768569497286 183.56778344641276Q41.36768569497286 184.53770466240138 41.00620501688559 185.18120259365162Q40.644724338798255 185.82392147171637 39.98876155657945 186.14489138415598Q39.33279877436064 186.4666403497811 38.44623624922406 186.4666403497811L38.44623624922406 186.4666403497811L36.647402443828355 186.4666403497811L36.647402443828355 180.9049796582609L38.571663812094926 180.9049796582609Q39.469912135014454 180.9049796582609 40.093154683440844 181.21348471973198Q40.7171762850528 181.52121072801754 41.042820516605616 182.1148492553937Q41.36768569497286 182.70848778276985 41.36768569497286 183.56778344641276ZM39.80802121753578 183.62153811621454L39.80802121753578 183.62153811621454Q39.80802121753578 183.11515354561809 39.673245016438614 182.78249783539547Q39.53846881534139 182.4498421251729 39.26813735996143 182.28390379665436Q38.99780590458147 182.11874452132136 38.58724487580554 182.11874452132136L38.58724487580554 182.11874452132136L38.14941698553599 182.11874452132136L38.14941698553599 185.23417821026788L38.48440985531522 185.23417821026788Q39.16919760539872 185.23417821026788 39.48860941146722 184.83686108564604Q39.80802121753578 184.43876490783867 39.80802121753578 183.62153811621454Z M10.982045112651065 191.9021258305796L12.679047953715212 194.9248162436866L11.00812924311947 194.9248162436866L9.925637828679385 192.83118118344066L9.48757787287127 193.0927896684329L9.48757787287127 194.9248162436866L8.000015255862479 194.9248162436866L8.000015255862479 189.44791602562293L9.48757787287127 189.44791602562293L9.48757787287127 191.82694216040588Q9.58117387043444 191.6474219683584 9.703155539389797 191.46713459600304Q9.824370028037208 191.28761440395556 9.940981434837283 191.12650653929757L9.940981434837283 191.12650653929757L11.09098471637219 189.44791602562293L12.70896798572312 189.44791602562293L10.982045112651065 191.9021258305796ZM14.758106588111104 194.9248162436866L13.27131115141026 194.9248162436866L13.27131115141026 189.44791602562293L14.758106588111104 189.44791602562293L14.758106588111104 194.9248162436866ZM21.156390355956944 189.44791602562293L21.156390355956944 194.9248162436866L19.216191357289972 194.9248162436866L17.21538511429935 191.06666647528175L17.181629180751997 191.06666647528175Q17.200808688449342 191.24235076578975 17.21538511429935 191.489382824932Q17.230728720457307 191.73718206438213 17.241469244767814 191.99342028721912Q17.252976949386266 192.250425690364 17.252976949386266 192.45603001287992L17.252976949386266 192.45603001287992L17.252976949386266 194.9248162436866L15.941865803193366 194.9248162436866L15.941865803193366 189.44791602562293L17.87516017908922 189.44791602562293L19.867527438693003 193.25389753309088L19.89054284792985 193.25389753309088Q19.879035143311455 193.07437734104343 19.867527438693003 192.83655144559592Q19.856786914382496 192.59872555014843 19.846813570379823 192.35476221223774Q19.837607406685095 192.11156605463498 19.837607406685095 191.92437405950855L19.837607406685095 191.92437405950855L19.837607406685095 189.44791602562293L21.156390355956944 189.44791602562293ZM24.538888333466787 192.86110121544857L24.538888333466787 191.71800255668475L26.902570862091807 191.71800255668475L26.902570862091807 194.6701123814654Q26.479087332133645 194.8158766399655 25.93285495291235 194.9079382769129Q25.385855393383054 194.99999991386034 24.785920392609 194.99999991386034L24.785920392609 194.99999991386034Q23.995724675476993 194.99999991386034 23.400392756550275 194.69236061039436Q22.804293657315725 194.38548848723627 22.471337403689233 193.75793499537804Q22.137613969754852 193.13038150351977 22.137613969754852 192.1714061186508L22.137613969754852 192.1714061186508Q22.137613969754852 191.30986263288452 22.467501502149787 190.68230914102625Q22.79738903454472 190.054755649168 23.439518952252968 189.71259323184677Q24.08164886996127 189.3696636342176 25.014540124361815 189.3696636342176L25.014540124361815 189.3696636342176Q25.527783750343644 189.3696636342176 25.988859115388664 189.4670955333203Q26.449167300125794 189.56452743242298 26.790562537139124 189.71412759246255L26.790562537139124 189.71412759246255L26.321815369015155 190.87563857861585Q26.02645095047552 190.72910713980787 25.70807112269904 190.65622501055782Q25.3896912949225 190.58334288130777 25.022211927440765 190.58334288130777L25.022211927440765 190.58334288130777Q24.531216530387837 190.58334288130777 24.23355057092448 190.80429080998158Q23.935884611461177 191.0252387386554 23.80086087727159 191.394252466753Q23.665837143082058 191.7632661948506 23.665837143082058 192.20899795373765L23.665837143082058 192.20899795373765Q23.665837143082058 192.71840567818006 23.810067040966373 193.06900707888815Q23.954296938850632 193.41884129928837 24.23355057092448 193.60066303225952Q24.512804202998325 193.78248476523066 24.910203602488025 193.78248476523066L24.910203602488025 193.78248476523066Q25.04062425483022 193.78248476523066 25.230117790880342 193.76330525753332Q25.419611326930408 193.7448929301438 25.517043226033138 193.71880879967537L25.517043226033138 193.71880879967537L25.517043226033138 192.86110121544857L24.538888333466787 192.86110121544857ZM32.66793087592407 192.07013831800865L32.66793087592407 192.07013831800865Q32.66793087592407 193.02527780133812 32.31195921306073 193.65896873565956Q31.955987550197392 194.29189248967307 31.310021730949643 194.6079707765259Q30.664055911701894 194.9248162436866 29.791004721317165 194.9248162436866L29.791004721317165 194.9248162436866L28.018818210079303 194.9248162436866L28.018818210079303 189.44791602562293L29.9145207508883 189.44791602562293Q30.798312465583535 189.44791602562293 31.41282389220754 189.7517194275494Q32.027335318831604 190.054755649168 32.34724950722392 190.63934704378414Q32.66793087592407 191.22393843840027 32.66793087592407 192.07013831800865ZM31.132035899517973 192.1230737592534L31.132035899517973 192.1230737592534Q31.132035899517973 191.62440655912155 30.99931370625211 191.2968205676503Q30.8658243326783 190.96923457617908 30.599612765838685 190.8058251705974Q30.33416837930696 190.6431829453236 29.92909717673831 190.6431829453236L29.92909717673831 190.6431829453236L29.498709024009088 190.6431829453236L29.498709024009088 193.71113699659642L29.828596556404023 193.71113699659642Q30.5029480470439 193.71113699659642 30.81749197328088 193.3198750395699Q31.132035899517973 192.92784590223545 31.132035899517973 192.1230737592534ZM38.77391894646178 192.17907792172977L38.77391894646178 192.17907792172977Q38.77391894646178 192.81200167574326 38.62201724549857 193.33061556388043Q38.47011554453536 193.84999663232546 38.147899815219375 194.22438062257828Q37.82568408590339 194.59876461283116 37.32011226300045 194.7989986731918Q36.81454044009752 194.99999991386034 36.11026891744973 194.99999991386034L36.11026891744973 194.99999991386034Q35.4213410009599 194.99999991386034 34.91730353867274 194.7989986731918Q34.41326607638564 194.59876461283116 34.08721444553015 194.2259149831941Q33.76192999498261 193.85383253386493 33.60465803186406 193.3329171048041Q33.44661888843768 192.81200167574326 33.44661888843768 192.1714061186508L33.44661888843768 192.1714061186508Q33.44661888843768 191.31753443596347 33.729708422050976 190.68614504256573Q34.012797955664325 190.054755649168 34.60429397305154 189.70875733030726Q35.19655717074659 189.36199183113865 36.117940720528736 189.36199183113865L36.117940720528736 189.36199183113865Q37.05466787646873 189.36199183113865 37.6407936317006 189.71029169092307Q38.22691938693259 190.0585915507075 38.50003557654321 190.691515304721Q38.77391894646178 191.32520623904242 38.77391894646178 192.17907792172977ZM35.005529274080686 192.17907792172977L35.005529274080686 192.17907792172977Q35.005529274080686 192.67314204001426 35.117537599033426 193.0291137028776Q35.230313104294 193.38508536574096 35.473509261896766 193.57611326240686Q35.71670541949953 193.76714115907276 36.11026891744973 193.76714115907276L36.11026891744973 193.76714115907276Q36.51840884124999 193.76714115907276 36.76007063823698 193.57611326240686Q37.00173243522397 193.38508536574096 37.10837049802137 193.0291137028776Q37.21577574112672 192.67314204001426 37.21577574112672 192.17907792172977L37.21577574112672 192.17907792172977Q37.21577574112672 191.4372145639951 36.96797650167656 191.00682641126593Q36.720944442534346 190.57567107822882 36.117940720528736 190.57567107822882L36.117940720528736 190.57567107822882Q35.71670541949953 190.57567107822882 35.47197490128099 190.7705348764342Q35.226477202754495 190.96539867463957 35.11600323841759 191.32520623904242Q35.005529274080686 191.68424662313737 35.005529274080686 192.17907792172977ZM43.55728816618824 194.9248162436866L42.14874512089273 194.9248162436866L41.02866187136573 190.97997510048958L40.99490593781837 190.97997510048958Q41.01024954397627 191.13417834237652 41.027127510750006 191.3957868273688Q41.044005477523626 191.65816249266894 41.05858190337369 191.9619658945954Q41.07392550953159 192.26500211621402 41.07392550953159 192.54579010890365L41.07392550953159 192.54579010890365L41.07392550953159 194.9248162436866L39.76281436333869 194.9248162436866L39.76281436333869 189.44791602562293L41.73293339401357 189.44791602562293L42.875264872469415 193.3367530063436L42.90595208478527 193.3367530063436L44.02526815400432 189.44791602562293L45.99999026652654 189.44791602562293L45.99999026652654 194.9248162436866L44.63977958062833 194.9248162436866L44.63977958062833 192.5235418799747Q44.63977958062833 192.26500211621402 44.64898574432311 191.96733615675066Q44.65895908832579 191.66967019728736 44.67200115355996 191.4057601713714Q44.68504321879419 191.14108296514758 44.69655092341259 190.98764690356853L44.69655092341259 190.98764690356853L44.662794989865176 190.98764690356853L43.55728816618824 194.9248162436866Z " id="SideBadgeLeftText" fill="black"></path></mask><linearGradient x1="0" y1="0" x2="0" y2="1" id="SvgjsLinearGradient1003"><stop stop-opacity="1" stop-color="blue" offset="0"></stop><stop stop-opacity="1" stop-color="black" offset="1"></stop></linearGradient></defs><path d="M80.458006587535 86.59043782570934L65.55619809578248 90.06072199502158Q68.41407917639255 75.66924941052085 71.0678258941019 61.992247096172655L71.0678258941019 61.992247096172655Q72.0884977086055 56.276484934952514 73.26227029528464 49.99935327575539Q74.43604288196377 43.72222161655827 75.45671469646737 37.649224320261865Q76.47738651097096 31.576227023965473 77.34495755329903 25.9114984534705Q78.21252859562708 20.246769882975528 78.72286450287888 15.551679536258987L78.72286450287888 15.551679536258987Q81.88694712784003 15.34754517335827 84.84689538990045 15.143410810457553L84.84689538990045 15.143410810457553Q87.50064210760982 14.939276447556836 90.25645600676953 14.786175675381301Q93.01226990592924 14.633074903205753 95.1556807163868 14.428940540305035L95.1556807163868 14.428940540305035Q96.48255407524147 22.28811351198273 97.50322588974507 29.432816213507913L97.50322588974507 29.432816213507913Q98.01356179699687 32.49483165701871 98.57493129497385 35.812015054155395Q99.13630079295082 39.12919845129208 99.64663670020262 42.19121389480287Q100.15697260745442 45.253229338313666 100.6673085147062 48.06007682819856Q101.17764442195801 50.86692431808345 101.68798032920981 53.010335128541L101.68798032920981 53.010335128541Q102.09624905501124 50.86692431808345 102.60658496226304 48.06007682819856Q103.11692086951484 45.253229338313666 103.72932395821701 42.14018030407769Q104.34172704691917 39.027131269841725 105.0051637263465 35.76098146343021Q105.66860040577384 32.49483165701871 106.281003494476 29.432816213507913L106.281003494476 29.432816213507913Q107.8120112162314 22.28811351198273 109.44508611943715 14.531007721755401L109.44508611943715 14.531007721755401L121.89728225638103 13Q118.42699808706881 28.310077217553953 115.77325136935946 41.987079531902154L115.77325136935946 41.987079531902154Q114.54844519195512 47.90697605602302 113.374672605276 53.92893976159424Q112.20090001859687 59.95090346716546 111.18022820409327 65.56459844693524Q110.15955638958967 71.17829342670504 109.44508611943715 75.92441736414675Q108.73061584928463 80.67054130158849 108.32234712348318 83.93669110799999L108.32234712348318 83.93669110799999Q108.01614557913211 83.93669110799999 105.92376835939973 84.39599342452661Q103.83139113966737 84.85529574105324 101.12661083123284 85.46769882975539Q98.4218305227983 86.08010191845754 95.71705021436377 86.74353859788488Q93.01226990592924 87.40697527731223 91.68539654707456 87.81524400311366L91.68539654707456 87.81524400311366Q90.97092627692204 79.54780230563453 90.15438882531916 72.09689805975826L90.15438882531916 72.09689805975826Q89.84818728096809 68.9328154347971 89.43991855516666 65.56459844693524Q89.03164982936521 62.19638145907338 88.67441469428896 59.134366015562584Q88.31717955921269 56.072350572051796 87.95994442413644 53.36757026361726Q87.60270928906017 50.66278995518273 87.29650774470909 48.825580689076254L87.29650774470909 48.825580689076254Q86.99030620035802 50.66278995518273 86.47997029310622 53.316536672892084Q85.96963438585442 55.97028339060144 85.45929847860262 58.98126524338704Q84.94896257135082 61.992247096172655 84.43862666409902 65.20736331185898Q83.92829075684722 68.4224795275453 83.31588766814507 71.48449497105611L83.31588766814507 71.48449497105611Q81.98901430929038 78.73126485403165 80.458006587535 86.59043782570934L80.458006587535 86.59043782570934ZM166.70477491308895 50.66278995518273Q165.99030464293645 61.07364246311942 162.62208765507455 68.77971466262157Q159.2538706672127 76.48578686212375 154.507746729771 81.69121311609207Q149.76162279232923 86.89663937006043 144.30102858473498 89.44831890631941Q138.84043437714075 91.99999844257842 133.94120966752348 91.99999844257842L133.94120966752348 91.99999844257842Q130.16472395386018 91.99999844257842 126.74547337527312 90.36692353937265Q123.32622279668608 88.7338486361669 120.82557685115226 85.41666523903021Q118.32493090561844 82.09948184189352 116.89599036531342 77.09818995082588Q115.46704982500837 72.09689805975826 115.46704982500837 65.36046408403453L115.46704982500837 65.36046408403453Q115.46704982500837 52.193797676938125 119.24353553867168 42.39534825770359Q123.020021252335 32.596898838469066 128.7868170042803 26.06459922564604Q134.55361275622565 19.532299612823024 141.13694595977384 16.36821698786187Q147.72027916332206 13.204134362900717 153.4360413245422 13.204134362900717L153.4360413245422 13.204134362900717Q157.51872858255658 13.204134362900717 160.5297104353422 14.633074903205753Q163.5406922881278 16.062015443510788 165.47996873568462 18.46059420759424Q167.41924518324146 20.859172971677694 168.2868162255695 24.074289187364023Q169.1543872678976 27.28940540305036 169.1543872678976 30.861756753812948L169.1543872678976 30.861756753812948L155.1711834091983 33.5155034715223Q154.25257877614507 29.432816213507913 152.72157105438967 27.697674128851794Q151.19056333263427 25.962532044195683 149.25128688507743 25.962532044195683L149.25128688507743 25.962532044195683Q146.69960734881846 25.962532044195683 143.63759190530766 29.585916985683454Q140.57557646179686 33.20930192717122 137.92182974408752 38.925064088391366Q135.26808302637818 44.64082624961151 133.43087376027168 51.47932740678561Q131.5936644941652 58.31782856395971 131.38953013126448 64.95219535823308L131.38953013126448 64.95219535823308Q131.38953013126448 71.2803606081554 133.27777298809616 73.98514091658993Q135.1660158449278 76.68992122502445 138.12596410698825 76.68992122502445L138.12596410698825 76.68992122502445Q140.16730773599545 76.68992122502445 142.36175213717814 75.66924941052085Q144.5561965383609 74.64857759601725 146.291338623017 72.7603347391856Q148.02648070767313 70.87209188235394 149.20025329435225 68.37144593682014Q150.3740258810314 65.87079999128633 150.47609306248177 62.91085172922589L150.47609306248177 62.91085172922589L139.55490464729326 64.54392663243165L141.4941810948501 54.43927566884604Q146.291338623017 53.82687258014388 150.8843617882832 53.21446949144172L150.8843617882832 53.21446949144172Q154.76291468339687 52.704133584189925 159.10076989503716 51.98966331403741Q163.43862510667742 51.27519304388489 166.70477491308895 50.66278995518273L166.70477491308895 50.66278995518273ZM179.46317259438393 87.40697527731223Q171.19573089690476 88.01937836601438 162.21381892927312 88.63178145471653L162.21381892927312 88.63178145471653L163.94896101392925 75.77131659197121Q164.25516255828032 72.60723396701006 167.0620100481652 69.18798338842302Q169.8688575380501 65.76873280983597 173.74741043316374 62.247415049798555Q177.62596332827744 58.72609728976114 182.0658857213681 55.408913892624454Q186.50580811445872 52.09173049548776 190.28229382812202 49.02971505197697Q194.05877954178536 45.967699608466184 196.55942548731917 43.364986481482006Q199.060071432853 40.762273354497836 199.060071432853 38.822996906941L199.060071432853 38.822996906941Q199.060071432853 35.76098146343021 197.88629884617384 34.07687296949928Q196.7125262594947 32.39276447556834 194.9773841748386 32.39276447556834L194.9773841748386 32.39276447556834Q193.24224209018246 32.39276447556834 191.966402322053 33.15826833644604Q190.69056255392348 33.92377219732374 190.02712587449614 35.14857837472806Q189.36368919506882 36.37338455213237 189.05748765071772 37.8023250924374Q188.75128610636665 39.23126563274245 188.75128610636665 40.660206173047484L188.75128610636665 40.660206173047484L188.75128610636665 41.68087798755108Q188.75128610636665 41.987079531902154 188.85335328781701 42.08914671335252L188.85335328781701 42.08914671335252Q186.0975393886573 42.29328107625324 183.13759112659687 42.59948262060431L183.13759112659687 42.59948262060431Q180.58591159033784 42.80361698350504 177.47286255610192 43.16085211858129Q174.35981352186593 43.51808725365755 171.29779807835513 43.82428879800863L171.29779807835513 43.82428879800863Q171.19573089690476 43.007751346405755 171.14469730617958 42.14018030407769Q171.0936637154544 41.272609261749636 171.0936637154544 40.55813899159712L171.0936637154544 40.55813899159712Q171.0936637154544 34.536175286025895 173.4412088888127 29.79005134858417Q175.78875406217094 25.04392741114244 179.5142061851091 21.828811195456126Q183.23965830804724 18.61369497976979 187.98578224548893 16.87855289511367Q192.7319061829307 15.143410810457553 197.42699652964723 15.143410810457553L197.42699652964723 15.143410810457553Q201.3055494247609 15.143410810457553 204.82686718479832 16.36821698786187Q208.3481849448357 17.59302316526619 211.05296525327023 20.093669110800008Q213.75774556170478 22.594315056333812 215.39082046491055 26.4218343607223Q217.02389536811629 30.24935366511079 217.02389536811629 35.556847100529495L217.02389536811629 35.556847100529495Q217.02389536811629 40.660206173047484 214.37014865040695 45.508397291939566Q211.71640193269758 50.35658841083165 207.02131158598104 55.00064516682301Q202.3262212392645 59.644701922814384 195.89598880789183 64.03359072517985Q189.46575637651915 68.4224795275453 181.91278494919254 72.40309960410934L181.91278494919254 72.40309960410934Q184.66859884835225 72.40309960410934 189.00645405999256 72.19896524120863Q193.34430927163282 71.99483087830791 197.88629884617384 71.63759574323166Q202.42828842071484 71.2803606081554 207.73578185613357 70.87209188235394L207.73578185613357 70.87209188235394L206.1027069529278 85.67183319265611Q203.65309459811917 85.87596755555683 200.54004556388318 86.08010191845754Q197.42699652964723 86.28423628135826 193.9056787696098 86.48837064425898Q190.3843610095724 86.69250500715971 186.65890888663426 86.94767296078561Q182.93345676369614 87.20284091441151 179.46317259438393 87.40697527731223L179.46317259438393 87.40697527731223ZM259.790044395817 57.39922393090647Q259.790044395817 60.97157528166906 258.5652382184127 64.74806099533237Q257.3404320410084 68.52454670899567 255.24805482127599 72.14793165048346Q253.15567760154363 75.77131659197121 250.29779652093356 79.03746639838273Q247.4399154403235 82.30361620479424 244.22479922463717 84.75322855960286Q241.00968300895082 87.20284091441151 237.53939883963858 88.63178145471653Q234.06911467032634 90.06072199502158 230.80296486391484 90.06072199502158L230.80296486391484 90.06072199502158Q226.92441196880117 90.06072199502158 223.8113629345652 88.7338486361669Q220.69831390032923 87.40697527731223 218.60593668059687 85.00839651322876Q216.51355946086449 82.60981774914532 215.39082046491055 79.24160076128345Q214.26808146895658 75.87338377342158 214.26808146895658 71.89276369685754L214.26808146895658 71.89276369685754Q214.26808146895658 69.95348724930071 214.4211822411321 67.81007643884317Q214.57428301330765 65.6666656283856 214.77841737620838 63.31912045502733L214.77841737620838 63.31912045502733L230.49676331956377 64.54392663243165Q229.98642741231197 66.07493435418704 229.98642741231197 66.99353898724027L229.98642741231197 66.99353898724027Q229.98642741231197 69.03488261624747 231.2112335897163 69.95348724930071Q232.4360397671206 70.87209188235394 234.06911467032634 70.87209188235394L234.06911467032634 70.87209188235394Q235.39598802918104 70.87209188235394 236.7738949787609 70.31072238437696Q238.15180192834075 69.7493528864 239.32557451501987 68.52454670899567Q240.49934710169902 67.29974053159137 241.21381737185155 65.46253126548488Q241.92828764200408 63.625321999378414 241.92828764200408 61.17570964456978L241.92828764200408 61.17570964456978Q241.92828764200408 59.95090346716546 241.57105250692783 58.777130880486325Q241.21381737185155 57.60335829380719 240.0400447851724 56.78682084220431Q238.86627219849328 55.97028339060144 236.7228613880357 55.408913892624454Q234.57945057757814 54.84754439464748 231.10916640826593 54.84754439464748L231.10916640826593 54.84754439464748Q230.1905617752127 54.84754439464748 229.22092355143425 54.898577985372654Q228.25128532765584 54.94961157609784 226.6182104244501 55.153745938998554Q224.98513552124436 55.35788030189928 222.68862393861127 55.71511543697554Q220.39211235597818 56.072350572051796 216.81976100521558 56.68475366075395L216.81976100521558 56.68475366075395Q217.94250000116952 49.02971505197697 219.5755749043753 39.0781648605669Q221.20864980758103 29.12661466915683 223.55619498093932 16.572351350762588L223.55619498093932 16.572351350762588L262.44379111352634 15.143410810457553L260.40244748451914 31.780361386866183Q254.68668532329903 31.984495749766907 248.81782238990337 32.188630112667624Q242.94895945650765 32.39276447556834 236.82492856948608 32.698966019919425L236.82492856948608 32.698966019919425Q236.62079420658534 34.12790656022446 236.36562625295943 36.37338455213237Q236.11045829933357 38.61886254404028 235.8042567549825 41.272609261749636L235.8042567549825 41.272609261749636Q242.3365563678055 41.272609261749636 246.9295795330717 42.497415439153954Q251.5226026983379 43.72222161655827 254.38048377894793 45.865632427015825Q257.23836485955803 48.00904323747338 258.5142046276875 50.917957908808624Q259.790044395817 53.82687258014388 259.790044395817 57.39922393090647L259.790044395817 57.39922393090647Z M116.25536295274492 184.06970497253468Q116.04356670176401 184.17560309802514 114.7727891958786 184.4932974744965Q113.50201168999317 184.81099185096787 111.59584543116503 185.3404824784201Q109.6896791723369 185.86997310587236 107.41286947429217 186.5053618588151Q105.13605977624746 187.1407506117578 102.96514820369319 187.7761393647005Q100.79423663113893 188.41152811764323 98.88807037231079 188.9939678078407Q96.98190411348266 189.57640749803818 95.92292285857815 190L95.92292285857815 190Q95.60522848210678 185.7640749803819 95.39343223112587 181.73994621174475L95.39343223112587 181.73994621174475Q95.18163598014497 178.24530807055982 94.91689066641885 174.7506699293749Q94.65214535269271 171.25603178819 94.54624722720227 168.92627302740007L94.54624722720227 168.92627302740007Q93.59316409778819 171.25603178819 92.05764127817665 174.7506699293749Q90.52211845856509 178.24530807055982 89.03954470169876 181.6340480862543L89.03954470169876 181.6340480862543Q87.23927656836108 185.552278729401 85.33311030953294 189.57640749803818L85.33311030953294 189.57640749803818L67.33042897615611 187.9879356156814Q72.62533525067872 178.56300244703118 77.9202415252013 169.34986552936186Q83.21514779972391 160.13672861169255 87.6628690703229 150.07640669009962L87.6628690703229 150.07640669009962Q87.02748031738017 145.31099104302928 86.44504062718269 141.60455665086346Q85.8626009369852 137.89812225869764 85.12131405855204 134.29758599202228Q84.38002718011887 130.69704972534691 83.53284217619526 127.04356439592631Q82.68565717227165 123.39007906650572 81.83847216834803 118.73056154492583L81.83847216834803 118.73056154492583L98.78217224682034 111.741285262556Q99.3116628742726 116.71849716060724 100.00000068996054 122.754690313563Q100.68833850564849 128.79088346651878 101.21782913310074 133.87399349006046L101.21782913310074 133.87399349006046Q103.65348601938115 128.57908721553787 106.0361938429163 123.28418094101526Q108.41890166645146 117.98927466649268 110.96045667822233 112.80026651746051L110.96045667822233 112.80026651746051L126.31568487433785 116.93029341158815Q123.5623336115861 121.58981093316804 121.3384729762866 125.50804157631475Q119.11461234098712 129.42627221946148 117.10254795666853 133.3445028626082Q115.09048357234994 137.2627335057549 113.07841918803138 141.33981133713732Q111.06635480371278 145.41688916851973 108.73659604292283 150.39410106657095L108.73659604292283 150.39410106657095Q109.37198479586556 155.05361858815087 110.21916979978914 159.18364548227848Q111.06635480371278 163.3136723764061 112.07238699587205 167.33780114504327Q113.07841918803138 171.36192991368046 114.08445138019064 175.43900774506284Q115.09048357234994 179.51608557644525 116.25536295274492 184.06970497253468L116.25536295274492 184.06970497253468ZM140.92962619202024 185.12868622743923L122.82104673315291 187.3525468627387L127.69236050571371 166.06702363915787Q127.69236050571371 161.5134042430684 127.53351331747805 156.1655489058006Q127.37466612924237 150.81769356853277 127.056971752771 145.41688916851973Q126.73927737629964 140.0160847685067 126.4215829998283 134.9859238077102Q126.10388862335694 129.95576284691373 125.89209237237606 126.09048126651224Q125.68029612139514 122.22519968611076 125.46849987041423 119.8954409253208Q125.25670361943332 117.56568216453086 125.25670361943332 117.56568216453086L125.25670361943332 117.56568216453086L142.518098074377 110.99999838412285L142.518098074377 123.91956969395798Q142.518098074377 126.56702283121928 142.518098074377 129.32037409397103Q142.518098074377 132.07372535672278 142.46514901163175 134.72117849398407Q142.41219994888655 137.36863163124536 142.41219994888655 139.69839039203532Q142.41219994888655 142.02814915282528 142.41219994888655 143.61662103518205L142.41219994888655 143.61662103518205Q143.7888755802624 140.0160847685067 145.74799090183578 134.72117849398407Q147.70710622340914 129.42627221946148 149.40147623125637 124.44906032141024L149.40147623125637 124.44906032141024Q151.41354061557496 118.62466341943538 153.531503125384 112.16487776451781L153.531503125384 112.16487776451781L169.94571257640405 115.87131215668363Q165.39209318031462 124.9785509488625 161.0502700352061 133.9798916155509L161.0502700352061 133.9798916155509Q159.25000190186842 137.89812225869764 157.23793751754982 142.08109821557048Q155.22587313323123 146.26407417244334 153.21380874891264 150.4470501293162Q151.20174436459405 154.63002608618905 149.2955781057659 158.54825672933578Q147.38941184693778 162.4664873724825 145.800939964581 165.85522738817696L145.800939964581 165.85522738817696Q145.27144933712873 168.6085786509287 144.47721339595034 171.8914205411327Q143.68297745477196 175.17426243133673 142.9416905763388 178.13940994506936L142.9416905763388 178.13940994506936Q141.98860744692473 181.6340480862543 140.92962619202024 185.12868622743923L140.92962619202024 185.12868622743923ZM200.97386334510648 184.7050937254774Q200.0207802156924 184.7050937254774 196.94973457646927 184.81099185096787Q193.87868893724618 184.91688997645832 189.69571298037334 185.12868622743923Q185.51273702350048 185.3404824784201 180.6414232509397 185.65817685489148Q175.7701094783789 185.97587123136282 171.11059195679903 186.3465146705794Q166.45107443521914 186.717158109796 162.47989472932719 187.1407506117578Q158.50871502343523 187.5643431137196 156.1789562626453 187.9879356156814L156.1789562626453 187.9879356156814L156.28485438813576 172.52680929407543L186.3599220274241 131.5442347292705Q184.5596538940864 131.5442347292705 181.2768120038824 131.9148781684871Q177.99397011367842 132.28552160770369 174.65817916072916 132.7091141096655Q171.3223882077799 133.1327066116273 168.88673132149952 133.5562991135891L168.88673132149952 133.5562991135891L166.34517630972869 133.76809536457L168.35724069404728 117.14208966256906L211.6695740196421 114.07104402334595L208.91622275689036 128.68498534102832L180.006034497997 169.77345803132368Q182.12399700780603 169.77345803132368 185.67158421173616 169.56166178034277Q189.2191714156663 169.34986552936186 193.03150393332257 169.13806927838095Q196.84383645097884 168.92627302740007 201.29155772157782 168.6085786509287L201.29155772157782 168.6085786509287L200.97386334510648 184.7050937254774Z " id="RegistrationText" fill="url(#SvgjsRadialGradient1001)"></path><rect width="44" height="193" fill="url(#SvgjsLinearGradient1002)" rx="3" ry="3" x="5" y="5" id="SideBadgeLeftBackground" mask="url(#SideBadgeLeftTextCutMask)"></rect><g id="SideBadgeLeftImageGroup"><svg xmlns:dc="http://purl.org/dc/elements/1.1/" xmlns:cc="http://creativecommons.org/ns#" xmlns:rdf="http://www.w3.org/1999/02/22-rdf-syntax-ns#" xmlns:svg="http://www.w3.org/2000/svg" xmlns="http://www.w3.org/2000/svg" id="SideBadgeLeftImage" version="1.1" viewBox="0 0 187.14808 331.69903" height="76" width="38" x="8" y="8">
  <defs id="defs2">
    <clipPath id="a">
      <path style="fill-opacity:0.7" d="M -77.6,0 H 605 V 512 H -77.6 Z" id="path10"></path>
    </clipPath>
    <clipPath id="a-6">
      <path style="fill-opacity:0.7" d="m -5.3,-6 h 40 v 30 h -40 z" id="path256"></path>
    </clipPath>
    <clipPath id="a-3">
      <path style="fill-opacity:0.7" d="M -77.6,0 H 605 V 512 H -77.6 Z" id="path10-5"></path>
    </clipPath>
    <clipPath id="a-6-6">
      <path style="fill-opacity:0.7" d="m -5.3,-6 h 40 v 30 h -40 z" id="path256-2"></path>
    </clipPath>
    <clipPath id="a-9">
      <path style="fill-opacity:0.7" d="m -5.3,-6 h 40 v 30 h -40 z" id="path5630"></path>
    </clipPath>
    <clipPath id="a-0">
      <rect y="0" x="0" width="5" height="3" id="rect6646"></rect>
    </clipPath>
  </defs>
  <metadata id="metadata5">
    <rdf:rdf>
      <cc:work rdf:about="">
        <dc:format>image/svg+xml</dc:format>
        <dc:type rdf:resource="http://purl.org/dc/dcmitype/StillImage"></dc:type>
        <dc:title></dc:title>
      </cc:work>
    </rdf:rdf>
  </metadata>
  <g transform="translate(603.00475,110.51986)" id="layer1">
    <g transform="matrix(0,6.23753,-6.23753,0,-415.8418,-128.01348)" id="g6904">
      <path style="fill:#00247d" d="M 0,0 V 30 H 60 V 0 Z" id="path6881"></path>
      <path style="stroke:#ffffff;stroke-width:6" d="M 0,0 60,30 M 60,0 0,30" id="path6883"></path>
      <path style="stroke:#cf142b;stroke-width:4" d="M 0,0 60,30 M 60,0 0,30" clip-path="url(#t)" id="path6885"></path>
      <path style="stroke:#ffffff;stroke-width:10" d="M 30,0 V 30 M 0,15 h 60" id="path6887"></path>
      <path style="stroke:#cf142b;stroke-width:6" d="M 30,0 V 30 M 0,15 h 60" id="path6889"></path>
    </g>
  </g>
</svg></g><rect width="44" height="79" fill="url(#SvgjsLinearGradient1003)" rx="3" ry="3" x="223" y="111" id="SideBadgeRightBackground"></rect><g id="SideBadgeRightImageGroup"><svg xmlns="http://www.w3.org/2000/svg" viewBox="0 0 60 30" width="38" height="19" id="SideBadgeRightImage" x="226" y="114">
<clipPath id="t">
	<path d="M30,15 h30 v15 z v15 h-30 z h-30 v-15 z v-15 h30 z"></path>
</clipPath>
<path d="M0,0 v30 h60 v-30 z" fill="#00247d"></path>
<path d="M0,0 L60,30 M60,0 L0,30" stroke="#ffffff" stroke-width="6"></path>
<path d="M0,0 L60,30 M60,0 L0,30" clip-path="url(#t)" stroke="#cf142b" stroke-width="4"></path>
<path d="M30,0 v30 M0,15 h60" stroke="#ffffff" stroke-width="10"></path>
<path d="M30,0 v30 M0,15 h60" stroke="#cf142b" stroke-width="6"></path>
</svg></g><path d="M237.555361124775 166.9937437277563L242.88796679492603 166.9937437277563L242.88796679492603 178.87254443518967Q242.88796679492603 181.35777641936062 241.9425281535618 183.18507157123713Q240.99708951219753 185.0151311635855 239.10897666994083 186.00756529297078Q237.21809938721233 186.99999942235607 234.37072570123226 186.99999942235607L234.37072570123226 186.99999942235607Q230.29317600528992 186.99999942235607 228.14797019915352 184.9073179851843Q225.99999995254524 182.81463654801257 225.99999995254524 178.99417981594996L225.99999995254524 178.99417981594996L225.99999995254524 166.9937437277563L231.3602500274145 166.9937437277563L231.3602500274145 178.57674930470438Q231.3602500274145 180.6694307418761 232.14258668094106 181.61210494276855Q232.92492333446762 182.55754358413282 234.4508944749152 182.55754358413282L234.4508944749152 182.55754358413282Q235.54561290175803 182.55754358413282 236.23395857924254 182.14564195383082Q236.92230425672705 181.73374032352888 237.2374504705151 180.8435904916011Q237.555361124775 179.95344065967336 237.555361124775 178.5491048999861L237.555361124775 178.5491048999861L237.555361124775 166.9937437277563ZM257.77724317617714 175.83718879712546L263.8894210593829 186.72908425611718L257.8712341522192 186.72908425611718L253.9706086464737 179.18492620850594L252.38934869658962 180.12760040939835L252.38934869658962 186.72908425611718L247.03186306219217 186.72908425611718L247.03186306219217 166.9937437277563L252.38934869658962 166.9937437277563L252.38934869658962 175.5662736308866Q252.7266104341523 174.91939456047947 253.16615646917253 174.26975104960053Q253.60570250419278 173.6228719791934 254.02313301543836 173.0423394801101L254.02313301543836 173.0423394801101L258.1670292827045 166.9937437277563L263.9999986782559 166.9937437277563L257.77724317617714 175.83718879712546Z " id="SideBadgeRightText" fill="pink"></path></svg>