<svg xmlns="http://www.w3.org/2000/svg" version="1.1" xmlns:xlink="http://www.w3.org/1999/xlink" xmlns:svgjs="http://svgjs.dev/svgjs" generator="Plateit 1.0.0" viewBox="0 0 279 203" preserveAspectRatio="xMidYMid meet"><rect width="279" height="203" rx="3" ry="3" fill="yellow"></rect><path d="M59 13L59 13L73 13L73 89.2L73 92L59 92L58.8 92L37 45.8L37 92L23 92L23 13L37 13L59 59.6L59 13ZM134 52.8L134 74.3L133.9 74.3L134 74.3Q133.9 78 132.45 81.2Q131 84.4 128.6 86.8Q126.2 89.2 122.95 90.6Q119.7 92 116 92L116 92L102 92Q98.3 92 95 90.6Q91.7 89.2 89.25 86.75Q86.8 84.3 85.4 81Q84 77.7 84 74L84 74L84 31Q84 27.299999999999997 85.4 24Q86.8 20.700000000000003 89.25 18.25Q91.7 15.799999999999997 95 14.400000000000006Q98.3 13 102 13L102 13L116 13Q119.7 13 122.95 14.400000000000006Q126.2 15.799999999999997 128.65 18.25Q131.1 20.700000000000003 132.55 23.950000000000003Q134 27.200000000000003 134 30.9L134 30.9L120 36L120 31Q120 29.299999999999997 118.8 28.15Q117.6 27 116 27L116 27L102 27Q100.3 27 99.15 28.15Q98 29.299999999999997 98 31L98 31L98 74Q98 75.7 99.15 76.85000000000001Q100.3 78 102 78L102 78L116 78Q117.6 78 118.8 76.85000000000001Q120 75.7 120 74L120 74L120 69.2L120 66.5L109 66.5L109 52.5L134 52.5L134 52.8ZM175.6 63.4L175.6 63.4Q169.9 67.2 166 70.5Q162.1 73.8 160.3 78L160.3 78L195 78L195 92L145 92L145 85Q145 81.2 145.7 78L145.7 78Q146.3 75.3 147.2 73L147.2 73Q149.3 67.89999999999999 153 63.7L153 63.7Q156.3 59.9 160.2 57.05Q164.1 54.2 167.8 51.7L167.8 51.7Q170.7 49.7 173.35 47.85Q176 46 177.9 44L177.9 44Q179.6 42.3 180.3 40.65Q181 39 181 37L181 37L181 31Q181 29.299999999999997 179.85 28.15Q178.7 27 177 27L177 27L163 27Q161.3 27 160.15 28.15Q159 29.299999999999997 159 31L159 31L159 36L145 30.9Q145 27.200000000000003 146.45 23.950000000000003Q147.9 20.700000000000003 150.35 18.25Q152.8 15.799999999999997 156.05 14.400000000000006Q159.3 13 163 13L163 13L177 13Q180.7 13 184 14.400000000000006Q187.3 15.799999999999997 189.75 18.25Q192.2 20.700000000000003 193.6 24Q195 27.299999999999997 195 31L195 31L195 37Q195 41.8 193 46.4L193 46.4Q191.3 50.2 188.1 53.6L188.1 53.6Q185.5 56.5 182.2 58.8Q178.9 61.1 175.6 63.4ZM256 27L228.3 27L224.1 45.5L238 45.5Q241.7 45.5 245 46.9Q248.3 48.3 250.75 50.75Q253.2 53.2 254.6 56.5Q256 59.8 256 63.5L256 63.5L256 74Q256 77.7 254.6 81Q253.2 84.3 250.75 86.75Q248.3 89.2 245 90.6Q241.7 92 238 92L238 92L224 92Q220.3 92 217.05 90.6Q213.8 89.2 211.4 86.8Q209 84.4 207.55 81.2Q206.1 78 206 74.3L206 74.3L220 69.2L220 74Q220 75.7 221.15 76.85000000000001Q222.3 78 224 78L224 78L238 78Q239.7 78 240.85 76.85000000000001Q242 75.7 242 74L242 74L242 63.5Q242 61.8 240.85 60.65Q239.7 59.5 238 59.5L238 59.5L224 59.5Q222.8 59.5 221.8 60.15Q220.8 60.8 220.3 61.9L220.3 61.9L220 63.4L206.7 58.6Q206.8 58.4 206.8 58.25Q206.8 58.1 206.9 57.9L206.9 57.9L213.9 27L217.1 13L223.7 13L256 13L256 27Z M103.5 111L103.5 111L103.5 117.7L86.4 150.5L103.5 183.3L103.5 190L89.5 190L89.5 186.7L78.5 165.60000000000002L67.5 186.7L67.5 190L53.5 190L53.5 183.3L70.6 150.5L53.5 117.7L53.5 111L67.5 111L67.5 114.3L78.5 135.4L89.5 114.3L89.5 111L103.5 111ZM164.5 111L164.5 111L164.5 117.7L146.5 152.2L146.5 190L132.5 190L132.5 152.2L114.5 117.7L114.5 111L128.5 111L128.5 114.3L139.5 135.4L150.5 114.3L150.5 111L164.5 111ZM225.5 124.6L225.5 124.6L192.2 176L225.5 176L225.5 190L175.5 190L175.5 176L208.6 125L175.5 125L175.5 111L217.6 111L220.5 111L225.5 111L225.5 114.3L225.5 124.6Z " fill="black"></path><path d="M108.12383287150814 197.41982663936955L107.7372007241234 197.41982663936955L107.34156666411036 196.39990993858507L106.05384306263448 196.39990993858507L105.66045948077851 197.41982663936955L105.28237915039062 197.41982663936955L106.53949624893033 194.1935411533929L106.87571768559671 194.1935411533929L108.12383287150814 197.41982663936955ZM106.17896964816761 196.06818945823284L107.22949285188824 196.06818945823284L106.85366299965742 195.05502419191959Q106.8406102263464 195.01541577635516 106.81090391467308 194.92539665007232Q106.78119760299974 194.83537752378948 106.75059110006359 194.73860696303544Q106.719534501496 194.6418364022814 106.69973029371377 194.58242377893475L106.69973029371377 194.58242377893475Q106.6781257034059 194.67244290521757 106.6524702524153 194.76156184023756Q106.62726489705611 194.85068077525756 106.60340982859115 194.92629684133516Q106.57910466449479 195.00236300304414 106.56155093486964 195.05502419191959L106.56155093486964 195.05502419191959L106.17896964816761 196.06818945823284ZM109.9417691267899 194.49015417449482L109.9417691267899 194.49015417449482Q109.67576260862413 194.49015417449482 109.46376756622807 194.5815235876719Q109.2513224282006 194.67244290521757 109.10324096546533 194.8452796276806Q108.95470940709868 195.01766625451222 108.87549257596977 195.26161808673868Q108.7967258404723 195.50556991896514 108.7967258404723 195.81118485269536L108.7967258404723 195.81118485269536Q108.7967258404723 196.21537072970528 108.92275261726826 196.51333403770144Q109.04922948969563 196.8108472500662 109.30083294765615 196.97378186863813Q109.55243640561666 197.1362663915786 109.93051673600453 197.1362663915786L109.93051673600453 197.1362663915786Q110.14611254345192 197.1362663915786 110.3360528999087 197.1002587410655Q110.52599325636547 197.06380099492094 110.70648160456253 197.00888932788843L110.70648160456253 197.00888932788843L110.70648160456253 197.33430846940084Q110.5304942126796 197.4000224315873 110.33695309117152 197.4319792214177Q110.14386206529485 197.4639360112481 109.87785554712909 197.4639360112481L109.87785554712909 197.4639360112481Q109.38770140451908 197.4639360112481 109.05913159358676 197.26049278584892Q108.73056178265442 197.05704956044974 108.56672697281967 196.68572066453305Q108.40334225861633 196.31439176861636 108.40334225861633 195.8089343745383L108.40334225861633 195.8089343745383Q108.40334225861633 195.44390681746142 108.50551396694735 195.14189264878252Q108.60768567527836 194.8398784801036 108.80437746620635 194.61978171634212Q109.00106925713433 194.400135048212 109.28778017434513 194.28040961025584Q109.57449109155596 194.16068417229968 109.94581998747262 194.16068417229968L109.94581998747262 194.16068417229968Q110.18977181969909 194.16068417229968 110.41616992230041 194.208844404861Q110.64256802490172 194.25745473305372 110.82485675562445 194.34747385933656L110.82485675562445 194.34747385933656L110.67542500599495 194.66389108822068Q110.52194239568274 194.59367616972008 110.33830337806576 194.54191517210745Q110.15466436044879 194.49015417449482 109.9417691267899 194.49015417449482ZM113.12169476273085 197.41982663936955L112.81607982900066 197.41982663936955L111.73720060050094 194.57612244009493L111.71964687087578 194.57612244009493Q111.72819868787266 194.66614156637775 111.73495012234386 194.79576910822504Q111.74170155681509 194.92539665007232 111.74575241749781 195.0779790691217Q111.75025337381194 195.2310115838025 111.75025337381194 195.38899515042888L111.75025337381194 195.38899515042888L111.75025337381194 197.41982663936955L111.40322964199164 197.41982663936955L111.40322964199164 194.20659392670393L111.95684726863104 194.20659392670393L112.97451349125843 196.87926178604113L112.98981674272652 196.87926178604113L114.02278621682198 194.20659392670393L114.57235298277865 194.20659392670393L114.57235298277865 197.41982663936955L114.20282446938765 197.41982663936955L114.20282446938765 195.36288960380688Q114.20282446938765 195.21975919301718 114.20732542570178 195.07572859096464Q114.21182638201593 194.93214808454354 114.21857781648714 194.8034207339591Q114.22487915532693 194.67469338337463 114.23163058979816 194.58017330077766L114.23163058979816 194.58017330077766L114.21407686017301 194.58017330077766L113.12169476273085 197.41982663936955ZM117.24006979017032 197.09035663717435L117.24006979017032 197.41982663936955L115.4513897509305 197.41982663936955L115.4513897509305 194.20659392670393L117.24006979017032 194.20659392670393L117.24006979017032 194.5365140245305L115.82496912500423 194.5365140245305L115.82496912500423 195.57578483746576L117.15905257651578 195.57578483746576L117.15905257651578 195.90120397897817L115.82496912500423 195.90120397897817L115.82496912500423 197.09035663717435L117.24006979017032 197.09035663717435ZM121.63345324840384 194.20659392670393L121.63345324840384 197.41982663936955L121.20271172914049 197.41982663936955L119.45093953167662 194.7210532334103L119.43338580205148 194.7210532334103Q119.44013723652269 194.82862608931828 119.44913914915097 194.9659052568996Q119.45769096614784 195.10363452011234 119.4630921137248 195.2584674173188Q119.46894335693318 195.41330031452526 119.46894335693318 195.5735343593087L119.46894335693318 195.5735343593087L119.46894335693318 197.41982663936955L119.12146952948146 197.41982663936955L119.12146952948146 194.20659392670393L119.54996057058774 194.20659392670393L121.2949813335804 196.89681551566628L121.31028458504848 196.89681551566628Q121.30623372436574 196.81984916269448 121.29948228989454 196.678069038799Q121.29273085542332 196.53628891490354 121.28732970784635 196.3724541050688Q121.28192856026939 196.20906939086547 121.28192856026939 196.06818945823284L121.28192856026939 196.06818945823284L121.28192856026939 194.20659392670393L121.63345324840384 194.20659392670393ZM124.07747252698266 195.01091482004102L124.44430046658519 195.01091482004102L124.44430046658519 197.41982663936955L124.14543696732619 197.41982663936955L124.09277577845074 197.0813547245461L124.07297157066853 197.0813547245461Q123.99825569585377 197.20648131007923 123.87943044916044 197.2924495756793Q123.76105529809851 197.377967745648 123.61252373973184 197.42072683063236Q123.46444227699659 197.4639360112481 123.29700670211054 197.4639360112481L123.29700670211054 197.4639360112481Q123.01164607179396 197.4639360112481 122.81810495028587 197.37166640680823Q122.62456382877778 197.27894670673692 122.52689307676091 197.08585568086022Q122.42922232474405 196.89231455935214 122.42922232474405 196.588950103779L122.42922232474405 196.588950103779L122.42922232474405 195.01091482004102L122.79830074250366 195.01091482004102L122.79830074250366 196.562844557157Q122.79830074250366 196.86395853457304 122.93467971882214 197.0120399973083Q123.07060859950921 197.16057155567498 123.35011798661739 197.16057155567498L123.35011798661739 197.16057155567498Q123.61792488730882 197.16057155567498 123.77725874082942 197.0593000386068Q123.93659259435003 196.95847861717004 124.00725760848205 196.76178682624203Q124.07747252698266 196.56509503531407 124.07747252698266 196.27928430936606L124.07747252698266 196.27928430936606L124.07747252698266 195.01091482004102ZM127.83127009297667 194.96725554379384L127.83127009297667 194.96725554379384Q128.22870453551536 194.96725554379384 128.43124756965173 195.17474962987575Q128.63334050815666 195.3826938115891 128.63334050815666 195.84179135563153L128.63334050815666 195.84179135563153L128.63334050815666 197.41982663936955L128.27281390739395 197.41982663936955L128.27281390739395 195.85934508525668Q128.27281390739395 195.5672330204689 128.14633703496656 195.4209519402593Q128.0203102581706 195.2746708600497 127.77185746962999 195.2746708600497L127.77185746962999 195.2746708600497Q127.4221331640212 195.2746708600497 127.26414959739483 195.47721389418606Q127.10571593513706 195.679306832691 127.10571593513706 196.07269041454697L127.10571593513706 196.07269041454697L127.10571593513706 197.41982663936955L126.74338895184867 197.41982663936955L126.74338895184867 195.85934508525668Q126.74338895184867 195.66400358122291 126.6871269979219 195.53437603937567Q126.63131513962654 195.40429840189697 126.52014151866726 195.33948463097335Q126.40896789770795 195.2746708600497 126.24018203592765 195.2746708600497L126.24018203592765 195.2746708600497Q126.0002810643839 195.2746708600497 125.85535027106854 195.37369189896083Q125.71041947775319 195.4727129378719 125.64560570682956 195.66715425064285Q125.58079193590592 195.86159556341374 125.58079193590592 196.14515581120466L125.58079193590592 196.14515581120466L125.58079193590592 197.41982663936955L125.21576437882905 197.41982663936955L125.21576437882905 195.01091482004102L125.5101269217739 195.01091482004102L125.56503858880643 195.35163721302152L125.58484279658865 195.35163721302152Q125.65775828887774 195.22651062748838 125.7675816229428 195.1409924575197Q125.87740495700784 195.05502419191959 126.01378393332634 195.01091482004102Q126.14971281401341 194.96725554379384 126.30364551995704 194.96725554379384L126.30364551995704 194.96725554379384Q126.57820385511968 194.96725554379384 126.76409335089372 195.06942725212485Q126.94998284666775 195.17159896045587 127.03325053847938 195.38044333343203L127.03325053847938 195.38044333343203L127.05305474626161 195.38044333343203Q127.17187999295493 195.17159896045587 127.37847388777404 195.06942725212485Q127.58506778259313 194.96725554379384 127.83127009297667 194.96725554379384ZM129.38274973446124 194.00000003188484L129.7473271959067 194.00000003188484L129.7473271959067 194.8551817315717Q129.7473271959067 195.00236300304414 129.73967557017266 195.1409924575197Q129.73202394443862 195.27917181636383 129.7279730837559 195.35613816933565L129.7279730837559 195.35613816933565L129.7473271959067 195.35613816933565Q129.8463482348178 195.19365364639515 130.0331379218547 195.08157983417303Q130.21992760889157 194.9695060219509 130.51023929115368 194.9695060219509L130.51023929115368 194.9695060219509Q130.96303549635633 194.9695060219509 131.23219268394197 195.28232248578374Q131.50134987152762 195.59558904524798 131.50134987152762 196.2131202515482L131.50134987152762 196.2131202515482Q131.50134987152762 196.6200067023466 131.37847376415158 196.89906599382334Q131.2551475611441 197.17812528530013 131.03099993669986 197.3208056004584Q130.80685231225561 197.4639360112481 130.5012373785254 197.4639360112481L130.5012373785254 197.4639360112481Q130.2158767482088 197.4639360112481 130.03223773059185 197.35726334660296Q129.84859871297488 197.25059068195782 129.74957767406377 197.09665797601417L129.74957767406377 197.09665797601417L129.72122164928467 197.09665797601417L129.64650577446992 197.41982663936955L129.38274973446124 197.41982663936955L129.38274973446124 194.00000003188484ZM130.450826667807 195.2746708600497L130.450826667807 195.2746708600497Q130.1893211059554 195.2746708600497 130.03538840001175 195.3768425683807Q129.8814556940681 195.47901427671172 129.8143914449874 195.684707980268Q129.7473271959067 195.89040168382425 129.7473271959067 196.20456843455133L129.7473271959067 196.20456843455133L129.7473271959067 196.22437264233355Q129.7473271959067 196.67896923006185 129.89900942369326 196.91977039286843Q130.05069165147984 197.16057155567498 130.450826667807 197.16057155567498L130.450826667807 197.16057155567498Q130.78704810447337 197.16057155567498 130.95538387062226 196.91436924529143Q131.12326954113976 196.6681669349079 131.12326954113976 196.21086977339112L131.12326954113976 196.21086977339112Q131.12326954113976 195.74502079487746 130.95718425314794 195.5100708752793Q130.79154906078753 195.2746708600497 130.450826667807 195.2746708600497ZM133.06408190379756 194.96725554379384L133.06408190379756 194.96725554379384Q133.37149722005344 194.96725554379384 133.59159398381496 195.10363452011234Q133.81124065194504 195.2395634007994 133.92781542048132 195.4848655199201Q134.04394009338617 195.72971754340938 134.04394009338617 196.0573871630789L134.04394009338617 196.0573871630789L134.04394009338617 196.28378526568022L132.38038663967947 196.28378526568022Q132.3871380741507 196.70777535047233 132.5914814908127 196.9296724967595Q132.79582490747472 197.15156964304668 133.16715380339141 197.15156964304668L133.16715380339141 197.15156964304668Q133.3958023841498 197.15156964304668 133.57178977603272 197.1101608449566Q133.74732707228424 197.06830195123507 133.93636723747818 196.98683464194912L133.93636723747818 196.98683464194912L133.93636723747818 197.3077528271474Q133.75407850675546 197.38922013643338 133.57494044545263 197.42657807384074Q133.3958023841498 197.4639360112481 133.15185055192333 197.4639360112481L133.15185055192333 197.4639360112481Q132.8043767244716 197.4639360112481 132.5464719276713 197.32215588735266Q132.28811703523957 197.18037576345722 132.14543672008128 196.90536733266316Q132.00230630929158 196.63080899750054 132.00230630929158 196.23292445933043L132.00230630929158 196.23292445933043Q132.00230630929158 195.8440418337886 132.1332841380331 195.55958139473483Q132.26381187114322 195.2746708600497 132.5023625557927 195.1211882497375Q132.7409132404422 194.96725554379384 133.06408190379756 194.96725554379384ZM133.05958094748343 195.2661190430528L133.05958094748343 195.2661190430528Q132.76701878706422 195.2661190430528 132.5937319689698 195.45740968640382Q132.41999505524393 195.64825023412345 132.3871380741507 195.991223105261L132.3871380741507 195.991223105261L133.66180890231556 195.991223105261Q133.6595584241585 195.77607739344506 133.59474465323484 195.6122425836103Q133.52993088231122 195.44840777377556 133.39805286230686 195.3570383605985Q133.26617484230252 195.2661190430528 133.05958094748343 195.2661190430528ZM135.75835435344266 194.96725554379384L135.75835435344266 194.96725554379384Q135.83081975010035 194.96725554379384 135.91003658122924 194.97490716952785Q135.98925341235812 194.98255879526192 136.05046641823046 194.99561156857294L136.05046641823046 194.99561156857294L136.0045566638262 195.33408348339637Q135.94514404047953 195.3187802319283 135.87267864382184 195.3097783193Q135.80021324716418 195.3012265023031 135.73629966750337 195.3012265023031L135.73629966750337 195.3012265023031Q135.59136887418802 195.3012265023031 135.46264152360357 195.35928883875556Q135.33436426865052 195.4178012708394 135.23759370789648 195.52627431801022Q135.14082314714244 195.63519746081244 135.08591148010993 195.78822997549324Q135.0309998130774 195.94081239454263 135.0309998130774 196.1276020815795L135.0309998130774 196.1276020815795L135.0309998130774 197.41982663936955L134.66372177784345 197.41982663936955L134.66372177784345 195.01091482004102L134.96708623341658 195.01091482004102L135.00669464898104 195.45515920824676L135.02199790044912 195.45515920824676Q135.09671377526385 195.32103071008535 135.20248624864618 195.20985708912605Q135.3078086263971 195.09913356379818 135.44733827213548 195.0329695059803Q135.58686791787386 194.96725554379384 135.75835435344266 194.96725554379384ZM137.72752274087958 194.20659392670393L138.56695109346697 194.20659392670393Q139.18898325608131 194.20659392670393 139.4756941732921 194.44964556766757Q139.7624050905029 194.69224711299978 139.7624050905029 195.14504331820243L139.7624050905029 195.14504331820243Q139.7624050905029 195.34938673486442 139.69579093705363 195.53302575248142Q139.62872668797291 195.7166647700984 139.47929493834343 195.8561944158368Q139.32986318871394 195.99572406157517 139.0868115477503 196.07584108396688Q138.84375990678666 196.15595810635858 138.4922352186522 196.15595810635858L138.4922352186522 196.15595810635858L138.1011021149533 196.15595810635858L138.1011021149533 197.41982663936955L137.72752274087958 197.41982663936955L137.72752274087958 194.20659392670393ZM138.53184363421664 194.52526163374512L138.53184363421664 194.52526163374512L138.1011021149533 194.52526163374512L138.1011021149533 195.83503992116033L138.4503763249307 195.83503992116033Q138.75824173681798 195.83503992116033 138.96393544037423 195.76932595897387Q139.16917904829907 195.70361199678737 139.27270104352434 195.5550804384207Q139.3757729431182 195.40654888005406 139.3757729431182 195.16034656967048L139.3757729431182 195.16034656967048Q139.3757729431182 194.8398784801036 139.17142952645617 194.68234500910867Q138.96708610979414 194.52526163374512 138.53184363421664 194.52526163374512ZM140.7472143320371 194.00000003188484L140.7472143320371 197.41982663936955L140.38038639243456 197.41982663936955L140.38038639243456 194.00000003188484L140.7472143320371 194.00000003188484ZM142.41751922021498 194.97175650010797L142.41751922021498 194.97175650010797Q142.84826073947835 194.97175650010797 143.0571051124545 195.16484752598464Q143.26594948543067 195.35838864749275 143.26594948543067 195.78237873228485L143.26594948543067 195.78237873228485L143.26594948543067 197.41982663936955L142.9999429672649 197.41982663936955L142.92972804876428 197.06380099492094L142.91217431913915 197.06380099492094Q142.81090280207096 197.1956790149253 142.7010794680059 197.2847979499453Q142.59125613394085 197.37346678933386 142.44722553188834 197.4189264481067Q142.3031949298358 197.4639360112481 142.09435055685964 197.4639360112481L142.09435055685964 197.4639360112481Q141.87470388872953 197.4639360112481 141.70411764442358 197.3869696582763Q141.533981495749 197.31000330530446 141.43631074373215 197.15382012120375Q141.33818989608386 196.99763693710304 141.33818989608386 196.7581860611907L141.33818989608386 196.7581860611907Q141.33818989608386 196.397659460428 141.62400062203184 196.20456843455133Q141.90981134797983 196.01102731304326 142.4944855731868 195.9934735834181L142.4944855731868 195.9934735834181L142.90992384098206 195.97591985379296L142.90992384098206 195.8287385823205Q142.90992384098206 195.5163722141191 142.77579534282066 195.39124562858598Q142.64166684465926 195.2661190430528 142.39771501243277 195.2661190430528L142.39771501243277 195.2661190430528Q142.20867484723883 195.2661190430528 142.03718841167003 195.32103071008535Q141.86570197610126 195.3759423771179 141.71221936578903 195.45065825193262L141.71221936578903 195.45065825193262L141.5996954579355 195.17384943861293Q141.7626300765074 195.09013165116988 141.97372492764066 195.03071902782324Q142.18436968314248 194.97175650010797 142.41751922021498 194.97175650010797ZM142.90542288466793 196.4548216056176L142.90542288466793 196.23292445933043L142.538144849434 196.24822771079852Q142.08759912238844 196.26623153605505 141.90305991350863 196.39585907790234Q141.71852070462882 196.5254866197496 141.71852070462882 196.76268701750487L141.71852070462882 196.76268701750487Q141.71852070462882 196.96928091232397 141.84364729016195 197.06830195123507Q141.9692239713265 197.16687289451477 142.1758178661456 197.16687289451477L142.1758178661456 197.16687289451477Q142.49673605134387 197.16687289451477 142.7010794680059 196.98908512010618Q142.90542288466793 196.8108472500662 142.90542288466793 196.4548216056176L142.90542288466793 196.4548216056176ZM144.79537444097593 197.16507251198914L144.79537444097593 197.16507251198914Q144.88539356725877 197.16507251198914 144.97991364985575 197.14931916488962Q145.07443373245272 197.13401591342154 145.1338463557994 197.11196122748225L145.1338463557994 197.11196122748225L145.1338463557994 197.39552147527317Q145.0699327761386 197.42432759568368 144.95695877265362 197.4441318034659Q144.84398476916869 197.4639360112481 144.7359618176293 197.4639360112481L144.7359618176293 197.4639360112481Q144.54467117427828 197.4639360112481 144.38893808580897 197.3968717621674Q144.23275490170826 197.3298075130867 144.13958510600554 197.16912337267183Q144.04596521467138 197.00888932788843 144.04596521467138 196.72532908009748L144.04596521467138 196.72532908009748L144.04596521467138 195.29672554598898L143.70299234353382 195.29672554598898L143.70299234353382 195.11893777158042L144.04821569282845 194.9758073607907L144.1931464861438 194.45279623708745L144.4127931542739 194.45279623708745L144.4127931542739 195.01091482004102L145.1185431043313 195.01091482004102L145.1185431043313 195.29672554598898L144.4127931542739 195.29672554598898L144.4127931542739 196.71452678494356Q144.4127931542739 196.9409248875449 144.517215340762 197.052998699767Q144.62163752725007 197.16507251198914 144.79537444097593 197.16507251198914ZM146.54939711659688 194.96725554379384L146.54939711659688 194.96725554379384Q146.85681243285273 194.96725554379384 147.07645910098285 195.10363452011234Q147.29655586474436 195.2395634007994 147.41313063328064 195.4848655199201Q147.5292553061855 195.72971754340938 147.5292553061855 196.0573871630789L147.5292553061855 196.0573871630789L147.5292553061855 196.28378526568022L145.8657018524788 196.28378526568022Q145.87245328695002 196.70777535047233 146.07679670361205 196.9296724967595Q146.28114012027405 197.15156964304668 146.6524690161907 197.15156964304668L146.6524690161907 197.15156964304668Q146.8811175969491 197.15156964304668 147.05710498883204 197.1101608449566Q147.23264228508356 197.06830195123507 147.4216824502775 196.98683464194912L147.4216824502775 196.98683464194912L147.4216824502775 197.3077528271474Q147.23939371955478 197.38922013643338 147.06025565825195 197.42657807384074Q146.8811175969491 197.4639360112481 146.63716576472262 197.4639360112481L146.63716576472262 197.4639360112481Q146.28969193727093 197.4639360112481 146.0317871404706 197.32215588735266Q145.7734322480389 197.18037576345722 145.6307519328806 196.90536733266316Q145.4876215220909 196.63080899750054 145.4876215220909 196.23292445933043L145.4876215220909 196.23292445933043Q145.4876215220909 195.8440418337886 145.61859935083243 195.55958139473483Q145.74912708394254 195.2746708600497 145.98767776859202 195.1211882497375Q146.22622845324153 194.96725554379384 146.54939711659688 194.96725554379384ZM146.54489616028275 195.2661190430528L146.54489616028275 195.2661190430528Q146.25233399986354 195.2661190430528 146.0790471817691 195.45740968640382Q145.90531026804322 195.64825023412345 145.87245328695002 195.991223105261L145.87245328695002 195.991223105261L147.14712411511488 195.991223105261Q147.1448736369578 195.77607739344506 147.08005986603416 195.6122425836103Q147.01524609511054 195.44840777377556 146.88336807510618 195.3570383605985Q146.75149005510184 195.2661190430528 146.54489616028275 195.2661190430528ZM149.70726806659854 196.7604365393478L149.70726806659854 196.7604365393478Q149.70726806659854 196.99133559826328 149.5920435849565 197.1484189736268Q149.4763690076831 197.30550234899033 149.26212348712997 197.38471918011922Q149.04787796657683 197.4639360112481 148.7512649454749 197.4639360112481L148.7512649454749 197.4639360112481Q148.49876129625156 197.4639360112481 148.31377199174034 197.42432759568368Q148.12923278286056 197.38471918011922 147.9910534240164 197.31225378346153L147.9910534240164 197.31225378346153L147.9910534240164 196.9760323467952Q148.13823469548885 197.04849774345286 148.34257811215087 197.10791036679953Q148.54692152881287 197.16687289451477 148.7602668581032 197.16687289451477L148.7602668581032 197.16687289451477Q149.07218313067318 197.16687289451477 149.2130630633058 197.066051473078Q149.35349290030703 196.9647799560098 149.35349290030703 196.79149313791538L149.35349290030703 196.79149313791538Q149.35349290030703 196.69247209900425 149.29768104201167 196.61640593729527Q149.2414190880849 196.5407898712177 149.10954106808057 196.46922466582285Q148.9776630480762 196.397659460428 148.7449636066351 196.3121412904593L148.7449636066351 196.3121412904593Q148.51406454771964 196.22437264233355 148.34572878157076 196.13750418547062Q148.17784311105328 196.0506357286077 148.08647369787622 195.92550914307455Q147.99510428469912 195.79993246191 147.99510428469912 195.60009000156214L147.99510428469912 195.60009000156214Q147.99510428469912 195.2944750678319 148.24265688197693 195.13109035362857Q148.4897593836233 194.96725554379384 148.89214487810753 194.96725554379384L148.89214487810753 194.96725554379384Q149.10954106808057 194.96725554379384 149.29948142453733 195.01001462877818Q149.4898718766255 195.05277371376252 149.6546068777231 195.12523911042018L149.6546068777231 195.12523911042018L149.53173077034705 195.4178012708394Q149.38229902071754 195.35388769117858 149.2130630633058 195.3097783193Q149.04382710589408 195.2661190430528 148.86783971401115 195.2661190430528L148.86783971401115 195.2661190430528Q148.61488596915643 195.2661190430528 148.47985727973216 195.34938673486442Q148.34482859030794 195.43310452230747 148.34482859030794 195.57803531562283L148.34482859030794 195.57803531562283Q148.34482859030794 195.69010912784495 148.4073918830745 195.76257452450264Q148.46995517584105 195.83503992116033 148.6085846303166 195.8989535008211Q148.74676398916077 195.96286708048194 148.97316209176208 196.04838525045062L148.97316209176208 196.04838525045062Q149.1995601943634 196.13210303789364 149.36429519546098 196.22077187728223Q149.52948029218996 196.30989081230223 149.61814913157855 196.43636768472962Q149.70726806659854 196.562844557157 149.70726806659854 196.7604365393478ZM150.32029831658463 196.89681551566628L150.71188151591494 196.89681551566628L150.74023754069404 196.94722622638466Q150.70062912512958 197.10791036679953 150.6403163105201 197.29019909752225Q150.5800034959106 197.472487828245 150.50843829051573 197.65612684586196Q150.4368730851209 197.83976586347893 150.36440768846322 197.99999990826237L150.36440768846322 197.99999990826237L150.09209983145766 197.99999990826237Q150.1380095858619 197.82401251637944 150.1821189577405 197.62957120360852Q150.22622832961906 197.43512989083763 150.2622359801322 197.24518953438084Q150.29869372627672 197.05479908229267 150.32029831658463 196.89681551566628L150.32029831658463 196.89681551566628ZM154.4962855848451 196.56509503531407L154.4962855848451 196.56509503531407Q154.4962855848451 196.85045566563065 154.35450546094964 197.05164841287274Q154.21272533705417 197.25284116011488 153.9579712096738 197.35816353786578Q153.70276698666194 197.4639360112481 153.35799373299872 197.4639360112481L153.35799373299872 197.4639360112481Q153.17525490664457 197.4639360112481 153.01277038370407 197.44638228162296Q152.85028586076356 197.4288285519978 152.71390688444507 197.39552147527317Q152.57752790812657 197.36266449417994 152.47445600853274 197.31450426161862L152.47445600853274 197.31450426161862L152.47445600853274 196.95622813901295Q152.63919100963034 197.0241925793565 152.8763914073856 197.0822549158089Q153.11404190077226 197.14076734789276 153.3732969844668 197.14076734789276L153.3732969844668 197.14076734789276Q153.6149983385362 197.14076734789276 153.78198381779083 197.0759535769691Q153.9489692970455 197.0111398060455 154.03583775390842 196.88916388993226Q154.12270621077136 196.76718797381903 154.12270621077136 196.59570153825024L154.12270621077136 196.59570153825024Q154.12270621077136 196.43096653715264 154.0502408141137 196.31979291619336Q153.9773253218246 196.20906939086547 153.80943965130712 196.1176999776884Q153.64110388515823 196.02633056451134 153.3512422985275 195.92325866491748L153.3512422985275 195.92325866491748Q153.14689888186547 195.8507932682598 152.99071569776478 195.76392481139686Q152.83453251366407 195.67705635453393 152.72921013591315 195.5672330204689Q152.62388775816225 195.45740968640382 152.56987628239256 195.31202879745706Q152.51586480662286 195.1670980041417 152.51586480662286 194.98030831710486L152.51586480662286 194.98030831710486Q152.51586480662286 194.72330371156738 152.64684263536435 194.53966469395039Q152.77737036847446 194.35602567633342 153.00961971428416 194.25835492431656Q153.24141896446247 194.16068417229968 153.54253294187853 194.16068417229968L153.54253294187853 194.16068417229968Q153.799537547416 194.16068417229968 154.01828402428328 194.208844404861Q154.23703050115054 194.25745473305372 154.4193192318733 194.33847194670827L154.4193192318733 194.33847194670827L154.302744463337 194.65939013190655Q154.12900754961117 194.58692473524889 153.93456623684025 194.53876450268757Q153.74012492406933 194.49015417449482 153.53353102925024 194.49015417449482L153.53353102925024 194.49015417449482Q153.32693713443115 194.49015417449482 153.18515701053568 194.55046698910434Q153.04337688664023 194.61122989934523 152.96866101182547 194.7210532334103Q152.89394513701072 194.83087656747534 152.89394513701072 194.98255879526192L152.89394513701072 194.98255879526192Q152.89394513701072 195.15179475267365 152.9655103424056 195.26386856489574Q153.03707554780044 195.3759423771179 153.19415892316397 195.46281083398083Q153.3512422985275 195.54967929084376 153.61049738222206 195.6441993734407L153.61049738222206 195.6441993734407Q153.89405763001298 195.74727127303456 154.09164961220378 195.862945850308Q154.28969169002602 195.97817033195003 154.39276358961985 196.14425561994182Q154.4962855848451 196.30989081230223 154.4962855848451 196.56509503531407ZM158.41031719562253 194.20659392670393L158.80145029932143 194.20659392670393L157.94221773895183 197.41982663936955L157.566387886721 197.41982663936955L156.92905247263857 195.25711713042455Q156.90069644785947 195.16484752598464 156.87504099686888 195.07167773028192Q156.84983564150969 194.9780578389478 156.8277809555704 194.89343986024193Q156.8061763652625 194.80882188153606 156.79177330505726 194.7440081106124Q156.77737024485202 194.67919433968876 156.7710689060122 194.64633735859553L156.7710689060122 194.64633735859553Q156.76656794969807 194.67919433968876 156.75441536764987 194.7431079193496Q156.7422627856017 194.806571403379 156.72380886471373 194.89028919082202Q156.70490484819433 194.97355688263363 156.67969949283514 195.0680769652306Q156.65449413747595 195.16259704782757 156.62568801706544 195.2593676085816L156.62568801706544 195.2593676085816L156.00590633260816 197.41982663936955L155.63007648037734 197.41982663936955L154.77759535447893 194.20659392670393L155.16647798002077 194.20659392670393L155.68318776488422 196.22212216417648Q155.70929331150623 196.32294358561325 155.73224818870835 196.42106443326153Q155.7556531615419 196.5187351852784 155.77410708242985 196.61100478971832Q155.79301109894928 196.7032743941582 155.80831435041733 196.79149313791538Q155.82361760188545 196.87926178604113 155.83667037519643 196.96252947785274L155.83667037519643 196.96252947785274Q155.8479227659818 196.87701130788406 155.86547649560694 196.78339141654993Q155.8830302252321 196.69022162084718 155.90373462427715 196.59345106009314Q155.92488911895362 196.4966804993391 155.9500944743128 196.397659460428Q155.975299829672 196.2990885171483 156.0036558544511 196.2000674782372L156.0036558544511 196.2000674782372L156.58202874081826 194.20659392670393L156.96641041004594 194.20659392670393L157.5686383648781 196.21537072970528Q157.59924486781424 196.31889272493052 157.62580051006768 196.41971414636728Q157.65235615232112 196.52098566343545 157.67306055136618 196.61640593729527Q157.6937649504112 196.7122763067865 157.71041848877354 196.79914476364942Q157.72707202713588 196.88556312488095 157.7401248004469 196.96252947785274L157.7401248004469 196.96252947785274Q157.75542805191495 196.85495662194478 157.77748273785426 196.73613137525143Q157.79953742379354 196.61775622418952 157.8292437354669 196.48812868234222Q157.8589500471402 196.35850114049498 157.8940575063905 196.21987168601942L157.8940575063905 196.21987168601942L158.41031719562253 194.20659392670393ZM160.44745002340298 194.20659392670393L160.44745002340298 197.41982663936955L160.0914243789544 197.41982663936955L160.0914243789544 195.14279284004533Q160.0914243789544 195.0131652981981 160.09277466584862 194.91999550249534Q160.09367485711147 194.8263756111612 160.09727562216278 194.74850906692654Q160.10042629158266 194.6706425226919 160.10717772605386 194.58917521340595L160.10717772605386 194.58917521340595Q160.03876319007892 194.65939013190655 159.97935056673225 194.70890065136211Q159.920388039017 194.75841117081768 159.83216929525983 194.83087656747534L159.83216929525983 194.83087656747534L159.4653413556573 195.12523911042018L159.2740507123063 194.877236417511L160.14453566346126 194.20659392670393L160.44745002340298 194.20659392670393ZM164.28271489868294 197.41982663936955L163.8960827512982 197.41982663936955L163.50044869128516 196.39990993858507L162.21227499417785 196.39990993858507L161.81889141232188 197.41982663936955L161.44126117756542 197.41982663936955L162.69792818047372 194.1935411533929L163.0345997127715 194.1935411533929L164.28271489868294 197.41982663936955ZM162.33785167534242 196.06818945823284L163.38837487906304 196.06818945823284L163.0125450268322 195.05502419191959Q162.9990421578898 195.01541577635516 162.96978594184787 194.92539665007232Q162.94007963017452 194.83537752378948 162.90902303160695 194.73860696303544Q162.8784165286708 194.6418364022814 162.85861232088857 194.58242377893475L162.85861232088857 194.58242377893475Q162.8365576349493 194.67244290521757 162.8113522795901 194.76156184023756Q162.78614692423088 194.85068077525756 162.76184176013453 194.92629684133516Q162.73753659603818 195.00236300304414 162.719982866413 195.05502419191959L162.719982866413 195.05502419191959L162.33785167534242 196.06818945823284ZM167.7835587198222 197.08585568086022L167.7835587198222 197.41982663936955L165.6784614516982 197.41982663936955L165.6784614516982 197.11421170563932L166.53769401206785 196.2419263719587Q166.77714488798017 196.0002250178893 166.9409796978149 195.81118485269536Q167.10481450764965 195.62214468750142 167.19033267761836 195.43850566988445Q167.27585084758704 195.25486665226748 167.27585084758704 195.03521998413737L167.27585084758704 195.03521998413737Q167.27585084758704 194.7629121271318 167.11426651590935 194.61888152507927Q166.9531322798631 194.47485092302674 166.6893762398544 194.47485092302674L166.6893762398544 194.47485092302674Q166.45847718093893 194.47485092302674 166.28023931089893 194.55406775415565Q166.10245153649035 194.6332845852845 165.91566184945347 194.7782153785999L165.91566184945347 194.7782153785999L165.71987024978833 194.53201306821634Q165.84769740910994 194.42444021230835 165.99802935000227 194.34072242486533Q166.14836129089457 194.25745473305372 166.32119801335762 194.208844404861Q166.49358464018925 194.16068417229968 166.6893762398544 194.16068417229968L166.6893762398544 194.16068417229968Q166.98598926095633 194.16068417229968 167.2011349727723 194.2637560718935Q167.41673078021967 194.36727806711878 167.53420574001876 194.55856871046979Q167.65168069981786 194.7494092581894 167.65168069981786 195.0131652981981L167.65168069981786 195.0131652981981Q167.65168069981786 195.26836952120988 167.5508592783811 195.48711599807717Q167.4495877613129 195.70541237931303 167.26729903059018 195.91965789986617Q167.08501029986743 196.13435351605074 166.84105846764098 196.37380439196306L166.84105846764098 196.37380439196306L166.1420599520548 197.07055242939214L166.1420599520548 197.08585568086022L167.7835587198222 197.08585568086022ZM170.87166484695467 197.41982663936955L170.48458260393852 197.41982663936955L170.08894854392545 196.39990993858507L168.80122494244958 196.39990993858507L168.40784136059364 197.41982663936955L168.02976103020575 197.41982663936955L169.28687812874546 194.1935411533929L169.62309956541182 194.1935411533929L170.87166484695467 197.41982663936955ZM168.92635152798272 196.06818945823284L169.97687473170333 196.06818945823284L169.6010448794725 195.05502419191959Q169.58799210616152 195.01541577635516 169.5582857944882 194.92539665007232Q169.52857948281485 194.83537752378948 169.49797297987868 194.73860696303544Q169.46736647694252 194.6418364022814 169.4475622691603 194.58242377893475L169.4475622691603 194.58242377893475Q169.42550758322102 194.67244290521757 169.4003022278618 194.76156184023756Q169.3746467768712 194.85068077525756 169.35079170840626 194.92629684133516Q169.3264865443099 195.00236300304414 169.30893281468474 195.05502419191959L169.30893281468474 195.05502419191959L168.92635152798272 196.06818945823284ZM173.71761952438635 197.41982663936955L173.33098737700158 197.41982663936955L172.93535331698854 196.39990993858507L171.64717961988126 196.39990993858507L171.25379603802529 197.41982663936955L170.8757157076374 197.41982663936955L172.13283280617713 194.1935411533929L172.46905424284347 194.1935411533929L173.71761952438635 197.41982663936955ZM171.7727563010458 196.06818945823284L172.82327950476642 196.06818945823284L172.44744965253562 195.05502419191959Q172.43394678359317 195.01541577635516 172.40424047191985 194.92539665007232Q172.37498425587793 194.83537752378948 172.34392765731036 194.73860696303544Q172.3133211543742 194.6418364022814 172.29351694659198 194.58242377893475L172.29351694659198 194.58242377893475Q172.27146226065267 194.67244290521757 172.24625690529348 194.76156184023756Q172.2210515499343 194.85068077525756 172.1967463858379 194.92629684133516Q172.17244122174156 195.00236300304414 172.15488749211642 195.05502419191959L172.15488749211642 195.05502419191959L171.7727563010458 196.06818945823284Z " fill="black"></path><path d="M260.56983374301836 197.97329315608147L260.56983374301836 196.02779668047884L261.12058992416314 196.02779668047884Q261.48521722271425 196.02779668047884 261.66889345531774 196.13707586337793Q261.85256968792123 196.24608252961144 261.85256968792123 196.50824356190304L261.85256968792123 196.50824356190304Q261.85256968792123 196.62133797812032 261.8092395380934 196.71126847776299Q261.7659093882656 196.80092646074002 261.6833368385937 196.85951754384052Q261.6010368055874 196.91810862694106 261.4797668894026 196.9407275101845L261.4797668894026 196.9407275101845L261.4797668894026 196.95408082679813Q261.60757720556137 196.97397454338574 261.70595572183714 197.02711529317457Q261.80460675477843 197.080528559629 261.86047267122314 197.1761819092489Q261.91633858766784 197.27210777553438 261.91633858766784 197.4198118082808L261.91633858766784 197.4198118082808Q261.91633858766784 197.59940029090052 261.8332210046648 197.72312285707557Q261.7501034216617 197.84684542325058 261.59831163893153 197.910069289666Q261.44651985620135 197.97329315608147 261.2391346736921 197.97329315608147L261.2391346736921 197.97329315608147L260.56983374301836 197.97329315608147ZM260.79602257545287 196.22073847971217L260.79602257545287 196.8622427104964L261.16855285730594 196.8622427104964Q261.42253838963 196.8622427104964 261.5203718725746 196.77830757749658Q261.61820535551914 196.69464496116234 261.61820535551914 196.53358761180235L261.61820535551914 196.53358761180235Q261.61820535551914 196.36707992913065 261.5018407393149 196.29404546275418Q261.3854761231106 196.22073847971217 261.1312180741209 196.22073847971217L261.1312180741209 196.22073847971217L260.79602257545287 196.22073847971217ZM261.1805435905916 197.05245934307385L260.79602257545287 197.05245934307385L260.79602257545287 197.78035135684814L261.2004373071792 197.78035135684814Q261.459873172815 197.78035135684814 261.56778977238616 197.6784301239198Q261.6754338552918 197.57678140765705 261.6754338552918 197.40373332501136L261.6754338552918 197.40373332501136Q261.6754338552918 197.29336407544992 261.6269258888178 197.2148792757618Q261.57841792234393 197.13639447607366 261.4699562894416 197.09442690957377Q261.3614946565392 197.05245934307385 261.1805435905916 197.05245934307385L261.1805435905916 197.05245934307385ZM263.4279885316611 197.45578400813787L263.4279885316611 197.45578400813787Q263.4279885316611 197.628559574118 263.34214578200215 197.75037452363392Q263.2563030323433 197.8721894731499 263.10205859962286 197.9359583728965Q262.9475416502369 197.99999978930867 262.7387938843997 197.99999978930867L262.7387938843997 197.99999978930867Q262.62815211817264 197.99999978930867 262.5297736018969 197.9893716393509Q262.43139508562115 197.97874348939314 262.3488225359493 197.95857725613996Q262.2662499862774 197.93868353955233 262.2038436698587 197.90952425633486L262.2038436698587 197.90952425633486L262.2038436698587 197.69260099053017Q262.30358476946236 197.73375100703333 262.447201052225 197.76890565689362Q262.59108985165324 197.80433282341951 262.7480594510295 197.80433282341951L262.7480594510295 197.80433282341951Q262.89440090044803 197.80433282341951 262.9955045833796 197.76509042357546Q263.0966082663112 197.72584802373137 263.1492039827688 197.65199600735818Q263.2017996992265 197.57814399098498 263.2017996992265 197.47431514139754L263.2017996992265 197.47431514139754Q263.2017996992265 197.3745740417939 263.1579245160675 197.3072624253947Q263.1140493329085 197.24022332566108 263.0121280999802 197.18490244254758Q262.91020686705184 197.1295815594341 262.7347061344159 197.06717524301538L262.7347061344159 197.06717524301538Q262.6109835682409 197.0233000598564 262.5164202852833 196.97070434339872Q262.42185700232574 196.91810862694106 262.35808810257913 196.85161456053862Q262.2943192028325 196.78512049413615 262.26161720296244 196.69709761115263Q262.2289152030924 196.60934724483462 262.2289152030924 196.49625282861734L262.2289152030924 196.49625282861734Q262.2289152030924 196.34064581256902 262.3082175527773 196.22945901301085Q262.38724738579657 196.11827221345266 262.52786598523784 196.059136097021Q262.6682120680135 195.99999998058928 262.85052571728903 195.99999998058928L262.85052571728903 195.99999998058928Q263.0061327333374 195.99999998058928 263.13857583281106 196.02915926380678Q263.2710189322848 196.0585910636898 263.3813881818462 196.1076440634949L263.3813881818462 196.1076440634949L263.31080636546005 196.30194844605614Q263.2056149325447 196.25807326289714 263.0878877330125 196.22891397967967Q262.9701605334803 196.19948217979663 262.84507538397736 196.19948217979663L262.84507538397736 196.19948217979663Q262.7199902344744 196.19948217979663 262.6341474848155 196.23599941298485Q262.5483047351566 196.27278916283865 262.5030669686697 196.33928322924112Q262.4578292021828 196.40577729564353 262.4578292021828 196.49761541194528L262.4578292021828 196.49761541194528Q262.4578292021828 196.6000816782048 262.50115935201063 196.66793832793513Q262.5444895018384 196.7357949776655 262.6395978181272 196.78839069412317Q262.7347061344159 196.84098641058085 262.89167573379217 196.89821491035343L262.89167573379217 196.89821491035343Q263.06336123310996 196.96062122677213 263.1829960493012 197.03065800982716Q263.3029033821581 197.1004222762166 263.36530969857677 197.20098092581702Q263.4279885316611 197.30126705875188 263.4279885316611 197.45578400813787ZM265.2789217243061 197.97329315608147L265.04455739190405 197.97329315608147L264.8052877595215 197.35577039186862L264.0253450626207 197.35577039186862L263.78716549690046 197.97329315608147L263.5582514978101 197.97329315608147L264.3193905447856 196.0198936971769L264.5229604939767 196.0198936971769L265.2789217243061 197.97329315608147ZM264.1013772123186 197.15492560933336L264.73743110979115 197.15492560933336L264.50987969402865 196.54149059510428Q264.5017041940612 196.51750912853288 264.48371809413266 196.46300579541614Q264.4657319942041 196.4085024622994 264.4472008609444 196.3499113791989Q264.4286697276847 196.29132029609838 264.41667899439904 196.25534809624128L264.41667899439904 196.25534809624128Q264.4033256777854 196.30985142935805 264.38806474451275 196.36380972914364Q264.37280381124003 196.41776802892923 264.3580879112985 196.46355082874732Q264.34337201135696 196.50960614523098 264.3327438613992 196.54149059510428L264.3327438613992 196.54149059510428L264.1013772123186 197.15492560933336ZM266.79438690161754 196.02779668047884L267.01948566738974 196.02779668047884L267.01948566738974 197.2865511588103Q267.01948566738974 197.49284627465727 266.9360955677211 197.6539036240173Q266.85297798471805 197.81496097337728 266.685380235384 197.9073441230102Q266.51778248605 197.99999978930867 266.26488702038824 197.99999978930867L266.26488702038824 197.99999978930867Q265.90434747182087 197.99999978930867 265.7160384559025 197.80433282341951Q265.5277294399841 197.60866585753035 265.5277294399841 197.28137334216424L265.5277294399841 197.28137334216424L265.5277294399841 196.02779668047884L265.75528085574655 196.02779668047884L265.75528085574655 197.28791374213824Q265.75528085574655 197.5356313911539 265.88636137189235 197.66998210728673Q266.01744188803815 197.80433282341951 266.2782403370018 197.80433282341951L266.2782403370018 197.80433282341951Q266.45646623629364 197.80433282341951 266.57037820250764 197.73974637367616Q266.68401765205607 197.67515992393282 266.7393385351696 197.55879530772853Q266.79438690161754 197.44243069152424 266.79438690161754 197.28927632546618L266.79438690161754 197.28927632546618L266.79438690161754 196.02779668047884ZM268.93282517645343 196.02779668047884L268.93282517645343 197.97329315608147L268.7172644939767 197.97329315608147L268.7172644939767 196.59463134489312Q268.7172644939767 196.51614654520498 268.71780952730785 196.45973559542915Q268.71862707730463 196.40305212898772 268.7205346939637 196.3559067458417Q268.72271482728837 196.30876136269572 268.72653006060654 196.25943584622507L268.72653006060654 196.25943584622507Q268.6853800441034 196.30194844605614 268.64940784424635 196.33192527927034Q268.61343564438926 196.36190211248456 268.5602948946004 196.40577729564353L268.5602948946004 196.40577729564353L268.3379212954841 196.58400319493535L268.22237422927657 196.43384651219867L268.74914894385 196.02779668047884L268.93282517645343 196.02779668047884ZM271.04046906807844 197.3225233586674L271.04046906807844 197.5222780745403L270.7491487525694 197.5222780745403L270.7491487525694 197.97329315608147L270.5335880700926 197.97329315608147L270.5335880700926 197.5222780745403L269.5928605404974 197.5222780745403L269.5928605404974 197.33587667528099L270.5188721701511 196.01716853052108L270.7491487525694 196.01716853052108L270.7491487525694 197.3225233586674L271.04046906807844 197.3225233586674ZM269.8125089729579 197.3225233586674L270.5335880700926 197.3225233586674L270.5335880700926 196.68646946119486Q270.5335880700926 196.6134349948184 270.53495065342054 196.55402636172113Q270.53631323674847 196.49489024528944 270.5390384034043 196.4436571121597Q270.5414910533945 196.39242397902996 270.5436711867192 196.34582362921512Q270.5455788033783 196.29922327940028 270.5469413867062 196.25398551291337L270.5469413867062 196.25398551291337L270.53631323674847 196.25398551291337Q270.51096918684914 196.30739877936782 270.4782671869791 196.36653489579948Q270.4458377037746 196.42567101223116 270.4125906705734 196.472271362046L270.4125906705734 196.472271362046L269.8125089729579 197.3225233586674ZM271.84166806489475 196.78375791080825L271.84166806489475 196.78375791080825Q272.03978768077417 196.78375791080825 272.18640164685826 196.85079701054187Q272.3327430962767 196.91810862694106 272.41313551262397 197.04591894309985Q272.49352792897116 197.17345674259306 272.49352792897116 197.35577039186862L272.49352792897116 197.35577039186862Q272.49352792897116 197.55552510774152 272.4071401459811 197.69995894050095Q272.3207523629911 197.84412025659475 272.1583324303031 197.9220600229517Q271.99591249761517 197.99999978930867 271.76972366518066 197.99999978930867L271.76972366518066 197.99999978930867Q271.61820439911605 197.99999978930867 271.4876689163014 197.97329315608147Q271.3574059501524 197.94658652285426 271.2680204838409 197.89344577306542L271.2680204838409 197.89344577306542L271.2680204838409 197.6833354239003Q271.3653089334543 197.74165399033524 271.5037473995709 197.7762636068644Q271.6419133490218 197.81087322339351 271.77244883183647 197.81087322339351L271.77244883183647 197.81087322339351Q271.92015286458286 197.81087322339351 272.03133966414106 197.76372784024755Q272.1422539470337 197.71658245710154 272.2041152301212 197.62011155748488Q272.2659765132087 197.5236406578682 272.2659765132087 197.37702669178415L272.2659765132087 197.37702669178415Q272.2659765132087 197.1829948258885 272.14688673034857 197.0769858429764Q272.02779694748847 196.9712493767299 271.77108624850854 196.9712493767299L271.77108624850854 196.9712493767299Q271.6885136988367 196.9712493767299 271.5901351825609 196.9846026933435Q271.4917566662852 196.9979560099571 271.427715249873 197.01376197656097L271.427715249873 197.01376197656097L271.31598341698367 196.9407275101845L271.3906529833536 196.02779668047884L272.3578146295105 196.02779668047884L272.3578146295105 196.23027656300758L271.57950703260315 196.23027656300758L271.5301815161325 196.81700494400945Q271.5808696159311 196.8063767940517 271.6607169989471 196.7949310940972Q271.74056438196317 196.78375791080825 271.84166806489475 196.78375791080825ZM274.0000000563183 197.77381095687412L274.0000000563183 197.97329315608147L272.9167463106228 197.97329315608147L272.9167463106228 196.02779668047884L274.0000000563183 196.02779668047884L274.0000000563183 196.22755139635177L273.14293514305734 196.22755139635177L273.14293514305734 196.85679237718472L273.9506745398477 196.85679237718472L273.9506745398477 197.05382192640178L273.14293514305734 197.05382192640178L273.14293514305734 197.77381095687412L274.0000000563183 197.77381095687412Z " fill="black"></path></svg>